<svg width="348" height="495" viewBox="0 0 348 495" fill="none" xmlns="http://www.w3.org/2000/svg">
<path fill-rule="evenodd" clip-rule="evenodd" d="M55.6866 -124.375C117.975 -124.733 184.145 -132.547 237.886 -101.052C291.538 -69.6089 341.682 -15.6151 346.986 46.3448C352.4 109.576 290.208 156.328 264.902 214.527C250.496 247.658 239.851 280.431 230.079 315.212C216.598 363.195 239.147 432.623 196.418 458.281C154.013 483.746 104.817 414.202 55.6866 419.935C-3.95575 426.896 -46.1603 503.436 -105.38 493.503C-160.832 484.201 -205.31 427.967 -219.997 373.693C-234.515 320.041 -192.284 268.924 -180.872 214.527C-172.069 172.564 -167.914 131.97 -160.431 89.7514C-149.07 25.6567 -171.547 -53.1471 -125.306 -98.9618C-81.2783 -142.584 -6.29107 -124.018 55.6866 -124.375Z" fill="url(#paint0_linear_653_1284)"/>
<defs>
<linearGradient id="paint0_linear_653_1284" x1="-357.406" y1="186.159" x2="456.902" y2="186.159" gradientUnits="userSpaceOnUse">
<stop offset="0.31" stop-color="#E6006E"/>
<stop offset="0.685" stop-color="#ED5A4B"/>
<stop offset="1" stop-color="#F4B628"/>
</linearGradient>
</defs>
</svg>
