<svg width="202" height="330" viewBox="0 0 202 330" fill="none" xmlns="http://www.w3.org/2000/svg">
<path fill-rule="evenodd" clip-rule="evenodd" d="M51.2537 4.99544C72.2457 8.47027 90.9123 17.6629 109.93 27.1899C130.028 37.2581 154.826 43.0265 166.024 62.4903C177.22 81.9506 163.41 106.721 168.291 128.627C175.021 158.827 211.093 185.424 199.842 214.251C189.226 241.449 144.659 232.094 121.137 249.438C93.273 269.983 84.1833 313.073 51.2537 323.81C17.7345 334.74 -28.5739 332.668 -51.1199 305.606C-75.8656 275.904 -47.1924 228.847 -58.6127 191.938C-66.5283 166.355 -103.847 155.325 -105.88 128.627C-107.9 102.099 -83.9618 81.3154 -68.6969 59.5051C-54.5705 39.3216 -42.2991 15.9094 -19.8491 5.70736C2.09627 -4.26538 27.4657 1.05777 51.2537 4.99544Z" fill="url(#paint0_linear_653_1289)"/>
<defs>
<linearGradient id="paint0_linear_653_1289" x1="-178.586" y1="166.572" x2="261.18" y2="166.572" gradientUnits="userSpaceOnUse">
<stop offset="0.31" stop-color="#E6006E"/>
<stop offset="0.685" stop-color="#ED5A4B"/>
<stop offset="1" stop-color="#F4B628"/>
</linearGradient>
</defs>
</svg>
