<svg width="253" height="321" viewBox="0 0 253 321" fill="none" xmlns="http://www.w3.org/2000/svg">
<path fill-rule="evenodd" clip-rule="evenodd" d="M67.5499 32.1077C100.719 25.0508 138.455 -15.5692 164.221 6.50247C192.643 30.8495 152.029 82.4017 166.551 116.914C178.267 144.758 221.991 146.765 234.76 174.141C249.033 204.742 264.978 251.317 239.642 273.616C210.147 299.577 161.98 262.362 123.846 271.764C100.273 277.576 90.718 308.781 67.5499 316.045C41.2873 324.279 13.2083 321.101 -13.5955 314.855C-47.2201 307.02 -96.6161 308.105 -107.412 275.274C-119.25 239.27 -61.0708 212.026 -59.8648 174.141C-58.7226 138.262 -114.303 110.032 -101.089 76.6616C-88.7248 45.4367 -40.4319 51.7117 -7.99298 43.1415C17.0387 36.5282 42.2267 37.4953 67.5499 32.1077Z" fill="url(#paint0_linear_653_1282)"/>
<defs>
<linearGradient id="paint0_linear_653_1282" x1="-194.312" y1="162.029" x2="322.556" y2="162.029" gradientUnits="userSpaceOnUse">
<stop offset="0.31" stop-color="#E6006E"/>
<stop offset="0.685" stop-color="#ED5A4B"/>
<stop offset="1" stop-color="#F4B628"/>
</linearGradient>
</defs>
</svg>
