<svg width="253" height="300" viewBox="0 0 253 300" fill="none" xmlns="http://www.w3.org/2000/svg">
<path fill-rule="evenodd" clip-rule="evenodd" d="M112.655 0.123022C142.56 0.437512 176.901 -3.48011 199.354 16.2461C221.919 36.0695 220 71.1637 226.795 100.398C231.88 122.274 230.644 144.033 234.21 166.206C238.563 193.271 260.819 220.218 250.124 245.464C239.631 270.233 208.05 278.171 182.807 287.544C160.328 295.892 136.61 295.343 112.655 296.512C87.507 297.739 61.4718 304.729 38.4321 294.587C14.624 284.108 4.02838 257.259 -15.5081 240.099C-45.615 213.655 -102.99 205.966 -107.73 166.206C-112.227 128.484 -59.4377 110.03 -34.4277 81.4048C-14.4622 58.5535 -1.67552 29.0954 24.8957 14.4114C51.2786 -0.168387 82.5039 -0.194067 112.655 0.123022Z" fill="url(#paint0_linear_653_1278)"/>
<defs>
<linearGradient id="paint0_linear_653_1278" x1="-193.076" y1="151.429" x2="322.364" y2="151.429" gradientUnits="userSpaceOnUse">
<stop offset="0.31" stop-color="#E6006E"/>
<stop offset="0.685" stop-color="#ED5A4B"/>
<stop offset="1" stop-color="#F4B628"/>
</linearGradient>
</defs>
</svg>
