<svg width="367" height="543" viewBox="0 0 367 543" fill="none" xmlns="http://www.w3.org/2000/svg">
<path fill-rule="evenodd" clip-rule="evenodd" d="M323.082 -74.4501C260.984 -79.8147 188.761 -122.473 139.54 -84.2337C88.2156 -44.3595 121.659 42.7873 95.5614 102.311C73.4556 152.732 3.78153 178.736 0.161438 233.671C-3.43991 288.321 54.1514 325.909 77.5639 375.421C103.532 430.338 86.1187 528.617 145.558 541.151C215.555 555.912 256.976 454.534 323.082 427.195C357.298 413.045 396.358 432.015 432.173 422.621C476.01 411.124 529.15 404.92 553.573 366.744C577.893 328.731 548.371 278.554 553.057 233.671C558.45 182.022 594.401 134.218 583.146 83.5229C570.903 28.3765 537.465 -24.7013 489.186 -54.0284C440.682 -83.4917 379.623 -69.5656 323.082 -74.4501Z" fill="url(#paint0_linear_653_1281)"/>
<defs>
<linearGradient id="paint0_linear_653_1281" x1="723.255" y1="224.366" x2="-112.465" y2="224.366" gradientUnits="userSpaceOnUse">
<stop offset="0.31" stop-color="#E6006E"/>
<stop offset="0.685" stop-color="#ED5A4B"/>
<stop offset="1" stop-color="#F4B628"/>
</linearGradient>
</defs>
</svg>
