<svg width="117" height="39" viewBox="0 0 117 39" fill="none" xmlns="http://www.w3.org/2000/svg">
<g clip-path="url(#clip0_214_146)">
<path d="M107.381 0.00012675H9.29631C8.93878 0.00012675 8.58554 0.00012675 8.22895 0.00207675C7.93046 0.00402675 7.63434 0.0096915 7.33297 0.0144593C6.67828 0.0221635 6.02512 0.0797611 5.37917 0.186752C4.73414 0.296071 4.10931 0.50217 3.52581 0.798077C2.94304 1.09649 2.41054 1.48424 1.94763 1.94727C1.4823 2.409 1.0944 2.94269 0.798866 3.52783C0.502515 4.11181 0.297024 4.73759 0.189491 5.38357C0.0809357 6.02873 0.0225209 6.68133 0.0147713 7.33552C0.00572325 7.63446 0.00476775 7.93438 0 8.23336V30.7698C0.00476775 31.0725 0.00572325 31.3658 0.0147713 31.6686C0.0225233 32.3228 0.0809381 32.9753 0.189491 33.6205C0.296728 34.2668 0.50223 34.893 0.798866 35.4772C1.09427 36.0604 1.48222 36.5919 1.94763 37.0511C2.40878 37.5162 2.94163 37.9042 3.52581 38.2003C4.1093 38.497 4.73406 38.7044 5.37917 38.8154C6.02523 38.9215 6.67832 38.9791 7.33297 38.9877C7.63434 38.9944 7.93046 38.9982 8.22895 38.9982C8.58553 39.0001 8.9388 39.0001 9.29631 39.0001H107.381C107.732 39.0001 108.088 39.0001 108.438 38.9982C108.735 38.9982 109.04 38.9944 109.337 38.9877C109.991 38.9796 110.642 38.922 111.287 38.8154C111.934 38.7036 112.561 38.4963 113.148 38.2003C113.731 37.904 114.264 37.516 114.724 37.0511C115.189 36.5901 115.577 36.059 115.876 35.4772C116.171 34.8925 116.374 34.2664 116.48 33.6205C116.589 32.9753 116.649 32.3228 116.661 31.6686C116.665 31.3658 116.665 31.0725 116.665 30.7698C116.672 30.4155 116.672 30.0633 116.672 29.7033V9.29785C116.672 8.9408 116.672 8.5866 116.665 8.23336C116.665 7.93438 116.665 7.63446 116.661 7.33548C116.649 6.68124 116.589 6.02878 116.48 5.38353C116.374 4.73793 116.171 4.11219 115.876 3.52779C115.275 2.35494 114.32 1.40025 113.148 0.797989C112.561 0.502805 111.934 0.296761 111.287 0.186664C110.643 0.079202 109.991 0.0215843 109.337 0.0143228C109.04 0.00956475 108.735 0.00385125 108.438 0.00195C108.088 0 107.732 0.00012675 107.381 0.00012675Z" fill="#A6A6A6"/>
<path d="M8.23372 38.1469C7.93666 38.1469 7.64677 38.1431 7.35204 38.1365C6.74148 38.1285 6.13234 38.0754 5.52963 37.9774C4.96763 37.8806 4.4232 37.7006 3.91431 37.4432C3.41008 37.188 2.95018 36.8533 2.55223 36.4521C2.14852 36.0555 1.81242 35.5956 1.55723 35.0905C1.29924 34.5821 1.12069 34.0372 1.02781 33.4747C0.927504 32.8703 0.873236 32.2592 0.86547 31.6466C0.859289 31.4409 0.851196 30.7563 0.851196 30.7563V8.23325C0.851196 8.23325 0.859815 7.55913 0.865519 7.36108C0.872954 6.74944 0.926907 6.13926 1.02691 5.53581C1.11996 4.97179 1.29865 4.4253 1.55678 3.91526C1.81103 3.41052 2.14527 2.95024 2.54655 2.55226C2.94737 2.15051 3.40874 1.81411 3.91383 1.55535C4.42155 1.29882 4.96495 1.12004 5.52581 1.02501C6.13051 0.926115 6.74176 0.872646 7.35444 0.865054L8.2342 0.853149H108.434L109.324 0.865532C109.931 0.872746 110.537 0.925738 111.136 1.02406C111.702 1.12028 112.251 1.3003 112.765 1.55821C113.777 2.07969 114.6 2.90471 115.12 3.91764C115.374 4.42416 115.549 4.96619 115.641 5.52534C115.743 6.13374 115.799 6.74872 115.811 7.36537C115.814 7.64149 115.814 7.93808 115.814 8.23325C115.821 8.59888 115.821 8.94689 115.821 9.29775V29.7032C115.821 30.0574 115.821 30.4031 115.814 30.7515C115.814 31.0686 115.814 31.359 115.81 31.658C115.798 32.2636 115.743 32.8676 115.643 33.4651C115.552 34.0317 115.375 34.5808 115.117 35.0934C114.86 35.593 114.526 36.049 114.126 36.4444C113.728 36.8479 113.267 37.1845 112.762 37.4414C112.25 37.7007 111.702 37.8814 111.136 37.9774C110.533 38.0759 109.924 38.129 109.313 38.1365C109.028 38.1431 108.729 38.1469 108.438 38.1469L107.381 38.1488L8.23372 38.1469Z" fill="black"/>
<path d="M24.1497 19.7933C24.1602 18.9795 24.3763 18.1815 24.778 17.4737C25.1798 16.7659 25.754 16.1712 26.4473 15.745C26.0069 15.116 25.4258 14.5983 24.7503 14.2331C24.0748 13.8679 23.3235 13.6653 22.5559 13.6413C20.9187 13.4694 19.3314 14.621 18.4971 14.621C17.6466 14.621 16.3621 13.6583 14.9788 13.6868C14.0841 13.7157 13.2121 13.9759 12.4478 14.442C11.6835 14.9081 11.053 15.5642 10.6177 16.3465C8.73207 19.6112 10.1386 24.4092 11.9449 27.0481C12.8486 28.3404 13.9048 29.7838 15.2868 29.7326C16.6392 29.6765 17.1443 28.8702 18.7767 28.8702C20.394 28.8702 20.8679 29.7326 22.278 29.7001C23.7291 29.6765 24.6434 28.4021 25.5155 27.0976C26.1648 26.1769 26.6645 25.1593 26.9959 24.0825C26.1528 23.7259 25.4334 23.129 24.9272 22.3663C24.4211 21.6035 24.1507 20.7087 24.1497 19.7933Z" fill="white"/>
<path d="M21.4863 11.9057C22.2776 10.9558 22.6674 9.73495 22.573 8.50232C21.3642 8.62928 20.2475 9.20703 19.4456 10.1204C19.0535 10.5667 18.7532 11.0858 18.5619 11.6481C18.3705 12.2105 18.2919 12.805 18.3305 13.3978C18.9351 13.404 19.5333 13.273 20.0799 13.0145C20.6266 12.756 21.1075 12.3769 21.4863 11.9057Z" fill="white"/>
<path d="M41.2447 26.4612H36.6297L35.5214 29.7338H33.5666L37.9379 17.6262H39.9688L44.3401 29.7338H42.3521L41.2447 26.4612ZM37.1076 24.9511H40.7658L38.9625 19.64H38.912L37.1076 24.9511Z" fill="white"/>
<path d="M53.7807 25.3205C53.7807 28.0637 52.3125 29.8261 50.0968 29.8261C49.5356 29.8555 48.9774 29.7262 48.4862 29.453C47.995 29.1799 47.5906 28.774 47.3194 28.2817H47.2775V32.654H45.4655V20.9064H47.2194V22.3746H47.2528C47.5364 21.8847 47.9476 21.4808 48.4426 21.206C48.9375 20.9312 49.4977 20.7958 50.0635 20.814C52.3039 20.814 53.7807 22.585 53.7807 25.3205ZM51.9183 25.3205C51.9183 23.5334 50.9947 22.3584 49.5855 22.3584C48.2011 22.3584 47.2699 23.5581 47.2699 25.3205C47.2699 27.0991 48.2011 28.2903 49.5855 28.2903C50.9947 28.2903 51.9183 27.1239 51.9183 25.3205Z" fill="white"/>
<path d="M63.4964 25.3205C63.4964 28.0637 62.0282 29.8261 59.8126 29.8261C59.2513 29.8554 58.6931 29.7262 58.2019 29.453C57.7107 29.1799 57.3064 28.774 57.0351 28.2817H56.9932V32.654H55.1813V20.9064H56.9351V22.3746H56.9684C57.2521 21.8847 57.6633 21.4808 58.1583 21.206C58.6532 20.9312 59.2134 20.7958 59.7792 20.814C62.0196 20.814 63.4964 22.585 63.4964 25.3205ZM61.634 25.3205C61.634 23.5333 60.7104 22.3584 59.3012 22.3584C57.9168 22.3584 56.9856 23.5581 56.9856 25.3205C56.9856 27.0991 57.9168 28.2903 59.3012 28.2903C60.7104 28.2903 61.634 27.1239 61.634 25.3205Z" fill="white"/>
<path d="M69.9177 26.3603C70.052 27.5609 71.2184 28.3493 72.8122 28.3493C74.3395 28.3493 75.4383 27.5609 75.4383 26.4783C75.4383 25.5385 74.7756 24.9758 73.2064 24.5902L71.6373 24.2122C69.414 23.6752 68.3819 22.6354 68.3819 20.9482C68.3819 18.8592 70.2024 17.4243 72.7875 17.4243C75.3459 17.4243 77.0998 18.8592 77.1588 20.9482H75.3297C75.2202 19.7399 74.2214 19.0106 72.7618 19.0106C71.3021 19.0106 70.3033 19.7485 70.3033 20.8225C70.3033 21.6785 70.9413 22.1822 72.5018 22.5678L73.8358 22.8953C76.3199 23.4828 77.3521 24.4807 77.3521 26.2517C77.3521 28.5168 75.5477 29.9355 72.678 29.9355C69.9929 29.9355 68.18 28.5501 68.0629 26.3602L69.9177 26.3603Z" fill="white"/>
<path d="M81.2626 18.8174V20.9064H82.9412V22.3413H81.2626V27.2077C81.2626 27.9637 81.5987 28.316 82.3366 28.316C82.5359 28.3125 82.7348 28.2985 82.9326 28.2741V29.7004C82.6009 29.7624 82.2637 29.7905 81.9262 29.7842C80.139 29.7842 79.4421 29.1129 79.4421 27.401V22.3413H78.1586V20.9064H79.442V18.8174H81.2626Z" fill="white"/>
<path d="M83.9134 25.3206C83.9134 22.5431 85.5492 20.7979 88.1 20.7979C90.6594 20.7979 92.2875 22.5431 92.2875 25.3206C92.2875 28.1056 90.6679 29.8433 88.1 29.8433C85.5329 29.8433 83.9134 28.1056 83.9134 25.3206ZM90.4413 25.3206C90.4413 23.4153 89.5682 22.2908 88.1 22.2908C86.6318 22.2908 85.7596 23.4239 85.7596 25.3206C85.7596 27.2334 86.6318 28.3493 88.1 28.3493C89.5682 28.3493 90.4413 27.2334 90.4413 25.3206Z" fill="white"/>
<path d="M93.7814 20.9064H95.5096V22.4089H95.5515C95.6684 21.9396 95.9433 21.5249 96.33 21.2345C96.7167 20.9441 97.1915 20.7956 97.6748 20.814C97.8836 20.8133 98.0918 20.836 98.2956 20.8816V22.5765C98.032 22.4959 97.757 22.4589 97.4815 22.467C97.2182 22.4563 96.9558 22.5027 96.7122 22.603C96.4686 22.7033 96.2496 22.8552 96.0702 23.0481C95.8909 23.2411 95.7554 23.4705 95.673 23.7208C95.5907 23.971 95.5635 24.2361 95.5933 24.4979V29.7338H93.7814L93.7814 20.9064Z" fill="white"/>
<path d="M106.65 27.1411C106.406 28.7435 104.845 29.8433 102.849 29.8433C100.281 29.8433 98.6869 28.1227 98.6869 25.3624C98.6869 22.5936 100.289 20.7979 102.773 20.7979C105.215 20.7979 106.751 22.4755 106.751 25.152V25.7728H100.516V25.8823C100.487 26.2072 100.528 26.5345 100.635 26.8424C100.743 27.1504 100.914 27.4319 101.139 27.6684C101.364 27.9049 101.636 28.0909 101.938 28.214C102.24 28.3372 102.565 28.3947 102.891 28.3827C103.319 28.4228 103.749 28.3236 104.116 28.0999C104.483 27.8762 104.768 27.5399 104.929 27.1411L106.65 27.1411ZM100.525 24.5065H104.938C104.954 24.2144 104.91 23.922 104.808 23.6479C104.706 23.3737 104.548 23.1236 104.345 22.9132C104.141 22.7028 103.897 22.5367 103.626 22.4254C103.356 22.314 103.065 22.2598 102.773 22.2661C102.477 22.2643 102.185 22.321 101.912 22.4329C101.639 22.5447 101.391 22.7096 101.182 22.9179C100.973 23.1262 100.807 23.3738 100.694 23.6464C100.581 23.9191 100.524 24.2114 100.525 24.5065Z" fill="white"/>
<path d="M36.8805 8.51271C37.2604 8.48544 37.6416 8.54283 37.9966 8.68073C38.3516 8.81863 38.6716 9.0336 38.9335 9.31013C39.1953 9.58666 39.3926 9.91787 39.5109 10.2799C39.6293 10.6418 39.6659 11.0256 39.618 11.4034C39.618 13.262 38.6134 14.3304 36.8805 14.3304H34.7791V8.51271H36.8805ZM35.6827 13.5076H36.7796C37.051 13.5239 37.3227 13.4793 37.5748 13.3774C37.8268 13.2754 38.053 13.1184 38.2368 12.918C38.4206 12.7176 38.5573 12.4787 38.6372 12.2187C38.717 11.9588 38.7378 11.6843 38.6982 11.4153C38.7349 11.1473 38.712 10.8745 38.6309 10.6165C38.5499 10.3584 38.4128 10.1215 38.2294 9.92269C38.0461 9.72385 37.821 9.56804 37.5703 9.46641C37.3197 9.36478 37.0497 9.31985 36.7796 9.33483H35.6827V13.5076Z" fill="white"/>
<path d="M40.6387 12.1332C40.6111 11.8447 40.6441 11.5536 40.7356 11.2786C40.8271 11.0035 40.975 10.7507 41.17 10.5362C41.3649 10.3217 41.6025 10.1503 41.8676 10.0331C42.1326 9.9158 42.4193 9.85522 42.7091 9.85522C42.999 9.85522 43.2856 9.9158 43.5506 10.0331C43.8157 10.1503 44.0533 10.3217 44.2483 10.5362C44.4432 10.7507 44.5912 11.0035 44.6827 11.2786C44.7742 11.5536 44.8072 11.8447 44.7796 12.1332C44.8077 12.422 44.7751 12.7135 44.6838 12.989C44.5926 13.2644 44.4447 13.5178 44.2497 13.7327C44.0547 13.9476 43.8169 14.1193 43.5516 14.2368C43.2863 14.3543 42.9993 14.4151 42.7091 14.4151C42.4189 14.4151 42.132 14.3543 41.8666 14.2368C41.6013 14.1193 41.3635 13.9476 41.1685 13.7327C40.9735 13.5178 40.8257 13.2644 40.7344 12.989C40.6432 12.7135 40.6105 12.422 40.6387 12.1332ZM43.8883 12.1332C43.8883 11.1815 43.4608 10.625 42.7105 10.625C41.9574 10.625 41.5337 11.1815 41.5337 12.1332C41.5337 13.0925 41.9574 13.6447 42.7105 13.6447C43.4608 13.6447 43.8883 13.0887 43.8883 12.1332Z" fill="white"/>
<path d="M50.2839 14.3303H49.3851L48.4777 11.0968H48.4092L47.5056 14.3303H46.6153L45.4051 9.93994H46.284L47.0704 13.29H47.1352L48.0378 9.93994H48.869L49.7717 13.29H49.8402L50.6229 9.93994H51.4893L50.2839 14.3303Z" fill="white"/>
<path d="M52.5072 9.9399H53.3413V10.6373H53.406C53.5159 10.3868 53.7011 10.1769 53.936 10.0366C54.1708 9.89644 54.4436 9.83299 54.7162 9.85515C54.9298 9.83909 55.1443 9.8713 55.3438 9.94939C55.5433 10.0275 55.7226 10.1495 55.8686 10.3063C56.0145 10.4631 56.1233 10.6508 56.1869 10.8553C56.2504 11.0599 56.2672 11.2762 56.2358 11.4881V14.3302H55.3694V11.7057C55.3694 11.0001 55.0628 10.6493 54.422 10.6493C54.2769 10.6425 54.1322 10.6672 53.9975 10.7216C53.8629 10.776 53.7417 10.8589 53.6421 10.9646C53.5426 11.0703 53.467 11.1963 53.4207 11.3339C53.3743 11.4715 53.3583 11.6175 53.3737 11.7618V14.3303H52.5072L52.5072 9.9399Z" fill="white"/>
<path d="M57.6164 8.22607H58.4829V14.3303H57.6164V8.22607Z" fill="white"/>
<path d="M59.6874 12.1333C59.6598 11.8447 59.6928 11.5536 59.7843 11.2786C59.8758 11.0036 60.0238 10.7507 60.2188 10.5362C60.4137 10.3217 60.6514 10.1503 60.9165 10.0331C61.1815 9.9158 61.4682 9.85522 61.758 9.85522C62.0479 9.85522 62.3346 9.9158 62.5996 10.0331C62.8647 10.1503 63.1023 10.3217 63.2973 10.5362C63.4923 10.7507 63.6402 11.0036 63.7318 11.2786C63.8233 11.5536 63.8563 11.8447 63.8287 12.1333C63.8568 12.4221 63.8242 12.7136 63.7329 12.9891C63.6416 13.2645 63.4937 13.5179 63.2987 13.7327C63.1037 13.9476 62.8659 14.1194 62.6005 14.2369C62.3352 14.3544 62.0482 14.4151 61.758 14.4151C61.4678 14.4151 61.1809 14.3544 60.9155 14.2369C60.6502 14.1194 60.4124 13.9476 60.2174 13.7327C60.0224 13.5179 59.8745 13.2645 59.7832 12.9891C59.6919 12.7136 59.6593 12.4221 59.6874 12.1333ZM62.937 12.1333C62.937 11.1816 62.5095 10.6251 61.7592 10.6251C61.0061 10.6251 60.5824 11.1816 60.5824 12.1333C60.5824 13.0926 61.0061 13.6448 61.7592 13.6448C62.5095 13.6448 62.937 13.0888 62.937 12.1333Z" fill="white"/>
<path d="M64.7409 13.0887C64.7409 12.2984 65.3293 11.8428 66.3738 11.7781L67.563 11.7095V11.3306C67.563 10.8669 67.2564 10.605 66.6642 10.605C66.1805 10.605 65.8454 10.7826 65.7492 11.093H64.9104C64.9989 10.3389 65.7083 9.85522 66.7042 9.85522C67.8049 9.85522 68.4257 10.4032 68.4257 11.3306V14.3303H67.5916V13.7133H67.5231C67.3839 13.9346 67.1885 14.1151 66.9568 14.2362C66.7251 14.3573 66.4655 14.4147 66.2043 14.4027C66.02 14.4218 65.8337 14.4022 65.6575 14.3449C65.4813 14.2877 65.319 14.1942 65.1811 14.0704C65.0432 13.9466 64.9328 13.7953 64.857 13.6262C64.7811 13.4571 64.7416 13.274 64.7409 13.0887ZM67.563 12.7136V12.3465L66.4909 12.4151C65.8863 12.4555 65.6121 12.6612 65.6121 13.0482C65.6121 13.4434 65.9549 13.6733 66.4262 13.6733C66.5643 13.6873 66.7038 13.6734 66.8364 13.6323C66.969 13.5913 67.092 13.524 67.1981 13.4344C67.3042 13.3449 67.3911 13.2349 67.4538 13.1111C67.5165 12.9872 67.5537 12.8521 67.563 12.7136Z" fill="white"/>
<path d="M69.5645 12.1332C69.5645 10.746 70.2776 9.86712 71.3869 9.86712C71.6612 9.85447 71.9336 9.92019 72.172 10.0566C72.4104 10.193 72.605 10.3944 72.7332 10.6374H72.798V8.22607H73.6644V14.3303H72.8341V13.6367H72.7656C72.6275 13.878 72.4261 14.0769 72.183 14.2119C71.94 14.3469 71.6647 14.4129 71.3869 14.4026C70.27 14.4027 69.5645 13.5238 69.5645 12.1332ZM70.4595 12.1332C70.4595 13.0644 70.8985 13.6248 71.6326 13.6248C72.3628 13.6248 72.8142 13.0564 72.8142 12.137C72.8142 11.222 72.3581 10.6455 71.6326 10.6455C70.9032 10.6455 70.4595 11.2096 70.4595 12.1332Z" fill="white"/>
<path d="M77.2492 12.1332C77.2216 11.8447 77.2546 11.5536 77.3461 11.2786C77.4376 11.0035 77.5856 10.7507 77.7805 10.5362C77.9755 10.3217 78.2131 10.1503 78.4781 10.0331C78.7432 9.9158 79.0298 9.85522 79.3197 9.85522C79.6095 9.85522 79.8962 9.9158 80.1612 10.0331C80.4263 10.1503 80.6639 10.3217 80.8588 10.5362C81.0538 10.7507 81.2017 11.0035 81.2932 11.2786C81.3847 11.5536 81.4177 11.8447 81.3901 12.1332C81.4183 12.422 81.3856 12.7135 81.2944 12.989C81.2031 13.2644 81.0553 13.5178 80.8603 13.7327C80.6653 13.9476 80.4275 14.1193 80.1622 14.2368C79.8968 14.3543 79.6099 14.4151 79.3197 14.4151C79.0295 14.4151 78.7425 14.3543 78.4772 14.2368C78.2119 14.1193 77.9741 13.9476 77.7791 13.7327C77.5841 13.5178 77.4362 13.2644 77.345 12.989C77.2537 12.7135 77.2211 12.422 77.2492 12.1332ZM80.4989 12.1332C80.4989 11.1815 80.0714 10.625 79.3211 10.625C78.568 10.625 78.1443 11.1815 78.1443 12.1332C78.1443 13.0925 78.568 13.6447 79.3211 13.6447C80.0714 13.6447 80.4989 13.0887 80.4989 12.1332Z" fill="white"/>
<path d="M82.5527 9.9399H83.3868V10.6373H83.4515C83.5614 10.3868 83.7466 10.1769 83.9815 10.0366C84.2163 9.89644 84.4891 9.83299 84.7617 9.85515C84.9753 9.83909 85.1898 9.8713 85.3893 9.94939C85.5888 10.0275 85.7681 10.1495 85.9141 10.3063C86.06 10.4631 86.1688 10.6508 86.2324 10.8553C86.2959 11.0599 86.3127 11.2762 86.2813 11.4881V14.3302H85.4149V11.7057C85.4149 11.0001 85.1083 10.6493 84.4675 10.6493C84.3224 10.6425 84.1777 10.6672 84.043 10.7216C83.9084 10.776 83.7872 10.8589 83.6876 10.9646C83.5881 11.0703 83.5125 11.1963 83.4662 11.3339C83.4198 11.4715 83.4038 11.6175 83.4192 11.7618V14.3303H82.5527V9.9399Z" fill="white"/>
<path d="M91.1773 8.84692V9.95998H92.1285V10.6898H91.1773V12.9474C91.1773 13.4072 91.3668 13.6086 91.7981 13.6086C91.9085 13.6083 92.0188 13.6016 92.1285 13.5886V14.3103C91.9729 14.3382 91.8152 14.353 91.6572 14.3546C90.6936 14.3546 90.3099 14.0157 90.3099 13.1692V10.6898H89.6129V9.95994H90.3099V8.84692H91.1773Z" fill="white"/>
<path d="M93.312 8.22607H94.1708V10.6455H94.2394C94.3546 10.3927 94.5449 10.1815 94.7845 10.0407C95.024 9.9 95.3011 9.83654 95.5781 9.85901C95.7906 9.84745 96.003 9.88293 96.2002 9.96292C96.3975 10.0429 96.5746 10.1654 96.719 10.3218C96.8634 10.4781 96.9716 10.6644 97.0357 10.8673C97.0999 11.0702 97.1184 11.2848 97.0901 11.4958V14.3303H96.2228V11.7095C96.2228 11.0082 95.8961 10.6531 95.2839 10.6531C95.135 10.6409 94.9852 10.6614 94.8451 10.7131C94.7049 10.7648 94.5777 10.8465 94.4724 10.9526C94.3671 11.0586 94.2862 11.1863 94.2355 11.3269C94.1847 11.4674 94.1653 11.6173 94.1785 11.7662V14.3303H93.312L93.312 8.22607Z" fill="white"/>
<path d="M102.142 13.1448C102.024 13.5461 101.769 13.8932 101.422 14.1254C101.074 14.3576 100.656 14.4601 100.24 14.415C99.9506 14.4226 99.6631 14.3672 99.3974 14.2527C99.1318 14.1381 98.8942 13.967 98.7012 13.7514C98.5083 13.5358 98.3645 13.2808 98.28 13.0041C98.1955 12.7273 98.1722 12.4355 98.2117 12.1489C98.1732 11.8614 98.1969 11.569 98.2813 11.2914C98.3656 11.0138 98.5086 10.7576 98.7005 10.5401C98.8924 10.3227 99.1289 10.1489 99.3938 10.0308C99.6587 9.91258 99.9459 9.8527 100.236 9.85518C101.458 9.85518 102.195 10.6898 102.195 12.0684V12.3708H99.0944V12.4193C99.0808 12.5804 99.1011 12.7426 99.1538 12.8954C99.2066 13.0483 99.2907 13.1884 99.4008 13.3068C99.5109 13.4252 99.6445 13.5193 99.7931 13.5831C99.9417 13.6469 100.102 13.6789 100.264 13.6771C100.471 13.702 100.681 13.6646 100.867 13.5699C101.053 13.4751 101.206 13.3271 101.308 13.1448L102.142 13.1448ZM99.0944 11.73H101.312C101.323 11.5826 101.303 11.4346 101.253 11.2955C101.203 11.1563 101.125 11.0291 101.023 10.922C100.922 10.8149 100.799 10.7302 100.662 10.6735C100.526 10.6168 100.379 10.5892 100.231 10.5926C100.081 10.5907 99.9326 10.6189 99.7938 10.6754C99.655 10.7319 99.5289 10.8156 99.423 10.9216C99.317 11.0276 99.2334 11.1537 99.1769 11.2925C99.1205 11.4314 99.0924 11.5801 99.0944 11.73Z" fill="white"/>
</g>
<defs>
<clipPath id="clip0_214_146">
<rect width="116.672" height="39" fill="white"/>
</clipPath>
</defs>
</svg>
