<svg width="70" height="39" viewBox="0 0 70 39" fill="none" xmlns="http://www.w3.org/2000/svg">
<rect width="69.6742" height="39" rx="4.38202" fill="black"/>
<g clip-path="url(#clip0_210_190)">
<path d="M15.3371 19.5C15.3371 18.3959 15.7757 17.337 16.5564 16.5563C17.3371 15.7756 18.3959 15.337 19.5 15.337C20.6041 15.337 21.6629 15.7756 22.4436 16.5563C23.2243 17.337 23.6629 18.3959 23.6629 19.5C23.6629 20.604 23.2243 21.6629 22.4436 22.4436C21.6629 23.2243 20.6041 23.6629 19.5 23.6629C18.3959 23.6629 17.3371 23.2243 16.5564 22.4436C15.7757 21.6629 15.3371 20.604 15.3371 19.5Z" fill="#1ABCFE"/>
<path d="M7.01123 27.8259C7.01123 26.7218 7.44982 25.663 8.23052 24.8823C9.01122 24.1016 10.0701 23.663 11.1742 23.663H15.3371V27.8259C15.3371 28.93 14.8985 29.9888 14.1178 30.7695C13.3371 31.5502 12.2782 31.9888 11.1742 31.9888C10.0701 31.9888 9.01122 31.5502 8.23052 30.7695C7.44982 29.9888 7.01123 28.93 7.01123 27.8259V27.8259Z" fill="#0ACF83"/>
<path d="M15.3371 7.01123V15.3371H19.5C20.6041 15.3371 21.6629 14.8985 22.4436 14.1178C23.2243 13.3371 23.6629 12.2782 23.6629 11.1742C23.6629 10.0701 23.2243 9.01122 22.4436 8.23052C21.6629 7.44982 20.6041 7.01123 19.5 7.01123H15.3371Z" fill="#FF7262"/>
<path d="M7.01123 11.1742C7.01123 12.2782 7.44982 13.3371 8.23052 14.1178C9.01122 14.8985 10.0701 15.3371 11.1742 15.3371H15.3371V7.01123H11.1742C10.0701 7.01123 9.01122 7.44982 8.23052 8.23052C7.44982 9.01122 7.01123 10.0701 7.01123 11.1742H7.01123Z" fill="#F24E1E"/>
<path d="M7.01123 19.5C7.01123 20.604 7.44982 21.6629 8.23052 22.4436C9.01122 23.2243 10.0701 23.6629 11.1742 23.6629H15.3371V15.337H11.1742C10.0701 15.337 9.01122 15.7756 8.23052 16.5563C7.44982 17.337 7.01123 18.3959 7.01123 19.5H7.01123Z" fill="#A259FF"/>
</g>
<path d="M30.6435 10.8276H31.441L32.5392 14.2938H32.5514L33.6741 10.8276H34.4532L32.9563 15.2079H32.1036L30.6435 10.8276ZM34.8908 10.8276H35.6577V15.2079H34.8908V10.8276ZM36.5983 10.8276H39.7516V11.4902H37.3651V12.6374H39.5736V13.2631H37.3651V14.5453H39.7945V15.2079H36.5983V10.8276ZM40.033 10.8276H40.8122L41.6036 14.1772H41.6158L42.4992 10.8276H43.2845L44.1434 14.1772H44.1556L44.9716 10.8276H45.7507L44.5421 15.2079H43.763L42.8857 11.8583H42.8735L41.9778 15.2079H41.1864L40.033 10.8276ZM49.8283 11.3491C49.5951 11.3491 49.3927 11.3961 49.2209 11.4902C49.0532 11.5842 48.9162 11.711 48.8099 11.8705C48.7035 12.026 48.6238 12.2039 48.5706 12.4043C48.5215 12.6047 48.497 12.8092 48.497 13.0178C48.497 13.2263 48.5215 13.4308 48.5706 13.6312C48.6238 13.8316 48.7035 14.0116 48.8099 14.1711C48.9162 14.3265 49.0532 14.4513 49.2209 14.5453C49.3927 14.6394 49.5951 14.6864 49.8283 14.6864C50.0614 14.6864 50.2618 14.6394 50.4295 14.5453C50.6012 14.4513 50.7403 14.3265 50.8466 14.1711C50.953 14.0116 51.0307 13.8316 51.0798 13.6312C51.1329 13.4308 51.1595 13.2263 51.1595 13.0178C51.1595 12.8092 51.1329 12.6047 51.0798 12.4043C51.0307 12.2039 50.953 12.026 50.8466 11.8705C50.7403 11.711 50.6012 11.5842 50.4295 11.4902C50.2618 11.3961 50.0614 11.3491 49.8283 11.3491ZM49.8283 10.7233C50.1554 10.7233 50.4479 10.7847 50.7055 10.9074C50.9673 11.0301 51.1881 11.1957 51.3681 11.4043C51.5481 11.6129 51.6851 11.8562 51.7791 12.1343C51.8773 12.4124 51.9264 12.7069 51.9264 13.0178C51.9264 13.3327 51.8773 13.6292 51.7791 13.9073C51.6851 14.1854 51.5481 14.4288 51.3681 14.6373C51.1881 14.8459 50.9673 15.0116 50.7055 15.1343C50.4479 15.2529 50.1554 15.3122 49.8283 15.3122C49.5011 15.3122 49.2066 15.2529 48.9448 15.1343C48.6872 15.0116 48.4684 14.8459 48.2884 14.6373C48.1085 14.4288 47.9694 14.1854 47.8712 13.9073C47.7772 13.6292 47.7301 13.3327 47.7301 13.0178C47.7301 12.7069 47.7772 12.4124 47.8712 12.1343C47.9694 11.8562 48.1085 11.6129 48.2884 11.4043C48.4684 11.1957 48.6872 11.0301 48.9448 10.9074C49.2066 10.7847 49.5011 10.7233 49.8283 10.7233ZM52.5936 10.8276H53.4034L55.4034 14.0545H55.4157V10.8276H56.1457V15.2079H55.3359L53.3421 11.9871H53.3237V15.2079H52.5936V10.8276Z" fill="white"/>
<g clip-path="url(#clip1_210_190)">
<path d="M30.902 18.3989V27.2331L32.0413 27.2375V23.0307H34.7801V21.9177H32.037V19.5076H35.6083V18.3989H30.902ZM37.6503 20.1956C37.8479 20.1956 38.0374 20.1171 38.1771 19.9774C38.3168 19.8377 38.3953 19.6482 38.3953 19.4506C38.3953 19.253 38.3168 19.0636 38.1771 18.9239C38.0374 18.7842 37.8479 18.7057 37.6503 18.7057C37.4528 18.7057 37.2633 18.7842 37.1236 18.9239C36.9839 19.0636 36.9054 19.253 36.9054 19.4506C36.9054 19.6482 36.9839 19.8377 37.1236 19.9774C37.2633 20.1171 37.4528 20.1956 37.6503 20.1956ZM37.0763 21.3042V27.2375H38.2156V21.3042H37.0763Z" fill="white"/>
<path fill-rule="evenodd" clip-rule="evenodd" d="M42.4267 21.1334C40.9193 21.1334 39.8676 22.4086 39.8676 23.9248C39.8676 25.441 40.9193 26.7161 42.4267 26.7161C43.1191 26.7161 43.6887 26.4532 44.105 26.015V26.8038C44.1079 27.0394 44.0641 27.2734 43.976 27.492C43.888 27.7106 43.7574 27.9096 43.592 28.0775C43.4266 28.2454 43.2295 28.3788 43.0122 28.4701C42.7949 28.5613 42.5616 28.6086 42.3259 28.6092C41.9622 28.6092 41.6029 28.4689 41.318 28.2674L40.7484 29.2533C41.1889 29.538 41.698 29.6986 42.2222 29.7181C42.7463 29.7375 43.266 29.6152 43.7264 29.3639C44.1868 29.1126 44.5708 28.7417 44.838 28.2903C45.1052 27.839 45.2455 27.3239 45.2443 26.7994V21.3087H44.105V21.8389C43.6887 21.4007 43.1191 21.1378 42.4267 21.1378V21.1334ZM41.0025 23.9248C41.0025 22.9826 41.7212 22.2421 42.5538 22.2421C43.3864 22.2421 44.1006 22.987 44.1006 23.9248C44.1006 24.8669 43.382 25.6031 42.5538 25.6031C41.7212 25.6031 41.0025 24.8669 41.0025 23.9248Z" fill="white"/>
<path d="M49.3372 22.2421C49.0113 22.2478 48.7008 22.3816 48.4729 22.6145C48.2449 22.8474 48.1178 23.1607 48.119 23.4866V27.2376H46.9796V21.3043H48.119V21.8477C48.2894 21.6218 48.5108 21.4393 48.7652 21.3152C49.0195 21.1911 49.2996 21.1288 49.5826 21.1334C50.3801 21.1334 50.9936 21.5278 51.3441 22.1325C51.5397 21.8294 51.8074 21.5794 52.1232 21.4051C52.439 21.2307 52.7932 21.1374 53.1539 21.1334C54.4466 21.1334 55.2573 22.1763 55.2573 23.469V27.2376H54.1267V23.4822C54.1279 23.1563 54.0008 22.843 53.7728 22.6101C53.5449 22.3772 53.2344 22.2434 52.9085 22.2377C52.5827 22.2434 52.2722 22.3772 52.0442 22.6101C51.8162 22.843 51.6891 23.1563 51.6903 23.4822V27.2332H50.551V23.4822C50.5522 23.157 50.4257 22.8444 50.1987 22.6116C49.9716 22.3789 49.6623 22.2446 49.3372 22.2377V22.2421Z" fill="white"/>
<path fill-rule="evenodd" clip-rule="evenodd" d="M61.3176 21.9791C61.0589 21.7093 60.7478 21.4952 60.4035 21.3498C60.0592 21.2043 59.6888 21.1307 59.315 21.1334C57.6236 21.1334 56.4229 22.5619 56.4229 24.2709C56.4229 25.9799 57.6236 27.4084 59.315 27.4084C59.6887 27.4103 60.0588 27.3363 60.4031 27.191C60.7473 27.0456 61.0584 26.8319 61.3176 26.5627V27.2375H62.4525V21.3043H61.3132V21.9791H61.3176ZM57.5578 24.2709C57.5578 23.1403 58.4255 22.242 59.4377 22.242C60.4456 22.242 61.3176 23.1403 61.3176 24.2709C61.3176 25.4015 60.45 26.2954 59.4377 26.2954C58.4298 26.2954 57.5578 25.4015 57.5578 24.2709Z" fill="white"/>
</g>
<defs>
<clipPath id="clip0_210_190">
<rect width="16.6517" height="24.9775" fill="white" transform="translate(7.01123 7.01123)"/>
</clipPath>
<clipPath id="clip1_210_190">
<rect width="31.9888" height="11.3933" fill="white" transform="translate(30.6742 18.3989)"/>
</clipPath>
</defs>
</svg>
