<svg width="545" height="220" viewBox="0 0 545 220" fill="none" xmlns="http://www.w3.org/2000/svg">
<rect width="220" height="220" rx="20" fill="#8047F8"/>
<path d="M158.42 49.1232C157.099 47.0757 155.171 47.0169 152.973 46.9499C152.724 46.9424 152.471 46.9347 152.216 46.9239C152.021 46.9149 151.807 46.9184 151.582 46.922C150.691 46.9365 149.648 46.9535 149.123 46.195C148.514 45.3157 148.572 43.6165 148.62 42.2136C148.635 41.7704 148.649 41.3564 148.64 41.0076C148.555 37.7488 148.376 34.2872 147.134 33.1299C146.197 32.2617 143.395 32.382 140.811 32.4929C139.973 32.5289 139.158 32.5638 138.437 32.5638H83.4264C82.3188 32.5638 81.1578 32.4725 80.017 32.3828C77.7942 32.2079 75.6483 32.0391 74.1244 32.5638C71.9129 33.3291 71.7631 37.3504 71.6221 41.137L71.6145 41.3407C71.4961 44.4667 70.7311 46.8789 68.1957 46.6359C65.2468 46.3579 62.3125 46.2702 60.9793 48.9729C59.4046 52.1706 59.7294 55.518 60.3111 61.5136C60.3941 62.37 60.4825 63.2805 60.5713 64.2523H159.27C159.327 63.5419 159.387 62.8408 159.446 62.1509C159.908 56.7567 160.311 52.0569 158.42 49.1232Z" fill="white"/>
<path fill-rule="evenodd" clip-rule="evenodd" d="M68.2576 70.1987C69.7991 91.3258 71.3238 112.477 72.8484 133.629L72.8494 133.642C73.6772 145.126 74.5051 156.611 75.3357 168.092H78.4849C78.6995 169.889 78.945 172.108 79.2039 174.447C79.7294 179.195 80.31 184.441 80.7981 187.665H81.1464C84.3542 186.476 106.53 176.877 106.54 138.662C106.536 138.553 106.539 138.444 106.55 138.336H101.072C100.807 138.333 100.55 138.244 100.34 138.081C100.131 137.918 99.9807 137.69 99.913 137.434C99.3791 136.098 98.9486 134.723 98.6254 133.322C95.4024 135.165 92.8429 137.98 91.3118 141.365C89.8584 137.898 89.6682 134.03 90.7743 130.437C91.8805 126.844 94.2128 123.754 97.3635 121.708C97.4041 110.557 101.527 99.8073 108.952 91.4944L109.068 91.3912C109.284 91.2023 109.56 91.0971 109.846 91.0948C110.012 91.0962 110.176 91.132 110.327 91.2001C110.48 91.2689 110.617 91.3692 110.729 91.4944C118.24 99.8186 122.342 110.671 122.214 121.889C125.424 123.878 127.804 126.965 128.912 130.578C130.02 134.19 129.781 138.083 128.24 141.533C126.717 138.142 124.156 135.325 120.927 133.489C120.729 134.848 120.366 136.177 119.845 137.447C119.665 137.988 119.304 138.336 118.944 138.336H113.101C113.11 138.401 113.117 138.466 113.121 138.531L113.123 138.546V138.578C113.125 138.634 113.125 138.69 113.123 138.747C113.203 178.059 136.78 186.982 138.768 187.665H139.448C139.621 184.568 140.186 180.296 140.737 176.13C141.116 173.26 141.489 170.44 141.723 168.092H144.908C145.928 153.63 146.977 139.209 148.025 124.788L148.026 124.78L148.026 124.776C149.368 106.33 150.709 87.8825 151.99 69.3495H68.4616C68.2212 69.3971 68.2376 69.7954 68.2576 70.1987ZM109.846 91.0948L109.84 91.0948H109.853L109.846 91.0948Z" fill="white"/>
<path d="M279 28.1618C279 21.8244 281.156 16.913 285.468 13.4274C289.858 9.86259 296.444 8.0802 305.224 8.0802C311.026 8.0802 315.965 8.63472 320.042 9.74376V26.1418C315.651 24.7951 311.3 24.1218 306.988 24.1218C302.755 24.1218 300.011 24.6367 298.756 25.6665C297.502 26.6171 296.875 28.043 296.875 29.9442V69.8699C296.875 73.6724 299.815 75.5736 305.695 75.5736C311.653 75.5736 316.553 74.9794 320.394 73.7912V89.8327C316.161 91.021 311.026 91.6151 304.989 91.6151C296.208 91.6151 289.662 89.8723 285.35 86.3868C281.117 82.9012 279 77.9897 279 71.6523V28.1618Z" fill="white"/>
<path d="M354.746 39.4504C354.746 36.4401 353.099 34.935 349.807 34.935C346.514 34.935 344.868 36.4401 344.868 39.4504V72.4841C344.868 75.4944 346.514 76.9995 349.807 76.9995C353.099 76.9995 354.746 75.4944 354.746 72.4841V39.4504ZM327.463 38.8562C327.463 32.8357 329.305 28.1618 332.99 24.8347C336.753 21.4284 342.359 19.7252 349.807 19.7252C357.255 19.7252 362.821 21.4284 366.506 24.8347C370.269 28.1618 372.15 32.8357 372.15 38.8562V73.0782C372.15 79.0988 370.269 83.8122 366.506 87.2186C362.821 90.5457 357.255 92.2093 349.807 92.2093C342.359 92.2093 336.753 90.5457 332.99 87.2186C329.305 83.8122 327.463 79.0988 327.463 73.0782V38.8562Z" fill="white"/>
<path d="M383.58 20.0817C383.58 6.69389 390.558 0 404.513 0C406.316 0 408.472 0.198044 410.98 0.594131V14.378C409.726 14.2196 408.55 14.1403 407.452 14.1403C403.454 14.1403 401.455 16.0416 401.455 19.844V20.9134H410.98V34.935H401.455V91.021H383.58V34.935H376.877V20.9134H383.58V20.0817Z" fill="white"/>
<path d="M418.262 20.0817C418.262 6.69389 425.24 0 439.195 0C440.998 0 443.154 0.198044 445.663 0.594131V14.378C444.408 14.2196 443.232 14.1403 442.135 14.1403C438.136 14.1403 436.137 16.0416 436.137 19.844V20.9134H445.663V34.935H436.137V91.021H418.262V34.935H411.559V20.9134H418.262V20.0817Z" fill="white"/>
<path d="M449.769 71.0582V38.8562C449.769 32.8357 451.612 28.1618 455.296 24.8347C458.981 21.4284 464.547 19.7252 471.995 19.7252C486.342 19.7252 493.516 26.1022 493.516 38.8562V62.978H466.821V69.6323C466.821 72.0088 467.448 73.712 468.702 74.7418C470.035 75.6924 472.897 76.1677 477.287 76.1677C481.756 76.1677 486.617 75.3755 491.869 73.7912V89.4763C486.381 90.9814 480.501 91.7339 474.23 91.7339C457.923 91.7339 449.769 84.842 449.769 71.0582ZM466.821 49.3129H477.17V39.0939C477.17 36.0836 475.445 34.5785 471.995 34.5785C468.546 34.5785 466.821 36.0836 466.821 39.0939V49.3129Z" fill="white"/>
<path d="M500.529 71.0582V38.8562C500.529 32.8357 502.372 28.1618 506.056 24.8347C509.741 21.4284 515.307 19.7252 522.755 19.7252C537.102 19.7252 544.276 26.1022 544.276 38.8562V62.978H517.581V69.6323C517.581 72.0088 518.208 73.712 519.462 74.7418C520.795 75.6924 523.657 76.1677 528.047 76.1677C532.516 76.1677 537.376 75.3755 542.629 73.7912V89.4763C537.141 90.9814 531.261 91.7339 524.99 91.7339C508.683 91.7339 500.529 84.842 500.529 71.0582ZM517.581 49.3129H527.929V39.0939C527.929 36.0836 526.205 34.5785 522.755 34.5785C519.306 34.5785 517.581 36.0836 517.581 39.0939V49.3129Z" fill="white"/>
<path d="M307.305 134.773C307.305 128.924 304.249 125.999 298.138 125.999H288.393V179.33H298.138C304.249 179.33 307.305 176.34 307.305 170.36V134.773ZM281.542 119.954H298.524C303.67 119.954 307.562 121.286 310.2 123.951C312.837 126.616 314.156 130.191 314.156 134.676V170.555C314.156 175.17 312.869 178.81 310.296 181.475C307.723 184.14 303.863 185.473 298.717 185.473H281.542V119.954Z" fill="white"/>
<path d="M325.43 171.335V144.231C325.43 139.616 326.717 135.943 329.29 133.213C331.927 130.419 335.883 129.021 341.158 129.021C346.433 129.021 350.324 130.419 352.833 133.213C355.406 135.943 356.693 139.616 356.693 144.231V161.196H332.184V171.043C332.184 173.968 333.085 176.145 334.886 177.575C336.687 179.005 339.485 179.72 343.281 179.72C347.076 179.72 351 179.135 355.053 177.965V184.4C351.836 185.44 348.009 185.96 343.57 185.96C331.477 185.96 325.43 181.085 325.43 171.335ZM332.184 155.443H350.132V144.231C350.132 138.121 347.14 135.066 341.158 135.066C335.175 135.066 332.184 138.121 332.184 144.231V155.443Z" fill="white"/>
<path d="M368.421 115.274H375.272V185.473H368.421V115.274Z" fill="white"/>
<path d="M391.963 123.756C389.197 123.756 387.814 122.261 387.814 119.271C387.814 116.281 389.197 114.786 391.963 114.786C394.794 114.786 396.209 116.281 396.209 119.271C396.209 122.261 394.794 123.756 391.963 123.756ZM388.586 130.386H395.437V185.473H388.586V130.386Z" fill="white"/>
<path d="M430.751 129.996H437.698L425.54 185.473H415.891L403.733 129.996H410.777L416.084 155.443L420.812 180.598C422.742 169.808 426.055 152.941 430.751 129.996Z" fill="white"/>
<path d="M445.006 171.335V144.231C445.006 139.616 446.293 135.943 448.866 133.213C451.503 130.419 455.46 129.021 460.734 129.021C466.009 129.021 469.901 130.419 472.41 133.213C474.983 135.943 476.269 139.616 476.269 144.231V161.196H451.761V171.043C451.761 173.968 452.661 176.145 454.462 177.575C456.264 179.005 459.062 179.72 462.857 179.72C466.652 179.72 470.576 179.135 474.629 177.965V184.4C471.413 185.44 467.585 185.96 463.147 185.96C451.053 185.96 445.006 181.085 445.006 171.335ZM451.761 155.443H469.708V144.231C469.708 138.121 466.717 135.066 460.734 135.066C454.752 135.066 451.761 138.121 451.761 144.231V155.443Z" fill="white"/>
<path d="M505.752 129.704H508.164V136.333H504.883C502.567 136.333 500.477 136.951 498.611 138.186C498.032 138.576 496.778 139.453 494.848 140.818V185.473H487.997V129.996H494.559V134.188C494.752 134.058 495.234 133.701 496.006 133.116C496.842 132.531 497.325 132.206 497.454 132.141C497.646 132.011 498.065 131.751 498.708 131.361C499.415 130.971 499.93 130.744 500.252 130.679C500.638 130.549 501.152 130.386 501.796 130.191C502.76 129.866 504.079 129.704 505.752 129.704Z" fill="white"/>
<path d="M537.517 129.996H544.367L529.315 200H522.754L525.745 185.473H522.368L510.403 129.996H517.35L523.14 157.588L527.385 180.598C528.672 172.928 530.087 165.258 531.631 157.588L537.517 129.996Z" fill="white"/>
</svg>
