<svg width="448" height="220" viewBox="0 0 448 220" fill="none" xmlns="http://www.w3.org/2000/svg">
<path d="M0.888672 32C0.888672 20.7989 0.888672 15.1984 3.06854 10.9202C4.98601 7.15695 8.04562 4.09734 11.8089 2.17987C16.0871 0 21.6876 0 32.8887 0H188.889C200.09 0 205.69 0 209.968 2.17987C213.732 4.09734 216.791 7.15695 218.709 10.9202C220.889 15.1984 220.889 20.799 220.889 32V188C220.889 199.201 220.889 204.802 218.709 209.08C216.791 212.843 213.732 215.903 209.968 217.82C205.69 220 200.09 220 188.889 220H32.8887C21.6876 220 16.0871 220 11.8089 217.82C8.04562 215.903 4.98601 212.843 3.06854 209.08C0.888672 204.802 0.888672 199.201 0.888672 188V32Z" fill="#FAFAFA"/>
<path fill-rule="evenodd" clip-rule="evenodd" d="M84.4698 46.7188C88.3817 46.7188 91.5529 49.8667 91.5529 53.75V77.1875C91.5529 81.0708 88.3817 84.2188 84.4698 84.2188C80.5579 84.2188 77.3867 81.0708 77.3867 77.1875V53.75C77.3867 49.8667 80.5579 46.7188 84.4698 46.7188Z" fill="#1B1D1E"/>
<path fill-rule="evenodd" clip-rule="evenodd" d="M84.4698 95.9375C88.3817 95.9375 91.5529 99.0855 91.5529 102.969V166.25C91.5529 170.133 88.3817 173.281 84.4698 173.281C80.5579 173.281 77.3867 170.133 77.3867 166.25V102.969C77.3867 99.0855 80.5579 95.9375 84.4698 95.9375Z" fill="#1B1D1E"/>
<path fill-rule="evenodd" clip-rule="evenodd" d="M63.2208 46.7188C67.1326 46.7188 70.3039 49.8667 70.3039 53.75V81.875C70.3039 85.6046 71.7964 89.1815 74.453 91.8187C77.1097 94.4559 80.7129 95.9375 84.47 95.9375C88.2271 95.9375 91.8303 94.4559 94.487 91.8187C97.1437 89.1815 98.6362 85.6046 98.6362 81.875V53.75C98.6362 49.8667 101.807 46.7188 105.719 46.7188C109.631 46.7188 112.802 49.8667 112.802 53.75V81.875C112.802 89.3342 109.817 96.4879 104.504 101.762C99.1906 107.037 91.9842 110 84.47 110C76.9558 110 69.7494 107.037 64.436 101.762C59.1227 96.4879 56.1377 89.3342 56.1377 81.875V53.75C56.1377 49.8667 59.3089 46.7188 63.2208 46.7188Z" fill="#1B1D1E"/>
<path fill-rule="evenodd" clip-rule="evenodd" d="M159.365 47.991C161.258 49.3069 162.385 51.4564 162.385 53.75V166.25C162.385 170.133 159.213 173.281 155.302 173.281C151.39 173.281 148.218 170.133 148.218 166.25V135.781H122.247C120.237 135.781 118.322 134.934 116.979 133.45C115.635 131.966 114.99 129.985 115.204 128.001L122.247 128.75C115.204 128.001 115.204 128.003 115.204 128.001L115.207 127.979L115.212 127.933L115.23 127.77C115.246 127.632 115.269 127.432 115.3 127.175C115.362 126.662 115.455 125.92 115.582 124.979C115.835 123.099 116.225 120.419 116.775 117.181C117.872 110.721 119.62 101.959 122.22 92.8489C124.806 83.7913 128.314 74.0979 133.036 65.9257C137.667 57.9097 144.057 50.3273 152.881 47.1421C155.052 46.3583 157.473 46.6751 159.365 47.991ZM130.381 121.719H148.218V68.4469C147.243 69.7818 146.277 71.2728 145.324 72.922C141.413 79.6912 138.282 88.1619 135.85 96.6824C133.433 105.15 131.787 113.381 130.744 119.519C130.614 120.287 130.493 121.022 130.381 121.719Z" fill="#1B1D1E"/>
<path d="M273.945 35C276.835 35 279.519 35.3335 281.996 36.0006C284.505 36.6676 286.681 37.6682 288.523 39.0023C290.397 40.3074 291.858 41.9461 292.906 43.9182C293.985 45.8904 294.525 48.1961 294.525 50.8353V77.8074C294.525 80.0696 294.255 82.0708 293.716 83.8109C293.176 85.522 292.461 87.0157 291.572 88.2918C290.714 89.5389 289.73 90.6119 288.618 91.511C287.507 92.3811 286.379 93.0916 285.236 93.6427C282.504 94.9768 279.408 95.7309 275.946 95.9049H260.13C258.32 95.9049 256.922 95.6293 255.938 95.0783C254.953 94.4983 254.238 93.7442 253.794 92.8161C253.349 91.859 253.079 90.786 252.984 89.5969C252.92 88.4078 252.889 87.1752 252.889 85.8991V44.9188C252.889 43.6717 252.92 42.4536 252.984 41.2645C253.079 40.0754 253.349 39.0168 253.794 38.0887C254.238 37.1607 254.953 36.4211 255.938 35.8701C256.922 35.29 258.32 35 260.13 35H273.945ZM267.371 45.1798V85.551H273.564C274.93 85.493 276.153 85.203 277.232 84.681C277.677 84.478 278.122 84.2024 278.566 83.8544C279.011 83.5064 279.408 83.1003 279.757 82.6363C280.107 82.1433 280.377 81.5632 280.567 80.8962C280.789 80.2291 280.901 79.4606 280.901 78.5905V52.9234C280.901 51.9664 280.789 51.1253 280.567 50.4002C280.377 49.6462 280.107 48.9936 279.757 48.4426C279.408 47.8915 279.011 47.4275 278.566 47.0505C278.122 46.6734 277.677 46.3689 277.232 46.1369C276.153 45.5858 274.93 45.2668 273.564 45.1798H267.371Z" fill="#1B1D1E"/>
<path d="M342.069 86.0731C342.069 87.2912 342.022 88.4948 341.926 89.6839C341.831 90.844 341.545 91.8881 341.069 92.8161C340.593 93.7442 339.878 94.4983 338.925 95.0783C337.972 95.6293 336.639 95.9049 334.924 95.9049C333.177 95.9049 331.811 95.6438 330.827 95.1218C329.842 94.5708 329.112 93.9182 328.635 93.1642C328.159 92.3811 327.857 91.569 327.73 90.728C327.635 89.8869 327.587 89.1763 327.587 88.5963C327.301 89.4374 326.888 90.2929 326.348 91.163C325.84 92.0331 325.173 92.8161 324.348 93.5122C323.522 94.2082 322.521 94.7883 321.346 95.2523C320.203 95.6874 318.853 95.9049 317.297 95.9049C315.55 95.9049 313.803 95.6438 312.057 95.1218C310.31 94.5998 308.738 93.7297 307.34 92.5116C305.943 91.2935 304.8 89.7129 303.91 87.7697C303.053 85.7976 302.624 83.3759 302.624 80.5046V67.8886C302.624 64.9884 303.053 62.5667 303.91 60.6235C304.8 58.6514 305.943 57.0708 307.34 55.8817C308.738 54.6636 310.31 53.7935 312.057 53.2715C313.803 52.7494 315.55 52.4884 317.297 52.4884C318.853 52.4884 320.203 52.7059 321.346 53.141C322.521 53.576 323.522 54.1415 324.348 54.8376C325.173 55.5336 325.84 56.3167 326.348 57.1868C326.888 58.0568 327.301 58.9269 327.587 59.797C327.587 58.3469 327.809 57.1433 328.254 56.1862C328.699 55.2291 329.27 54.4751 329.969 53.924C330.668 53.344 331.446 52.9524 332.303 52.7494C333.193 52.5174 334.066 52.4014 334.924 52.4014C336.511 52.4014 337.782 52.6914 338.735 53.2715C339.687 53.8225 340.402 54.5621 340.878 55.4901C341.387 56.3892 341.704 57.4478 341.831 58.6659C341.99 59.855 342.069 61.0731 342.069 62.3202V86.0731ZM317.297 79.3736C317.297 80.1566 317.329 80.9252 317.392 81.6792C317.456 82.4333 317.63 83.1148 317.916 83.7239C318.202 84.3329 318.615 84.826 319.155 85.203C319.727 85.551 320.505 85.7251 321.489 85.7251C322.728 85.7251 323.728 85.4785 324.491 84.9855C325.285 84.4635 325.904 83.6804 326.348 82.6363C326.793 81.5632 327.095 80.2291 327.254 78.634C327.444 77.0099 327.555 75.0812 327.587 72.848C327.587 71.949 327.492 70.9194 327.301 69.7593C327.142 68.5702 326.841 67.4536 326.396 66.4095C325.951 65.3654 325.332 64.4809 324.538 63.7558C323.744 63.0307 322.728 62.6682 321.489 62.6682C320.505 62.6682 319.727 62.8567 319.155 63.2338C318.615 63.5818 318.202 64.0458 317.916 64.6259C317.63 65.2059 317.456 65.873 317.392 66.627C317.329 67.3521 317.297 68.0916 317.297 68.8457V79.3736Z" fill="#1B1D1E"/>
<path d="M354.551 62.1462C354.551 60.9281 354.614 59.739 354.741 58.5789C354.9 57.4188 355.234 56.3892 355.742 55.4901C356.25 54.5621 356.98 53.8225 357.933 53.2715C358.886 52.6914 360.172 52.4014 361.792 52.4014C363.412 52.4014 364.698 52.6914 365.651 53.2715C366.604 53.8225 367.334 54.5621 367.842 55.4901C368.35 56.3892 368.668 57.4188 368.795 58.5789C368.954 59.739 369.033 60.9281 369.033 62.1462V86.1601C369.033 87.3782 368.954 88.5818 368.795 89.7709C368.668 90.931 368.35 91.9751 367.842 92.9031C367.334 93.8022 366.604 94.5273 365.651 95.0783C364.698 95.6293 363.412 95.9049 361.792 95.9049C360.172 95.9049 358.886 95.6293 357.933 95.0783C356.98 94.5273 356.25 93.8022 355.742 92.9031C355.234 91.9751 354.9 90.931 354.741 89.7709C354.614 88.5818 354.551 87.3782 354.551 86.1601V62.1462ZM369.129 41.6125C369.129 43.8457 368.493 45.5133 367.223 46.6154C365.953 47.6885 364.174 48.2251 361.887 48.2251C359.601 48.2251 357.822 47.6885 356.552 46.6154C355.281 45.5133 354.646 43.8457 354.646 41.6125C354.646 39.2923 355.281 37.6102 356.552 36.5661C357.822 35.522 359.601 35 361.887 35C364.333 35 366.143 35.522 367.318 36.5661C368.525 37.6102 369.129 39.2923 369.129 41.6125Z" fill="#1B1D1E"/>
<path d="M383.706 44.6578C383.706 43.4397 383.77 42.2506 383.897 41.0905C384.055 39.9304 384.389 38.9008 384.897 38.0017C385.405 37.1027 386.136 36.3776 387.089 35.8266C388.041 35.2755 389.328 35 390.947 35C392.599 35 393.901 35.2755 394.854 35.8266C395.807 36.3776 396.521 37.1027 396.997 38.0017C397.506 38.9008 397.823 39.9304 397.95 41.0905C398.109 42.2506 398.188 43.4397 398.188 44.6578V86.1601C398.188 87.3782 398.109 88.5818 397.95 89.7709C397.823 90.931 397.506 91.9751 396.997 92.9031C396.521 93.8022 395.807 94.5273 394.854 95.0783C393.901 95.6293 392.599 95.9049 390.947 95.9049C389.328 95.9049 388.041 95.6293 387.089 95.0783C386.136 94.5273 385.405 93.8022 384.897 92.9031C384.389 91.9751 384.055 90.931 383.897 89.7709C383.77 88.5818 383.706 87.3782 383.706 86.1601V44.6578Z" fill="#1B1D1E"/>
<path d="M415.91 113.306C412.29 113.306 409.717 112.828 408.193 111.871C406.668 110.943 405.906 109.565 405.906 107.738C405.906 106.839 406.033 106.085 406.287 105.476C406.573 104.867 406.954 104.374 407.43 103.997C407.907 103.619 408.447 103.344 409.05 103.17C409.685 103.025 410.352 102.952 411.051 102.952C411.527 102.952 411.972 102.967 412.385 102.996C412.798 103.025 413.147 103.039 413.433 103.039C414.036 103.039 414.608 102.706 415.148 102.039C415.72 101.401 416.26 100.589 416.768 99.6027C417.308 98.6166 417.848 97.558 418.388 96.4269C418.927 95.2958 419.467 94.2517 420.007 93.2947L419.245 91.5545C418.324 89.4374 417.355 87.2187 416.339 84.8985C415.323 82.5493 414.306 80.1856 413.29 77.8074C412.306 75.4002 411.321 73.0075 410.336 70.6293C409.384 68.2512 408.51 65.9455 407.716 63.7123C407.367 62.7842 407.065 61.8706 406.811 60.9716C406.589 60.0725 406.478 59.1879 406.478 58.3179C406.478 57.4768 406.668 56.6937 407.049 55.9687C407.43 55.2436 407.955 54.6201 408.621 54.098C409.288 53.576 410.051 53.17 410.908 52.8799C411.797 52.5609 412.734 52.4014 413.719 52.4014C414.608 52.4014 415.418 52.5754 416.148 52.9234C416.911 53.2715 417.578 53.75 418.149 54.359C418.753 54.9681 419.277 55.6642 419.721 56.4472C420.166 57.2303 420.547 58.0568 420.865 58.9269L427.248 77.2854L433.346 58.9269C433.632 58.1148 433.997 57.3028 434.442 56.4907C434.887 55.6787 435.411 54.9681 436.014 54.359C436.617 53.721 437.3 53.2135 438.063 52.8364C438.825 52.4304 439.666 52.2274 440.587 52.2274C441.508 52.2274 442.382 52.3869 443.208 52.7059C444.065 53.0249 444.796 53.4745 445.399 54.0545C446.034 54.6056 446.526 55.2726 446.876 56.0557C447.257 56.8387 447.447 57.6798 447.447 58.5789C447.447 59.449 447.32 60.319 447.066 61.1891C446.844 62.0302 446.558 62.8712 446.209 63.7123L434.775 91.3805C434.108 92.9466 433.378 94.5708 432.584 96.2529C431.822 97.964 430.98 99.6317 430.059 101.256C429.138 102.88 428.154 104.417 427.106 105.867C426.057 107.317 424.946 108.593 423.771 109.695C422.596 110.798 421.341 111.668 420.007 112.306C418.705 112.973 417.339 113.306 415.91 113.306Z" fill="#1B1D1E"/>
<path d="M273.945 124.095C276.835 124.095 279.519 124.429 281.996 125.096C284.505 125.763 286.681 126.763 288.523 128.097C290.397 129.403 291.858 131.041 292.906 133.013C293.985 134.985 294.525 137.291 294.525 139.93V166.903C294.525 169.165 294.255 171.166 293.716 172.906C293.176 174.617 292.461 176.111 291.572 177.387C290.714 178.634 289.73 179.707 288.618 180.606C287.507 181.476 286.379 182.187 285.236 182.738C282.504 184.072 279.408 184.826 275.946 185H260.13C258.32 185 256.922 184.724 255.938 184.173C254.953 183.593 254.238 182.839 253.794 181.911C253.349 180.954 253.079 179.881 252.984 178.692C252.92 177.503 252.889 176.27 252.889 174.994V134.014C252.889 132.767 252.92 131.549 252.984 130.36C253.079 129.171 253.349 128.112 253.794 127.184C254.238 126.256 254.953 125.516 255.938 124.965C256.922 124.385 258.32 124.095 260.13 124.095H273.945ZM267.371 134.275V174.646H273.564C274.93 174.588 276.153 174.298 277.232 173.776C277.677 173.573 278.122 173.298 278.566 172.95C279.011 172.602 279.408 172.195 279.757 171.731C280.107 171.238 280.377 170.658 280.567 169.991C280.789 169.324 280.901 168.556 280.901 167.686V142.019C280.901 141.061 280.789 140.22 280.567 139.495C280.377 138.741 280.107 138.089 279.757 137.538C279.408 136.987 279.011 136.523 278.566 136.146C278.122 135.769 277.677 135.464 277.232 135.232C276.153 134.681 274.93 134.362 273.564 134.275H267.371Z" fill="#1B1D1E"/>
<path d="M305.959 151.241C305.959 150.023 306.022 148.834 306.149 147.674C306.308 146.514 306.642 145.484 307.15 144.585C307.658 143.657 308.388 142.918 309.341 142.367C310.294 141.787 311.58 141.497 313.2 141.497C314.82 141.497 316.106 141.787 317.059 142.367C318.012 142.918 318.742 143.657 319.25 144.585C319.758 145.484 320.076 146.514 320.203 147.674C320.362 148.834 320.441 150.023 320.441 151.241V175.255C320.441 176.473 320.362 177.677 320.203 178.866C320.076 180.026 319.758 181.07 319.25 181.998C318.742 182.897 318.012 183.622 317.059 184.173C316.106 184.724 314.82 185 313.2 185C311.58 185 310.294 184.724 309.341 184.173C308.388 183.622 307.658 182.897 307.15 181.998C306.642 181.07 306.308 180.026 306.149 178.866C306.022 177.677 305.959 176.473 305.959 175.255V151.241ZM320.536 130.708C320.536 132.941 319.901 134.608 318.631 135.711C317.36 136.784 315.582 137.32 313.295 137.32C311.009 137.32 309.23 136.784 307.96 135.711C306.689 134.608 306.054 132.941 306.054 130.708C306.054 128.387 306.689 126.705 307.96 125.661C309.23 124.617 311.009 124.095 313.295 124.095C315.741 124.095 317.551 124.617 318.726 125.661C319.933 126.705 320.536 128.387 320.536 130.708Z" fill="#1B1D1E"/>
<path d="M373.035 160.203C373.035 160.667 373.003 161.218 372.94 161.856C372.876 162.465 372.622 163.06 372.177 163.64C371.765 164.191 371.098 164.669 370.177 165.075C369.256 165.481 367.953 165.684 366.27 165.684H347.31V169.861C347.31 170.557 347.405 171.282 347.596 172.036C347.786 172.79 348.104 173.486 348.548 174.124C349.025 174.762 349.644 175.284 350.406 175.69C351.169 176.096 352.105 176.299 353.217 176.299C354.487 176.299 355.456 176.169 356.123 175.908C356.822 175.618 357.362 175.27 357.743 174.864C358.156 174.458 358.521 174.023 358.838 173.559C359.156 173.095 359.569 172.66 360.077 172.253C360.617 171.847 361.347 171.514 362.268 171.253C363.221 170.963 364.523 170.818 366.175 170.818C366.969 170.818 367.731 170.876 368.462 170.992C369.224 171.108 369.891 171.325 370.462 171.644C371.034 171.963 371.495 172.413 371.844 172.993C372.193 173.544 372.368 174.269 372.368 175.168C372.368 177.053 371.717 178.634 370.415 179.91C369.113 181.157 367.477 182.158 365.508 182.912C363.539 183.666 361.395 184.202 359.077 184.521C356.79 184.84 354.646 185 352.645 185C350.009 184.971 347.5 184.666 345.118 184.086C342.736 183.506 340.624 182.578 338.782 181.302C336.972 180.026 335.527 178.358 334.447 176.299C333.367 174.24 332.827 171.717 332.827 168.73V158.55C332.827 155.795 333.177 153.46 333.875 151.546C334.606 149.632 335.543 148.037 336.686 146.76C337.83 145.484 339.116 144.498 340.545 143.802C341.974 143.077 343.419 142.541 344.88 142.193C346.341 141.845 347.723 141.627 349.025 141.54C350.359 141.453 351.502 141.41 352.455 141.41C355.662 141.41 358.394 141.671 360.649 142.193C362.935 142.715 364.841 143.396 366.365 144.237C367.89 145.078 369.097 146.05 369.986 147.152C370.875 148.254 371.542 149.4 371.987 150.589C372.432 151.749 372.717 152.938 372.844 154.156C372.971 155.345 373.035 156.462 373.035 157.506V160.203ZM347.31 159.159H359.22C359.22 157.796 359.172 156.592 359.077 155.548C359.013 154.475 358.775 153.576 358.362 152.851C357.981 152.126 357.362 151.575 356.504 151.198C355.678 150.821 354.487 150.632 352.931 150.632C351.629 150.632 350.597 150.821 349.835 151.198C349.104 151.575 348.548 152.053 348.167 152.633C347.786 153.184 347.548 153.779 347.453 154.417C347.357 155.055 347.31 155.621 347.31 156.114V159.159Z" fill="#1B1D1E"/>
<path d="M389.328 141.497V133.84C389.328 132.622 389.391 131.433 389.518 130.273C389.677 129.113 390.01 128.083 390.519 127.184C391.027 126.256 391.757 125.516 392.71 124.965C393.663 124.385 394.949 124.095 396.569 124.095C398.157 124.095 399.427 124.385 400.38 124.965C401.333 125.516 402.047 126.256 402.524 127.184C403.032 128.083 403.349 129.113 403.476 130.273C403.635 131.433 403.715 132.622 403.715 133.84V141.497H407.621C408.447 141.497 409.273 141.54 410.098 141.627C410.924 141.685 411.655 141.888 412.29 142.236C412.957 142.584 413.481 143.106 413.862 143.802C414.275 144.498 414.481 145.47 414.481 146.717C414.481 147.906 414.275 148.849 413.862 149.545C413.481 150.241 412.957 150.763 412.29 151.111C411.655 151.459 410.924 151.691 410.098 151.807C409.273 151.894 408.447 151.937 407.621 151.937H403.715V167.164C403.715 167.744 403.731 168.367 403.762 169.034C403.826 169.672 404 170.267 404.286 170.818C404.572 171.369 405.001 171.833 405.573 172.21C406.144 172.558 406.954 172.732 408.002 172.732C409.146 172.732 410.114 172.819 410.908 172.993C411.734 173.138 412.401 173.414 412.909 173.82C413.449 174.226 413.846 174.791 414.1 175.516C414.354 176.241 414.481 177.169 414.481 178.3C414.481 179.461 414.179 180.461 413.576 181.302C413.004 182.143 412.226 182.839 411.242 183.39C410.257 183.941 409.114 184.347 407.812 184.608C406.509 184.869 405.144 185 403.715 185C401.46 185 399.522 184.782 397.903 184.347C396.315 183.912 394.981 183.303 393.901 182.52C392.853 181.708 392.011 180.751 391.376 179.649C390.773 178.518 390.312 177.256 389.995 175.864C389.709 174.472 389.518 172.979 389.423 171.383C389.359 169.759 389.328 168.063 389.328 166.294V151.937H386.66C385.834 151.937 385.008 151.894 384.183 151.807C383.389 151.691 382.674 151.459 382.039 151.111C381.404 150.763 380.88 150.241 380.467 149.545C380.086 148.849 379.895 147.906 379.895 146.717C379.895 145.47 380.086 144.498 380.467 143.802C380.88 143.106 381.404 142.584 382.039 142.236C382.674 141.888 383.389 141.685 384.183 141.627C385.008 141.54 385.834 141.497 386.66 141.497H389.328Z" fill="#1B1D1E"/>
</svg>
