<svg width="322" height="86" viewBox="0 0 322 86" fill="none" xmlns="http://www.w3.org/2000/svg">
<path d="M0 32C0 20.7989 0 15.1984 2.17987 10.9202C4.09734 7.15695 7.15695 4.09734 10.9202 2.17987C15.1984 0 20.7989 0 32 0H54C65.2011 0 70.8016 0 75.0798 2.17987C78.8431 4.09734 81.9027 7.15695 83.8201 10.9202C86 15.1984 86 20.7989 86 32V54C86 65.2011 86 70.8016 83.8201 75.0798C81.9027 78.8431 78.8431 81.9027 75.0798 83.8201C70.8016 86 65.2011 86 54 86H32C20.7989 86 15.1984 86 10.9202 83.8201C7.15695 81.9027 4.09734 78.8431 2.17987 75.0798C0 70.8016 0 65.2011 0 54V32Z" fill="#5636D3"/>
<path fill-rule="evenodd" clip-rule="evenodd" d="M54.2541 35.2608C54.4093 35.4813 54.5427 35.7189 54.6515 35.9711C61.0702 37.7028 65.7956 43.4333 65.7956 50.2174C65.7956 58.3685 58.9744 65 50.59 65C46.2127 65 42.2623 63.1918 39.4854 60.3043H28.9444C26.6758 60.3043 24.83 58.5098 24.83 56.3043C24.83 55.0376 25.4395 53.9072 26.3877 53.1739C25.4395 52.4405 24.83 51.3101 24.83 50.0434C24.83 48.7767 25.4395 47.6464 26.3877 46.913C25.4395 46.1796 24.83 45.0493 24.83 43.7826C24.83 42.5159 25.4395 41.3855 26.3877 40.6521C25.4395 39.9187 24.83 38.7884 24.83 37.5217C24.83 35.3161 26.6758 33.5217 28.9444 33.5217H31.2771C30.8217 32.8781 30.5544 32.0994 30.5544 31.2608C30.5544 30.4223 30.8218 29.6436 31.2771 29H24.1144C21.8458 29 20 27.2056 20 25C20 22.7944 21.8458 21 24.1144 21H46.0283C48.297 21 50.1427 22.7944 50.1427 25C50.1427 25.8385 49.8754 26.6172 49.42 27.2609H56.5827C58.8514 27.2609 60.6972 29.0553 60.6972 31.2608C60.6972 33.4664 58.8514 35.2608 56.5827 35.2608H54.2541ZM58.9083 31.2608C58.9083 30.0142 57.8651 29 56.5827 29H34.6689C33.3865 29 32.3433 30.0142 32.3433 31.2608C32.3433 32.5075 33.3865 33.5217 34.6689 33.5217H50.8583H56.5827C57.8651 33.5217 58.9083 32.5075 58.9083 31.2608ZM21.7889 25C21.7889 26.2466 22.8321 27.2609 24.1144 27.2609H46.0283C47.3107 27.2609 48.3538 26.2466 48.3538 25C48.3538 23.7534 47.3107 22.7391 46.0283 22.7391H24.1144C22.8321 22.7391 21.7889 23.7534 21.7889 25ZM50.8583 35.2608H28.9444C27.6622 35.2608 26.6189 36.2751 26.6189 37.5217C26.6189 38.7683 27.6622 39.7826 28.9444 39.7826H39.83C42.5843 37.0982 46.3911 35.4348 50.59 35.4348C51.0222 35.4348 51.45 35.4535 51.873 35.488C51.5636 35.3422 51.2186 35.2608 50.8583 35.2608ZM38.3016 41.5217H28.9444C27.6621 41.5217 26.6189 42.536 26.6189 43.7826C26.6189 45.0293 27.6621 46.0434 28.9444 46.0434H36.0027C36.5012 44.3995 37.2863 42.8741 38.3016 41.5217ZM35.5919 47.7826H28.9444C27.6621 47.7826 26.6189 48.7967 26.6189 50.0434C26.6189 51.2901 27.6621 52.3043 28.9444 52.3043H35.5367C35.4372 51.6223 35.3845 50.9258 35.3845 50.2174C35.3845 49.3881 35.4562 48.575 35.5919 47.7826ZM26.6189 56.3043C26.6189 57.551 27.6621 58.5651 28.9444 58.5651H38.048C37.0865 57.2039 36.3533 55.6793 35.9019 54.0434H28.9444C27.6621 54.0434 26.6189 55.0576 26.6189 56.3043ZM37.1734 50.2174C37.1734 57.4096 43.1921 63.2609 50.59 63.2609C57.988 63.2609 64.0067 57.4096 64.0067 50.2174C64.0067 43.0253 57.988 37.174 50.59 37.174C43.1921 37.174 37.1734 43.0253 37.1734 50.2174ZM48.3085 47.245C48.3085 48.3016 49.3301 49.1612 50.5858 49.1612C52.983 49.1612 54.9333 50.9237 54.9333 53.0901C54.9333 54.9342 53.5199 56.4847 51.6209 56.9056V57.3403C51.6209 57.896 51.1574 58.3466 50.5858 58.3466C50.0142 58.3466 49.5506 57.896 49.5506 57.3403V56.9056C47.6516 56.4847 46.2383 54.9342 46.2383 53.0901C46.2383 52.5344 46.7018 52.0837 47.2734 52.0837C47.845 52.0837 48.3085 52.5344 48.3085 53.0901C48.3085 54.1467 49.3301 55.0063 50.5858 55.0063C51.8415 55.0063 52.863 54.1467 52.863 53.0901C52.863 52.0334 51.8415 51.1738 50.5858 51.1738C48.1885 51.1738 46.2383 49.4113 46.2383 47.245C46.2383 45.4009 47.6516 43.8504 49.5506 43.4295V42.9061C49.5506 42.3505 50.0142 41.8998 50.5858 41.8998C51.1574 41.8998 51.6209 42.3505 51.6209 42.9061V43.4295C53.5199 43.8504 54.9333 45.4009 54.9333 47.245C54.9333 47.8007 54.4697 48.2514 53.8982 48.2514C53.3266 48.2514 52.863 47.8007 52.863 47.245C52.863 46.1884 51.8415 45.3288 50.5858 45.3288C49.3301 45.3288 48.3085 46.1884 48.3085 47.245Z" fill="#FF872C"/>
<path d="M54.6515 35.9711L54.422 36.0702L54.4698 36.181L54.5864 36.2125L54.6515 35.9711ZM54.2541 35.2608V35.0108H53.7724L54.0497 35.4048L54.2541 35.2608ZM39.4854 60.3043L39.6656 60.131L39.5919 60.0543H39.4854V60.3043ZM26.3877 53.1739L26.5406 53.3716L26.7963 53.1739L26.5406 52.9761L26.3877 53.1739ZM26.3877 46.913L26.5406 47.1107L26.7963 46.913L26.5406 46.7152L26.3877 46.913ZM26.3877 40.6521L26.5406 40.8499L26.7963 40.6521L26.5406 40.4544L26.3877 40.6521ZM31.2771 33.5217V33.7717H31.7603L31.4812 33.3773L31.2771 33.5217ZM31.2771 29L31.4812 29.1444L31.7602 28.75H31.2771V29ZM49.42 27.2609L49.2159 27.1165L48.9369 27.5109H49.42V27.2609ZM39.83 39.7826V40.0326H39.9317L40.0045 39.9616L39.83 39.7826ZM51.873 35.488L51.8527 35.7371L51.9795 35.2618L51.873 35.488ZM38.3016 41.5217L38.5016 41.6718L38.802 41.2717H38.3016V41.5217ZM36.0027 46.0434V46.2934H36.1881L36.2419 46.116L36.0027 46.0434ZM35.5919 47.7826L35.8383 47.8247L35.8884 47.5326H35.5919V47.7826ZM35.5367 52.3043V52.5543H35.8259L35.7841 52.2682L35.5367 52.3043ZM38.048 58.5651V58.8151H38.5307L38.2522 58.4209L38.048 58.5651ZM35.9019 54.0434L36.1429 53.9769L36.0923 53.7934H35.9019V54.0434ZM51.6209 56.9056L51.5668 56.6615L51.3709 56.7049V56.9056H51.6209ZM49.5506 56.9056H49.8006V56.7049L49.6047 56.6615L49.5506 56.9056ZM49.5506 43.4295L49.6047 43.6736L49.8006 43.6302V43.4295H49.5506ZM51.6209 43.4295H51.3709V43.6302L51.5668 43.6736L51.6209 43.4295ZM54.8811 35.872C54.7654 35.6041 54.6236 35.3514 54.4585 35.1169L54.0497 35.4048C54.195 35.6111 54.32 35.8338 54.422 36.0702L54.8811 35.872ZM66.0456 50.2174C66.0456 43.313 61.2372 37.4889 54.7166 35.7297L54.5864 36.2125C60.9033 37.9167 65.5456 43.5537 65.5456 50.2174H66.0456ZM50.59 65.25C59.1058 65.25 66.0456 58.5132 66.0456 50.2174H65.5456C65.5456 58.2239 58.843 64.75 50.59 64.75V65.25ZM39.3052 60.4776C42.1279 63.4127 46.1428 65.25 50.59 65.25V64.75C46.2826 64.75 42.3967 62.9709 39.6656 60.131L39.3052 60.4776ZM28.9444 60.5543H39.4854V60.0543H28.9444V60.5543ZM24.58 56.3043C24.58 58.6545 26.5444 60.5543 28.9444 60.5543V60.0543C26.8071 60.0543 25.08 58.3652 25.08 56.3043H24.58ZM26.2347 52.9761C25.2296 53.7535 24.58 54.955 24.58 56.3043H25.08C25.08 55.1202 25.6494 54.0609 26.5406 53.3716L26.2347 52.9761ZM24.58 50.0434C24.58 51.3927 25.2296 52.5942 26.2347 53.3716L26.5406 52.9761C25.6494 52.2868 25.08 51.2275 25.08 50.0434H24.58ZM26.2347 46.7152C25.2296 47.4927 24.58 48.6941 24.58 50.0434H25.08C25.08 48.8593 25.6494 47.8001 26.5406 47.1107L26.2347 46.7152ZM24.58 43.7826C24.58 45.1319 25.2296 46.3333 26.2347 47.1107L26.5406 46.7152C25.6494 46.0259 25.08 44.9666 25.08 43.7826H24.58ZM26.2347 40.4544C25.2296 41.2318 24.58 42.4333 24.58 43.7826H25.08C25.08 42.5985 25.6494 41.5392 26.5406 40.8499L26.2347 40.4544ZM24.58 37.5217C24.58 38.871 25.2296 40.0724 26.2347 40.8499L26.5406 40.4544C25.6494 39.765 25.08 38.7058 25.08 37.5217H24.58ZM28.9444 33.2717C26.5444 33.2717 24.58 35.1715 24.58 37.5217H25.08C25.08 35.4608 26.8071 33.7717 28.9444 33.7717V33.2717ZM31.2771 33.2717H28.9444V33.7717H31.2771V33.2717ZM30.3044 31.2608C30.3044 32.1535 30.5892 32.9823 31.0731 33.6661L31.4812 33.3773C31.0542 32.7739 30.8044 32.0452 30.8044 31.2608H30.3044ZM31.073 28.8556C30.5893 29.5394 30.3044 30.3682 30.3044 31.2608H30.8044C30.8044 30.4765 31.0543 29.7478 31.4812 29.1444L31.073 28.8556ZM24.1144 29.25H31.2771V28.75H24.1144V29.25ZM19.75 25C19.75 27.3502 21.7144 29.25 24.1144 29.25V28.75C21.9771 28.75 20.25 27.0609 20.25 25H19.75ZM24.1144 20.75C21.7144 20.75 19.75 22.6498 19.75 25H20.25C20.25 22.9391 21.9771 21.25 24.1144 21.25V20.75ZM46.0283 20.75H24.1144V21.25H46.0283V20.75ZM50.3927 25C50.3927 22.6498 48.4283 20.75 46.0283 20.75V21.25C48.1656 21.25 49.8927 22.9391 49.8927 25H50.3927ZM49.6241 27.4052C50.1079 26.7214 50.3927 25.8927 50.3927 25H49.8927C49.8927 25.7844 49.6429 26.513 49.2159 27.1165L49.6241 27.4052ZM56.5827 27.0109H49.42V27.5109H56.5827V27.0109ZM60.9472 31.2608C60.9472 28.9106 58.9828 27.0109 56.5827 27.0109V27.5109C58.72 27.5109 60.4472 29.2 60.4472 31.2608H60.9472ZM56.5827 35.5108C58.9828 35.5108 60.9472 33.6111 60.9472 31.2608H60.4472C60.4472 33.3217 58.72 35.0108 56.5827 35.0108V35.5108ZM54.2541 35.5108H56.5827V35.0108H54.2541V35.5108ZM56.5827 29.25C57.7337 29.25 58.6583 30.1589 58.6583 31.2608H59.1583C59.1583 29.8696 57.9965 28.75 56.5827 28.75V29.25ZM34.6689 29.25H56.5827V28.75H34.6689V29.25ZM32.5933 31.2608C32.5933 30.1589 33.5179 29.25 34.6689 29.25V28.75C33.2551 28.75 32.0933 29.8696 32.0933 31.2608H32.5933ZM34.6689 33.2717C33.5179 33.2717 32.5933 32.3628 32.5933 31.2608H32.0933C32.0933 32.6521 33.2551 33.7717 34.6689 33.7717V33.2717ZM50.8583 33.2717H34.6689V33.7717H50.8583V33.2717ZM56.5827 33.2717H50.8583V33.7717H56.5827V33.2717ZM58.6583 31.2608C58.6583 32.3628 57.7337 33.2717 56.5827 33.2717V33.7717C57.9965 33.7717 59.1583 32.6521 59.1583 31.2608H58.6583ZM24.1144 27.0109C22.9635 27.0109 22.0389 26.1019 22.0389 25H21.5389C21.5389 26.3913 22.7007 27.5109 24.1144 27.5109V27.0109ZM46.0283 27.0109H24.1144V27.5109H46.0283V27.0109ZM48.1038 25C48.1038 26.1019 47.1793 27.0109 46.0283 27.0109V27.5109C47.442 27.5109 48.6038 26.3913 48.6038 25H48.1038ZM46.0283 22.9891C47.1793 22.9891 48.1038 23.8981 48.1038 25H48.6038C48.6038 23.6087 47.442 22.4891 46.0283 22.4891V22.9891ZM24.1144 22.9891H46.0283V22.4891H24.1144V22.9891ZM22.0389 25C22.0389 23.8981 22.9635 22.9891 24.1144 22.9891V22.4891C22.7007 22.4891 21.5389 23.6087 21.5389 25H22.0389ZM28.9444 35.5108H50.8583V35.0108H28.9444V35.5108ZM26.8689 37.5217C26.8689 36.4198 27.7935 35.5108 28.9444 35.5108V35.0108C27.5308 35.0108 26.3689 36.1304 26.3689 37.5217H26.8689ZM28.9444 39.5326C27.7935 39.5326 26.8689 38.6236 26.8689 37.5217H26.3689C26.3689 38.913 27.5308 40.0326 28.9444 40.0326V39.5326ZM39.83 39.5326H28.9444V40.0326H39.83V39.5326ZM50.59 35.1848C46.3241 35.1848 42.4552 36.875 39.6555 39.6035L40.0045 39.9616C42.7135 37.3215 46.4581 35.6848 50.59 35.6848V35.1848ZM51.8934 35.2388C51.4639 35.2038 51.0294 35.1848 50.59 35.1848V35.6848C51.0151 35.6848 51.436 35.7031 51.8527 35.7371L51.8934 35.2388ZM50.8583 35.5108C51.1807 35.5108 51.4894 35.5836 51.7665 35.7141L51.9795 35.2618C51.6377 35.1008 51.2564 35.0108 50.8583 35.0108V35.5108ZM28.9444 41.7717H38.3016V41.2717H28.9444V41.7717ZM26.8689 43.7826C26.8689 42.6806 27.7934 41.7717 28.9444 41.7717V41.2717C27.5307 41.2717 26.3689 42.3913 26.3689 43.7826H26.8689ZM28.9444 45.7934C27.7934 45.7934 26.8689 44.8846 26.8689 43.7826H26.3689C26.3689 45.1739 27.5307 46.2934 28.9444 46.2934V45.7934ZM36.0027 45.7934H28.9444V46.2934H36.0027V45.7934ZM38.1017 41.3716C37.0693 42.7467 36.2707 44.2983 35.7634 45.9709L36.2419 46.116C36.7318 44.5008 37.5032 43.0015 38.5016 41.6718L38.1017 41.3716ZM28.9444 48.0326H35.5919V47.5326H28.9444V48.0326ZM26.8689 50.0434C26.8689 48.9414 27.7934 48.0326 28.9444 48.0326V47.5326C27.5307 47.5326 26.3689 48.6521 26.3689 50.0434H26.8689ZM28.9444 52.0543C27.7934 52.0543 26.8689 51.1454 26.8689 50.0434H26.3689C26.3689 51.4348 27.5307 52.5543 28.9444 52.5543V52.0543ZM35.5367 52.0543H28.9444V52.5543H35.5367V52.0543ZM35.1345 50.2174C35.1345 50.9382 35.1881 51.6468 35.2894 52.3404L35.7841 52.2682C35.6863 51.5978 35.6345 50.9133 35.6345 50.2174H35.1345ZM35.3455 47.7404C35.2075 48.5464 35.1345 49.3737 35.1345 50.2174H35.6345C35.6345 49.4026 35.705 48.6036 35.8383 47.8247L35.3455 47.7404ZM28.9444 58.3151C27.7934 58.3151 26.8689 57.4063 26.8689 56.3043H26.3689C26.3689 57.6956 27.5307 58.8151 28.9444 58.8151V58.3151ZM38.048 58.3151H28.9444V58.8151H38.048V58.3151ZM35.6609 54.1099C36.1202 55.7744 36.8661 57.3252 37.8438 58.7094L38.2522 58.4209C37.3069 57.0826 36.5864 55.5842 36.1429 53.9769L35.6609 54.1099ZM28.9444 54.2934H35.9019V53.7934H28.9444V54.2934ZM26.8689 56.3043C26.8689 55.2023 27.7934 54.2934 28.9444 54.2934V53.7934C27.5307 53.7934 26.3689 54.9129 26.3689 56.3043H26.8689ZM50.59 63.0109C43.3235 63.0109 37.4234 57.2649 37.4234 50.2174H36.9234C36.9234 57.5543 43.0607 63.5109 50.59 63.5109V63.0109ZM63.7567 50.2174C63.7567 57.2649 57.8566 63.0109 50.59 63.0109V63.5109C58.1194 63.5109 64.2567 57.5543 64.2567 50.2174H63.7567ZM50.59 37.424C57.8566 37.424 63.7567 43.1699 63.7567 50.2174H64.2567C64.2567 42.8806 58.1194 36.924 50.59 36.924V37.424ZM37.4234 50.2174C37.4234 43.1699 43.3235 37.424 50.59 37.424V36.924C43.0607 36.924 36.9234 42.8806 36.9234 50.2174H37.4234ZM50.5858 48.9112C49.426 48.9112 48.5585 48.1248 48.5585 47.245H48.0585C48.0585 48.4783 49.2342 49.4112 50.5858 49.4112V48.9112ZM55.1833 53.0901C55.1833 50.7624 53.0967 48.9112 50.5858 48.9112V49.4112C52.8693 49.4112 54.6833 51.0849 54.6833 53.0901H55.1833ZM51.675 57.1496C53.6689 56.7078 55.1833 55.0704 55.1833 53.0901H54.6833C54.6833 54.798 53.371 56.2617 51.5668 56.6615L51.675 57.1496ZM51.8709 57.3403V56.9056H51.3709V57.3403H51.8709ZM50.5858 58.5966C51.2887 58.5966 51.8709 58.0407 51.8709 57.3403H51.3709C51.3709 57.7513 51.026 58.0966 50.5858 58.0966V58.5966ZM49.3006 57.3403C49.3006 58.0407 49.8828 58.5966 50.5858 58.5966V58.0966C50.1456 58.0966 49.8006 57.7513 49.8006 57.3403H49.3006ZM49.3006 56.9056V57.3403H49.8006V56.9056H49.3006ZM45.9883 53.0901C45.9883 55.0704 47.5027 56.7078 49.4966 57.1496L49.6047 56.6615C47.8006 56.2617 46.4883 54.798 46.4883 53.0901H45.9883ZM47.2734 51.8337C46.5704 51.8337 45.9883 52.3897 45.9883 53.0901H46.4883C46.4883 52.6791 46.8332 52.3337 47.2734 52.3337V51.8337ZM48.5585 53.0901C48.5585 52.3897 47.9764 51.8337 47.2734 51.8337V52.3337C47.7136 52.3337 48.0585 52.6791 48.0585 53.0901H48.5585ZM50.5858 54.7563C49.426 54.7563 48.5585 53.9699 48.5585 53.0901H48.0585C48.0585 54.3235 49.2342 55.2563 50.5858 55.2563V54.7563ZM52.613 53.0901C52.613 53.9699 51.7456 54.7563 50.5858 54.7563V55.2563C51.9374 55.2563 53.113 54.3235 53.113 53.0901H52.613ZM50.5858 51.4238C51.7456 51.4238 52.613 52.2102 52.613 53.0901H53.113C53.113 51.8567 51.9374 50.9238 50.5858 50.9238V51.4238ZM45.9883 47.245C45.9883 49.5726 48.0749 51.4238 50.5858 51.4238V50.9238C48.3022 50.9238 46.4883 49.2501 46.4883 47.245H45.9883ZM49.4966 43.1855C47.5027 43.6273 45.9883 45.2647 45.9883 47.245H46.4883C46.4883 45.5371 47.8006 44.0734 49.6047 43.6736L49.4966 43.1855ZM49.3006 42.9061V43.4295H49.8006V42.9061H49.3006ZM50.5858 41.6498C49.8828 41.6498 49.3006 42.2058 49.3006 42.9061H49.8006C49.8006 42.4951 50.1456 42.1498 50.5858 42.1498V41.6498ZM51.8709 42.9061C51.8709 42.2058 51.2887 41.6498 50.5858 41.6498V42.1498C51.026 42.1498 51.3709 42.4951 51.3709 42.9061H51.8709ZM51.8709 43.4295V42.9061H51.3709V43.4295H51.8709ZM55.1833 47.245C55.1833 45.2647 53.6689 43.6273 51.675 43.1855L51.5668 43.6736C53.371 44.0734 54.6833 45.5371 54.6833 47.245H55.1833ZM53.8982 48.5014C54.6011 48.5014 55.1833 47.9454 55.1833 47.245H54.6833C54.6833 47.656 54.3384 48.0014 53.8982 48.0014V48.5014ZM52.613 47.245C52.613 47.9454 53.1952 48.5014 53.8982 48.5014V48.0014C53.4579 48.0014 53.113 47.656 53.113 47.245H52.613ZM50.5858 45.5788C51.7456 45.5788 52.613 46.3651 52.613 47.245H53.113C53.113 46.0116 51.9374 45.0788 50.5858 45.0788V45.5788ZM48.5585 47.245C48.5585 46.3651 49.426 45.5788 50.5858 45.5788V45.0788C49.2342 45.0788 48.0585 46.0116 48.0585 47.245H48.5585Z" fill="#FF872C"/>
<path d="M99 42.1052C99 48.6534 103.51 53.0831 109.376 53.0831C113.367 53.0831 116.2 51.0416 117.517 48.769V53.1987C117.517 57.7054 114.604 60.0937 110.733 60.0937C107.141 60.0937 104.547 58.3603 103.749 55.8181H100.157C100.876 60.3248 104.986 63.1367 110.733 63.1367C117.158 63.1367 121.189 59.0151 121.189 53.1987V31.6279H117.517V35.48C116.24 33.2073 113.367 31.2814 109.376 31.2814C103.51 31.2814 99 35.5184 99 42.1052ZM117.517 42.1438C117.517 47.1128 114.085 50.0017 110.094 50.0017C106.104 50.0017 102.711 47.0742 102.711 42.1052C102.711 37.1362 106.104 34.3243 110.094 34.3243C114.085 34.3243 117.517 37.2518 117.517 42.1438Z" fill="white"/>
<path d="M148.078 42.1438C148.078 35.48 143.25 31.2814 137.024 31.2814C130.838 31.2814 125.969 35.48 125.969 42.1438C125.969 48.8462 130.678 53.0831 136.864 53.0831C143.09 53.0831 148.078 48.8462 148.078 42.1438ZM129.681 42.1438C129.681 36.8281 133.153 34.3243 136.984 34.3243C140.735 34.3243 144.367 36.8281 144.367 42.1438C144.367 47.4979 140.655 50.0017 136.864 50.0017C133.073 50.0017 129.681 47.4979 129.681 42.1438Z" fill="white"/>
<path d="M154.942 52.7368H159.531V35.0951H163.602V31.5127H159.531V30.0105C159.531 27.5837 160.489 26.6593 163.283 26.6593V23C157.536 23 154.942 25.1185 154.942 30.0105V31.5127H152.348V35.0951H154.942V52.7368Z" fill="white"/>
<path d="M167.634 52.7368H172.183V31.5127H167.634V52.7368ZM169.948 28.7008C171.545 28.7008 172.822 27.4681 172.822 25.8889C172.822 24.3097 171.545 23.077 169.948 23.077C168.312 23.077 167.035 24.3097 167.035 25.8889C167.035 27.4681 168.312 28.7008 169.948 28.7008Z" fill="white"/>
<path d="M193.761 52.7368H198.27V40.218C198.27 34.2861 194.399 31.166 189.251 31.166C186.617 31.166 184.183 32.2062 182.706 33.9394V31.5127H178.157V52.7368H182.706V40.8729C182.706 36.9824 184.901 34.9795 188.253 34.9795C191.566 34.9795 193.761 36.9824 193.761 40.8729V52.7368Z" fill="white"/>
<path d="M202.557 42.0284C202.557 48.5768 207.146 53.0835 212.853 53.0835C216.525 53.0835 219.159 51.3887 220.556 49.5782V52.7368H225.145V31.5127H220.556V34.5942C219.199 32.8608 216.645 31.166 212.933 31.166C207.146 31.166 202.557 35.4802 202.557 42.0284ZM220.556 42.1056C220.556 46.6893 217.323 49.27 213.891 49.27C210.499 49.27 207.226 46.6123 207.226 42.0284C207.226 37.4447 210.499 34.9795 213.891 34.9795C217.323 34.9795 220.556 37.5603 220.556 42.1056Z" fill="white"/>
<path d="M246.725 52.7368H251.234V40.218C251.234 34.2861 247.363 31.166 242.215 31.166C239.581 31.166 237.147 32.2062 235.67 33.9394V31.5127H231.121V52.7368H235.67V40.8729C235.67 36.9824 237.865 34.9795 241.217 34.9795C244.53 34.9795 246.725 36.9824 246.725 40.8729V52.7368Z" fill="white"/>
<path d="M255.521 42.1056C255.521 48.7694 259.991 53.0835 266.296 53.0835C271.684 53.0835 275.196 50.1946 276.433 46.0344H271.524C270.686 48.2301 269.01 49.3856 266.296 49.3856C262.625 49.3856 260.19 46.7663 260.19 42.1056C260.19 37.4833 262.625 34.8639 266.296 34.8639C269.01 34.8639 270.766 36.1736 271.524 38.2151H276.433C275.196 33.7468 271.684 31.166 266.296 31.166C259.991 31.166 255.521 35.4802 255.521 42.1056Z" fill="white"/>
<path d="M290.226 34.8639C293.618 34.8639 296.292 36.944 296.372 40.218H284.199C284.678 36.8669 287.152 34.8639 290.226 34.8639ZM300.521 46.4197H295.613C294.775 48.0759 293.218 49.3856 290.425 49.3856C287.073 49.3856 284.479 47.2671 284.159 43.7618H300.962C301.081 43.03 301.12 42.3367 301.12 41.6047C301.12 35.3646 296.691 31.166 290.425 31.166C283.92 31.166 279.45 35.4416 279.45 42.1056C279.45 48.7694 284.12 53.0835 290.425 53.0835C295.812 53.0835 299.286 50.1174 300.521 46.4197Z" fill="white"/>
<path d="M322 46.8048C321.76 39.1395 309.348 41.5277 309.348 37.2522C309.348 35.8269 310.627 34.8639 313.061 34.8639C315.535 34.8639 317.012 36.135 317.17 37.984H321.721C321.481 33.7468 318.209 31.166 313.219 31.166C308.033 31.166 304.76 33.901 304.76 37.2905C304.76 45.0715 317.531 42.6832 317.531 46.8434C317.531 48.3071 316.133 49.3856 313.5 49.3856C310.986 49.3856 309.269 47.9604 309.109 46.227H304.4C304.6 50.079 308.311 53.0835 313.58 53.0835C318.768 53.0835 322 50.3872 322 46.8048Z" fill="white"/>
</svg>
