<svg width="1086" height="220" viewBox="0 0 1086 220" fill="none" xmlns="http://www.w3.org/2000/svg">
<path d="M0.5 32C0.5 20.7989 0.5 15.1984 2.67987 10.9202C4.59734 7.15695 7.65695 4.09734 11.4202 2.17987C15.6984 0 21.299 0 32.5 0H188.5C199.701 0 205.302 0 209.58 2.17987C213.343 4.09734 216.403 7.15695 218.32 10.9202C220.5 15.1984 220.5 20.799 220.5 32V188C220.5 199.201 220.5 204.802 218.32 209.08C216.403 212.843 213.343 215.903 209.58 217.82C205.302 220 199.701 220 188.5 220H32.5C21.2989 220 15.6984 220 11.4202 217.82C7.65695 215.903 4.59734 212.843 2.67987 209.08C0.5 204.802 0.5 199.201 0.5 188V32Z" fill="#5636D3"/>
<path fill-rule="evenodd" clip-rule="evenodd" d="M139.29 90.2022C139.687 90.7661 140.028 91.374 140.306 92.0191C156.726 96.4491 168.814 111.109 168.814 128.463C168.814 149.315 151.365 166.279 129.916 166.279C118.719 166.279 108.613 161.654 101.509 154.267H74.5439C68.7403 154.267 64.0186 149.676 64.0186 144.034C64.0186 140.794 65.5777 137.902 68.0033 136.026C65.5777 134.15 64.0186 131.258 64.0186 128.018C64.0186 124.778 65.5777 121.886 68.0033 120.01C65.5777 118.134 64.0186 115.242 64.0186 112.002C64.0186 108.762 65.5777 105.87 68.0033 103.994C65.5777 102.118 64.0186 99.2262 64.0186 95.9858C64.0186 90.3436 68.7403 85.7532 74.5439 85.7532H80.5113C79.3462 84.1067 78.6625 82.1147 78.6625 79.9696C78.6625 77.8246 79.3464 75.8326 80.5113 74.186H62.1881C56.3845 74.186 51.6628 69.5956 51.6628 63.9535C51.6628 58.3114 56.3845 53.7209 62.1881 53.7209H118.247C124.05 53.7209 128.772 58.3114 128.772 63.9535C128.772 66.0985 128.088 68.0905 126.923 69.7371H145.246C151.05 69.7371 155.772 74.3275 155.772 79.9696C155.772 85.6118 151.05 90.2022 145.246 90.2022H139.29ZM151.196 79.9696C151.196 76.7806 148.527 74.186 145.246 74.186H89.1878C85.9073 74.186 83.2387 76.7806 83.2387 79.9696C83.2387 83.1586 85.9073 85.7532 89.1878 85.7532H130.603H145.246C148.527 85.7532 151.196 83.1586 151.196 79.9696ZM56.239 63.9535C56.239 67.1425 58.9076 69.7371 62.1881 69.7371H118.247C121.527 69.7371 124.196 67.1425 124.196 63.9535C124.196 60.7645 121.527 58.1699 118.247 58.1699H62.1881C58.9076 58.1699 56.239 60.7645 56.239 63.9535ZM130.603 90.2022H74.5439C71.2636 90.2022 68.5948 92.7968 68.5948 95.9858C68.5948 99.1748 71.2636 101.769 74.5439 101.769H102.391C109.437 94.9025 119.175 90.6473 129.916 90.6473C131.022 90.6473 132.116 90.6949 133.198 90.7832C132.407 90.4104 131.524 90.2022 130.603 90.2022ZM98.4809 106.218H74.5439C71.2634 106.218 68.5948 108.813 68.5948 112.002C68.5948 115.191 71.2634 117.786 74.5439 117.786H92.5998C93.8752 113.58 95.8835 109.678 98.4809 106.218ZM91.5491 122.234H74.5439C71.2634 122.234 68.5948 124.829 68.5948 128.018C68.5948 131.207 71.2634 133.802 74.5439 133.802H91.4079C91.1533 132.057 91.0185 130.275 91.0185 128.463C91.0185 126.342 91.202 124.262 91.5491 122.234ZM68.5948 144.034C68.5948 147.223 71.2634 149.818 74.5439 149.818H97.832C95.3723 146.336 93.4968 142.435 92.3422 138.251H74.5439C71.2634 138.251 68.5948 140.845 68.5948 144.034ZM95.5947 128.463C95.5947 146.862 110.991 161.83 129.916 161.83C148.841 161.83 164.238 146.862 164.238 128.463C164.238 110.065 148.841 95.0962 129.916 95.0962C110.991 95.0962 95.5947 110.065 95.5947 128.463ZM124.08 120.86C124.08 123.562 126.693 125.761 129.905 125.761C136.038 125.761 141.027 130.27 141.027 135.812C141.027 140.529 137.411 144.496 132.553 145.573V146.685C132.553 148.106 131.368 149.259 129.905 149.259C128.443 149.259 127.258 148.106 127.258 146.685V145.573C122.4 144.496 118.784 140.529 118.784 135.812C118.784 134.39 119.97 133.238 121.432 133.238C122.894 133.238 124.08 134.39 124.08 135.812C124.08 138.515 126.693 140.714 129.905 140.714C133.118 140.714 135.731 138.515 135.731 135.812C135.731 133.109 133.118 130.91 129.905 130.91C123.773 130.91 118.784 126.401 118.784 120.86C118.784 116.142 122.4 112.176 127.258 111.099V109.76C127.258 108.339 128.443 107.186 129.905 107.186C131.368 107.186 132.553 108.339 132.553 109.76V111.099C137.411 112.176 141.027 116.142 141.027 120.86C141.027 122.281 139.841 123.434 138.379 123.434C136.917 123.434 135.731 122.281 135.731 120.86C135.731 118.157 133.118 115.958 129.905 115.958C126.693 115.958 124.08 118.157 124.08 120.86Z" fill="#FF872C"/>
<path d="M140.306 92.0191L140.077 92.1182L140.125 92.229L140.241 92.2605L140.306 92.0191ZM139.29 90.2022V89.9522H138.808L139.085 90.3461L139.29 90.2022ZM101.509 154.267L101.689 154.093L101.616 154.017H101.509V154.267ZM68.0033 136.026L68.1563 136.224L68.4119 136.026L68.1563 135.828L68.0033 136.026ZM68.0033 120.01L68.1563 120.208L68.4119 120.01L68.1563 119.812L68.0033 120.01ZM68.0033 103.994L68.1563 104.192L68.4119 103.994L68.1563 103.796L68.0033 103.994ZM80.5113 85.7532V86.0032H80.9944L80.7154 85.6088L80.5113 85.7532ZM80.5113 74.186L80.7154 74.3304L80.9944 73.936H80.5113V74.186ZM126.923 69.7371L126.719 69.5927L126.44 69.9871H126.923V69.7371ZM102.391 101.769V102.019H102.492L102.565 101.948L102.391 101.769ZM133.198 90.7832L133.178 91.0324L133.305 90.557L133.198 90.7832ZM98.4809 106.218L98.6809 106.368L98.9813 105.968H98.4809V106.218ZM92.5998 117.786V118.036H92.7852L92.8391 117.858L92.5998 117.786ZM91.5491 122.234L91.7955 122.277L91.8456 121.984H91.5491V122.234ZM91.4079 133.802V134.052H91.6971L91.6553 133.766L91.4079 133.802ZM97.832 149.818V150.068H98.3147L98.0362 149.674L97.832 149.818ZM92.3422 138.251L92.5832 138.184L92.5325 138.001H92.3422V138.251ZM132.553 145.573L132.499 145.329L132.303 145.372V145.573H132.553ZM127.258 145.573H127.508V145.372L127.312 145.329L127.258 145.573ZM127.258 111.099L127.312 111.343L127.508 111.3V111.099H127.258ZM132.553 111.099H132.303V111.3L132.499 111.343L132.553 111.099ZM140.536 91.92C140.25 91.2592 139.901 90.6362 139.494 90.0583L139.085 90.3461C139.472 90.8959 139.805 91.4889 140.077 92.1182L140.536 91.92ZM169.064 128.463C169.064 110.988 156.893 96.2352 140.371 91.7777L140.241 92.2605C156.559 96.663 168.564 111.229 168.564 128.463H169.064ZM129.916 166.529C151.496 166.529 169.064 149.46 169.064 128.463H168.564C168.564 149.17 151.233 166.029 129.916 166.029V166.529ZM101.329 154.44C108.479 161.874 118.649 166.529 129.916 166.529V166.029C118.789 166.029 108.747 161.433 101.689 154.093L101.329 154.44ZM74.5439 154.517H101.509V154.017H74.5439V154.517ZM63.7686 144.034C63.7686 149.821 68.6089 154.517 74.5439 154.517V154.017C68.8717 154.017 64.2686 149.532 64.2686 144.034H63.7686ZM67.8504 135.828C65.3678 137.749 63.7686 140.711 63.7686 144.034H64.2686C64.2686 140.876 65.7876 138.056 68.1563 136.224L67.8504 135.828ZM63.7686 128.018C63.7686 131.341 65.3678 134.304 67.8504 136.224L68.1563 135.828C65.7876 133.996 64.2686 131.176 64.2686 128.018H63.7686ZM67.8504 119.812C65.3678 121.732 63.7686 124.695 63.7686 128.018H64.2686C64.2686 124.86 65.7876 122.04 68.1563 120.208L67.8504 119.812ZM63.7686 112.002C63.7686 115.325 65.3678 118.288 67.8504 120.208L68.1563 119.812C65.7876 117.98 64.2686 115.16 64.2686 112.002H63.7686ZM67.8504 103.796C65.3678 105.716 63.7686 108.679 63.7686 112.002H64.2686C64.2686 108.844 65.7876 106.024 68.1563 104.192L67.8504 103.796ZM63.7686 95.9858C63.7686 99.3088 65.3678 102.271 67.8504 104.192L68.1563 103.796C65.7876 101.964 64.2686 99.1435 64.2686 95.9858H63.7686ZM74.5439 85.5032C68.6089 85.5032 63.7686 90.199 63.7686 95.9858H64.2686C64.2686 90.4883 68.8717 86.0032 74.5439 86.0032V85.5032ZM80.5113 85.5032H74.5439V86.0032H80.5113V85.5032ZM78.4125 79.9696C78.4125 82.1688 79.1136 84.2109 80.3072 85.8976L80.7154 85.6088C79.5787 84.0025 78.9125 82.0605 78.9125 79.9696H78.4125ZM80.3072 74.0416C79.1139 75.7284 78.4125 77.7704 78.4125 79.9696H78.9125C78.9125 77.8787 79.5789 75.9368 80.7154 74.3304L80.3072 74.0416ZM62.1881 74.436H80.5113V73.936H62.1881V74.436ZM51.4128 63.9535C51.4128 69.7403 56.2531 74.436 62.1881 74.436V73.936C56.5159 73.936 51.9128 69.4509 51.9128 63.9535H51.4128ZM62.1881 53.4709C56.2531 53.4709 51.4128 58.1667 51.4128 63.9535H51.9128C51.9128 58.456 56.5159 53.9709 62.1881 53.9709V53.4709ZM118.247 53.4709H62.1881V53.9709H118.247V53.4709ZM129.022 63.9535C129.022 58.1667 124.182 53.4709 118.247 53.4709V53.9709C123.919 53.9709 128.522 58.456 128.522 63.9535H129.022ZM127.127 69.8815C128.321 68.1947 129.022 66.1527 129.022 63.9535H128.522C128.522 66.0444 127.856 67.9864 126.719 69.5927L127.127 69.8815ZM145.246 69.4871H126.923V69.9871H145.246V69.4871ZM156.022 79.9696C156.022 74.1828 151.181 69.4871 145.246 69.4871V69.9871C150.919 69.9871 155.522 74.4722 155.522 79.9696H156.022ZM145.246 90.4522C151.181 90.4522 156.022 85.7564 156.022 79.9696H155.522C155.522 85.4671 150.919 89.9522 145.246 89.9522V90.4522ZM139.29 90.4522H145.246V89.9522H139.29V90.4522ZM145.246 74.436C148.396 74.436 150.946 76.9253 150.946 79.9696H151.446C151.446 76.636 148.658 73.936 145.246 73.936V74.436ZM89.1878 74.436H145.246V73.936H89.1878V74.436ZM83.4887 79.9696C83.4887 76.9253 86.0387 74.436 89.1878 74.436V73.936C85.7759 73.936 82.9887 76.636 82.9887 79.9696H83.4887ZM89.1878 85.5032C86.0387 85.5032 83.4887 83.014 83.4887 79.9696H82.9887C82.9887 83.3033 85.7759 86.0032 89.1878 86.0032V85.5032ZM130.603 85.5032H89.1878V86.0032H130.603V85.5032ZM145.246 85.5032H130.603V86.0032H145.246V85.5032ZM150.946 79.9696C150.946 83.014 148.396 85.5032 145.246 85.5032V86.0032C148.658 86.0032 151.446 83.3033 151.446 79.9696H150.946ZM62.1881 69.4871C59.039 69.4871 56.489 66.9978 56.489 63.9535H55.989C55.989 67.2871 58.7762 69.9871 62.1881 69.9871V69.4871ZM118.247 69.4871H62.1881V69.9871H118.247V69.4871ZM123.946 63.9535C123.946 66.9978 121.396 69.4871 118.247 69.4871V69.9871C121.659 69.9871 124.446 67.2871 124.446 63.9535H123.946ZM118.247 58.4199C121.396 58.4199 123.946 60.9092 123.946 63.9535H124.446C124.446 60.6198 121.659 57.9199 118.247 57.9199V58.4199ZM62.1881 58.4199H118.247V57.9199H62.1881V58.4199ZM56.489 63.9535C56.489 60.9092 59.039 58.4199 62.1881 58.4199V57.9199C58.7762 57.9199 55.989 60.6198 55.989 63.9535H56.489ZM74.5439 90.4522H130.603V89.9522H74.5439V90.4522ZM68.8448 95.9858C68.8448 92.9415 71.395 90.4522 74.5439 90.4522V89.9522C71.1323 89.9522 68.3448 92.6521 68.3448 95.9858H68.8448ZM74.5439 101.519C71.395 101.519 68.8448 99.0301 68.8448 95.9858H68.3448C68.3448 99.3194 71.1323 102.019 74.5439 102.019V101.519ZM102.391 101.519H74.5439V102.019H102.391V101.519ZM129.916 90.3973C119.108 90.3973 109.308 94.6792 102.216 101.59L102.565 101.948C109.566 95.1257 119.242 90.8973 129.916 90.8973V90.3973ZM133.219 90.534C132.13 90.4452 131.029 90.3973 129.916 90.3973V90.8973C131.015 90.8973 132.102 90.9446 133.178 91.0324L133.219 90.534ZM130.603 90.4522C131.486 90.4522 132.333 90.6518 133.092 91.0094L133.305 90.557C132.481 90.169 131.562 89.9522 130.603 89.9522V90.4522ZM74.5439 106.468H98.4809V105.968H74.5439V106.468ZM68.8448 112.002C68.8448 108.958 71.3948 106.468 74.5439 106.468V105.968C71.132 105.968 68.3448 108.668 68.3448 112.002H68.8448ZM74.5439 117.536C71.3948 117.536 68.8448 115.046 68.8448 112.002H68.3448C68.3448 115.336 71.132 118.036 74.5439 118.036V117.536ZM92.5998 117.536H74.5439V118.036H92.5998V117.536ZM98.281 106.068C95.6665 109.551 93.6447 113.479 92.3606 117.713L92.8391 117.858C94.1057 113.681 96.1005 109.805 98.6809 106.368L98.281 106.068ZM74.5439 122.484H91.5491V121.984H74.5439V122.484ZM68.8448 128.018C68.8448 124.974 71.3948 122.484 74.5439 122.484V121.984C71.132 121.984 68.3448 124.684 68.3448 128.018H68.8448ZM74.5439 133.552C71.3948 133.552 68.8448 131.063 68.8448 128.018H68.3448C68.3448 131.352 71.132 134.052 74.5439 134.052V133.552ZM91.4079 133.552H74.5439V134.052H91.4079V133.552ZM90.7685 128.463C90.7685 130.288 90.9042 132.082 91.1606 133.838L91.6553 133.766C91.4023 132.033 91.2685 130.263 91.2685 128.463H90.7685ZM91.3027 122.192C90.9533 124.233 90.7685 126.327 90.7685 128.463H91.2685C91.2685 126.356 91.4508 124.29 91.7955 122.277L91.3027 122.192ZM74.5439 149.568C71.3948 149.568 68.8448 147.079 68.8448 144.034H68.3448C68.3448 147.368 71.132 150.068 74.5439 150.068V149.568ZM97.832 149.568H74.5439V150.068H97.832V149.568ZM92.1012 138.317C93.2636 142.531 95.1519 146.457 97.6278 149.962L98.0362 149.674C95.5927 146.214 93.7299 142.34 92.5832 138.184L92.1012 138.317ZM74.5439 138.501H92.3422V138.001H74.5439V138.501ZM68.8448 144.034C68.8448 140.99 71.3948 138.501 74.5439 138.501V138.001C71.132 138.001 68.3448 140.7 68.3448 144.034H68.8448ZM129.916 161.58C111.123 161.58 95.8447 146.717 95.8447 128.463H95.3447C95.3447 147.006 110.86 162.08 129.916 162.08V161.58ZM163.988 128.463C163.988 146.717 148.71 161.58 129.916 161.58V162.08C148.973 162.08 164.488 147.006 164.488 128.463H163.988ZM129.916 95.3462C148.71 95.3462 163.988 110.209 163.988 128.463H164.488C164.488 109.92 148.973 94.8462 129.916 94.8462V95.3462ZM95.8447 128.463C95.8447 110.209 111.123 95.3462 129.916 95.3462V94.8462C110.86 94.8462 95.3447 109.92 95.3447 128.463H95.8447ZM129.905 125.511C126.789 125.511 124.33 123.386 124.33 120.86H123.83C123.83 123.739 126.597 126.011 129.905 126.011V125.511ZM141.277 135.812C141.277 130.109 136.152 125.511 129.905 125.511V126.011C135.924 126.011 140.777 130.431 140.777 135.812H141.277ZM132.608 145.817C137.56 144.719 141.277 140.666 141.277 135.812H140.777C140.777 140.393 137.263 144.273 132.499 145.329L132.608 145.817ZM132.803 146.685V145.573H132.303V146.685H132.803ZM129.905 149.509C131.499 149.509 132.803 148.251 132.803 146.685H132.303C132.303 147.962 131.236 149.009 129.905 149.009V149.509ZM127.008 146.685C127.008 148.251 128.312 149.509 129.905 149.509V149.009C128.575 149.009 127.508 147.962 127.508 146.685H127.008ZM127.008 145.573V146.685H127.508V145.573H127.008ZM118.534 135.812C118.534 140.666 122.251 144.719 127.203 145.817L127.312 145.329C122.548 144.273 119.034 140.393 119.034 135.812H118.534ZM121.432 132.988C119.838 132.988 118.534 134.246 118.534 135.812H119.034C119.034 134.535 120.101 133.488 121.432 133.488V132.988ZM124.33 135.812C124.33 134.246 123.026 132.988 121.432 132.988V133.488C122.763 133.488 123.83 134.535 123.83 135.812H124.33ZM129.905 140.464C126.789 140.464 124.33 138.338 124.33 135.812H123.83C123.83 138.692 126.597 140.964 129.905 140.964V140.464ZM135.481 135.812C135.481 138.338 133.022 140.464 129.905 140.464V140.964C133.214 140.964 135.981 138.692 135.981 135.812H135.481ZM129.905 131.16C133.022 131.16 135.481 133.286 135.481 135.812H135.981C135.981 132.932 133.214 130.66 129.905 130.66V131.16ZM118.534 120.86C118.534 126.563 123.659 131.16 129.905 131.16V130.66C123.887 130.66 119.034 126.24 119.034 120.86H118.534ZM127.203 110.855C122.251 111.953 118.534 116.006 118.534 120.86H119.034C119.034 116.278 122.548 112.399 127.312 111.343L127.203 110.855ZM127.008 109.76V111.099H127.508V109.76H127.008ZM129.905 106.936C128.312 106.936 127.008 108.194 127.008 109.76H127.508C127.508 108.483 128.575 107.436 129.905 107.436V106.936ZM132.803 109.76C132.803 108.194 131.499 106.936 129.905 106.936V107.436C131.236 107.436 132.303 108.483 132.303 109.76H132.803ZM132.803 111.099V109.76H132.303V111.099H132.803ZM141.277 120.86C141.277 116.006 137.56 111.953 132.608 110.855L132.499 111.343C137.263 112.399 140.777 116.278 140.777 120.86H141.277ZM138.379 123.684C139.973 123.684 141.277 122.426 141.277 120.86H140.777C140.777 122.136 139.71 123.184 138.379 123.184V123.684ZM135.481 120.86C135.481 122.426 136.785 123.684 138.379 123.684V123.184C137.048 123.184 135.981 122.136 135.981 120.86H135.481ZM129.905 116.208C133.022 116.208 135.481 118.333 135.481 120.86H135.981C135.981 117.98 133.214 115.708 129.905 115.708V116.208ZM124.33 120.86C124.33 118.333 126.789 116.208 129.905 116.208V115.708C126.597 115.708 123.83 117.98 123.83 120.86H124.33Z" fill="#FF872C"/>
<path d="M252.5 106.4C252.5 130.873 269.354 147.427 291.278 147.427C306.193 147.427 316.782 139.798 321.704 131.305V147.859C321.704 164.702 310.816 173.627 296.349 173.627C282.926 173.627 273.231 167.149 270.248 157.649H256.825C259.51 174.491 274.872 185 296.349 185C320.361 185 335.425 169.597 335.425 147.859V67.2445H321.704V81.6405C316.931 73.1471 306.193 65.9495 291.278 65.9495C269.354 65.9495 252.5 81.784 252.5 106.4ZM321.704 106.545C321.704 125.115 308.877 135.911 293.963 135.911C279.048 135.911 266.371 124.971 266.371 106.4C266.371 87.8302 279.048 77.3214 293.963 77.3214C308.877 77.3214 321.704 88.2621 321.704 106.545Z" fill="white"/>
<path d="M435.917 106.545C435.917 81.6405 417.87 65.9495 394.603 65.9495C371.486 65.9495 353.29 81.6405 353.29 106.545C353.29 131.593 370.89 147.427 394.007 147.427C417.274 147.427 435.917 131.593 435.917 106.545ZM367.161 106.545C367.161 86.6786 380.136 77.3214 394.455 77.3214C408.474 77.3214 422.046 86.6786 422.046 106.545C422.046 126.554 408.176 135.911 394.007 135.911C379.838 135.911 367.161 126.554 367.161 106.545Z" fill="white"/>
<path d="M461.567 146.133H478.719V80.2018H493.932V66.8138H478.719V61.1996C478.719 52.1301 482.298 48.6754 492.739 48.6754V34.9998C471.261 34.9998 461.567 42.917 461.567 61.1996V66.8138H451.872V80.2018H461.567V146.133Z" fill="white"/>
<path d="M509 146.133H526.003V66.8134H509V146.133ZM517.65 56.3046C523.616 56.3046 528.389 51.6978 528.389 45.7959C528.389 39.894 523.616 35.2871 517.65 35.2871C511.535 35.2871 506.763 39.894 506.763 45.7959C506.763 51.6978 511.535 56.3046 517.65 56.3046Z" fill="white"/>
<path d="M606.643 146.133H623.496V99.3475C623.496 77.1784 609.029 65.5181 589.789 65.5181C579.945 65.5181 570.847 69.4053 565.329 75.8826V66.8138H548.327V146.133H565.329V101.795C565.329 87.2552 573.532 79.7699 586.06 79.7699C598.439 79.7699 606.643 87.2552 606.643 101.795V146.133Z" fill="white"/>
<path d="M639.516 106.113C639.516 130.586 656.668 147.429 677.995 147.429C691.717 147.429 701.56 141.095 706.781 134.328V146.133H723.932V66.8138H706.781V78.3299C701.71 71.8519 692.164 65.5181 678.294 65.5181C656.668 65.5181 639.516 81.641 639.516 106.113ZM706.781 106.402C706.781 123.532 694.7 133.177 681.873 133.177C669.196 133.177 656.966 123.244 656.966 106.113C656.966 88.9829 669.196 79.7699 681.873 79.7699C694.7 79.7699 706.781 89.4148 706.781 106.402Z" fill="white"/>
<path d="M804.581 146.133H821.434V99.3475C821.434 77.1784 806.967 65.5181 787.727 65.5181C777.884 65.5181 768.786 69.4053 763.267 75.8826V66.8138H746.265V146.133H763.267V101.795C763.267 87.2552 771.47 79.7699 783.999 79.7699C796.378 79.7699 804.581 87.2552 804.581 101.795V146.133Z" fill="white"/>
<path d="M837.454 106.402C837.454 131.306 854.158 147.429 877.724 147.429C897.859 147.429 910.983 136.632 915.607 121.085H897.262C894.13 129.29 887.865 133.609 877.724 133.609C864.002 133.609 854.904 123.82 854.904 106.402C854.904 89.1271 864.002 79.338 877.724 79.338C887.865 79.338 894.428 84.2325 897.262 91.8621H915.607C910.983 75.163 897.859 65.5181 877.724 65.5181C854.158 65.5181 837.454 81.641 837.454 106.402Z" fill="white"/>
<path d="M967.156 79.338C979.83 79.338 989.824 87.1117 990.123 99.3475H944.632C946.422 86.8233 955.668 79.338 967.156 79.338ZM1005.63 122.525H987.289C984.157 128.714 978.337 133.609 967.899 133.609C955.37 133.609 945.676 125.692 944.483 112.591H1007.28C1007.72 109.856 1007.87 107.265 1007.87 104.53C1007.87 81.2091 991.317 65.5181 967.899 65.5181C943.588 65.5181 926.884 81.4968 926.884 106.402C926.884 131.306 944.334 147.429 967.899 147.429C988.032 147.429 1001.01 136.344 1005.63 122.525Z" fill="white"/>
<path d="M1085.9 123.964C1085.01 95.3167 1038.62 104.242 1038.62 88.2633C1038.62 82.9368 1043.4 79.338 1052.5 79.338C1061.74 79.338 1067.26 84.0883 1067.85 90.9983H1084.86C1083.96 75.163 1071.73 65.5181 1053.09 65.5181C1033.7 65.5181 1021.47 75.7391 1021.47 88.4068C1021.47 117.486 1069.2 108.561 1069.2 124.108C1069.2 129.578 1063.98 133.609 1054.13 133.609C1044.74 133.609 1038.32 128.282 1037.72 121.804H1020.12C1020.88 136.2 1034.74 147.429 1054.43 147.429C1073.82 147.429 1085.9 137.352 1085.9 123.964Z" fill="white"/>
</svg>
