<svg width="265" height="86" viewBox="0 0 265 86" fill="none" xmlns="http://www.w3.org/2000/svg">
<path d="M0 32C0 20.7989 0 15.1984 2.17987 10.9202C4.09734 7.15695 7.15695 4.09734 10.9202 2.17987C15.1984 0 20.7989 0 32 0H54C65.2011 0 70.8016 0 75.0798 2.17987C78.8431 4.09734 81.9027 7.15695 83.8201 10.9202C86 15.1984 86 20.7989 86 32V54C86 65.2011 86 70.8016 83.8201 75.0798C81.9027 78.8431 78.8431 81.9027 75.0798 83.8201C70.8016 86 65.2011 86 54 86H32C20.7989 86 15.1984 86 10.9202 83.8201C7.15695 81.9027 4.09734 78.8431 2.17987 75.0798C0 70.8016 0 65.2011 0 54V32Z" fill="#CE3A49"/>
<path d="M31.7092 59C28.4062 59 25.4918 58.3362 22.966 57.0086C20.4726 55.6494 18.5135 53.7371 17.0887 51.2716C15.6962 48.7744 15 45.8348 15 42.4526C15 39.1652 15.6962 36.2888 17.0887 33.8233C18.4811 31.3578 20.4888 29.4454 23.1117 28.0862C25.7671 26.6954 28.9729 26 32.7293 26C34.4455 26 36.0322 26.1897 37.4894 26.569C38.979 26.9483 40.3876 27.5014 41.7153 28.2284L41.9096 34.8664H41.4239L38.7038 29.9353C38.2828 29.1451 37.8942 28.5761 37.538 28.2284C37.1818 27.8807 36.7285 27.6121 36.178 27.4224C35.6598 27.2644 35.1741 27.1537 34.7208 27.0905C34.2998 26.9957 33.7331 26.9483 33.0207 26.9483C31.013 26.9483 29.232 27.4698 27.6776 28.5129C26.1557 29.556 24.9737 31.2155 24.1318 33.4914C23.2898 35.7672 22.8689 38.7543 22.8689 42.4526C22.8689 46.1193 23.2575 49.1063 24.0346 51.4138C24.8442 53.7213 25.9776 55.4124 27.4348 56.4871C28.892 57.5302 30.5758 58.0517 32.4864 58.0517C32.7778 58.0517 33.0531 58.0359 33.3121 58.0043C33.6036 57.9411 33.8788 57.8779 34.1379 57.8147C34.7531 57.7198 35.1579 57.467 35.3522 57.056C35.5465 56.6451 35.6436 56.1552 35.6436 55.5862V46.1983C35.6436 44.9655 34.996 44.2069 33.7007 43.9224L31.4663 43.3534V42.8793H45.164V43.3534L44.484 43.5431C43.2535 43.9224 42.6382 44.7126 42.6382 45.9138V56.2026C40.9543 57.1193 39.2381 57.8147 37.4894 58.2888C35.7732 58.7629 33.8464 59 31.7092 59Z" fill="white"/>
<path d="M46.499 58.1465V57.6724L47.4705 57.3405C48.1181 57.1509 48.5391 56.8664 48.7334 56.4871C48.9601 56.1078 49.0734 55.602 49.0734 54.9698V30.125C49.0734 29.4928 48.9601 28.9871 48.7334 28.6078C48.5067 28.2284 48.0696 27.9282 47.4219 27.7069L46.499 27.3276V26.8534H58.3023C63.1273 26.8534 66.6084 27.7227 68.7456 29.4612C70.9152 31.1681 72 33.4282 72 36.2414C72 38.0431 71.5466 39.7026 70.6399 41.2198C69.7656 42.7055 68.3084 43.8908 66.2683 44.7759C64.2283 45.6609 61.4758 46.1034 58.0109 46.1034H56.3594V54.8276C56.3594 56.0603 56.9908 56.8664 58.2538 57.2457L59.711 57.6724V58.1465H46.499ZM56.3594 45.1552H58.2052C59.7919 45.1552 61.0872 44.9023 62.091 44.3966C63.0949 43.8908 63.8397 43.0057 64.3254 41.7414C64.8112 40.477 65.054 38.7227 65.054 36.4784C65.054 34.2026 64.7788 32.4325 64.2283 31.1681C63.7102 29.9037 62.933 29.0345 61.8968 28.5603C60.8605 28.0546 59.5652 27.8017 58.0109 27.8017H56.3594V45.1552Z" fill="white"/>
<g clip-path="url(#clip0_210_160)">
<path d="M115.581 60.864C112.317 60.864 109.437 60.192 106.941 58.848C104.477 57.472 102.541 55.536 101.133 53.04C99.7573 50.512 99.0693 47.536 99.0693 44.112C99.0693 40.784 99.7573 37.872 101.133 35.376C102.509 32.88 104.493 30.944 107.085 29.568C109.709 28.16 112.877 27.456 116.589 27.456C118.285 27.456 119.853 27.648 121.293 28.032C122.765 28.416 124.157 28.976 125.469 29.712L125.661 36.432H125.181L122.493 31.44C122.077 30.64 121.693 30.064 121.341 29.712C120.989 29.36 120.541 29.088 119.997 28.896C119.485 28.736 119.005 28.624 118.557 28.56C118.141 28.464 117.581 28.416 116.877 28.416C114.893 28.416 113.133 28.944 111.597 30C110.093 31.056 108.925 32.736 108.093 35.04C107.261 37.344 106.845 40.368 106.845 44.112C106.845 47.824 107.229 50.848 107.997 53.184C108.797 55.52 109.917 57.232 111.357 58.32C112.797 59.376 114.461 59.904 116.349 59.904C116.637 59.904 116.909 59.888 117.165 59.856C117.453 59.792 117.725 59.728 117.981 59.664C118.589 59.568 118.989 59.312 119.181 58.896C119.373 58.48 119.469 57.984 119.469 57.408V47.904C119.469 46.656 118.829 45.888 117.549 45.6L115.341 45.024V44.544H128.877V45.024L128.205 45.216C126.989 45.6 126.381 46.4 126.381 47.616V58.032C124.717 58.96 123.021 59.664 121.293 60.144C119.597 60.624 117.693 60.864 115.581 60.864ZM142.713 60.72C140.281 60.72 138.169 60.224 136.377 59.232C134.585 58.208 133.193 56.768 132.201 54.912C131.241 53.056 130.761 50.88 130.761 48.384C130.761 45.888 131.273 43.728 132.297 41.904C133.353 40.08 134.777 38.672 136.569 37.68C138.393 36.688 140.441 36.192 142.713 36.192C144.985 36.192 147.017 36.688 148.809 37.68C150.601 38.64 152.009 40.032 153.033 41.856C154.089 43.68 154.617 45.856 154.617 48.384C154.617 50.912 154.121 53.104 153.129 54.96C152.169 56.784 150.793 58.208 149.001 59.232C147.241 60.224 145.145 60.72 142.713 60.72ZM142.713 59.76C143.833 59.76 144.729 59.44 145.401 58.8C146.073 58.16 146.553 57.024 146.841 55.392C147.161 53.76 147.321 51.456 147.321 48.48C147.321 45.472 147.161 43.152 146.841 41.52C146.553 39.888 146.073 38.752 145.401 38.112C144.729 37.472 143.833 37.152 142.713 37.152C141.593 37.152 140.681 37.472 139.977 38.112C139.305 38.752 138.809 39.888 138.489 41.52C138.201 43.152 138.057 45.472 138.057 48.48C138.057 51.456 138.201 53.76 138.489 55.392C138.809 57.024 139.305 58.16 139.977 58.8C140.681 59.44 141.593 59.76 142.713 59.76ZM155.884 60V59.52L156.844 59.184C157.484 58.992 157.9 58.704 158.092 58.32C158.316 57.936 158.428 57.424 158.428 56.784V31.632C158.428 30.992 158.316 30.48 158.092 30.096C157.868 29.712 157.436 29.408 156.796 29.184L155.884 28.8V28.32H167.548C172.316 28.32 175.756 29.2 177.868 30.96C180.012 32.688 181.084 34.976 181.084 37.824C181.084 39.648 180.636 41.328 179.74 42.864C178.876 44.368 177.436 45.568 175.42 46.464C173.404 47.36 170.684 47.808 167.26 47.808H165.628V56.64C165.628 57.888 166.252 58.704 167.5 59.088L168.94 59.52V60H155.884ZM165.628 46.848H167.452C169.02 46.848 170.3 46.592 171.292 46.08C172.284 45.568 173.02 44.672 173.5 43.392C173.98 42.112 174.22 40.336 174.22 38.064C174.22 35.76 173.948 33.968 173.404 32.688C172.892 31.408 172.124 30.528 171.1 30.048C170.076 29.536 168.796 29.28 167.26 29.28H165.628V46.848ZM188.689 33.696C187.601 33.696 186.673 33.36 185.905 32.688C185.169 31.984 184.801 31.104 184.801 30.048C184.801 28.96 185.169 28.08 185.905 27.408C186.673 26.736 187.601 26.4 188.689 26.4C189.777 26.4 190.689 26.736 191.425 27.408C192.161 28.08 192.529 28.96 192.529 30.048C192.529 31.104 192.161 31.984 191.425 32.688C190.689 33.36 189.777 33.696 188.689 33.696ZM183.025 60V59.52L183.697 59.328C184.337 59.136 184.769 58.848 184.993 58.464C185.249 58.08 185.377 57.568 185.377 56.928V41.904C185.377 41.232 185.249 40.736 184.993 40.416C184.769 40.064 184.337 39.824 183.697 39.696L183.025 39.552V39.072L191.809 36.24L192.289 36.72L192.145 43.536V56.976C192.145 57.616 192.257 58.128 192.481 58.512C192.737 58.896 193.169 59.184 193.777 59.376L194.257 59.52V60H183.025ZM196.526 60V59.232L209.63 37.872H202.382C201.55 37.872 200.894 38.096 200.414 38.544C199.934 38.992 199.486 39.584 199.07 40.32L197.342 43.536H196.862L197.198 36.912H216.398V37.584L203.582 59.04H211.118C212.142 59.04 212.894 58.8 213.374 58.32C213.854 57.84 214.302 57.184 214.718 56.352L216.398 52.8H216.878L216.446 60H196.526ZM218.838 60V59.232L231.942 37.872H224.694C223.862 37.872 223.206 38.096 222.726 38.544C222.246 38.992 221.798 39.584 221.382 40.32L219.654 43.536H219.174L219.51 36.912H238.71V37.584L225.894 59.04H233.43C234.454 59.04 235.206 58.8 235.686 58.32C236.166 57.84 236.614 57.184 237.03 56.352L238.71 52.8H239.19L238.758 60H218.838ZM248.015 60.72C246.159 60.72 244.591 60.192 243.311 59.136C242.063 58.08 241.439 56.56 241.439 54.576C241.439 53.072 242.207 51.696 243.743 50.448C245.279 49.168 247.695 48.208 250.991 47.568C251.503 47.472 252.079 47.376 252.719 47.28C253.359 47.152 254.031 47.024 254.735 46.896V43.104C254.735 40.928 254.463 39.408 253.919 38.544C253.407 37.648 252.591 37.2 251.471 37.2C250.703 37.2 250.095 37.456 249.647 37.968C249.199 38.448 248.911 39.296 248.783 40.512L248.687 41.04C248.623 42.416 248.287 43.424 247.679 44.064C247.071 44.704 246.319 45.024 245.423 45.024C244.591 45.024 243.903 44.768 243.359 44.256C242.815 43.744 242.543 43.056 242.543 42.192C242.543 40.88 242.991 39.776 243.887 38.88C244.815 37.984 246.031 37.312 247.535 36.864C249.039 36.416 250.671 36.192 252.431 36.192C255.279 36.192 257.471 36.896 259.007 38.304C260.575 39.68 261.359 41.936 261.359 45.072V55.68C261.359 57.12 262.031 57.84 263.375 57.84H264.431L264.863 58.224C264.255 58.992 263.583 59.584 262.847 60C262.143 60.416 261.135 60.624 259.823 60.624C258.415 60.624 257.295 60.304 256.463 59.664C255.663 58.992 255.135 58.112 254.879 57.024C253.919 58.048 252.927 58.928 251.903 59.664C250.911 60.368 249.615 60.72 248.015 60.72ZM250.943 57.792C251.583 57.792 252.175 57.648 252.719 57.36C253.295 57.04 253.967 56.56 254.735 55.92V47.856C254.415 47.92 254.095 47.984 253.775 48.048C253.455 48.112 253.087 48.176 252.671 48.24C251.199 48.624 250.015 49.28 249.119 50.208C248.255 51.104 247.823 52.32 247.823 53.856C247.823 55.168 248.127 56.16 248.735 56.832C249.343 57.472 250.079 57.792 250.943 57.792Z" fill="white"/>
</g>
<defs>
<clipPath id="clip0_210_160">
<rect width="166" height="35" fill="white" transform="translate(99 26)"/>
</clipPath>
</defs>
</svg>
