<svg width="984" height="220" viewBox="0 0 984 220" fill="none" xmlns="http://www.w3.org/2000/svg">
<path d="M0.111328 32C0.111328 20.7989 0.111328 15.1984 2.2912 10.9202C4.20867 7.15695 7.26828 4.09734 11.0315 2.17987C15.3098 0 20.9103 0 32.1113 0H188.111C199.312 0 204.913 0 209.191 2.17987C212.954 4.09734 216.014 7.15695 217.931 10.9202C220.111 15.1984 220.111 20.799 220.111 32V188C220.111 199.201 220.111 204.802 217.931 209.08C216.014 212.843 212.954 215.903 209.191 217.82C204.913 220 199.312 220 188.111 220H32.1113C20.9103 220 15.3098 220 11.0315 217.82C7.26828 215.903 4.20867 212.843 2.2912 209.08C0.111328 204.802 0.111328 199.201 0.111328 188V32Z" fill="#121214"/>
<g clip-path="url(#clip0_695_406)">
<path fill-rule="evenodd" clip-rule="evenodd" d="M63.2363 72.5C63.2363 67.3223 67.4337 63.125 72.6113 63.125H86.6738C91.8515 63.125 96.0488 67.3223 96.0488 72.5V147.5C96.0488 152.678 91.8515 156.875 86.6738 156.875H72.6113C67.4337 156.875 63.2363 152.678 63.2363 147.5V72.5ZM86.6738 72.5H72.6113V147.5H86.6738V72.5Z" fill="#00B37E"/>
<path fill-rule="evenodd" clip-rule="evenodd" d="M124.174 72.5C124.174 67.3223 128.371 63.125 133.549 63.125H147.611C152.789 63.125 156.986 67.3223 156.986 72.5V147.5C156.986 152.678 152.789 156.875 147.611 156.875H133.549C128.371 156.875 124.174 152.678 124.174 147.5V72.5ZM147.611 72.5H133.549V147.5H147.611V72.5Z" fill="#00B37E"/>
<path fill-rule="evenodd" clip-rule="evenodd" d="M147.611 81.875C147.611 79.2862 149.71 77.1875 152.299 77.1875H166.361C168.848 77.1875 171.232 78.1752 172.99 79.9334C174.749 81.6915 175.736 84.0761 175.736 86.5625V133.438C175.736 135.924 174.749 138.308 172.99 140.067C171.232 141.825 168.848 142.812 166.361 142.812H152.299C149.71 142.812 147.611 140.714 147.611 138.125C147.611 135.536 149.71 133.438 152.299 133.438H166.361L166.361 86.5625L152.299 86.5625C149.71 86.5625 147.611 84.4638 147.611 81.875Z" fill="#00B37E"/>
<path fill-rule="evenodd" clip-rule="evenodd" d="M47.2322 79.9334C48.9904 78.1752 51.3749 77.1875 53.8613 77.1875H67.9238C70.5127 77.1875 72.6113 79.2862 72.6113 81.875C72.6113 84.4638 70.5127 86.5625 67.9238 86.5625L53.8613 86.5625V133.438H67.9238C70.5127 133.438 72.6113 135.536 72.6113 138.125C72.6113 140.714 70.5127 142.812 67.9238 142.812H53.8613C51.3749 142.812 48.9904 141.825 47.2322 140.067C45.474 138.308 44.4863 135.924 44.4863 133.438V86.5625C44.4863 84.0761 45.474 81.6915 47.2322 79.9334Z" fill="#00B37E"/>
<path fill-rule="evenodd" clip-rule="evenodd" d="M86.6738 110C86.6738 107.411 88.7725 105.312 91.3613 105.312H128.861C131.45 105.312 133.549 107.411 133.549 110C133.549 112.589 131.45 114.688 128.861 114.688H91.3613C88.7725 114.688 86.6738 112.589 86.6738 110Z" fill="#00B37E"/>
<path fill-rule="evenodd" clip-rule="evenodd" d="M166.361 110C166.361 107.411 168.46 105.312 171.049 105.312H180.424C183.013 105.312 185.111 107.411 185.111 110C185.111 112.589 183.013 114.688 180.424 114.688H171.049C168.46 114.688 166.361 112.589 166.361 110Z" fill="#00B37E"/>
<path fill-rule="evenodd" clip-rule="evenodd" d="M35.1113 110C35.1113 107.411 37.21 105.312 39.7988 105.312H49.1738C51.7627 105.312 53.8613 107.411 53.8613 110C53.8613 112.589 51.7627 114.688 49.1738 114.688H39.7988C37.21 114.688 35.1113 112.589 35.1113 110Z" fill="#00B37E"/>
</g>
<path d="M285.312 54.3594V161H263.412V54.3594H285.312ZM354.745 81.752H373.861V158.363C373.861 165.59 372.25 171.718 369.027 176.747C365.854 181.825 361.41 185.658 355.697 188.246C349.984 190.883 343.344 192.201 335.775 192.201C332.455 192.201 328.939 191.762 325.229 190.883C321.566 190.004 318.051 188.637 314.682 186.781C311.361 184.926 308.578 182.582 306.332 179.75L315.634 167.299C318.075 170.131 320.907 172.328 324.13 173.891C327.353 175.502 330.917 176.308 334.823 176.308C338.632 176.308 341.854 175.6 344.491 174.184C347.128 172.816 349.154 170.79 350.57 168.104C351.986 165.468 352.694 162.27 352.694 158.51V100.062L354.745 81.752ZM301.425 122.328V120.79C301.425 114.735 302.157 109.242 303.622 104.311C305.136 99.3301 307.26 95.0576 309.994 91.4932C312.777 87.9287 316.146 85.1699 320.102 83.2168C324.057 81.2637 328.524 80.2871 333.505 80.2871C338.778 80.2871 343.197 81.2637 346.762 83.2168C350.326 85.1699 353.256 87.9531 355.551 91.5664C357.846 95.1309 359.628 99.3545 360.897 104.237C362.216 109.071 363.241 114.369 363.974 120.131V123.5C363.241 129.018 362.143 134.145 360.678 138.881C359.213 143.617 357.284 147.768 354.892 151.332C352.499 154.848 349.521 157.582 345.956 159.535C342.44 161.488 338.241 162.465 333.358 162.465C328.476 162.465 324.057 161.464 320.102 159.462C316.195 157.46 312.851 154.652 310.067 151.039C307.284 147.426 305.136 143.178 303.622 138.295C302.157 133.412 301.425 128.09 301.425 122.328ZM322.519 120.79V122.328C322.519 125.6 322.836 128.651 323.471 131.483C324.105 134.315 325.082 136.83 326.4 139.027C327.768 141.176 329.452 142.86 331.454 144.081C333.505 145.253 335.922 145.839 338.705 145.839C342.562 145.839 345.712 145.033 348.153 143.422C350.595 141.762 352.426 139.491 353.646 136.61C354.867 133.729 355.575 130.409 355.771 126.649V117.055C355.673 113.979 355.258 111.22 354.525 108.778C353.793 106.288 352.768 104.164 351.449 102.406C350.131 100.648 348.422 99.2812 346.322 98.3047C344.223 97.3281 341.732 96.8398 338.852 96.8398C336.068 96.8398 333.651 97.4746 331.601 98.7441C329.599 99.9648 327.914 101.649 326.547 103.798C325.229 105.946 324.228 108.485 323.544 111.415C322.86 114.296 322.519 117.421 322.519 120.79ZM410.922 98.6709V161H389.828V81.752H409.604L410.922 98.6709ZM407.846 118.593H402.133C402.133 112.733 402.89 107.46 404.403 102.772C405.917 98.0361 408.041 94.0078 410.775 90.6875C413.51 87.3184 416.757 84.7549 420.517 82.9971C424.325 81.1904 428.573 80.2871 433.261 80.2871C436.972 80.2871 440.365 80.8242 443.441 81.8984C446.518 82.9727 449.154 84.6816 451.352 87.0254C453.598 89.3691 455.307 92.4697 456.479 96.3271C457.699 100.185 458.31 104.896 458.31 110.463V161H437.069V110.39C437.069 106.874 436.581 104.14 435.604 102.187C434.628 100.233 433.188 98.8662 431.283 98.085C429.428 97.2549 427.133 96.8398 424.398 96.8398C421.566 96.8398 419.101 97.4014 417.001 98.5244C414.95 99.6475 413.241 101.21 411.874 103.212C410.556 105.165 409.555 107.46 408.871 110.097C408.188 112.733 407.846 115.565 407.846 118.593ZM496.615 81.752V161H475.448V81.752H496.615ZM474.13 61.0977C474.13 58.0215 475.204 55.4824 477.353 53.4805C479.501 51.4785 482.382 50.4775 485.995 50.4775C489.56 50.4775 492.416 51.4785 494.564 53.4805C496.762 55.4824 497.86 58.0215 497.86 61.0977C497.86 64.1738 496.762 66.7129 494.564 68.7148C492.416 70.7168 489.56 71.7178 485.995 71.7178C482.382 71.7178 479.501 70.7168 477.353 68.7148C475.204 66.7129 474.13 64.1738 474.13 61.0977ZM552.865 81.752V96.6934H506.723V81.752H552.865ZM518.148 62.1963H539.242V137.123C539.242 139.418 539.535 141.176 540.121 142.396C540.756 143.617 541.684 144.472 542.904 144.96C544.125 145.399 545.663 145.619 547.519 145.619C548.837 145.619 550.009 145.57 551.034 145.473C552.108 145.326 553.012 145.18 553.744 145.033L553.817 160.561C552.011 161.146 550.058 161.61 547.958 161.952C545.858 162.294 543.539 162.465 541 162.465C536.361 162.465 532.309 161.708 528.842 160.194C525.424 158.632 522.787 156.142 520.932 152.724C519.076 149.306 518.148 144.813 518.148 139.247V62.1963ZM601.352 162.465C595.199 162.465 589.682 161.488 584.799 159.535C579.916 157.533 575.766 154.774 572.348 151.259C568.979 147.743 566.391 143.666 564.584 139.027C562.777 134.34 561.874 129.359 561.874 124.086V121.156C561.874 115.15 562.729 109.657 564.438 104.677C566.146 99.6963 568.588 95.375 571.762 91.7129C574.984 88.0508 578.891 85.2432 583.48 83.29C588.07 81.2881 593.246 80.2871 599.008 80.2871C604.623 80.2871 609.604 81.2148 613.949 83.0703C618.295 84.9258 621.933 87.5625 624.862 90.9805C627.841 94.3984 630.087 98.5 631.601 103.285C633.114 108.021 633.871 113.295 633.871 119.105V127.895H570.883V113.832H613.144V112.221C613.144 109.291 612.606 106.679 611.532 104.384C610.507 102.04 608.944 100.185 606.845 98.8174C604.745 97.4502 602.06 96.7666 598.788 96.7666C596.005 96.7666 593.612 97.377 591.61 98.5977C589.608 99.8184 587.973 101.527 586.703 103.725C585.482 105.922 584.555 108.51 583.92 111.488C583.334 114.418 583.041 117.641 583.041 121.156V124.086C583.041 127.26 583.48 130.189 584.359 132.875C585.287 135.561 586.581 137.88 588.241 139.833C589.95 141.786 592.001 143.3 594.394 144.374C596.835 145.448 599.594 145.985 602.67 145.985C606.479 145.985 610.019 145.253 613.29 143.788C616.61 142.274 619.467 140.004 621.859 136.977L632.113 148.109C630.453 150.502 628.183 152.797 625.302 154.994C622.47 157.191 619.052 158.998 615.048 160.414C611.044 161.781 606.479 162.465 601.352 162.465ZM769.076 105.263V147.523C767.416 149.525 764.853 151.698 761.386 154.042C757.919 156.337 753.451 158.314 747.982 159.975C742.514 161.635 735.897 162.465 728.134 162.465C721.249 162.465 714.975 161.342 709.311 159.096C703.646 156.801 698.764 153.456 694.662 149.062C690.609 144.667 687.484 139.296 685.287 132.948C683.09 126.552 681.991 119.252 681.991 111.049V104.384C681.991 96.1807 683.041 88.8809 685.141 82.4844C687.289 76.0879 690.341 70.6924 694.296 66.2979C698.251 61.9033 702.963 58.5586 708.432 56.2637C713.9 53.9688 719.979 52.8213 726.669 52.8213C735.946 52.8213 743.563 54.335 749.521 57.3623C755.478 60.3408 760.019 64.4912 763.144 69.8135C766.317 75.0869 768.271 81.1416 769.003 87.9775H747.689C747.152 84.3643 746.127 81.2148 744.613 78.5293C743.1 75.8438 740.927 73.7441 738.095 72.2305C735.312 70.7168 731.698 69.96 727.255 69.96C723.593 69.96 720.321 70.7168 717.44 72.2305C714.608 73.6953 712.216 75.8682 710.263 78.749C708.31 81.6299 706.82 85.1943 705.795 89.4424C704.77 93.6904 704.257 98.6221 704.257 104.237V111.049C704.257 116.615 704.794 121.547 705.868 125.844C706.942 130.092 708.529 133.681 710.629 136.61C712.777 139.491 715.414 141.664 718.539 143.129C721.664 144.594 725.302 145.326 729.452 145.326C732.919 145.326 735.8 145.033 738.095 144.447C740.438 143.861 742.318 143.153 743.734 142.323C745.199 141.444 746.322 140.614 747.104 139.833V120.937H727.035V105.263H769.076ZM808.993 152.064L830.014 81.752H852.646L820.785 172.938C820.102 174.94 819.174 177.089 818.002 179.384C816.879 181.679 815.341 183.852 813.388 185.902C811.483 188.002 809.066 189.711 806.137 191.029C803.256 192.348 799.716 193.007 795.517 193.007C793.515 193.007 791.879 192.885 790.609 192.641C789.34 192.396 787.826 192.055 786.068 191.615V176.161C786.605 176.161 787.167 176.161 787.753 176.161C788.339 176.21 788.9 176.234 789.438 176.234C792.221 176.234 794.491 175.917 796.249 175.282C798.007 174.647 799.423 173.671 800.497 172.353C801.571 171.083 802.426 169.423 803.061 167.372L808.993 152.064ZM800.204 81.752L817.416 139.174L820.419 161.513L806.063 163.051L777.572 81.752H800.204ZM882.162 98.1582V161H860.995V81.752H880.844L882.162 98.1582ZM879.232 118.593H873.373C873.373 113.075 874.032 107.997 875.351 103.358C876.718 98.6709 878.695 94.6182 881.283 91.2002C883.92 87.7334 887.167 85.0479 891.024 83.1436C894.882 81.2393 899.35 80.2871 904.428 80.2871C907.943 80.2871 911.166 80.8242 914.096 81.8984C917.025 82.9238 919.54 84.5596 921.64 86.8057C923.788 89.0029 925.448 91.8838 926.62 95.4482C927.792 98.9639 928.378 103.188 928.378 108.119V161H907.284V110.463C907.284 106.85 906.796 104.066 905.819 102.113C904.843 100.16 903.451 98.793 901.645 98.0117C899.887 97.2305 897.763 96.8398 895.272 96.8398C892.538 96.8398 890.146 97.4014 888.095 98.5244C886.093 99.6475 884.433 101.21 883.114 103.212C881.796 105.165 880.819 107.46 880.185 110.097C879.55 112.733 879.232 115.565 879.232 118.593ZM926.4 116.176L918.856 117.128C918.856 111.952 919.491 107.143 920.761 102.699C922.079 98.2559 924.008 94.3496 926.547 90.9805C929.135 87.6113 932.333 84.999 936.142 83.1436C939.95 81.2393 944.345 80.2871 949.325 80.2871C953.134 80.2871 956.601 80.8486 959.726 81.9717C962.851 83.0459 965.512 84.7793 967.709 87.1719C969.955 89.5156 971.664 92.5918 972.836 96.4004C974.057 100.209 974.667 104.872 974.667 110.39V161H953.5V110.39C953.5 106.728 953.012 103.944 952.035 102.04C951.107 100.087 949.74 98.7441 947.934 98.0117C946.176 97.2305 944.076 96.8398 941.635 96.8398C939.096 96.8398 936.874 97.3525 934.97 98.3779C933.065 99.3545 931.479 100.722 930.209 102.479C928.939 104.237 927.987 106.288 927.353 108.632C926.718 110.927 926.4 113.441 926.4 116.176Z" fill="white"/>
<defs>
<clipPath id="clip0_695_406">
<rect width="150" height="150" fill="white" transform="translate(35.1113 35)"/>
</clipPath>
</defs>
</svg>
