<svg width="1127" height="220" viewBox="0 0 1127 220" fill="none" xmlns="http://www.w3.org/2000/svg">
<path d="M0.445312 32C0.445312 20.7989 0.445312 15.1984 2.62518 10.9202C4.54265 7.15695 7.60226 4.09734 11.3655 2.17987C15.6437 0 21.2443 0 32.4453 0H188.445C199.646 0 205.247 0 209.525 2.17987C213.288 4.09734 216.348 7.15695 218.265 10.9202C220.445 15.1984 220.445 20.799 220.445 32V188C220.445 199.201 220.445 204.802 218.265 209.08C216.348 212.843 213.288 215.903 209.525 217.82C205.247 220 199.646 220 188.445 220H32.4453C21.2443 220 15.6437 220 11.3655 217.82C7.60226 215.903 4.54265 212.843 2.62518 209.08C0.445312 204.802 0.445312 199.201 0.445312 188V32Z" fill="#202024"/>
<path d="M111.139 187.637L111.128 187.637C108.86 187.673 106.622 187.114 104.638 186.018C104.637 186.018 104.636 186.017 104.635 186.016L102.616 184.874L102.616 184.874C86.9352 176.018 73.8902 163.166 64.8125 147.631C55.7349 132.095 50.9498 114.434 50.9459 96.4485C50.9459 96.4485 50.9459 96.4484 50.9459 96.4484L50.9459 95.5061L50.9458 95.5016C50.9253 93.2064 51.5155 90.9469 52.6562 88.954C53.7965 86.9618 55.4461 85.3074 57.4365 84.1598C57.4373 84.1593 57.4381 84.1589 57.4389 84.1584L104.638 57.6374L104.642 57.6347C106.617 56.4968 108.856 55.8977 111.136 55.8977C113.416 55.8977 115.656 56.4968 117.63 57.6347L117.635 57.6374L164.833 84.1584C164.834 84.1589 164.835 84.1593 164.836 84.1597C166.826 85.3074 168.476 86.9618 169.616 88.954C170.757 90.9469 171.347 93.2064 171.326 95.5016V95.5061V96.448C171.309 114.446 166.504 132.117 157.402 147.654C148.3 163.19 135.228 176.035 119.522 184.874L119.521 184.874L117.503 186.016C117.502 186.017 117.501 186.017 117.501 186.018C115.554 187.092 113.364 187.65 111.139 187.637Z" stroke="#00B37E"/>
<g clip-path="url(#clip0_695_373)">
<path d="M87.3036 49.9422C87.5123 49.7873 87.6671 49.5711 87.7463 49.3241C87.8256 49.0771 87.8252 48.8115 87.7453 48.5647C87.6654 48.3179 87.51 48.1021 87.3009 47.9478C87.0917 47.7934 86.8393 47.7081 86.5791 47.7039L81.5246 47.5136C81.4997 47.5119 81.4759 47.5031 81.456 47.4882C81.436 47.4733 81.4208 47.453 81.4122 47.4297L79.6656 42.7292C79.5779 42.4901 79.4185 42.2836 79.209 42.1377C78.9996 41.9918 78.7502 41.9136 78.4947 41.9136C78.2391 41.9136 77.9897 41.9918 77.7803 42.1377C77.5709 42.2836 77.4115 42.4901 77.3237 42.7292L75.5827 47.4465C75.5741 47.4698 75.5589 47.4901 75.539 47.505C75.5191 47.5199 75.4952 47.5287 75.4704 47.5304L70.4159 47.7207C70.1556 47.7249 69.9032 47.8102 69.6941 47.9646C69.4849 48.1189 69.3295 48.3347 69.2496 48.5815C69.1697 48.8283 69.1694 49.0938 69.2486 49.3409C69.3278 49.5879 69.4827 49.8041 69.6914 49.959L73.6564 53.0646C73.6762 53.0802 73.6911 53.1012 73.699 53.1251C73.707 53.149 73.7078 53.1746 73.7013 53.1989L72.3366 58.0169C72.2659 58.2622 72.2727 58.5233 72.3562 58.7647C72.4397 59.006 72.5958 59.2158 72.8032 59.3656C73.0106 59.5154 73.2593 59.598 73.5155 59.6019C73.7717 59.6059 74.0228 59.5312 74.2348 59.3879L78.4245 56.59C78.4451 56.5758 78.4696 56.5682 78.4947 56.5682C78.5197 56.5682 78.5442 56.5758 78.5649 56.59L82.7545 59.3879C82.9636 59.5361 83.2139 59.6157 83.4706 59.6157C83.7272 59.6157 83.9775 59.5361 84.1866 59.3879C84.3941 59.2395 84.5503 59.0307 84.6338 58.7902C84.7173 58.5497 84.7239 58.2893 84.6527 58.0449L83.2768 53.2101C83.2695 53.1859 83.2699 53.1599 83.278 53.1359C83.286 53.1119 83.3013 53.0909 83.3217 53.0758L87.3036 49.9422Z" fill="#FBA94C"/>
</g>
<g clip-path="url(#clip1_695_373)">
<path d="M151.327 49.9422C151.536 49.7873 151.691 49.5711 151.77 49.3241C151.849 49.0771 151.849 48.8115 151.769 48.5647C151.689 48.3179 151.533 48.1021 151.324 47.9478C151.115 47.7934 150.863 47.7081 150.603 47.7039L145.548 47.5136C145.523 47.5119 145.499 47.5031 145.479 47.4882C145.459 47.4733 145.444 47.453 145.436 47.4297L143.689 42.7292C143.601 42.4901 143.442 42.2836 143.232 42.1377C143.023 41.9918 142.774 41.9136 142.518 41.9136C142.263 41.9136 142.013 41.9918 141.804 42.1377C141.594 42.2836 141.435 42.4901 141.347 42.7292L139.606 47.4465C139.598 47.4698 139.582 47.4901 139.562 47.505C139.542 47.5199 139.519 47.5287 139.494 47.5304L134.439 47.7207C134.179 47.7249 133.927 47.8102 133.718 47.9646C133.508 48.1189 133.353 48.3347 133.273 48.5815C133.193 48.8283 133.193 49.0938 133.272 49.3409C133.351 49.5879 133.506 49.8041 133.715 49.959L137.68 53.0646C137.7 53.0802 137.714 53.1012 137.722 53.1251C137.73 53.149 137.731 53.1746 137.725 53.1989L136.36 58.0169C136.289 58.2622 136.296 58.5233 136.38 58.7647C136.463 59.006 136.619 59.2158 136.827 59.3656C137.034 59.5154 137.283 59.598 137.539 59.6019C137.795 59.6059 138.046 59.5312 138.258 59.3879L142.448 56.59C142.469 56.5758 142.493 56.5682 142.518 56.5682C142.543 56.5682 142.568 56.5758 142.588 56.59L146.778 59.3879C146.987 59.5361 147.237 59.6157 147.494 59.6157C147.751 59.6157 148.001 59.5361 148.21 59.3879C148.418 59.2395 148.574 59.0307 148.657 58.7902C148.741 58.5497 148.747 58.2893 148.676 58.0449L147.3 53.2101C147.293 53.1859 147.293 53.1599 147.301 53.1359C147.309 53.1119 147.325 53.0909 147.345 53.0758L151.327 49.9422Z" fill="#FBA94C"/>
</g>
<g clip-path="url(#clip2_695_373)">
<path d="M121.863 35.6954C122.146 35.4897 122.356 35.2027 122.464 34.8747C122.571 34.5468 122.571 34.1942 122.462 33.8665C122.354 33.5388 122.143 33.2524 121.859 33.0475C121.575 32.8425 121.232 32.7293 120.879 32.7237L114.017 32.4711C113.984 32.4688 113.951 32.4571 113.924 32.4373C113.897 32.4175 113.876 32.3905 113.865 32.3596L111.494 26.1191C111.374 25.8016 111.158 25.5274 110.874 25.3337C110.589 25.14 110.251 25.0361 109.904 25.0361C109.557 25.0361 109.218 25.14 108.934 25.3337C108.65 25.5274 108.433 25.8016 108.314 26.1191L105.951 32.3819C105.939 32.4128 105.918 32.4398 105.891 32.4596C105.864 32.4794 105.832 32.4911 105.798 32.4934L98.9364 32.7459C98.5831 32.7516 98.2405 32.8648 97.9566 33.0697C97.6726 33.2747 97.4616 33.5611 97.3532 33.8888C97.2447 34.2165 97.2442 34.569 97.3518 34.897C97.4593 35.225 97.6695 35.5119 97.9529 35.7176L103.336 39.8409C103.363 39.8615 103.383 39.8894 103.394 39.9211C103.404 39.9528 103.405 39.9869 103.397 40.0192L101.544 46.4158C101.448 46.7415 101.457 47.0881 101.571 47.4085C101.684 47.7289 101.896 48.0075 102.177 48.2064C102.459 48.4053 102.797 48.5148 103.144 48.5201C103.492 48.5254 103.833 48.4262 104.121 48.2359L109.809 44.5213C109.837 44.5024 109.87 44.4924 109.904 44.4924C109.938 44.4924 109.971 44.5024 109.999 44.5213L115.687 48.2359C115.971 48.4327 116.311 48.5384 116.659 48.5384C117.007 48.5384 117.347 48.4327 117.631 48.2359C117.913 48.0389 118.125 47.7617 118.238 47.4424C118.352 47.1231 118.361 46.7774 118.264 46.4529L116.396 40.034C116.386 40.0018 116.387 39.9674 116.398 39.9355C116.409 39.9036 116.429 39.8757 116.457 39.8557L121.863 35.6954Z" fill="#FBA94C"/>
</g>
<path d="M111.138 176.768L111.128 176.768C109.204 176.798 107.306 176.326 105.623 175.398C105.622 175.397 105.621 175.397 105.62 175.397L103.898 174.424L103.897 174.424C90.5229 166.884 79.3964 155.943 71.6538 142.719C63.9113 129.494 59.83 114.459 59.8266 99.1484C59.8266 99.1484 59.8266 99.1484 59.8266 99.1483L59.8267 98.3454L59.8266 98.3409C59.8092 96.3988 60.3096 94.4867 61.2768 92.8001C62.2437 91.1143 63.6423 89.7141 65.3302 88.7427C65.331 88.7423 65.3317 88.7419 65.3325 88.7414L105.623 66.1456L105.623 66.1456L105.628 66.1429C107.302 65.1797 109.202 64.6726 111.135 64.6726C113.069 64.6726 114.968 65.1797 116.643 66.1429L116.643 66.1429L116.647 66.1456L156.938 88.7414C156.939 88.7419 156.94 88.7424 156.941 88.7428C158.629 89.7142 160.027 91.1143 160.994 92.8001C161.961 94.4867 162.462 96.3988 162.444 98.341V98.3454V99.1479C162.429 114.469 158.331 129.512 150.567 142.738C142.804 155.964 131.655 166.899 118.259 174.423L118.258 174.424L116.535 175.396C116.535 175.397 116.534 175.397 116.533 175.398C114.883 176.307 113.025 176.779 111.138 176.768Z" stroke="#FBA94C"/>
<path fill-rule="evenodd" clip-rule="evenodd" d="M103.836 145.458C103.836 144.245 104.822 143.263 106.039 143.263H114.85C116.067 143.263 117.053 144.245 117.053 145.458C117.053 146.67 116.067 147.652 114.85 147.652H106.039C104.822 147.652 103.836 146.67 103.836 145.458Z" fill="#FBA94C"/>
<path fill-rule="evenodd" clip-rule="evenodd" d="M107.677 87.7314C108.457 87.0912 109.435 86.7407 110.446 86.7407C111.46 86.7407 112.442 87.0936 113.222 87.7381C115.957 89.9576 121.878 95.4599 125.154 103.944C128.478 112.551 128.984 123.998 121.175 137.759C120.784 138.447 120.051 138.873 119.257 138.873H101.634C100.847 138.873 100.119 138.454 99.7261 137.775C91.7567 124.011 92.2447 112.548 95.6052 103.927C98.9132 95.4415 104.909 89.9405 107.677 87.7314ZM110.446 91.1466L110.445 91.147C107.974 93.1164 102.628 98.0364 99.7121 105.517C96.9263 112.663 96.2669 122.366 102.923 134.483H117.956C124.471 122.371 123.803 112.67 121.042 105.52C118.159 98.0531 112.897 93.1368 110.446 91.1466Z" fill="#00B37E"/>
<path fill-rule="evenodd" clip-rule="evenodd" d="M96.9603 112.88C97.8941 113.657 98.0189 115.041 97.2391 115.971L88.6109 126.266C88.6114 126.268 88.6119 126.271 88.6125 126.273L91.9978 141.548L100.258 134.964C101.208 134.207 102.594 134.36 103.354 135.307C104.114 136.254 103.96 137.635 103.01 138.392L94.749 144.977C94.1653 145.441 93.4714 145.751 92.7347 145.876C91.998 146 91.2416 145.936 90.5366 145.689C89.8317 145.442 89.2014 145.021 88.7049 144.464C88.2085 143.908 87.8623 143.235 87.6988 142.508L87.6973 142.501L84.316 127.245C84.1574 126.592 84.155 125.911 84.3095 125.257C84.4656 124.596 84.7772 123.982 85.2186 123.465L93.8574 113.158C94.6373 112.227 96.0265 112.103 96.9603 112.88Z" fill="#00B37E"/>
<path fill-rule="evenodd" clip-rule="evenodd" d="M123.768 112.659C124.702 111.883 126.091 112.009 126.87 112.94L135.674 123.466C136.115 123.983 136.426 124.597 136.582 125.257C136.736 125.911 136.734 126.592 136.575 127.245L133.194 142.501L133.193 142.508C133.029 143.235 132.683 143.908 132.186 144.464C131.69 145.021 131.06 145.442 130.355 145.689C129.65 145.936 128.893 146 128.157 145.876C127.42 145.751 126.727 145.442 126.143 144.978L117.882 138.392C116.932 137.635 116.777 136.254 117.537 135.307C118.297 134.36 119.684 134.207 120.634 134.964L128.893 141.548L132.279 126.273C132.279 126.271 132.28 126.268 132.28 126.266L123.486 115.75C122.707 114.819 122.833 113.435 123.768 112.659Z" fill="#00B37E"/>
<path d="M110.445 113.632C112.27 113.632 113.749 112.158 113.749 110.339C113.749 108.521 112.27 107.047 110.445 107.047C108.62 107.047 107.141 108.521 107.141 110.339C107.141 112.158 108.62 113.632 110.445 113.632Z" fill="#FBA94C"/>
<path d="M285.331 54.3594V161H263.432V54.3594H285.331ZM354.765 81.752H373.881V158.363C373.881 165.59 372.27 171.718 369.047 176.747C365.873 181.825 361.43 185.658 355.717 188.246C350.004 190.883 343.363 192.201 335.795 192.201C332.475 192.201 328.959 191.762 325.248 190.883C321.586 190.004 318.07 188.637 314.701 186.781C311.381 184.926 308.598 182.582 306.352 179.75L315.653 167.299C318.095 170.131 320.927 172.328 324.149 173.891C327.372 175.502 330.937 176.308 334.843 176.308C338.651 176.308 341.874 175.6 344.511 174.184C347.147 172.816 349.174 170.79 350.59 168.104C352.006 165.468 352.714 162.27 352.714 158.51V100.062L354.765 81.752ZM301.444 122.328V120.79C301.444 114.735 302.177 109.242 303.642 104.311C305.155 99.3301 307.279 95.0576 310.014 91.4932C312.797 87.9287 316.166 85.1699 320.121 83.2168C324.076 81.2637 328.544 80.2871 333.524 80.2871C338.798 80.2871 343.217 81.2637 346.781 83.2168C350.346 85.1699 353.275 87.9531 355.57 91.5664C357.865 95.1309 359.647 99.3545 360.917 104.237C362.235 109.071 363.261 114.369 363.993 120.131V123.5C363.261 129.018 362.162 134.145 360.697 138.881C359.232 143.617 357.304 147.768 354.911 151.332C352.519 154.848 349.54 157.582 345.976 159.535C342.46 161.488 338.261 162.465 333.378 162.465C328.495 162.465 324.076 161.464 320.121 159.462C316.215 157.46 312.87 154.652 310.087 151.039C307.304 147.426 305.155 143.178 303.642 138.295C302.177 133.412 301.444 128.09 301.444 122.328ZM322.538 120.79V122.328C322.538 125.6 322.855 128.651 323.49 131.483C324.125 134.315 325.102 136.83 326.42 139.027C327.787 141.176 329.472 142.86 331.474 144.081C333.524 145.253 335.941 145.839 338.725 145.839C342.582 145.839 345.731 145.033 348.173 143.422C350.614 141.762 352.445 139.491 353.666 136.61C354.887 133.729 355.595 130.409 355.79 126.649V117.055C355.692 113.979 355.277 111.22 354.545 108.778C353.812 106.288 352.787 104.164 351.469 102.406C350.15 100.648 348.441 99.2812 346.342 98.3047C344.242 97.3281 341.752 96.8398 338.871 96.8398C336.088 96.8398 333.671 97.4746 331.62 98.7441C329.618 99.9648 327.934 101.649 326.566 103.798C325.248 105.946 324.247 108.485 323.563 111.415C322.88 114.296 322.538 117.421 322.538 120.79ZM410.941 98.6709V161H389.848V81.752H409.623L410.941 98.6709ZM407.865 118.593H402.152C402.152 112.733 402.909 107.46 404.423 102.772C405.937 98.0361 408.061 94.0078 410.795 90.6875C413.529 87.3184 416.776 84.7549 420.536 82.9971C424.345 81.1904 428.593 80.2871 433.28 80.2871C436.991 80.2871 440.385 80.8242 443.461 81.8984C446.537 82.9727 449.174 84.6816 451.371 87.0254C453.617 89.3691 455.326 92.4697 456.498 96.3271C457.719 100.185 458.329 104.896 458.329 110.463V161H437.089V110.39C437.089 106.874 436.601 104.14 435.624 102.187C434.647 100.233 433.207 98.8662 431.303 98.085C429.447 97.2549 427.152 96.8398 424.418 96.8398C421.586 96.8398 419.12 97.4014 417.021 98.5244C414.97 99.6475 413.261 101.21 411.894 103.212C410.575 105.165 409.574 107.46 408.891 110.097C408.207 112.733 407.865 115.565 407.865 118.593ZM496.635 81.752V161H475.468V81.752H496.635ZM474.149 61.0977C474.149 58.0215 475.224 55.4824 477.372 53.4805C479.521 51.4785 482.401 50.4775 486.015 50.4775C489.579 50.4775 492.436 51.4785 494.584 53.4805C496.781 55.4824 497.88 58.0215 497.88 61.0977C497.88 64.1738 496.781 66.7129 494.584 68.7148C492.436 70.7168 489.579 71.7178 486.015 71.7178C482.401 71.7178 479.521 70.7168 477.372 68.7148C475.224 66.7129 474.149 64.1738 474.149 61.0977ZM552.885 81.752V96.6934H506.742V81.752H552.885ZM518.168 62.1963H539.262V137.123C539.262 139.418 539.555 141.176 540.141 142.396C540.775 143.617 541.703 144.472 542.924 144.96C544.145 145.399 545.683 145.619 547.538 145.619C548.856 145.619 550.028 145.57 551.054 145.473C552.128 145.326 553.031 145.18 553.764 145.033L553.837 160.561C552.03 161.146 550.077 161.61 547.978 161.952C545.878 162.294 543.559 162.465 541.02 162.465C536.381 162.465 532.328 161.708 528.861 160.194C525.443 158.632 522.807 156.142 520.951 152.724C519.096 149.306 518.168 144.813 518.168 139.247V62.1963ZM601.371 162.465C595.219 162.465 589.701 161.488 584.818 159.535C579.936 157.533 575.785 154.774 572.367 151.259C568.998 147.743 566.41 143.666 564.604 139.027C562.797 134.34 561.894 129.359 561.894 124.086V121.156C561.894 115.15 562.748 109.657 564.457 104.677C566.166 99.6963 568.607 95.375 571.781 91.7129C575.004 88.0508 578.91 85.2432 583.5 83.29C588.09 81.2881 593.266 80.2871 599.027 80.2871C604.643 80.2871 609.623 81.2148 613.969 83.0703C618.314 84.9258 621.952 87.5625 624.882 90.9805C627.86 94.3984 630.106 98.5 631.62 103.285C633.134 108.021 633.891 113.295 633.891 119.105V127.895H570.902V113.832H613.163V112.221C613.163 109.291 612.626 106.679 611.552 104.384C610.526 102.04 608.964 100.185 606.864 98.8174C604.765 97.4502 602.079 96.7666 598.808 96.7666C596.024 96.7666 593.632 97.377 591.63 98.5977C589.628 99.8184 587.992 101.527 586.723 103.725C585.502 105.922 584.574 108.51 583.939 111.488C583.354 114.418 583.061 117.641 583.061 121.156V124.086C583.061 127.26 583.5 130.189 584.379 132.875C585.307 135.561 586.601 137.88 588.261 139.833C589.97 141.786 592.021 143.3 594.413 144.374C596.854 145.448 599.613 145.985 602.689 145.985C606.498 145.985 610.038 145.253 613.31 143.788C616.63 142.274 619.486 140.004 621.879 136.977L632.133 148.109C630.473 150.502 628.202 152.797 625.321 154.994C622.489 157.191 619.071 158.998 615.067 160.414C611.063 161.781 606.498 162.465 601.371 162.465ZM728.3 54.3594V161H706.4V54.3594H728.3ZM761.112 54.3594V71.5713H674.101V54.3594H761.112ZM801.908 162.465C795.756 162.465 790.238 161.488 785.355 159.535C780.473 157.533 776.322 154.774 772.904 151.259C769.535 147.743 766.947 143.666 765.141 139.027C763.334 134.34 762.431 129.359 762.431 124.086V121.156C762.431 115.15 763.285 109.657 764.994 104.677C766.703 99.6963 769.145 95.375 772.318 91.7129C775.541 88.0508 779.447 85.2432 784.037 83.29C788.627 81.2881 793.803 80.2871 799.564 80.2871C805.18 80.2871 810.16 81.2148 814.506 83.0703C818.852 84.9258 822.489 87.5625 825.419 90.9805C828.397 94.3984 830.644 98.5 832.157 103.285C833.671 108.021 834.428 113.295 834.428 119.105V127.895H771.439V113.832H813.7V112.221C813.7 109.291 813.163 106.679 812.089 104.384C811.063 102.04 809.501 100.185 807.401 98.8174C805.302 97.4502 802.616 96.7666 799.345 96.7666C796.562 96.7666 794.169 97.377 792.167 98.5977C790.165 99.8184 788.529 101.527 787.26 103.725C786.039 105.922 785.111 108.51 784.477 111.488C783.891 114.418 783.598 117.641 783.598 121.156V124.086C783.598 127.26 784.037 130.189 784.916 132.875C785.844 135.561 787.138 137.88 788.798 139.833C790.507 141.786 792.558 143.3 794.95 144.374C797.392 145.448 800.15 145.985 803.227 145.985C807.035 145.985 810.575 145.253 813.847 143.788C817.167 142.274 820.023 140.004 822.416 136.977L832.67 148.109C831.01 150.502 828.739 152.797 825.858 154.994C823.026 157.191 819.608 158.998 815.604 160.414C811.601 161.781 807.035 162.465 801.908 162.465ZM889.213 143.129V107.826C889.213 105.287 888.798 103.114 887.968 101.308C887.138 99.4521 885.844 98.0117 884.086 96.9863C882.377 95.9609 880.155 95.4482 877.421 95.4482C875.077 95.4482 873.051 95.8633 871.342 96.6934C869.633 97.4746 868.314 98.6221 867.387 100.136C866.459 101.601 865.995 103.334 865.995 105.336H844.901C844.901 101.967 845.683 98.7686 847.245 95.7412C848.808 92.7139 851.078 90.0527 854.057 87.7578C857.035 85.4141 860.575 83.583 864.677 82.2646C868.827 80.9463 873.466 80.2871 878.593 80.2871C884.745 80.2871 890.214 81.3125 894.999 83.3633C899.784 85.4141 903.544 88.4902 906.278 92.5918C909.062 96.6934 910.453 101.82 910.453 107.973V141.884C910.453 146.229 910.722 149.794 911.259 152.577C911.796 155.312 912.577 157.704 913.603 159.755V161H892.289C891.264 158.852 890.482 156.166 889.945 152.943C889.457 149.672 889.213 146.4 889.213 143.129ZM891.996 112.733L892.143 124.672H880.351C877.567 124.672 875.15 124.989 873.1 125.624C871.049 126.259 869.364 127.162 868.046 128.334C866.728 129.457 865.751 130.775 865.116 132.289C864.53 133.803 864.237 135.463 864.237 137.27C864.237 139.076 864.652 140.712 865.482 142.177C866.312 143.593 867.509 144.716 869.071 145.546C870.634 146.327 872.465 146.718 874.564 146.718C877.738 146.718 880.497 146.083 882.841 144.813C885.185 143.544 886.991 141.981 888.261 140.126C889.579 138.271 890.263 136.513 890.312 134.853L895.878 143.788C895.097 145.79 894.022 147.865 892.655 150.014C891.337 152.162 889.652 154.188 887.602 156.093C885.551 157.948 883.085 159.486 880.204 160.707C877.323 161.879 873.905 162.465 869.95 162.465C864.921 162.465 860.355 161.464 856.254 159.462C852.201 157.411 848.979 154.604 846.586 151.039C844.242 147.426 843.07 143.324 843.07 138.734C843.07 134.584 843.852 130.897 845.414 127.675C846.977 124.452 849.271 121.742 852.299 119.545C855.375 117.299 859.208 115.614 863.798 114.491C868.388 113.319 873.71 112.733 879.765 112.733H891.996ZM947.807 98.1582V161H926.64V81.752H946.488L947.807 98.1582ZM944.877 118.593H939.018C939.018 113.075 939.677 107.997 940.995 103.358C942.362 98.6709 944.34 94.6182 946.928 91.2002C949.564 87.7334 952.812 85.0479 956.669 83.1436C960.526 81.2393 964.994 80.2871 970.072 80.2871C973.588 80.2871 976.811 80.8242 979.74 81.8984C982.67 82.9238 985.185 84.5596 987.284 86.8057C989.433 89.0029 991.093 91.8838 992.265 95.4482C993.437 98.9639 994.022 103.188 994.022 108.119V161H972.929V110.463C972.929 106.85 972.44 104.066 971.464 102.113C970.487 100.16 969.096 98.793 967.289 98.0117C965.531 97.2305 963.407 96.8398 960.917 96.8398C958.183 96.8398 955.79 97.4014 953.739 98.5244C951.737 99.6475 950.077 101.21 948.759 103.212C947.44 105.165 946.464 107.46 945.829 110.097C945.194 112.733 944.877 115.565 944.877 118.593ZM992.045 116.176L984.501 117.128C984.501 111.952 985.136 107.143 986.405 102.699C987.724 98.2559 989.652 94.3496 992.191 90.9805C994.779 87.6113 997.978 84.999 1001.79 83.1436C1005.59 81.2393 1009.99 80.2871 1014.97 80.2871C1018.78 80.2871 1022.25 80.8486 1025.37 81.9717C1028.5 83.0459 1031.16 84.7793 1033.35 87.1719C1035.6 89.5156 1037.31 92.5918 1038.48 96.4004C1039.7 100.209 1040.31 104.872 1040.31 110.39V161H1019.14V110.39C1019.14 106.728 1018.66 103.944 1017.68 102.04C1016.75 100.087 1015.38 98.7441 1013.58 98.0117C1011.82 97.2305 1009.72 96.8398 1007.28 96.8398C1004.74 96.8398 1002.52 97.3525 1000.61 98.3779C998.71 99.3545 997.123 100.722 995.854 102.479C994.584 104.237 993.632 106.288 992.997 108.632C992.362 110.927 992.045 113.441 992.045 116.176ZM1099.49 139.101C1099.49 137.587 1099.05 136.22 1098.17 134.999C1097.29 133.778 1095.66 132.655 1093.27 131.63C1090.92 130.556 1087.53 129.579 1083.08 128.7C1079.08 127.821 1075.35 126.723 1071.88 125.404C1068.46 124.037 1065.48 122.401 1062.94 120.497C1060.45 118.593 1058.5 116.347 1057.08 113.759C1055.67 111.122 1054.96 108.119 1054.96 104.75C1054.96 101.43 1055.67 98.3047 1057.08 95.375C1058.55 92.4453 1060.62 89.8574 1063.31 87.6113C1066.04 85.3164 1069.36 83.5342 1073.27 82.2646C1077.23 80.9463 1081.67 80.2871 1086.6 80.2871C1093.49 80.2871 1099.39 81.3857 1104.33 83.583C1109.31 85.7803 1113.11 88.8076 1115.75 92.665C1118.44 96.4736 1119.78 100.819 1119.78 105.702H1098.69C1098.69 103.651 1098.25 101.82 1097.37 100.209C1096.54 98.5488 1095.22 97.2549 1093.41 96.3271C1091.65 95.3506 1089.36 94.8623 1086.53 94.8623C1084.18 94.8623 1082.16 95.2773 1080.45 96.1074C1078.74 96.8887 1077.42 97.9629 1076.49 99.3301C1075.61 100.648 1075.17 102.113 1075.17 103.725C1075.17 104.945 1075.42 106.044 1075.91 107.021C1076.44 107.948 1077.3 108.803 1078.47 109.584C1079.64 110.365 1081.16 111.098 1083.01 111.781C1084.92 112.416 1087.26 113.002 1090.04 113.539C1095.76 114.711 1100.86 116.249 1105.35 118.153C1109.84 120.009 1113.41 122.548 1116.04 125.771C1118.68 128.944 1120 133.119 1120 138.295C1120 141.811 1119.22 145.033 1117.66 147.963C1116.09 150.893 1113.85 153.456 1110.92 155.653C1107.99 157.802 1104.47 159.486 1100.37 160.707C1096.32 161.879 1091.75 162.465 1086.67 162.465C1079.3 162.465 1073.05 161.146 1067.92 158.51C1062.85 155.873 1058.99 152.528 1056.35 148.476C1053.76 144.374 1052.47 140.175 1052.47 135.878H1072.46C1072.56 138.759 1073.29 141.078 1074.66 142.836C1076.08 144.594 1077.86 145.863 1080.01 146.645C1082.21 147.426 1084.57 147.816 1087.11 147.816C1089.85 147.816 1092.12 147.45 1093.92 146.718C1095.73 145.937 1097.1 144.911 1098.03 143.642C1099 142.323 1099.49 140.81 1099.49 139.101Z" fill="#00875F"/>
<defs>
<clipPath id="clip0_695_373">
<rect width="20.218" height="20.1448" fill="white" transform="translate(68.209 40.5525)"/>
</clipPath>
<clipPath id="clip1_695_373">
<rect width="20.218" height="20.1448" fill="white" transform="translate(132.232 40.5525)"/>
</clipPath>
<clipPath id="clip2_695_373">
<rect width="33.6967" height="33.5747" fill="white" transform="translate(93.4805 20)"/>
</clipPath>
</defs>
</svg>
