<svg width="1270" height="220" viewBox="0 0 1270 220" fill="none" xmlns="http://www.w3.org/2000/svg">
<path d="M0.833008 32C0.833008 20.7989 0.833008 15.1984 3.01288 10.9202C4.93035 7.15695 7.98996 4.09734 11.7532 2.17987C16.0314 0 21.632 0 32.833 0H188.833C200.034 0 205.635 0 209.913 2.17987C213.676 4.09734 216.736 7.15695 218.653 10.9202C220.833 15.1984 220.833 20.799 220.833 32V188C220.833 199.201 220.833 204.802 218.653 209.08C216.736 212.843 213.676 215.903 209.913 217.82C205.635 220 200.034 220 188.833 220H32.833C21.632 220 16.0314 220 11.7532 217.82C7.98996 215.903 4.93035 212.843 3.01288 209.08C0.833008 204.802 0.833008 199.201 0.833008 188V32Z" fill="#EDECEE"/>
<path d="M71.5059 142.03C47.4964 146.424 30.2707 145.496 27.7568 138.444C23.794 127.328 57.8921 105.202 103.917 89.0249C149.942 72.8479 190.465 68.7455 194.428 79.8621C196.957 86.9571 183.982 98.5368 162.297 110.192" stroke="#364D9D" stroke-width="2"/>
<ellipse cx="109.734" cy="107.327" rx="53.7581" ry="53.3801" fill="#364D9D"/>
<path fill-rule="evenodd" clip-rule="evenodd" d="M84.647 91.0438C84.647 88.8997 86.3974 87.1616 88.5567 87.1616H131.563C133.722 87.1616 135.473 88.8997 135.473 91.0438V125.984C135.473 128.128 133.722 129.866 131.563 129.866H88.5567C86.3974 129.866 84.647 128.128 84.647 125.984V91.0438ZM131.563 91.0438H88.5567V125.984H131.563V91.0438Z" fill="#EDECEE"/>
<path fill-rule="evenodd" clip-rule="evenodd" d="M84.647 96.8671C84.647 95.7951 85.5222 94.926 86.6018 94.926H133.518C134.598 94.926 135.473 95.7951 135.473 96.8671C135.473 97.9392 134.598 98.8082 133.518 98.8082H86.6018C85.5222 98.8082 84.647 97.9392 84.647 96.8671Z" fill="#EDECEE"/>
<path fill-rule="evenodd" clip-rule="evenodd" d="M100.286 102.69C101.366 102.69 102.241 103.559 102.241 104.632C102.241 106.691 103.065 108.666 104.531 110.122C105.997 111.578 107.986 112.396 110.06 112.396C112.134 112.396 114.123 111.578 115.589 110.122C117.056 108.666 117.879 106.691 117.879 104.632C117.879 103.559 118.755 102.69 119.834 102.69C120.914 102.69 121.789 103.559 121.789 104.632C121.789 107.72 120.553 110.683 118.354 112.867C116.154 115.051 113.171 116.278 110.06 116.278C106.949 116.278 103.966 115.051 101.766 112.867C99.5668 110.683 98.3311 107.72 98.3311 104.632C98.3311 103.559 99.2063 102.69 100.286 102.69Z" fill="#EDECEE"/>
<path d="M71.5059 142.03C75.5567 141.288 79.8006 140.396 84.1995 139.355M162.297 110.192C158.211 112.388 153.816 114.587 149.156 116.76" stroke="#F7F7F8" stroke-width="2"/>
<path d="M255.81 157.712C253.825 157.712 252.833 156.72 252.833 154.735V72.8721C252.833 70.9978 253.605 70.0606 255.148 70.0606H271.521C273.065 70.0606 273.836 70.8875 273.836 72.5413V81.1411C273.836 81.8026 274.002 82.2437 274.332 82.4642C274.663 82.5744 275.104 82.3539 275.656 81.8026C278.743 79.0463 281.719 76.6759 284.586 74.6913C287.563 72.7067 290.595 71.1632 293.682 70.0606C296.879 68.8479 300.242 68.2415 303.77 68.2415C309.944 68.2415 315.016 69.6748 318.985 72.5413C322.954 75.4079 325.711 79.0463 327.254 83.4564C327.475 83.8975 327.805 84.0628 328.246 83.9526C328.687 83.8423 329.128 83.5667 329.57 83.1257C332.436 80.2591 335.468 77.7233 338.665 75.5182C341.863 73.3131 345.17 71.6042 348.588 70.3914C352.006 69.0684 355.424 68.4068 358.842 68.4068C366.67 68.4068 372.844 70.7773 377.364 75.5182C381.885 80.1488 384.145 86.4884 384.145 94.5369V154.239C384.145 156.555 382.987 157.712 380.672 157.712H365.457C364.465 157.712 363.748 157.492 363.307 157.051C362.866 156.61 362.646 155.838 362.646 154.735V97.8445C362.646 93.5447 361.543 90.237 359.338 87.9217C357.243 85.4961 354.046 84.2833 349.746 84.2833C347.21 84.2833 344.785 84.7795 342.469 85.7718C340.154 86.6538 338.059 87.8115 336.185 89.2448C334.31 90.6781 332.657 92.1114 331.223 93.5447C330.452 94.3164 329.9 95.0882 329.57 95.86C329.349 96.5215 329.239 97.3484 329.239 98.3407V154.239C329.239 156.555 328.081 157.712 325.766 157.712H310.551C309.669 157.712 308.952 157.492 308.401 157.051C307.96 156.61 307.739 155.838 307.739 154.735V97.8445C307.739 93.5447 306.692 90.237 304.597 87.9217C302.502 85.4961 299.25 84.2833 294.84 84.2833C291.091 84.2833 287.618 85.2205 284.421 87.0948C281.334 88.9691 277.971 91.7806 274.332 95.5292V154.405C274.332 156.61 273.065 157.712 270.529 157.712H255.81Z" fill="#1A181B"/>
<path d="M452.292 148.616C448.543 151.924 444.464 154.57 440.054 156.555C435.644 158.429 430.627 159.366 425.004 159.366C416.515 159.366 409.844 157.161 404.993 152.751C400.252 148.23 397.882 142.387 397.882 135.221C397.882 129.157 399.701 123.92 403.339 119.509C406.978 114.989 412.27 111.461 419.216 108.925C426.162 106.389 434.486 104.901 444.188 104.46L452.457 103.964C453.119 103.853 453.725 103.633 454.277 103.302C454.828 102.971 455.104 102.365 455.104 101.483V97.6792C455.104 92.828 453.67 89.0794 450.804 86.4333C447.937 83.677 443.968 82.2988 438.896 82.2988C435.037 82.2988 431.399 83.1808 427.981 84.9449C424.674 86.5987 421.807 89.355 419.381 93.2139C419.051 93.8754 418.665 94.3164 418.224 94.5369C417.893 94.7574 417.231 94.7574 416.239 94.5369L402.347 91.0639C401.796 90.8434 401.355 90.5127 401.024 90.0717C400.804 89.6306 401.024 88.7486 401.686 87.4256C404.663 81.1411 409.348 76.4002 415.743 73.2029C422.248 70.0055 430.296 68.4068 439.889 68.4068C448.378 68.4068 455.214 69.5645 460.396 71.8798C465.688 74.1951 469.547 77.4476 471.972 81.6373C474.398 85.7167 475.611 90.5678 475.611 96.1907V154.405C475.611 155.617 475.39 156.499 474.949 157.051C474.618 157.492 473.902 157.712 472.799 157.712H458.742C457.75 157.712 457.033 157.326 456.592 156.555C456.151 155.783 455.875 154.846 455.765 153.743L455.434 148.782C455.214 146.907 454.166 146.852 452.292 148.616ZM455.104 117.69C455.104 115.706 454.277 114.768 452.623 114.879L445.842 115.375C442.314 115.595 438.896 116.147 435.589 117.029C432.391 117.8 429.525 118.903 426.989 120.336C424.563 121.659 422.579 123.368 421.035 125.463C419.602 127.448 418.885 129.818 418.885 132.574C418.885 136.323 420.208 139.3 422.854 141.505C425.611 143.71 429.304 144.813 433.935 144.813C436.912 144.813 439.668 144.316 442.204 143.324C444.74 142.332 446.945 141.064 448.819 139.52C450.693 137.977 452.182 136.378 453.284 134.724C454.497 132.96 455.104 131.196 455.104 129.432V117.69Z" fill="#1A181B"/>
<path d="M499.197 157.712C498.094 157.712 497.322 157.492 496.881 157.051C496.44 156.499 496.22 155.728 496.22 154.735V72.8721C496.22 70.9978 496.992 70.0606 498.535 70.0606H514.577C516.121 70.0606 516.893 70.8875 516.893 72.5413V82.6295C516.893 83.2911 517.113 83.7321 517.554 83.9526C517.995 84.0628 518.491 83.7872 519.042 83.1257C521.468 79.9283 524.059 77.2822 526.815 75.1874C529.682 72.9824 532.548 71.3286 535.415 70.226C538.392 69.0132 541.259 68.4068 544.015 68.4068C547.984 68.4068 549.969 69.2889 549.969 71.0529V86.9294C549.969 88.473 549.252 89.1345 547.819 88.914C546.165 88.473 544.401 88.1974 542.526 88.0871C540.762 87.8666 539.109 87.7563 537.565 87.7563C535.47 87.7563 533.21 88.1974 530.784 89.0794C528.469 89.9614 526.319 91.2293 524.335 92.8831C522.35 94.4267 520.751 96.1356 519.539 98.0099C518.326 99.8842 517.719 101.814 517.719 103.798V154.405C517.719 156.61 516.451 157.712 513.916 157.712H499.197Z" fill="#1A181B"/>
<path d="M647.4 154.239C647.951 155.011 648.061 155.783 647.73 156.555C647.4 157.326 646.628 157.712 645.415 157.712H627.223C626.231 157.712 625.404 157.492 624.742 157.051C624.191 156.499 623.695 155.728 623.254 154.735L603.408 117.69C603.078 116.918 602.747 116.477 602.416 116.367C602.085 116.257 601.589 116.533 600.928 117.194L587.201 130.755C586.76 131.196 586.374 131.692 586.043 132.244C585.823 132.795 585.713 133.567 585.713 134.559V154.074C585.713 155.397 585.437 156.334 584.886 156.885C584.335 157.437 583.342 157.712 581.909 157.712H567.521C566.198 157.712 565.316 157.492 564.875 157.051C564.434 156.499 564.213 155.728 564.213 154.735V37.8115C564.213 35.9372 565.04 35 566.694 35H583.397C584.941 35 585.713 35.882 585.713 37.6461V108.594C585.713 109.256 585.878 109.697 586.209 109.917C586.54 110.138 587.036 109.862 587.697 109.09L622.096 72.376C623.64 70.8324 625.018 70.0606 626.231 70.0606H641.281C642.714 70.0606 643.541 70.4465 643.761 71.2183C644.092 71.9901 643.761 72.8721 642.769 73.8644L618.458 98.3407C618.017 98.892 617.741 99.4432 617.631 99.9945C617.521 100.546 617.741 101.373 618.293 102.475L647.4 154.239Z" fill="#1A181B"/>
<path d="M673.647 120.667C673.647 125.187 674.695 129.267 676.789 132.905C678.884 136.433 681.751 139.245 685.389 141.34C689.138 143.324 693.217 144.316 697.627 144.316C702.148 144.316 706.227 143.379 709.866 141.505C713.614 139.631 717.142 136.599 720.45 132.409C720.891 131.858 721.277 131.582 721.608 131.582C721.938 131.472 722.49 131.637 723.261 132.078L733.35 136.544C734.783 137.205 734.948 138.197 733.846 139.52C730.538 144.372 726.955 148.286 723.096 151.262C719.347 154.129 715.158 156.224 710.527 157.547C706.007 158.76 700.88 159.366 695.147 159.366C686.767 159.366 679.27 157.492 672.655 153.743C666.04 149.994 660.803 144.813 656.944 138.197C653.195 131.472 651.321 123.754 651.321 115.044C651.321 105.452 653.25 97.183 657.109 90.237C661.078 83.2911 666.371 77.9438 672.986 74.1952C679.601 70.3363 686.878 68.4068 694.816 68.4068C703.195 68.4068 710.472 70.226 716.646 73.8644C722.931 77.5028 727.837 82.7398 731.365 89.5755C734.893 96.301 736.657 104.515 736.657 114.217C736.657 115.32 736.547 116.202 736.326 116.863C736.216 117.525 735.444 117.911 734.011 118.021H675.466C674.805 118.021 674.309 118.241 673.978 118.682C673.758 119.123 673.647 119.785 673.647 120.667ZM712.842 105.783C713.945 105.783 714.662 105.673 714.992 105.452C715.433 105.121 715.654 104.46 715.654 103.467C715.654 100.05 714.882 96.6869 713.339 93.3793C711.795 90.0717 709.535 87.3705 706.558 85.2756C703.581 83.0706 699.943 81.968 695.643 81.968C691.233 81.968 687.374 83.0706 684.066 85.2756C680.759 87.3705 678.223 90.237 676.459 93.8754C674.805 97.4035 673.978 101.373 673.978 105.783H712.842Z" fill="#1A181B"/>
<path d="M782.35 85.1103C781.247 85.1103 780.696 85.7167 780.696 86.9294V131.086C780.696 135.386 781.578 138.363 783.342 140.017C785.106 141.67 787.863 142.497 791.611 142.497H801.369C802.03 142.497 802.581 142.718 803.023 143.159C803.464 143.6 803.684 144.151 803.684 144.813L803.519 153.412C803.519 155.176 802.471 156.279 800.376 156.72C798.723 156.94 796.793 157.161 794.588 157.381C792.383 157.492 790.178 157.602 787.973 157.712C785.878 157.712 783.949 157.712 782.185 157.712C774.798 157.712 769.12 156.003 765.15 152.585C761.181 149.057 759.197 143.765 759.197 136.709V87.2602C759.197 85.8269 758.535 85.1103 757.212 85.1103H746.132C744.368 85.1103 743.486 84.2834 743.486 82.6295V72.2106C743.486 70.7773 744.312 70.0606 745.966 70.0606H758.204C759.197 70.0606 759.693 69.5094 759.693 68.4068L761.843 42.9383C761.953 41.1742 762.725 40.2922 764.158 40.2922H778.877C780.421 40.2922 781.192 41.2293 781.192 43.1036V68.4068C781.192 69.3991 781.688 69.8953 782.681 69.8953H801.369C803.023 69.8953 803.849 70.667 803.849 72.2106V82.6295C803.849 84.2834 802.912 85.1103 801.038 85.1103H782.35Z" fill="#1A181B"/>
<path d="M872.812 91.7255C870.717 88.9691 867.961 86.6538 864.543 84.7795C861.125 82.9052 856.935 81.968 851.974 81.968C847.233 81.968 843.264 82.9052 840.066 84.7795C836.869 86.6538 835.27 89.2999 835.27 92.7178C835.27 94.3716 835.932 95.9702 837.255 97.5138C838.578 99.0573 841.5 100.436 846.02 101.648L865.7 106.94C874.3 109.035 880.419 112.343 884.058 116.863C887.806 121.273 889.681 126.29 889.681 131.913C889.681 137.646 888.027 142.552 884.719 146.632C881.522 150.711 877.001 153.853 871.158 156.058C865.425 158.264 858.865 159.366 851.478 159.366C841.996 159.366 833.892 157.657 827.167 154.239C820.441 150.711 815.7 146.356 812.944 141.174C812.613 140.513 812.448 139.906 812.448 139.355C812.448 138.693 812.724 138.142 813.275 137.701L823.032 132.74C823.914 132.189 824.631 131.968 825.182 132.078C825.733 132.189 826.174 132.464 826.505 132.905C828.159 135.22 830.033 137.315 832.128 139.19C834.333 141.064 836.979 142.552 840.066 143.655C843.264 144.757 847.123 145.254 851.643 145.143C855.061 145.143 858.148 144.702 860.904 143.82C863.771 142.938 866.031 141.725 867.685 140.182C869.339 138.528 870.166 136.544 870.166 134.228C870.166 132.023 869.228 130.094 867.354 128.44C865.48 126.786 862.117 125.353 857.266 124.14L840.397 120.171C832.018 118.186 825.844 115.209 821.875 111.24C818.016 107.271 816.086 102.31 816.086 96.3561C816.086 90.8434 817.52 85.9923 820.386 81.8026C823.363 77.613 827.553 74.3605 832.955 72.0452C838.357 69.6196 844.752 68.4068 852.139 68.4068C860.298 68.4068 867.354 69.8953 873.308 72.8721C879.262 75.849 883.617 79.5424 886.373 83.9526C886.814 84.5039 887.09 85.1103 887.2 85.7718C887.42 86.4333 887.145 86.9846 886.373 87.4256L876.119 92.5524C875.458 92.8831 874.851 92.9934 874.3 92.8831C873.749 92.6626 873.253 92.2767 872.812 91.7255Z" fill="#1A181B"/>
<path d="M924.314 70.0606C926.408 70.0606 927.456 71.0529 927.456 73.0375V78.6604C927.456 79.4322 927.676 79.8732 928.117 79.9835C928.558 79.9835 929.054 79.7078 929.606 79.1566C931.26 77.613 933.134 76.0143 935.229 74.3605C937.434 72.7067 940.08 71.3286 943.167 70.226C946.254 69.0132 950.003 68.4068 954.413 68.4068C961.028 68.4068 966.927 70.0606 972.108 73.3682C977.29 76.5656 981.425 81.4719 984.512 88.0871C987.599 94.5921 989.143 102.861 989.143 112.894C989.143 123.258 987.599 131.913 984.512 138.859C981.425 145.695 977.125 150.821 971.612 154.239C966.21 157.657 959.981 159.366 952.924 159.366C948.404 159.366 944.269 158.649 940.521 157.216C936.772 155.783 933.409 153.688 930.433 150.932C929.33 149.939 928.558 149.498 928.117 149.609C927.676 149.719 927.456 150.491 927.456 151.924V182.354C927.456 184.118 926.684 185 925.14 185H908.272C906.728 185 905.956 184.118 905.956 182.354V73.3682C905.956 72.1555 906.177 71.3286 906.618 70.8875C907.059 70.3363 907.941 70.0606 909.264 70.0606H924.314ZM927.456 136.213C929.992 138.969 932.693 141.174 935.559 142.828C938.536 144.482 941.844 145.309 945.482 145.309C949.892 145.309 953.696 144.206 956.893 142.001C960.201 139.686 962.737 136.158 964.501 131.417C966.375 126.566 967.312 120.336 967.312 112.729C967.312 105.232 966.375 99.2778 964.501 94.8677C962.737 90.4576 960.201 87.3153 956.893 85.441C953.696 83.4565 950.113 82.4642 946.144 82.4642C942.505 82.4642 939.253 83.2359 936.386 84.7795C933.63 86.2128 931.425 88.0871 929.771 90.4024C928.228 92.7178 927.456 95.1433 927.456 97.6792V136.213Z" fill="#1A181B"/>
<path d="M1054.38 148.616C1050.63 151.924 1046.55 154.57 1042.14 156.555C1037.73 158.429 1032.72 159.366 1027.09 159.366C1018.6 159.366 1011.93 157.161 1007.08 152.751C1002.34 148.23 999.97 142.387 999.97 135.221C999.97 129.157 1001.79 123.92 1005.43 119.509C1009.07 114.989 1014.36 111.461 1021.3 108.925C1028.25 106.389 1036.57 104.901 1046.28 104.46L1054.55 103.964C1055.21 103.853 1055.81 103.633 1056.36 103.302C1056.92 102.971 1057.19 102.365 1057.19 101.483V97.6792C1057.19 92.828 1055.76 89.0794 1052.89 86.4333C1050.02 83.677 1046.06 82.2988 1040.98 82.2988C1037.13 82.2988 1033.49 83.1808 1030.07 84.9449C1026.76 86.5987 1023.89 89.355 1021.47 93.2139C1021.14 93.8754 1020.75 94.3164 1020.31 94.5369C1019.98 94.7574 1019.32 94.7574 1018.33 94.5369L1004.44 91.0639C1003.88 90.8434 1003.44 90.5127 1003.11 90.0717C1002.89 89.6306 1003.11 88.7486 1003.77 87.4256C1006.75 81.1411 1011.44 76.4002 1017.83 73.2029C1024.34 70.0055 1032.38 68.4068 1041.98 68.4068C1050.47 68.4068 1057.3 69.5645 1062.48 71.8798C1067.78 74.1951 1071.63 77.4476 1074.06 81.6373C1076.49 85.7167 1077.7 90.5678 1077.7 96.1907V154.405C1077.7 155.617 1077.48 156.499 1077.04 157.051C1076.71 157.492 1075.99 157.712 1074.89 157.712H1060.83C1059.84 157.712 1059.12 157.326 1058.68 156.555C1058.24 155.783 1057.96 154.846 1057.85 153.743L1057.52 148.782C1057.3 146.907 1056.25 146.852 1054.38 148.616ZM1057.19 117.69C1057.19 115.706 1056.36 114.768 1054.71 114.879L1047.93 115.375C1044.4 115.595 1040.98 116.147 1037.68 117.029C1034.48 117.8 1031.61 118.903 1029.08 120.336C1026.65 121.659 1024.67 123.368 1023.12 125.463C1021.69 127.448 1020.97 129.818 1020.97 132.574C1020.97 136.323 1022.3 139.3 1024.94 141.505C1027.7 143.71 1031.39 144.813 1036.02 144.813C1039 144.813 1041.76 144.316 1044.29 143.324C1046.83 142.332 1049.03 141.064 1050.91 139.52C1052.78 137.977 1054.27 136.378 1055.37 134.724C1056.59 132.96 1057.19 131.196 1057.19 129.432V117.69Z" fill="#1A181B"/>
<path d="M1137.01 68.4068C1143.62 68.4068 1149.36 69.5645 1154.21 71.8798C1159.06 74.0849 1163.03 77.0066 1166.11 80.645C1169.31 84.1731 1171.74 87.9217 1173.39 91.8908C1174.05 93.8754 1173.5 94.9228 1171.74 95.0331L1157.18 96.8523C1156.08 97.0728 1155.31 96.5766 1154.87 95.3638C1153.43 92.9383 1151.95 90.7883 1150.4 88.914C1148.86 87.0397 1147.1 85.5513 1145.11 84.4487C1143.13 83.3462 1140.7 82.7949 1137.83 82.7949C1133.42 82.7949 1129.51 84.0077 1126.09 86.4333C1122.78 88.7486 1120.19 92.2216 1118.32 96.8523C1116.55 101.483 1115.67 107.161 1115.67 113.886C1115.67 120.722 1116.61 126.455 1118.48 131.086C1120.47 135.717 1123.17 139.245 1126.59 141.67C1130.01 143.986 1134.09 145.143 1138.83 145.143C1143.79 145.143 1147.87 143.875 1151.06 141.34C1154.26 138.693 1157.24 135.055 1159.99 130.424C1160.33 129.983 1160.66 129.708 1160.99 129.598C1161.32 129.487 1161.87 129.542 1162.64 129.763L1173.06 132.574C1174.16 132.905 1174.49 133.842 1174.05 135.386C1172.95 137.922 1171.35 140.623 1169.26 143.49C1167.27 146.356 1164.79 149.002 1161.81 151.428C1158.84 153.743 1155.25 155.673 1151.06 157.216C1146.98 158.649 1142.3 159.366 1137.01 159.366C1128.63 159.366 1121.19 157.492 1114.68 153.743C1108.18 149.884 1103.05 144.592 1099.3 137.867C1095.66 131.031 1093.84 123.148 1093.84 114.217C1093.84 105.176 1095.72 97.2381 1099.47 90.4024C1103.21 83.4564 1108.34 78.054 1114.85 74.1952C1121.35 70.3363 1128.74 68.4068 1137.01 68.4068Z" fill="#1A181B"/>
<path d="M1206.13 120.667C1206.13 125.187 1207.17 129.267 1209.27 132.905C1211.36 136.433 1214.23 139.245 1217.87 141.34C1221.62 143.324 1225.7 144.316 1230.11 144.316C1234.63 144.316 1238.71 143.379 1242.35 141.505C1246.09 139.631 1249.62 136.599 1252.93 132.409C1253.37 131.858 1253.76 131.582 1254.09 131.582C1254.42 131.472 1254.97 131.637 1255.74 132.078L1265.83 136.544C1267.26 137.205 1267.43 138.197 1266.33 139.52C1263.02 144.372 1259.43 148.286 1255.58 151.262C1251.83 154.129 1247.64 156.224 1243.01 157.547C1238.49 158.76 1233.36 159.366 1227.63 159.366C1219.25 159.366 1211.75 157.492 1205.13 153.743C1198.52 149.994 1193.28 144.813 1189.42 138.197C1185.67 131.472 1183.8 123.754 1183.8 115.044C1183.8 105.452 1185.73 97.183 1189.59 90.237C1193.56 83.2911 1198.85 77.9438 1205.47 74.1952C1212.08 70.3363 1219.36 68.4068 1227.3 68.4068C1235.67 68.4068 1242.95 70.226 1249.13 73.8644C1255.41 77.5028 1260.32 82.7398 1263.84 89.5755C1267.37 96.301 1269.14 104.515 1269.14 114.217C1269.14 115.32 1269.03 116.202 1268.81 116.863C1268.7 117.525 1267.92 117.911 1266.49 118.021H1207.95C1207.28 118.021 1206.79 118.241 1206.46 118.682C1206.24 119.123 1206.13 119.785 1206.13 120.667ZM1245.32 105.783C1246.42 105.783 1247.14 105.673 1247.47 105.452C1247.91 105.121 1248.13 104.46 1248.13 103.467C1248.13 100.05 1247.36 96.6869 1245.82 93.3793C1244.27 90.0717 1242.01 87.3705 1239.04 85.2756C1236.06 83.0706 1232.42 81.968 1228.12 81.968C1223.71 81.968 1219.85 83.0706 1216.55 85.2756C1213.24 87.3705 1210.7 90.237 1208.94 93.8754C1207.28 97.4035 1206.46 101.373 1206.46 105.783H1245.32Z" fill="#1A181B"/>
</svg>
