<svg width="767" height="220" viewBox="0 0 767 220" fill="none" xmlns="http://www.w3.org/2000/svg">
<path d="M0.888672 32C0.888672 20.7989 0.888672 15.1984 3.06854 10.9202C4.98601 7.15695 8.04562 4.09734 11.8089 2.17987C16.0871 0 21.6876 0 32.8887 0H188.889C200.09 0 205.69 0 209.968 2.17987C213.732 4.09734 216.791 7.15695 218.709 10.9202C220.889 15.1984 220.889 20.799 220.889 32V188C220.889 199.201 220.889 204.802 218.709 209.08C216.791 212.843 213.732 215.903 209.968 217.82C205.69 220 200.09 220 188.889 220H32.8887C21.6876 220 16.0871 220 11.8089 217.82C8.04562 215.903 4.98601 212.843 3.06854 209.08C0.888672 204.802 0.888672 199.201 0.888672 188V32Z" fill="#8257E5"/>
<path d="M137.436 60H82.0612C67.3255 60 59.8887 67.1423 59.8887 81.2892V157.004C59.8887 158.858 60.8862 160 63.0353 160H79.7742C81.7773 160 83.0668 158.858 83.0668 157.004V154.129C83.0668 147.116 86.0269 143.294 93.3826 142.557H137.436C153.599 142.557 160.898 135.561 160.898 120.272V82.2852C160.898 66.9965 153.599 60 137.436 60ZM137.744 113.842C137.744 122.135 135.862 123.843 125.984 123.843H102.522C92.6527 123.843 86.3513 127.131 83.0587 133.561V86.8605C83.0587 80.4308 84.632 78.7141 92.4986 78.7141H125.984C135.862 78.7141 137.744 80.4308 137.744 88.7149V113.842Z" fill="white"/>
<g clip-path="url(#clip0_699_148)">
<path d="M338.953 41.345H277.496C261.142 41.345 252.889 49.2717 252.889 64.9723V149.003C252.889 151.061 253.996 152.328 256.381 152.328H274.958C277.181 152.328 278.612 151.061 278.612 149.003V145.812C278.612 138.029 281.898 133.787 290.061 132.969H338.953C356.891 132.969 364.991 125.205 364.991 108.237V66.0777C364.991 49.1099 356.891 41.345 338.953 41.345ZM339.295 101.101C339.295 110.304 337.206 112.2 326.244 112.2H300.205C289.251 112.2 282.258 115.849 278.603 122.985V71.1555C278.603 64.0197 280.35 62.1144 289.08 62.1144H326.244C337.206 62.1144 339.295 64.0197 339.295 73.2136V101.101Z" fill="white"/>
<path d="M423.901 87.7997C409.77 87.7997 403.73 94.9355 403.73 106.987V149.317C403.73 151.222 402.776 152.328 400.553 152.328H383.722C381.499 152.328 380.392 151.222 380.392 149.317V71.9463C380.392 70.041 381.499 68.9266 383.722 68.9266H397.853C399.923 68.9266 401.03 70.041 401.03 71.9463V84.4295C403.73 74.1302 411.516 68.8906 425.332 68.8906H431.047C433.108 68.8906 434.215 70.005 434.215 71.9103V84.789C434.215 86.847 433.108 87.7997 431.047 87.7997H423.901Z" fill="white"/>
<path d="M533.456 129.653C533.456 145.354 526.472 152.328 509.802 152.328H468.517C452.001 152.328 444.854 145.354 444.854 129.653V91.6193C444.854 75.9276 452.001 68.9446 468.517 68.9446H509.802C526.472 68.9446 533.456 75.9276 533.456 91.6193V129.653ZM510.118 97.6317C510.118 89.3815 508.533 87.7997 498.687 87.7997H479.785C469.786 87.7997 468.193 89.3815 468.193 97.6317V123.632C468.193 131.873 469.786 133.464 479.785 133.464H498.687C508.533 133.464 510.118 131.873 510.118 123.632V97.6317Z" fill="white"/>
<path d="M556.957 87.7998H549.009C546.939 87.7998 545.832 86.8471 545.832 84.7891V71.9464C545.832 70.0411 546.939 68.9267 549.009 68.9267H556.948V58.6273C556.957 42.9267 565.21 35 581.564 35H601.096C603.319 35 604.273 36.1144 604.273 38.0107V50.8534C604.273 52.9205 603.319 53.8641 601.096 53.8641H590.781C582.041 53.8641 580.295 55.7694 580.295 62.9052V68.9267H601.096C603.319 68.9267 604.273 70.0411 604.273 71.9464V84.7891C604.273 86.8471 603.319 87.7998 601.096 87.7998H580.295V149.317C580.295 151.222 579.188 152.328 576.965 152.328H560.134C557.911 152.328 556.957 151.222 556.957 149.317V87.7998Z" fill="white"/>
<path d="M621.743 87.7998H613.813C611.752 87.7998 610.645 86.8471 610.645 84.7891V71.9464C610.645 70.0411 611.752 68.9267 613.813 68.9267H621.761V58.6273C621.743 42.9267 630.014 35 646.35 35H665.882C668.105 35 669.059 36.1144 669.059 38.0107V50.8534C669.059 52.9205 668.105 53.8641 665.882 53.8641H655.558C646.827 53.8641 645.081 55.7694 645.081 62.9052V68.9267H665.882C668.105 68.9267 669.059 70.0411 669.059 71.9464V84.7891C669.059 86.8471 668.105 87.7998 665.882 87.7998H645.081V149.317C645.081 151.222 643.965 152.328 641.742 152.328H624.911C622.688 152.328 621.743 151.222 621.743 149.317V87.7998Z" fill="white"/>
<path d="M740.029 184.673H705.413C689.86 184.673 683.19 178.651 683.19 163.742V162.16C683.144 161.734 683.195 161.304 683.338 160.9C683.481 160.497 683.714 160.131 684.018 159.83C684.322 159.528 684.691 159.299 685.096 159.16C685.501 159.02 685.933 158.974 686.359 159.023H702.56C704.783 159.023 705.89 160.138 705.89 162.196V162.987C705.89 166.159 707.645 167.426 711.137 167.426H731.146C740.668 167.426 743.054 165.054 743.054 156.965V131.954C739.399 139.09 732.415 142.738 721.452 142.738H705.251C688.735 142.738 681.426 135.764 681.426 120.064V71.9463C681.405 71.5308 681.473 71.1156 681.628 70.7291C681.782 70.3426 682.018 69.994 682.32 69.7071C682.621 69.4203 682.982 69.202 683.376 69.0673C683.77 68.9326 684.189 68.8846 684.603 68.9266H701.597C703.658 68.9266 704.774 70.041 704.774 71.9463V114.087C704.774 122.329 706.52 123.919 716.367 123.919H728.436C738.913 123.919 743.045 119.632 743.045 110.915V71.9463C743.045 70.041 744.152 68.9266 746.222 68.9266H763.224C763.63 68.8874 764.04 68.9387 764.425 69.0767C764.809 69.2147 765.158 69.4361 765.446 69.7249C765.735 70.0136 765.955 70.3626 766.092 70.7468C766.229 71.1309 766.28 71.5406 766.239 71.9463V159.464C766.23 176.099 757.337 184.673 740.029 184.673Z" fill="white"/>
</g>
<defs>
<clipPath id="clip0_699_148">
<rect width="513.364" height="150" fill="white" transform="translate(252.889 35)"/>
</clipPath>
</defs>
</svg>
