<svg width="369" height="86" viewBox="0 0 369 86" fill="none" xmlns="http://www.w3.org/2000/svg">
<path d="M0 32C0 20.7989 0 15.1984 2.17987 10.9202C4.09734 7.15695 7.15695 4.09734 10.9202 2.17987C15.1984 0 20.7989 0 32 0H54C65.2011 0 70.8016 0 75.0798 2.17987C78.8431 4.09734 81.9027 7.15695 83.8201 10.9202C86 15.1984 86 20.7989 86 32V54C86 65.2011 86 70.8016 83.8201 75.0798C81.9027 78.8431 78.8431 81.9027 75.0798 83.8201C70.8016 86 65.2011 86 54 86H32C20.7989 86 15.1984 86 10.9202 83.8201C7.15695 81.9027 4.09734 78.8431 2.17987 75.0798C0 70.8016 0 65.2011 0 54V32Z" fill="#1B1B1F"/>
<path fill-rule="evenodd" clip-rule="evenodd" d="M35.7799 35.2071L13.6304 24.3066L13 24V31.9185L27.7357 39.1702L35.7799 35.2071ZM72.9998 61.4466V53.528L58.3166 46.3071L50.279 50.2702L72.9998 61.4466ZM72.3761 24.3065L73 24.0075V31.926L51.0672 42.7345L43.0296 46.6976L13 61.4998V53.5736L34.9853 42.7422L43.023 38.7714H43.0296L72.3761 24.3065Z" fill="#DC1637"/>
<g clip-path="url(#clip0_210_161)">
<path fill-rule="evenodd" clip-rule="evenodd" d="M203.148 29.0027H156.776V34.7567H203.148V29.0027ZM203.148 40.8168H156.776V46.5708H203.148V40.8168ZM156.776 52.6307H203.148V58.3846H156.776V52.6307Z" fill="#E1E1E6"/>
<path fill-rule="evenodd" clip-rule="evenodd" d="M267.202 29.0027H313.574V34.7567H267.202V29.0027ZM292.948 58.3846V38.9141L292.695 39.0402L288.081 41.3442V58.3846H292.948Z" fill="#E1E1E6"/>
<path fill-rule="evenodd" clip-rule="evenodd" d="M323.044 29.2427L340.163 37.7747L333.946 40.8767L322.557 35.2007V29.0027L323.044 29.2427ZM368.93 52.1148V58.3129L351.368 49.5648L357.58 46.4628L368.93 52.1148ZM368.93 35.2067V29.0087L368.448 29.2427L345.766 40.5647H345.761L339.549 43.6727L322.557 52.1507V58.3546L345.766 46.7687L351.978 43.6667L368.93 35.2067Z" fill="#DC1637"/>
<path d="M103.867 58.4089H99V53.2308C99.0027 46.8109 101.16 40.6545 104.999 36.1132C108.837 31.5719 114.043 29.0168 119.473 29.0089H147.808V34.7629H119.473C115.337 34.7692 111.371 36.7142 108.446 40.1716C105.52 43.629 103.874 48.3166 103.867 53.2069V58.4089Z" fill="#E1E1E6"/>
<path fill-rule="evenodd" clip-rule="evenodd" d="M214.189 29H209.428V30.3776L209.426 30.3818L209.425 31.8596C209.424 32.8849 209.423 33.9067 209.426 34.4089V58.4089H214.293V35.7717L218.479 37.9537L255.831 58.3751V58.3849H255.849L255.893 58.4089H260.701V53.7764L260.699 53.7754V43.5469L260.69 43.5511V29.0089H255.823V51.2587L252.73 49.6725L214.189 29Z" fill="#E1E1E6"/>
</g>
<defs>
<clipPath id="clip0_210_161">
<rect width="270" height="30" fill="white" transform="translate(99 28)"/>
</clipPath>
</defs>
</svg>
