<svg width="943" height="220" viewBox="0 0 943 220" fill="none" xmlns="http://www.w3.org/2000/svg">
<path d="M0.0722656 32C0.0722656 20.7989 0.0722656 15.1984 2.25214 10.9202C4.1696 7.15695 7.22921 4.09734 10.9925 2.17987C15.2707 0 20.8712 0 32.0723 0H188.072C199.273 0 204.874 0 209.152 2.17987C212.915 4.09734 215.975 7.15695 217.892 10.9202C220.072 15.1984 220.072 20.799 220.072 32V188C220.072 199.201 220.072 204.802 217.892 209.08C215.975 212.843 212.915 215.903 209.152 217.82C204.874 220 199.273 220 188.072 220H32.0723C20.8712 220 15.2707 220 10.9925 217.82C7.22921 215.903 4.1696 212.843 2.25214 209.08C0.0722656 204.802 0.0722656 199.201 0.0722656 188V32Z" fill="#1B1B1F"/>
<path fill-rule="evenodd" clip-rule="evenodd" d="M91.6023 90.0645L34.9408 62.1797L33.3281 61.3953V81.652L71.024 100.203L91.6023 90.0645ZM186.816 157.189V136.932L149.254 118.46L128.693 128.598L186.816 157.189ZM185.221 62.1792L186.816 61.4145V81.6712L130.709 109.321L110.148 119.459L33.3281 157.325V137.049L89.5697 109.34L110.131 99.1826H110.148L185.221 62.1792Z" fill="#DC1637"/>
<g clip-path="url(#clip0_698_214)">
<path fill-rule="evenodd" clip-rule="evenodd" d="M518.497 74.1931H399.871V88.9127H518.497V74.1931ZM518.497 104.415H399.871V119.135H518.497V104.415ZM399.871 134.637H518.497V149.356H399.871V134.637Z" fill="#E1E1E6"/>
<path fill-rule="evenodd" clip-rule="evenodd" d="M682.356 74.1931H800.983V88.9127H682.356V74.1931ZM748.219 149.356V99.5479L747.57 99.8702L735.768 105.764V149.356H748.219Z" fill="#E1E1E6"/>
<path fill-rule="evenodd" clip-rule="evenodd" d="M825.209 74.8071L869 96.6331L853.096 104.568L823.962 90.0485V74.1931L825.209 74.8071ZM942.591 133.317V149.173L897.664 126.794L913.556 118.858L942.591 133.317ZM942.591 90.0638V74.2085L941.357 74.8071L883.334 103.77H883.321L867.43 111.721L823.962 133.409V149.279L883.334 119.641L899.224 111.706L942.591 90.0638Z" fill="#DC1637"/>
<path d="M264.523 149.418H252.072V136.172C252.079 119.749 257.598 104 267.417 92.3826C277.237 80.7653 290.554 74.2291 304.446 74.2087H376.93V88.9283H304.446C293.864 88.9445 283.72 93.9202 276.236 102.765C268.752 111.609 264.54 123.601 264.523 136.111V149.418Z" fill="#E1E1E6"/>
<path fill-rule="evenodd" clip-rule="evenodd" d="M546.742 74.186H534.562V77.7101L534.557 77.7208L534.555 81.5012C534.553 84.1242 534.551 86.7382 534.557 88.0229V149.418H547.008V91.509L557.716 97.0908L653.269 149.332V149.357H653.315L653.428 149.418H665.727V137.567L665.72 137.565V111.399L665.699 111.41V74.2089H653.248V131.127L645.336 127.069L546.742 74.186Z" fill="#E1E1E6"/>
</g>
<defs>
<clipPath id="clip0_698_214">
<rect width="690.698" height="76.7442" fill="white" transform="translate(252.072 71.6279)"/>
</clipPath>
</defs>
</svg>
