<svg width="1291" height="220" viewBox="0 0 1291 220" fill="none" xmlns="http://www.w3.org/2000/svg">
<path d="M0.22168 32C0.22168 20.7989 0.22168 15.1984 2.40155 10.9202C4.31902 7.15695 7.37863 4.09734 11.1419 2.17987C15.4201 0 21.0206 0 32.2217 0H188.222C199.423 0 205.023 0 209.301 2.17987C213.065 4.09734 216.124 7.15695 218.042 10.9202C220.222 15.1984 220.222 20.799 220.222 32V188C220.222 199.201 220.222 204.802 218.042 209.08C216.124 212.843 213.065 215.903 209.301 217.82C205.023 220 199.423 220 188.222 220H32.2217C21.0206 220 15.4201 220 11.1419 217.82C7.37863 215.903 4.31902 212.843 2.40155 209.08C0.22168 204.802 0.22168 199.201 0.22168 188V32Z" fill="#9146FF"/>
<mask id="path-2-inside-1_699_137" fill="white">
<path d="M138.347 100.625H124.284C123.041 100.625 121.849 100.131 120.97 99.2521C120.091 98.373 119.597 97.1807 119.597 95.9375C119.597 94.6943 120.091 93.502 120.97 92.6229C121.849 91.7439 123.041 91.25 124.284 91.25H138.347C139.59 91.25 140.782 91.7439 141.661 92.6229C142.54 93.502 143.034 94.6943 143.034 95.9375C143.034 97.1807 142.54 98.373 141.661 99.2521C140.782 100.131 139.59 100.625 138.347 100.625ZM96.1592 91.25H91.4717V86.5625C91.4717 85.3193 90.9778 84.127 90.0988 83.2479C89.2197 82.3689 88.0274 81.875 86.7842 81.875C85.541 81.875 84.3487 82.3689 83.4696 83.2479C82.5906 84.127 82.0967 85.3193 82.0967 86.5625V91.25H77.4092C76.166 91.25 74.9737 91.7439 74.0946 92.6229C73.2156 93.502 72.7217 94.6943 72.7217 95.9375C72.7217 97.1807 73.2156 98.373 74.0946 99.2521C74.9737 100.131 76.166 100.625 77.4092 100.625H82.0967V105.312C82.0967 106.556 82.5906 107.748 83.4696 108.627C84.3487 109.506 85.541 110 86.7842 110C88.0274 110 89.2197 109.506 90.0988 108.627C90.9778 107.748 91.4717 106.556 91.4717 105.312V100.625H96.1592C97.4024 100.625 98.5947 100.131 99.4738 99.2521C100.353 98.373 100.847 97.1807 100.847 95.9375C100.847 94.6943 100.353 93.502 99.4738 92.6229C98.5947 91.7439 97.4024 91.25 96.1592 91.25ZM176.714 152.568C174.947 155.091 172.65 157.196 169.982 158.736C167.315 160.276 164.343 161.213 161.275 161.482C158.207 161.751 155.117 161.344 152.223 160.291C149.329 159.238 146.701 157.564 144.522 155.387C144.452 155.316 144.382 155.246 144.317 155.17L121.05 128.75H99.3701L76.126 155.17L75.9209 155.387C71.9612 159.338 66.5968 161.559 61.0029 161.562C57.9235 161.561 54.8816 160.886 52.091 159.584C49.3004 158.282 46.8288 156.384 44.8497 154.025C42.8707 151.666 41.4322 148.901 40.6354 145.927C39.8386 142.952 39.7027 139.839 40.2373 136.807C40.2345 136.779 40.2345 136.752 40.2373 136.725L49.8291 87.4531C51.2566 79.3266 55.5025 71.9631 61.8207 66.6565C68.1388 61.35 76.125 58.4398 84.376 58.4375H136.003C144.229 58.4506 152.191 61.3441 158.506 66.6156C164.821 71.887 169.09 79.2036 170.573 87.2949C170.573 87.3301 170.573 87.3652 170.573 87.4004L180.165 136.719C180.168 136.746 180.168 136.774 180.165 136.801C180.661 139.527 180.612 142.324 180.02 145.03C179.427 147.737 178.304 150.299 176.714 152.568ZM136.003 119.375C142.841 119.375 149.398 116.659 154.233 111.824C159.068 106.989 161.784 100.431 161.784 93.5938C161.784 86.7561 159.068 80.1986 154.233 75.3637C149.398 70.5287 142.841 67.8125 136.003 67.8125H84.376C78.323 67.8179 72.4658 69.9578 67.8348 73.8557C63.2039 77.7536 60.0959 83.1597 59.0576 89.123V89.1992L49.46 138.471C49.0357 140.913 49.3972 143.428 50.4923 145.652C51.5874 147.876 53.3597 149.696 55.5544 150.849C57.7491 152.003 60.253 152.43 62.7061 152.071C65.1591 151.711 67.4349 150.583 69.2061 148.848L93.7686 120.963C94.2084 120.464 94.7493 120.064 95.3555 119.791C95.9616 119.517 96.6191 119.375 97.2842 119.375H136.003ZM170.983 138.471L165.862 112.104C162.713 117.189 158.317 121.388 153.092 124.301C147.867 127.213 141.985 128.745 136.003 128.75H133.542L151.237 148.854C152.571 150.151 154.194 151.114 155.973 151.663C157.751 152.212 159.634 152.332 161.468 152.012C164.522 151.473 167.238 149.745 169.021 147.206C170.803 144.668 171.507 141.527 170.978 138.471H170.983Z"/>
</mask>
<path d="M138.347 100.625H124.284C123.041 100.625 121.849 100.131 120.97 99.2521C120.091 98.373 119.597 97.1807 119.597 95.9375C119.597 94.6943 120.091 93.502 120.97 92.6229C121.849 91.7439 123.041 91.25 124.284 91.25H138.347C139.59 91.25 140.782 91.7439 141.661 92.6229C142.54 93.502 143.034 94.6943 143.034 95.9375C143.034 97.1807 142.54 98.373 141.661 99.2521C140.782 100.131 139.59 100.625 138.347 100.625ZM96.1592 91.25H91.4717V86.5625C91.4717 85.3193 90.9778 84.127 90.0988 83.2479C89.2197 82.3689 88.0274 81.875 86.7842 81.875C85.541 81.875 84.3487 82.3689 83.4696 83.2479C82.5906 84.127 82.0967 85.3193 82.0967 86.5625V91.25H77.4092C76.166 91.25 74.9737 91.7439 74.0946 92.6229C73.2156 93.502 72.7217 94.6943 72.7217 95.9375C72.7217 97.1807 73.2156 98.373 74.0946 99.2521C74.9737 100.131 76.166 100.625 77.4092 100.625H82.0967V105.312C82.0967 106.556 82.5906 107.748 83.4696 108.627C84.3487 109.506 85.541 110 86.7842 110C88.0274 110 89.2197 109.506 90.0988 108.627C90.9778 107.748 91.4717 106.556 91.4717 105.312V100.625H96.1592C97.4024 100.625 98.5947 100.131 99.4738 99.2521C100.353 98.373 100.847 97.1807 100.847 95.9375C100.847 94.6943 100.353 93.502 99.4738 92.6229C98.5947 91.7439 97.4024 91.25 96.1592 91.25ZM176.714 152.568C174.947 155.091 172.65 157.196 169.982 158.736C167.315 160.276 164.343 161.213 161.275 161.482C158.207 161.751 155.117 161.344 152.223 160.291C149.329 159.238 146.701 157.564 144.522 155.387C144.452 155.316 144.382 155.246 144.317 155.17L121.05 128.75H99.3701L76.126 155.17L75.9209 155.387C71.9612 159.338 66.5968 161.559 61.0029 161.562C57.9235 161.561 54.8816 160.886 52.091 159.584C49.3004 158.282 46.8288 156.384 44.8497 154.025C42.8707 151.666 41.4322 148.901 40.6354 145.927C39.8386 142.952 39.7027 139.839 40.2373 136.807C40.2345 136.779 40.2345 136.752 40.2373 136.725L49.8291 87.4531C51.2566 79.3266 55.5025 71.9631 61.8207 66.6565C68.1388 61.35 76.125 58.4398 84.376 58.4375H136.003C144.229 58.4506 152.191 61.3441 158.506 66.6156C164.821 71.887 169.09 79.2036 170.573 87.2949C170.573 87.3301 170.573 87.3652 170.573 87.4004L180.165 136.719C180.168 136.746 180.168 136.774 180.165 136.801C180.661 139.527 180.612 142.324 180.02 145.03C179.427 147.737 178.304 150.299 176.714 152.568ZM136.003 119.375C142.841 119.375 149.398 116.659 154.233 111.824C159.068 106.989 161.784 100.431 161.784 93.5938C161.784 86.7561 159.068 80.1986 154.233 75.3637C149.398 70.5287 142.841 67.8125 136.003 67.8125H84.376C78.323 67.8179 72.4658 69.9578 67.8348 73.8557C63.2039 77.7536 60.0959 83.1597 59.0576 89.123V89.1992L49.46 138.471C49.0357 140.913 49.3972 143.428 50.4923 145.652C51.5874 147.876 53.3597 149.696 55.5544 150.849C57.7491 152.003 60.253 152.43 62.7061 152.071C65.1591 151.711 67.4349 150.583 69.2061 148.848L93.7686 120.963C94.2084 120.464 94.7493 120.064 95.3555 119.791C95.9616 119.517 96.6191 119.375 97.2842 119.375H136.003ZM170.983 138.471L165.862 112.104C162.713 117.189 158.317 121.388 153.092 124.301C147.867 127.213 141.985 128.745 136.003 128.75H133.542L151.237 148.854C152.571 150.151 154.194 151.114 155.973 151.663C157.751 152.212 159.634 152.332 161.468 152.012C164.522 151.473 167.238 149.745 169.021 147.206C170.803 144.668 171.507 141.527 170.978 138.471H170.983Z" fill="#0E0E10"/>
<path d="M91.4717 91.25H-8.52831V191.25H91.4717V91.25ZM82.0967 91.25V191.25H182.097V91.25H82.0967ZM72.7217 95.9375H172.722H72.7217ZM82.0967 100.625H182.097V0.625H82.0967V100.625ZM91.4717 100.625V0.625H-8.52831V100.625H91.4717ZM176.714 152.568L94.8122 95.1914L94.8068 95.1991L94.8014 95.2068L176.714 152.568ZM144.522 155.387L73.8118 226.097L73.8178 226.103L73.8238 226.109L144.522 155.387ZM144.317 155.17L220.656 90.5757L220.017 89.8206L219.363 89.0782L144.317 155.17ZM121.05 128.75L196.096 62.6583L166.233 28.75H121.05V128.75ZM99.3701 128.75V28.75H54.1566L24.2912 62.6958L99.3701 128.75ZM76.126 155.17L148.774 223.889L150.013 222.578L151.205 221.224L76.126 155.17ZM75.9209 155.387L146.555 226.174L147.577 225.154L148.569 224.106L75.9209 155.387ZM61.0029 161.562L60.966 261.562L61.0188 261.563L61.0717 261.562L61.0029 161.562ZM40.2373 136.807L138.719 154.168L141.144 140.409L139.706 126.513L40.2373 136.807ZM40.2373 136.725L-57.92 117.616L-58.7723 121.994L-59.2314 126.43L40.2373 136.725ZM49.8291 87.4531L147.986 106.562L148.162 105.66L148.321 104.754L49.8291 87.4531ZM84.376 58.4375V-41.5625H84.3618L84.3476 -41.5625L84.376 58.4375ZM136.003 58.4375L136.162 -41.5624L136.083 -41.5625H136.003V58.4375ZM170.573 87.2949H270.573V78.2076L268.935 69.2691L170.573 87.2949ZM170.573 87.4004H70.5733V97.0345L72.4125 106.491L170.573 87.4004ZM180.165 136.719L279.634 126.425L279.176 121.997L278.326 117.628L180.165 136.719ZM180.165 136.801L80.6963 126.507L79.2285 140.69L81.7832 154.718L180.165 136.801ZM84.376 67.8125V-32.1875H84.3311L84.2863 -32.1875L84.376 67.8125ZM59.0576 89.123L-39.4603 71.9705L-40.9424 80.4827V89.123H59.0576ZM59.0576 89.1992L157.213 108.319L159.058 98.8481V89.1992H59.0576ZM49.46 138.471L-48.6952 119.351L-48.8905 120.353L-49.0652 121.36L49.46 138.471ZM69.2061 148.848L139.181 220.287L141.812 217.71L144.245 214.947L69.2061 148.848ZM93.7686 120.963L18.752 54.8379L18.7406 54.8509L18.7291 54.8639L93.7686 120.963ZM97.2842 119.375V19.375H97.2759H97.2676L97.2842 119.375ZM170.983 138.471V238.471H292.274L269.149 119.405L170.983 138.471ZM165.862 112.104L264.028 93.0376L215.328 -157.706L80.8448 59.4535L165.862 112.104ZM136.003 128.75V228.75H136.045L136.087 228.75L136.003 128.75ZM133.542 128.75V28.75H-87.6994L58.4785 194.822L133.542 128.75ZM151.237 148.854L76.1738 214.925L78.7345 217.834L81.5127 220.537L151.237 148.854ZM161.468 152.012L178.652 250.524L178.751 250.507L178.85 250.489L161.468 152.012ZM170.978 138.471V38.4707H52.161L72.4457 155.543L170.978 138.471ZM138.347 0.625H124.284V200.625H138.347V0.625ZM124.284 0.625C149.563 0.625 173.806 10.6668 191.68 28.5414L50.259 169.963C69.8917 189.595 96.5194 200.625 124.284 200.625V0.625ZM191.68 28.5414C209.555 46.4161 219.597 70.6592 219.597 95.9375H19.5967C19.5967 123.702 30.6261 150.33 50.259 169.963L191.68 28.5414ZM219.597 95.9375C219.597 121.216 209.555 145.459 191.68 163.334L50.259 21.9123C30.6261 41.5451 19.5967 68.1728 19.5967 95.9375H219.597ZM191.68 163.334C173.806 181.208 149.563 191.25 124.284 191.25V-8.75C96.5194 -8.75 69.8917 2.27952 50.259 21.9123L191.68 163.334ZM124.284 191.25H138.347V-8.75H124.284V191.25ZM138.347 191.25C113.068 191.25 88.8252 181.208 70.9506 163.334L212.372 21.9123C192.739 2.27952 166.112 -8.75 138.347 -8.75V191.25ZM70.9506 163.334C53.0759 145.459 43.0342 121.216 43.0342 95.9375H243.034C243.034 68.1728 232.005 41.5451 212.372 21.9123L70.9506 163.334ZM43.0342 95.9375C43.0342 70.6592 53.0759 46.4161 70.9506 28.5414L212.372 169.963C232.005 150.33 243.034 123.702 243.034 95.9375H43.0342ZM70.9506 28.5414C88.8252 10.6668 113.068 0.625 138.347 0.625V200.625C166.112 200.625 192.739 189.595 212.372 169.963L70.9506 28.5414ZM96.1592 -8.75H91.4717V191.25H96.1592V-8.75ZM191.472 91.25V86.5625H-8.52831V91.25H191.472ZM191.472 86.5625C191.472 58.7976 180.442 32.1699 160.809 12.5373L19.3881 153.959C1.51357 136.084 -8.52831 111.841 -8.52831 86.5625H191.472ZM160.809 12.5373C141.177 -7.09541 114.549 -18.125 86.7842 -18.125V181.875C61.5057 181.875 37.2626 171.833 19.3881 153.959L160.809 12.5373ZM86.7842 -18.125C59.0193 -18.125 32.3916 -7.09541 12.759 12.5373L154.18 153.959C136.306 171.833 112.063 181.875 86.7842 181.875V-18.125ZM12.759 12.5373C-6.87371 32.1699 -17.9033 58.7976 -17.9033 86.5625H182.097C182.097 111.841 172.055 136.084 154.18 153.959L12.759 12.5373ZM-17.9033 86.5625V91.25H182.097V86.5625H-17.9033ZM82.0967 -8.75H77.4092V191.25H82.0967V-8.75ZM77.4092 -8.75C49.6443 -8.75 23.0166 2.27959 3.38396 21.9123L144.805 163.334C126.931 181.208 102.688 191.25 77.4092 191.25V-8.75ZM3.38396 21.9123C-16.2487 41.5449 -27.2783 68.1726 -27.2783 95.9375H172.722C172.722 121.216 162.68 145.459 144.805 163.334L3.38396 21.9123ZM-27.2783 95.9375C-27.2783 123.702 -16.2487 150.33 3.38396 169.963L144.805 28.5414C162.68 46.4159 172.722 70.659 172.722 95.9375H-27.2783ZM3.38396 169.963C23.0166 189.595 49.6443 200.625 77.4092 200.625V0.625C102.688 0.625 126.931 10.6669 144.805 28.5414L3.38396 169.963ZM77.4092 200.625H82.0967V0.625H77.4092V200.625ZM-17.9033 100.625V105.312H182.097V100.625H-17.9033ZM-17.9033 105.312C-17.9033 133.077 -6.87371 159.705 12.759 179.338L154.18 37.9164C172.055 55.7909 182.097 80.034 182.097 105.312H-17.9033ZM12.759 179.338C32.3916 198.97 59.0193 210 86.7842 210V10C112.063 10 136.306 20.0419 154.18 37.9164L12.759 179.338ZM86.7842 210C114.549 210 141.177 198.97 160.809 179.338L19.3881 37.9164C37.2626 20.0419 61.5057 10 86.7842 10V210ZM160.809 179.338C180.442 159.705 191.472 133.077 191.472 105.312H-8.52831C-8.52831 80.034 1.51357 55.7909 19.3881 37.9164L160.809 179.338ZM191.472 105.312V100.625H-8.52831V105.312H191.472ZM91.4717 200.625H96.1592V0.625H91.4717V200.625ZM96.1592 200.625C123.924 200.625 150.552 189.595 170.184 169.963L28.7631 28.5414C46.6376 10.6669 70.8807 0.625 96.1592 0.625V200.625ZM170.184 169.963C189.817 150.33 200.847 123.702 200.847 95.9375H0.846699C0.846699 70.659 10.8886 46.4159 28.7631 28.5414L170.184 169.963ZM200.847 95.9375C200.847 68.1726 189.817 41.5449 170.184 21.9123L28.7631 163.334C10.8886 145.459 0.846699 121.216 0.846699 95.9375H200.847ZM170.184 21.9123C150.552 2.27959 123.924 -8.75 96.1592 -8.75V191.25C70.8807 191.25 46.6376 181.208 28.7631 163.334L170.184 21.9123ZM94.8014 95.2068C101.41 85.7699 110.005 77.8946 119.982 72.1341L219.983 245.339C235.295 236.498 248.485 224.412 258.626 209.93L94.8014 95.2068ZM119.982 72.1341C129.959 66.3737 141.077 62.8679 152.554 61.8631L169.997 261.101C187.61 259.559 204.672 254.179 219.983 245.339L119.982 72.1341ZM152.554 61.8631C164.03 60.8583 175.588 62.3789 186.414 66.3179L118.032 254.264C134.647 260.309 152.384 262.643 169.997 261.101L152.554 61.8631ZM186.414 66.3179C197.241 70.257 207.073 76.5189 215.221 84.664L73.8238 226.109C86.3279 238.609 101.417 248.219 118.032 254.264L186.414 66.3179ZM215.233 84.676C215.078 84.5209 215.781 85.2191 216.589 86.0609C217.478 86.9881 218.941 88.5493 220.656 90.5757L67.9788 219.764C69.7579 221.867 71.2887 223.501 72.2468 224.5C72.7346 225.009 73.1376 225.418 73.3897 225.673C73.5183 225.803 73.6243 225.91 73.6922 225.978C73.7551 226.041 73.8101 226.096 73.8118 226.097L215.233 84.676ZM219.363 89.0782L196.096 62.6583L46.0039 194.842L69.2715 221.262L219.363 89.0782ZM121.05 28.75H99.3701V228.75H121.05V28.75ZM24.2912 62.6958L1.04705 89.1158L151.205 221.224L174.449 194.804L24.2912 62.6958ZM3.47804 86.4511L3.27296 86.6679L148.569 224.106L148.774 223.889L3.47804 86.4511ZM5.28676 84.5996C20.0576 69.8607 40.0678 61.5769 60.9342 61.5625L61.0717 261.562C93.1259 261.54 123.865 248.815 146.555 226.174L5.28676 84.5996ZM61.0399 61.5625C72.5594 61.5668 83.9383 64.0932 94.3771 68.9643L9.80491 250.203C25.8249 257.679 43.2875 261.556 60.966 261.562L61.0399 61.5625ZM94.3771 68.9643C104.816 73.8355 114.062 80.9332 121.465 89.7588L-31.7654 218.291C-20.4042 231.835 -6.21514 242.728 9.80491 250.203L94.3771 68.9643ZM121.465 89.7588C128.868 98.5845 134.249 108.924 137.23 120.051L-55.9589 171.803C-51.3845 188.879 -43.1266 204.747 -31.7654 218.291L121.465 89.7588ZM137.23 120.051C140.21 131.178 140.719 142.823 138.719 154.168L-58.2441 119.446C-61.3133 136.855 -60.5333 154.726 -55.9589 171.803L137.23 120.051ZM139.706 126.513C140.412 133.33 140.412 140.202 139.706 147.019L-59.2314 126.43C-59.9426 133.302 -59.9426 140.229 -59.2314 147.101L139.706 126.513ZM138.395 155.833L147.986 106.562L-48.3282 68.3446L-57.92 117.616L138.395 155.833ZM148.321 104.754C145.68 119.79 137.824 133.413 126.135 143.231L-2.49368 -9.91806C-26.8195 10.513 -43.1667 38.8635 -48.6628 70.1519L148.321 104.754ZM126.135 143.231C114.445 153.049 99.6698 158.433 84.4044 158.437L84.3476 -41.5625C52.5802 -41.5535 21.8321 -30.3491 -2.49368 -9.91806L126.135 143.231ZM84.376 158.438H136.003V-41.5625H84.376V158.438ZM135.843 158.437C120.702 158.413 106.047 153.087 94.4234 143.384L222.588 -10.1532C198.334 -30.3991 167.756 -41.512 136.162 -41.5624L135.843 158.437ZM94.4234 143.384C82.7996 133.681 74.9407 120.214 72.2113 105.321L268.935 69.2691C263.24 38.1931 246.842 10.0927 222.588 -10.1532L94.4234 143.384ZM70.5733 87.2949C70.5733 87.295 70.5733 87.2951 70.5733 87.2951C70.5733 87.2952 70.5733 87.2953 70.5733 87.2953C70.5733 87.2954 70.5733 87.2955 70.5733 87.2955C70.5733 87.2956 70.5733 87.2957 70.5733 87.2957C70.5733 87.2958 70.5733 87.2959 70.5733 87.296C70.5733 87.296 70.5733 87.2961 70.5733 87.2962C70.5733 87.2962 70.5733 87.2963 70.5733 87.2964C70.5733 87.2964 70.5733 87.2965 70.5733 87.2966C70.5733 87.2966 70.5733 87.2967 70.5733 87.2968C70.5733 87.2968 70.5733 87.2969 70.5733 87.297C70.5733 87.2971 70.5733 87.2971 70.5733 87.2972C70.5733 87.2973 70.5733 87.2973 70.5733 87.2974C70.5733 87.2975 70.5733 87.2975 70.5733 87.2976C70.5733 87.2977 70.5733 87.2977 70.5733 87.2978C70.5733 87.2979 70.5733 87.2979 70.5733 87.298C70.5733 87.2981 70.5733 87.2981 70.5733 87.2982C70.5733 87.2983 70.5733 87.2984 70.5733 87.2984C70.5733 87.2985 70.5733 87.2986 70.5733 87.2986C70.5733 87.2987 70.5733 87.2988 70.5733 87.2988C70.5733 87.2989 70.5733 87.299 70.5733 87.299C70.5733 87.2991 70.5733 87.2992 70.5733 87.2992C70.5733 87.2993 70.5733 87.2994 70.5733 87.2995C70.5733 87.2995 70.5733 87.2996 70.5733 87.2997C70.5733 87.2997 70.5733 87.2998 70.5733 87.2999C70.5733 87.2999 70.5733 87.3 70.5733 87.3001C70.5733 87.3001 70.5733 87.3002 70.5733 87.3003C70.5733 87.3003 70.5733 87.3004 70.5733 87.3005C70.5733 87.3006 70.5733 87.3006 70.5733 87.3007C70.5733 87.3008 70.5733 87.3008 70.5733 87.3009C70.5733 87.301 70.5733 87.301 70.5733 87.3011C70.5733 87.3012 70.5733 87.3012 70.5733 87.3013C70.5733 87.3014 70.5733 87.3014 70.5733 87.3015C70.5733 87.3016 70.5733 87.3017 70.5733 87.3017C70.5733 87.3018 70.5733 87.3019 70.5733 87.3019C70.5733 87.302 70.5733 87.3021 70.5733 87.3021C70.5733 87.3022 70.5733 87.3023 70.5733 87.3023C70.5733 87.3024 70.5733 87.3025 70.5733 87.3025C70.5733 87.3026 70.5733 87.3027 70.5733 87.3027C70.5733 87.3028 70.5733 87.3029 70.5733 87.303C70.5733 87.303 70.5733 87.3031 70.5733 87.3032C70.5733 87.3032 70.5733 87.3033 70.5733 87.3034C70.5733 87.3034 70.5733 87.3035 70.5733 87.3036C70.5733 87.3036 70.5733 87.3037 70.5733 87.3038C70.5733 87.3038 70.5733 87.3039 70.5733 87.304C70.5733 87.3041 70.5733 87.3041 70.5733 87.3042C70.5733 87.3043 70.5733 87.3043 70.5733 87.3044C70.5733 87.3045 70.5733 87.3045 70.5733 87.3046C70.5733 87.3047 70.5733 87.3047 70.5733 87.3048C70.5733 87.3049 70.5733 87.3049 70.5733 87.305C70.5733 87.3051 70.5733 87.3052 70.5733 87.3052C70.5733 87.3053 70.5733 87.3054 70.5733 87.3054C70.5733 87.3055 70.5733 87.3056 70.5733 87.3056C70.5733 87.3057 70.5733 87.3058 70.5733 87.3058C70.5733 87.3059 70.5733 87.306 70.5733 87.306C70.5733 87.3061 70.5733 87.3062 70.5733 87.3063C70.5733 87.3063 70.5733 87.3064 70.5733 87.3065C70.5733 87.3065 70.5733 87.3066 70.5733 87.3067C70.5733 87.3067 70.5733 87.3068 70.5733 87.3069C70.5733 87.3069 70.5733 87.307 70.5733 87.3071C70.5733 87.3071 70.5733 87.3072 70.5733 87.3073C70.5733 87.3074 70.5733 87.3074 70.5733 87.3075C70.5733 87.3076 70.5733 87.3076 70.5733 87.3077C70.5733 87.3078 70.5733 87.3078 70.5733 87.3079C70.5733 87.308 70.5733 87.308 70.5733 87.3081C70.5733 87.3082 70.5733 87.3082 70.5733 87.3083C70.5733 87.3084 70.5733 87.3084 70.5733 87.3085C70.5733 87.3086 70.5733 87.3087 70.5733 87.3087C70.5733 87.3088 70.5733 87.3089 70.5733 87.3089C70.5733 87.309 70.5733 87.3091 70.5733 87.3091C70.5733 87.3092 70.5733 87.3093 70.5733 87.3093C70.5733 87.3094 70.5733 87.3095 70.5733 87.3095C70.5733 87.3096 70.5733 87.3097 70.5733 87.3098C70.5733 87.3098 70.5733 87.3099 70.5733 87.31C70.5733 87.31 70.5733 87.3101 70.5733 87.3102C70.5733 87.3102 70.5733 87.3103 70.5733 87.3104C70.5733 87.3104 70.5733 87.3105 70.5733 87.3106C70.5733 87.3106 70.5733 87.3107 70.5733 87.3108C70.5733 87.3109 70.5733 87.3109 70.5733 87.311C70.5733 87.3111 70.5733 87.3111 70.5733 87.3112C70.5733 87.3113 70.5733 87.3113 70.5733 87.3114C70.5733 87.3115 70.5733 87.3115 70.5733 87.3116C70.5733 87.3117 70.5733 87.3117 70.5733 87.3118C70.5733 87.3119 70.5733 87.312 70.5733 87.312C70.5733 87.3121 70.5733 87.3122 70.5733 87.3122C70.5733 87.3123 70.5733 87.3124 70.5733 87.3124C70.5733 87.3125 70.5733 87.3126 70.5733 87.3126C70.5733 87.3127 70.5733 87.3128 70.5733 87.3128C70.5733 87.3129 70.5733 87.313 70.5733 87.313C70.5733 87.3131 70.5733 87.3132 70.5733 87.3133C70.5733 87.3133 70.5733 87.3134 70.5733 87.3135C70.5733 87.3135 70.5733 87.3136 70.5733 87.3137C70.5733 87.3137 70.5733 87.3138 70.5733 87.3139C70.5733 87.3139 70.5733 87.314 70.5733 87.3141C70.5733 87.3141 70.5733 87.3142 70.5733 87.3143C70.5733 87.3144 70.5733 87.3144 70.5733 87.3145C70.5733 87.3146 70.5733 87.3146 70.5733 87.3147C70.5733 87.3148 70.5733 87.3148 70.5733 87.3149C70.5733 87.315 70.5733 87.315 70.5733 87.3151C70.5733 87.3152 70.5733 87.3152 70.5733 87.3153C70.5733 87.3154 70.5733 87.3155 70.5733 87.3155C70.5733 87.3156 70.5733 87.3157 70.5733 87.3157C70.5733 87.3158 70.5733 87.3159 70.5733 87.3159C70.5733 87.316 70.5733 87.3161 70.5733 87.3161C70.5733 87.3162 70.5733 87.3163 70.5733 87.3163C70.5733 87.3164 70.5733 87.3165 70.5733 87.3166C70.5733 87.3166 70.5733 87.3167 70.5733 87.3168C70.5733 87.3168 70.5733 87.3169 70.5733 87.317C70.5733 87.317 70.5733 87.3171 70.5733 87.3172C70.5733 87.3172 70.5733 87.3173 70.5733 87.3174C70.5733 87.3174 70.5733 87.3175 70.5733 87.3176C70.5733 87.3176 70.5733 87.3177 70.5733 87.3178C70.5733 87.3179 70.5733 87.3179 70.5733 87.318C70.5733 87.3181 70.5733 87.3181 70.5733 87.3182C70.5733 87.3183 70.5733 87.3183 70.5733 87.3184C70.5733 87.3185 70.5733 87.3185 70.5733 87.3186C70.5733 87.3187 70.5733 87.3187 70.5733 87.3188C70.5733 87.3189 70.5733 87.319 70.5733 87.319C70.5733 87.3191 70.5733 87.3192 70.5733 87.3192C70.5733 87.3193 70.5733 87.3194 70.5733 87.3194C70.5733 87.3195 70.5733 87.3196 70.5733 87.3196C70.5733 87.3197 70.5733 87.3198 70.5733 87.3198C70.5733 87.3199 70.5733 87.32 70.5733 87.3201C70.5733 87.3201 70.5733 87.3202 70.5733 87.3203C70.5733 87.3203 70.5733 87.3204 70.5733 87.3205C70.5733 87.3205 70.5733 87.3206 70.5733 87.3207C70.5733 87.3207 70.5733 87.3208 70.5733 87.3209C70.5733 87.3209 70.5733 87.321 70.5733 87.3211C70.5733 87.3212 70.5733 87.3212 70.5733 87.3213C70.5733 87.3214 70.5733 87.3214 70.5733 87.3215C70.5733 87.3216 70.5733 87.3216 70.5733 87.3217C70.5733 87.3218 70.5733 87.3218 70.5733 87.3219C70.5733 87.322 70.5733 87.322 70.5733 87.3221C70.5733 87.3222 70.5733 87.3223 70.5733 87.3223C70.5733 87.3224 70.5733 87.3225 70.5733 87.3225C70.5733 87.3226 70.5733 87.3227 70.5733 87.3227C70.5733 87.3228 70.5733 87.3229 70.5733 87.3229C70.5733 87.323 70.5733 87.3231 70.5733 87.3231C70.5733 87.3232 70.5733 87.3233 70.5733 87.3233C70.5733 87.3234 70.5733 87.3235 70.5733 87.3236C70.5733 87.3236 70.5733 87.3237 70.5733 87.3238C70.5733 87.3238 70.5733 87.3239 70.5733 87.324C70.5733 87.324 70.5733 87.3241 70.5733 87.3242C70.5733 87.3242 70.5733 87.3243 70.5733 87.3244C70.5733 87.3244 70.5733 87.3245 70.5733 87.3246C70.5733 87.3247 70.5733 87.3247 70.5733 87.3248C70.5733 87.3249 70.5733 87.3249 70.5733 87.325C70.5733 87.3251 70.5733 87.3251 70.5733 87.3252C70.5733 87.3253 70.5733 87.3253 70.5733 87.3254C70.5733 87.3255 70.5733 87.3255 70.5733 87.3256C70.5733 87.3257 70.5733 87.3258 70.5733 87.3258C70.5733 87.3259 70.5733 87.326 70.5733 87.326C70.5733 87.3261 70.5733 87.3262 70.5733 87.3262C70.5733 87.3263 70.5733 87.3264 70.5733 87.3264C70.5733 87.3265 70.5733 87.3266 70.5733 87.3266C70.5733 87.3267 70.5733 87.3268 70.5733 87.3269C70.5733 87.3269 70.5733 87.327 70.5733 87.3271C70.5733 87.3271 70.5733 87.3272 70.5733 87.3273C70.5733 87.3273 70.5733 87.3274 70.5733 87.3275C70.5733 87.3275 70.5733 87.3276 70.5733 87.3277C70.5733 87.3277 70.5733 87.3278 70.5733 87.3279C70.5733 87.3279 70.5733 87.328 70.5733 87.3281C70.5733 87.3282 70.5733 87.3282 70.5733 87.3283C70.5733 87.3284 70.5733 87.3284 70.5733 87.3285C70.5733 87.3286 70.5733 87.3286 70.5733 87.3287C70.5733 87.3288 70.5733 87.3288 70.5733 87.3289C70.5733 87.329 70.5733 87.329 70.5733 87.3291C70.5733 87.3292 70.5733 87.3293 70.5733 87.3293C70.5733 87.3294 70.5733 87.3295 70.5733 87.3295C70.5733 87.3296 70.5733 87.3297 70.5733 87.3297C70.5733 87.3298 70.5733 87.3299 70.5733 87.3299C70.5733 87.33 70.5733 87.3301 70.5733 87.3301C70.5733 87.3302 70.5733 87.3303 70.5733 87.3304C70.5733 87.3304 70.5733 87.3305 70.5733 87.3306C70.5733 87.3306 70.5733 87.3307 70.5733 87.3308C70.5733 87.3308 70.5733 87.3309 70.5733 87.331C70.5733 87.331 70.5733 87.3311 70.5733 87.3312C70.5733 87.3312 70.5733 87.3313 70.5733 87.3314C70.5733 87.3315 70.5733 87.3315 70.5733 87.3316C70.5733 87.3317 70.5733 87.3317 70.5733 87.3318C70.5733 87.3319 70.5733 87.3319 70.5733 87.332C70.5733 87.3321 70.5733 87.3321 70.5733 87.3322C70.5733 87.3323 70.5733 87.3323 70.5733 87.3324C70.5733 87.3325 70.5733 87.3326 70.5733 87.3326C70.5733 87.3327 70.5733 87.3328 70.5733 87.3328C70.5733 87.3329 70.5733 87.333 70.5733 87.333C70.5733 87.3331 70.5733 87.3332 70.5733 87.3332C70.5733 87.3333 70.5733 87.3334 70.5733 87.3334C70.5733 87.3335 70.5733 87.3336 70.5733 87.3336C70.5733 87.3337 70.5733 87.3338 70.5733 87.3339C70.5733 87.3339 70.5733 87.334 70.5733 87.3341C70.5733 87.3341 70.5733 87.3342 70.5733 87.3343C70.5733 87.3343 70.5733 87.3344 70.5733 87.3345C70.5733 87.3345 70.5733 87.3346 70.5733 87.3347C70.5733 87.3347 70.5733 87.3348 70.5733 87.3349C70.5733 87.335 70.5733 87.335 70.5733 87.3351C70.5733 87.3352 70.5733 87.3352 70.5733 87.3353C70.5733 87.3354 70.5733 87.3354 70.5733 87.3355C70.5733 87.3356 70.5733 87.3356 70.5733 87.3357C70.5733 87.3358 70.5733 87.3358 70.5733 87.3359C70.5733 87.336 70.5733 87.3361 70.5733 87.3361C70.5733 87.3362 70.5733 87.3363 70.5733 87.3363C70.5733 87.3364 70.5733 87.3365 70.5733 87.3365C70.5733 87.3366 70.5733 87.3367 70.5733 87.3367C70.5733 87.3368 70.5733 87.3369 70.5733 87.3369C70.5733 87.337 70.5733 87.3371 70.5733 87.3372C70.5733 87.3372 70.5733 87.3373 70.5733 87.3374C70.5733 87.3374 70.5733 87.3375 70.5733 87.3376C70.5733 87.3376 70.5733 87.3377 70.5733 87.3378C70.5733 87.3378 70.5733 87.3379 70.5733 87.338C70.5733 87.338 70.5733 87.3381 70.5733 87.3382C70.5733 87.3382 70.5733 87.3383 70.5733 87.3384C70.5733 87.3385 70.5733 87.3385 70.5733 87.3386C70.5733 87.3387 70.5733 87.3387 70.5733 87.3388C70.5733 87.3389 70.5733 87.3389 70.5733 87.339C70.5733 87.3391 70.5733 87.3391 70.5733 87.3392C70.5733 87.3393 70.5733 87.3393 70.5733 87.3394C70.5733 87.3395 70.5733 87.3396 70.5733 87.3396C70.5733 87.3397 70.5733 87.3398 70.5733 87.3398C70.5733 87.3399 70.5733 87.34 70.5733 87.34C70.5733 87.3401 70.5733 87.3402 70.5733 87.3402C70.5733 87.3403 70.5733 87.3404 70.5733 87.3404C70.5733 87.3405 70.5733 87.3406 70.5733 87.3407C70.5733 87.3407 70.5733 87.3408 70.5733 87.3409C70.5733 87.3409 70.5733 87.341 70.5733 87.3411C70.5733 87.3411 70.5733 87.3412 70.5733 87.3413C70.5733 87.3413 70.5733 87.3414 70.5733 87.3415C70.5733 87.3415 70.5733 87.3416 70.5733 87.3417C70.5733 87.3418 70.5733 87.3418 70.5733 87.3419C70.5733 87.342 70.5733 87.342 70.5733 87.3421C70.5733 87.3422 70.5733 87.3422 70.5733 87.3423C70.5733 87.3424 70.5733 87.3424 70.5733 87.3425C70.5733 87.3426 70.5733 87.3426 70.5733 87.3427C70.5733 87.3428 70.5733 87.3428 70.5733 87.3429C70.5733 87.343 70.5733 87.3431 70.5733 87.3431C70.5733 87.3432 70.5733 87.3433 70.5733 87.3433C70.5733 87.3434 70.5733 87.3435 70.5733 87.3435C70.5733 87.3436 70.5733 87.3437 70.5733 87.3437C70.5733 87.3438 70.5733 87.3439 70.5733 87.3439C70.5733 87.344 70.5733 87.3441 70.5733 87.3442C70.5733 87.3442 70.5733 87.3443 70.5733 87.3444C70.5733 87.3444 70.5733 87.3445 70.5733 87.3446C70.5733 87.3446 70.5733 87.3447 70.5733 87.3448C70.5733 87.3448 70.5733 87.3449 70.5733 87.345C70.5733 87.345 70.5733 87.3451 70.5733 87.3452C70.5733 87.3453 70.5733 87.3453 70.5733 87.3454C70.5733 87.3455 70.5733 87.3455 70.5733 87.3456C70.5733 87.3457 70.5733 87.3457 70.5733 87.3458C70.5733 87.3459 70.5733 87.3459 70.5733 87.346C70.5733 87.3461 70.5733 87.3461 70.5733 87.3462C70.5733 87.3463 70.5733 87.3464 70.5733 87.3464C70.5733 87.3465 70.5733 87.3466 70.5733 87.3466C70.5733 87.3467 70.5733 87.3468 70.5733 87.3468C70.5733 87.3469 70.5733 87.347 70.5733 87.347C70.5733 87.3471 70.5733 87.3472 70.5733 87.3472C70.5733 87.3473 70.5733 87.3474 70.5733 87.3475C70.5733 87.3475 70.5733 87.3476 70.5733 87.3477C70.5733 87.3477 70.5733 87.3478 70.5733 87.3479C70.5733 87.3479 70.5733 87.348 70.5733 87.3481C70.5733 87.3481 70.5733 87.3482 70.5733 87.3483C70.5733 87.3483 70.5733 87.3484 70.5733 87.3485C70.5733 87.3485 70.5733 87.3486 70.5733 87.3487C70.5733 87.3488 70.5733 87.3488 70.5733 87.3489C70.5733 87.349 70.5733 87.349 70.5733 87.3491C70.5733 87.3492 70.5733 87.3492 70.5733 87.3493C70.5733 87.3494 70.5733 87.3494 70.5733 87.3495C70.5733 87.3496 70.5733 87.3496 70.5733 87.3497C70.5733 87.3498 70.5733 87.3499 70.5733 87.3499C70.5733 87.35 70.5733 87.3501 70.5733 87.3501C70.5733 87.3502 70.5733 87.3503 70.5733 87.3503C70.5733 87.3504 70.5733 87.3505 70.5733 87.3505C70.5733 87.3506 70.5733 87.3507 70.5733 87.3507C70.5733 87.3508 70.5733 87.3509 70.5733 87.351C70.5733 87.351 70.5733 87.3511 70.5733 87.3512C70.5733 87.3512 70.5733 87.3513 70.5733 87.3514C70.5733 87.3514 70.5733 87.3515 70.5733 87.3516C70.5733 87.3516 70.5733 87.3517 70.5733 87.3518C70.5733 87.3518 70.5733 87.3519 70.5733 87.352C70.5733 87.3521 70.5733 87.3521 70.5733 87.3522C70.5733 87.3523 70.5733 87.3523 70.5733 87.3524C70.5733 87.3525 70.5733 87.3525 70.5733 87.3526C70.5733 87.3527 70.5733 87.3527 70.5733 87.3528C70.5733 87.3529 70.5733 87.3529 70.5733 87.353C70.5733 87.3531 70.5733 87.3531 70.5733 87.3532C70.5733 87.3533 70.5733 87.3534 70.5733 87.3534C70.5733 87.3535 70.5733 87.3536 70.5733 87.3536C70.5733 87.3537 70.5733 87.3538 70.5733 87.3538C70.5733 87.3539 70.5733 87.354 70.5733 87.354C70.5733 87.3541 70.5733 87.3542 70.5733 87.3542C70.5733 87.3543 70.5733 87.3544 70.5733 87.3545C70.5733 87.3545 70.5733 87.3546 70.5733 87.3547C70.5733 87.3547 70.5733 87.3548 70.5733 87.3549C70.5733 87.3549 70.5733 87.355 70.5733 87.3551C70.5733 87.3551 70.5733 87.3552 70.5733 87.3553C70.5733 87.3553 70.5733 87.3554 70.5733 87.3555C70.5733 87.3556 70.5733 87.3556 70.5733 87.3557C70.5733 87.3558 70.5733 87.3558 70.5733 87.3559C70.5733 87.356 70.5733 87.356 70.5733 87.3561C70.5733 87.3562 70.5733 87.3562 70.5733 87.3563C70.5733 87.3564 70.5733 87.3564 70.5733 87.3565C70.5733 87.3566 70.5733 87.3567 70.5733 87.3567C70.5733 87.3568 70.5733 87.3569 70.5733 87.3569C70.5733 87.357 70.5733 87.3571 70.5733 87.3571C70.5733 87.3572 70.5733 87.3573 70.5733 87.3573C70.5733 87.3574 70.5733 87.3575 70.5733 87.3575C70.5733 87.3576 70.5733 87.3577 70.5733 87.3577C70.5733 87.3578 70.5733 87.3579 70.5733 87.358C70.5733 87.358 70.5733 87.3581 70.5733 87.3582C70.5733 87.3582 70.5733 87.3583 70.5733 87.3584C70.5733 87.3584 70.5733 87.3585 70.5733 87.3586C70.5733 87.3586 70.5733 87.3587 70.5733 87.3588C70.5733 87.3588 70.5733 87.3589 70.5733 87.359C70.5733 87.3591 70.5733 87.3591 70.5733 87.3592C70.5733 87.3593 70.5733 87.3593 70.5733 87.3594C70.5733 87.3595 70.5733 87.3595 70.5733 87.3596C70.5733 87.3597 70.5733 87.3597 70.5733 87.3598C70.5733 87.3599 70.5733 87.3599 70.5733 87.36C70.5733 87.3601 70.5733 87.3602 70.5733 87.3602C70.5733 87.3603 70.5733 87.3604 70.5733 87.3604C70.5733 87.3605 70.5733 87.3606 70.5733 87.3606C70.5733 87.3607 70.5733 87.3608 70.5733 87.3608C70.5733 87.3609 70.5733 87.361 70.5733 87.361C70.5733 87.3611 70.5733 87.3612 70.5733 87.3613C70.5733 87.3613 70.5733 87.3614 70.5733 87.3615C70.5733 87.3615 70.5733 87.3616 70.5733 87.3617C70.5733 87.3617 70.5733 87.3618 70.5733 87.3619C70.5733 87.3619 70.5733 87.362 70.5733 87.3621C70.5733 87.3621 70.5733 87.3622 70.5733 87.3623C70.5733 87.3624 70.5733 87.3624 70.5733 87.3625C70.5733 87.3626 70.5733 87.3626 70.5733 87.3627C70.5733 87.3628 70.5733 87.3628 70.5733 87.3629C70.5733 87.363 70.5733 87.363 70.5733 87.3631C70.5733 87.3632 70.5733 87.3632 70.5733 87.3633C70.5733 87.3634 70.5733 87.3634 70.5733 87.3635C70.5733 87.3636 70.5733 87.3637 70.5733 87.3637C70.5733 87.3638 70.5733 87.3639 70.5733 87.3639C70.5733 87.364 70.5733 87.3641 70.5733 87.3641C70.5733 87.3642 70.5733 87.3643 70.5733 87.3643C70.5733 87.3644 70.5733 87.3645 70.5733 87.3645C70.5733 87.3646 70.5733 87.3647 70.5733 87.3648C70.5733 87.3648 70.5733 87.3649 70.5733 87.365C70.5733 87.365 70.5733 87.3651 70.5733 87.3652C70.5733 87.3652 70.5733 87.3653 70.5733 87.3654C70.5733 87.3654 70.5733 87.3655 70.5733 87.3656C70.5733 87.3656 70.5733 87.3657 70.5733 87.3658C70.5733 87.3659 70.5733 87.3659 70.5733 87.366C70.5733 87.3661 70.5733 87.3661 70.5733 87.3662C70.5733 87.3663 70.5733 87.3663 70.5733 87.3664C70.5733 87.3665 70.5733 87.3665 70.5733 87.3666C70.5733 87.3667 70.5733 87.3667 70.5733 87.3668C70.5733 87.3669 70.5733 87.367 70.5733 87.367C70.5733 87.3671 70.5733 87.3672 70.5733 87.3672C70.5733 87.3673 70.5733 87.3674 70.5733 87.3674C70.5733 87.3675 70.5733 87.3676 70.5733 87.3676C70.5733 87.3677 70.5733 87.3678 70.5733 87.3678C70.5733 87.3679 70.5733 87.368 70.5733 87.368C70.5733 87.3681 70.5733 87.3682 70.5733 87.3683C70.5733 87.3683 70.5733 87.3684 70.5733 87.3685C70.5733 87.3685 70.5733 87.3686 70.5733 87.3687C70.5733 87.3687 70.5733 87.3688 70.5733 87.3689C70.5733 87.3689 70.5733 87.369 70.5733 87.3691C70.5733 87.3691 70.5733 87.3692 70.5733 87.3693C70.5733 87.3694 70.5733 87.3694 70.5733 87.3695C70.5733 87.3696 70.5733 87.3696 70.5733 87.3697C70.5733 87.3698 70.5733 87.3698 70.5733 87.3699C70.5733 87.37 70.5733 87.37 70.5733 87.3701C70.5733 87.3702 70.5733 87.3702 70.5733 87.3703C70.5733 87.3704 70.5733 87.3705 70.5733 87.3705C70.5733 87.3706 70.5733 87.3707 70.5733 87.3707C70.5733 87.3708 70.5733 87.3709 70.5733 87.3709C70.5733 87.371 70.5733 87.3711 70.5733 87.3711C70.5733 87.3712 70.5733 87.3713 70.5733 87.3713C70.5733 87.3714 70.5733 87.3715 70.5733 87.3716C70.5733 87.3716 70.5733 87.3717 70.5733 87.3718C70.5733 87.3718 70.5733 87.3719 70.5733 87.372C70.5733 87.372 70.5733 87.3721 70.5733 87.3722C70.5733 87.3722 70.5733 87.3723 70.5733 87.3724C70.5733 87.3724 70.5733 87.3725 70.5733 87.3726C70.5733 87.3727 70.5733 87.3727 70.5733 87.3728C70.5733 87.3729 70.5733 87.3729 70.5733 87.373C70.5733 87.3731 70.5733 87.3731 70.5733 87.3732C70.5733 87.3733 70.5733 87.3733 70.5733 87.3734C70.5733 87.3735 70.5733 87.3735 70.5733 87.3736C70.5733 87.3737 70.5733 87.3737 70.5733 87.3738C70.5733 87.3739 70.5733 87.374 70.5733 87.374C70.5733 87.3741 70.5733 87.3742 70.5733 87.3742C70.5733 87.3743 70.5733 87.3744 70.5733 87.3744C70.5733 87.3745 70.5733 87.3746 70.5733 87.3746C70.5733 87.3747 70.5733 87.3748 70.5733 87.3748C70.5733 87.3749 70.5733 87.375 70.5733 87.3751C70.5733 87.3751 70.5733 87.3752 70.5733 87.3753C70.5733 87.3753 70.5733 87.3754 70.5733 87.3755C70.5733 87.3755 70.5733 87.3756 70.5733 87.3757C70.5733 87.3757 70.5733 87.3758 70.5733 87.3759C70.5733 87.3759 70.5733 87.376 70.5733 87.3761C70.5733 87.3762 70.5733 87.3762 70.5733 87.3763C70.5733 87.3764 70.5733 87.3764 70.5733 87.3765C70.5733 87.3766 70.5733 87.3766 70.5733 87.3767C70.5733 87.3768 70.5733 87.3768 70.5733 87.3769C70.5733 87.377 70.5733 87.377 70.5733 87.3771C70.5733 87.3772 70.5733 87.3773 70.5733 87.3773C70.5733 87.3774 70.5733 87.3775 70.5733 87.3775C70.5733 87.3776 70.5733 87.3777 70.5733 87.3777C70.5733 87.3778 70.5733 87.3779 70.5733 87.3779C70.5733 87.378 70.5733 87.3781 70.5733 87.3781C70.5733 87.3782 70.5733 87.3783 70.5733 87.3783C70.5733 87.3784 70.5733 87.3785 70.5733 87.3786C70.5733 87.3786 70.5733 87.3787 70.5733 87.3788C70.5733 87.3788 70.5733 87.3789 70.5733 87.379C70.5733 87.379 70.5733 87.3791 70.5733 87.3792C70.5733 87.3792 70.5733 87.3793 70.5733 87.3794C70.5733 87.3794 70.5733 87.3795 70.5733 87.3796C70.5733 87.3797 70.5733 87.3797 70.5733 87.3798C70.5733 87.3799 70.5733 87.3799 70.5733 87.38C70.5733 87.3801 70.5733 87.3801 70.5733 87.3802C70.5733 87.3803 70.5733 87.3803 70.5733 87.3804C70.5733 87.3805 70.5733 87.3805 70.5733 87.3806C70.5733 87.3807 70.5733 87.3808 70.5733 87.3808C70.5733 87.3809 70.5733 87.381 70.5733 87.381C70.5733 87.3811 70.5733 87.3812 70.5733 87.3812C70.5733 87.3813 70.5733 87.3814 70.5733 87.3814C70.5733 87.3815 70.5733 87.3816 70.5733 87.3816C70.5733 87.3817 70.5733 87.3818 70.5733 87.3819C70.5733 87.3819 70.5733 87.382 70.5733 87.3821C70.5733 87.3821 70.5733 87.3822 70.5733 87.3823C70.5733 87.3823 70.5733 87.3824 70.5733 87.3825C70.5733 87.3825 70.5733 87.3826 70.5733 87.3827C70.5733 87.3827 70.5733 87.3828 70.5733 87.3829C70.5733 87.3829 70.5733 87.383 70.5733 87.3831C70.5733 87.3832 70.5733 87.3832 70.5733 87.3833C70.5733 87.3834 70.5733 87.3834 70.5733 87.3835C70.5733 87.3836 70.5733 87.3836 70.5733 87.3837C70.5733 87.3838 70.5733 87.3838 70.5733 87.3839C70.5733 87.384 70.5733 87.384 70.5733 87.3841C70.5733 87.3842 70.5733 87.3843 70.5733 87.3843C70.5733 87.3844 70.5733 87.3845 70.5733 87.3845C70.5733 87.3846 70.5733 87.3847 70.5733 87.3847C70.5733 87.3848 70.5733 87.3849 70.5733 87.3849C70.5733 87.385 70.5733 87.3851 70.5733 87.3851C70.5733 87.3852 70.5733 87.3853 70.5733 87.3854C70.5733 87.3854 70.5733 87.3855 70.5733 87.3856C70.5733 87.3856 70.5733 87.3857 70.5733 87.3858C70.5733 87.3858 70.5733 87.3859 70.5733 87.386C70.5733 87.386 70.5733 87.3861 70.5733 87.3862C70.5733 87.3862 70.5733 87.3863 70.5733 87.3864C70.5733 87.3865 70.5733 87.3865 70.5733 87.3866C70.5733 87.3867 70.5733 87.3867 70.5733 87.3868C70.5733 87.3869 70.5733 87.3869 70.5733 87.387C70.5733 87.3871 70.5733 87.3871 70.5733 87.3872C70.5733 87.3873 70.5733 87.3873 70.5733 87.3874C70.5733 87.3875 70.5733 87.3876 70.5733 87.3876C70.5733 87.3877 70.5733 87.3878 70.5733 87.3878C70.5733 87.3879 70.5733 87.388 70.5733 87.388C70.5733 87.3881 70.5733 87.3882 70.5733 87.3882C70.5733 87.3883 70.5733 87.3884 70.5733 87.3884C70.5733 87.3885 70.5733 87.3886 70.5733 87.3886C70.5733 87.3887 70.5733 87.3888 70.5733 87.3889C70.5733 87.3889 70.5733 87.389 70.5733 87.3891C70.5733 87.3891 70.5733 87.3892 70.5733 87.3893C70.5733 87.3893 70.5733 87.3894 70.5733 87.3895C70.5733 87.3895 70.5733 87.3896 70.5733 87.3897C70.5733 87.3897 70.5733 87.3898 70.5733 87.3899C70.5733 87.39 70.5733 87.39 70.5733 87.3901C70.5733 87.3902 70.5733 87.3902 70.5733 87.3903C70.5733 87.3904 70.5733 87.3904 70.5733 87.3905C70.5733 87.3906 70.5733 87.3906 70.5733 87.3907C70.5733 87.3908 70.5733 87.3908 70.5733 87.3909C70.5733 87.391 70.5733 87.3911 70.5733 87.3911C70.5733 87.3912 70.5733 87.3913 70.5733 87.3913C70.5733 87.3914 70.5733 87.3915 70.5733 87.3915C70.5733 87.3916 70.5733 87.3917 70.5733 87.3917C70.5733 87.3918 70.5733 87.3919 70.5733 87.3919C70.5733 87.392 70.5733 87.3921 70.5733 87.3922C70.5733 87.3922 70.5733 87.3923 70.5733 87.3924C70.5733 87.3924 70.5733 87.3925 70.5733 87.3926C70.5733 87.3926 70.5733 87.3927 70.5733 87.3928C70.5733 87.3928 70.5733 87.3929 70.5733 87.393C70.5733 87.393 70.5733 87.3931 70.5733 87.3932C70.5733 87.3932 70.5733 87.3933 70.5733 87.3934C70.5733 87.3935 70.5733 87.3935 70.5733 87.3936C70.5733 87.3937 70.5733 87.3937 70.5733 87.3938C70.5733 87.3939 70.5733 87.3939 70.5733 87.394C70.5733 87.3941 70.5733 87.3941 70.5733 87.3942C70.5733 87.3943 70.5733 87.3943 70.5733 87.3944C70.5733 87.3945 70.5733 87.3946 70.5733 87.3946C70.5733 87.3947 70.5733 87.3948 70.5733 87.3948C70.5733 87.3949 70.5733 87.395 70.5733 87.395C70.5733 87.3951 70.5733 87.3952 70.5733 87.3952C70.5733 87.3953 70.5733 87.3954 70.5733 87.3954C70.5733 87.3955 70.5733 87.3956 70.5733 87.3957C70.5733 87.3957 70.5733 87.3958 70.5733 87.3959C70.5733 87.3959 70.5733 87.396 70.5733 87.3961C70.5733 87.3961 70.5733 87.3962 70.5733 87.3963C70.5733 87.3963 70.5733 87.3964 70.5733 87.3965C70.5733 87.3965 70.5733 87.3966 70.5733 87.3967C70.5733 87.3968 70.5733 87.3968 70.5733 87.3969C70.5733 87.397 70.5733 87.397 70.5733 87.3971C70.5733 87.3972 70.5733 87.3972 70.5733 87.3973C70.5733 87.3974 70.5733 87.3974 70.5733 87.3975C70.5733 87.3976 70.5733 87.3976 70.5733 87.3977C70.5733 87.3978 70.5733 87.3979 70.5733 87.3979C70.5733 87.398 70.5733 87.3981 70.5733 87.3981C70.5733 87.3982 70.5733 87.3983 70.5733 87.3983C70.5733 87.3984 70.5733 87.3985 70.5733 87.3985C70.5733 87.3986 70.5733 87.3987 70.5733 87.3987C70.5733 87.3988 70.5733 87.3989 70.5733 87.3989C70.5733 87.399 70.5733 87.3991 70.5733 87.3992C70.5733 87.3992 70.5733 87.3993 70.5733 87.3994C70.5733 87.3994 70.5733 87.3995 70.5733 87.3996C70.5733 87.3996 70.5733 87.3997 70.5733 87.3998C70.5733 87.3998 70.5733 87.3999 70.5733 87.4C70.5733 87.4 70.5733 87.4001 70.5733 87.4002C70.5733 87.4003 70.5733 87.4003 70.5733 87.4004H270.573C270.573 87.4003 270.573 87.4003 270.573 87.4002C270.573 87.4001 270.573 87.4 270.573 87.4C270.573 87.3999 270.573 87.3998 270.573 87.3998C270.573 87.3997 270.573 87.3996 270.573 87.3996C270.573 87.3995 270.573 87.3994 270.573 87.3994C270.573 87.3993 270.573 87.3992 270.573 87.3992C270.573 87.3991 270.573 87.399 270.573 87.3989C270.573 87.3989 270.573 87.3988 270.573 87.3987C270.573 87.3987 270.573 87.3986 270.573 87.3985C270.573 87.3985 270.573 87.3984 270.573 87.3983C270.573 87.3983 270.573 87.3982 270.573 87.3981C270.573 87.3981 270.573 87.398 270.573 87.3979C270.573 87.3979 270.573 87.3978 270.573 87.3977C270.573 87.3976 270.573 87.3976 270.573 87.3975C270.573 87.3974 270.573 87.3974 270.573 87.3973C270.573 87.3972 270.573 87.3972 270.573 87.3971C270.573 87.397 270.573 87.397 270.573 87.3969C270.573 87.3968 270.573 87.3968 270.573 87.3967C270.573 87.3966 270.573 87.3965 270.573 87.3965C270.573 87.3964 270.573 87.3963 270.573 87.3963C270.573 87.3962 270.573 87.3961 270.573 87.3961C270.573 87.396 270.573 87.3959 270.573 87.3959C270.573 87.3958 270.573 87.3957 270.573 87.3957C270.573 87.3956 270.573 87.3955 270.573 87.3954C270.573 87.3954 270.573 87.3953 270.573 87.3952C270.573 87.3952 270.573 87.3951 270.573 87.395C270.573 87.395 270.573 87.3949 270.573 87.3948C270.573 87.3948 270.573 87.3947 270.573 87.3946C270.573 87.3946 270.573 87.3945 270.573 87.3944C270.573 87.3943 270.573 87.3943 270.573 87.3942C270.573 87.3941 270.573 87.3941 270.573 87.394C270.573 87.3939 270.573 87.3939 270.573 87.3938C270.573 87.3937 270.573 87.3937 270.573 87.3936C270.573 87.3935 270.573 87.3935 270.573 87.3934C270.573 87.3933 270.573 87.3932 270.573 87.3932C270.573 87.3931 270.573 87.393 270.573 87.393C270.573 87.3929 270.573 87.3928 270.573 87.3928C270.573 87.3927 270.573 87.3926 270.573 87.3926C270.573 87.3925 270.573 87.3924 270.573 87.3924C270.573 87.3923 270.573 87.3922 270.573 87.3922C270.573 87.3921 270.573 87.392 270.573 87.3919C270.573 87.3919 270.573 87.3918 270.573 87.3917C270.573 87.3917 270.573 87.3916 270.573 87.3915C270.573 87.3915 270.573 87.3914 270.573 87.3913C270.573 87.3913 270.573 87.3912 270.573 87.3911C270.573 87.3911 270.573 87.391 270.573 87.3909C270.573 87.3908 270.573 87.3908 270.573 87.3907C270.573 87.3906 270.573 87.3906 270.573 87.3905C270.573 87.3904 270.573 87.3904 270.573 87.3903C270.573 87.3902 270.573 87.3902 270.573 87.3901C270.573 87.39 270.573 87.39 270.573 87.3899C270.573 87.3898 270.573 87.3897 270.573 87.3897C270.573 87.3896 270.573 87.3895 270.573 87.3895C270.573 87.3894 270.573 87.3893 270.573 87.3893C270.573 87.3892 270.573 87.3891 270.573 87.3891C270.573 87.389 270.573 87.3889 270.573 87.3889C270.573 87.3888 270.573 87.3887 270.573 87.3886C270.573 87.3886 270.573 87.3885 270.573 87.3884C270.573 87.3884 270.573 87.3883 270.573 87.3882C270.573 87.3882 270.573 87.3881 270.573 87.388C270.573 87.388 270.573 87.3879 270.573 87.3878C270.573 87.3878 270.573 87.3877 270.573 87.3876C270.573 87.3876 270.573 87.3875 270.573 87.3874C270.573 87.3873 270.573 87.3873 270.573 87.3872C270.573 87.3871 270.573 87.3871 270.573 87.387C270.573 87.3869 270.573 87.3869 270.573 87.3868C270.573 87.3867 270.573 87.3867 270.573 87.3866C270.573 87.3865 270.573 87.3865 270.573 87.3864C270.573 87.3863 270.573 87.3862 270.573 87.3862C270.573 87.3861 270.573 87.386 270.573 87.386C270.573 87.3859 270.573 87.3858 270.573 87.3858C270.573 87.3857 270.573 87.3856 270.573 87.3856C270.573 87.3855 270.573 87.3854 270.573 87.3854C270.573 87.3853 270.573 87.3852 270.573 87.3851C270.573 87.3851 270.573 87.385 270.573 87.3849C270.573 87.3849 270.573 87.3848 270.573 87.3847C270.573 87.3847 270.573 87.3846 270.573 87.3845C270.573 87.3845 270.573 87.3844 270.573 87.3843C270.573 87.3843 270.573 87.3842 270.573 87.3841C270.573 87.384 270.573 87.384 270.573 87.3839C270.573 87.3838 270.573 87.3838 270.573 87.3837C270.573 87.3836 270.573 87.3836 270.573 87.3835C270.573 87.3834 270.573 87.3834 270.573 87.3833C270.573 87.3832 270.573 87.3832 270.573 87.3831C270.573 87.383 270.573 87.3829 270.573 87.3829C270.573 87.3828 270.573 87.3827 270.573 87.3827C270.573 87.3826 270.573 87.3825 270.573 87.3825C270.573 87.3824 270.573 87.3823 270.573 87.3823C270.573 87.3822 270.573 87.3821 270.573 87.3821C270.573 87.382 270.573 87.3819 270.573 87.3819C270.573 87.3818 270.573 87.3817 270.573 87.3816C270.573 87.3816 270.573 87.3815 270.573 87.3814C270.573 87.3814 270.573 87.3813 270.573 87.3812C270.573 87.3812 270.573 87.3811 270.573 87.381C270.573 87.381 270.573 87.3809 270.573 87.3808C270.573 87.3808 270.573 87.3807 270.573 87.3806C270.573 87.3805 270.573 87.3805 270.573 87.3804C270.573 87.3803 270.573 87.3803 270.573 87.3802C270.573 87.3801 270.573 87.3801 270.573 87.38C270.573 87.3799 270.573 87.3799 270.573 87.3798C270.573 87.3797 270.573 87.3797 270.573 87.3796C270.573 87.3795 270.573 87.3794 270.573 87.3794C270.573 87.3793 270.573 87.3792 270.573 87.3792C270.573 87.3791 270.573 87.379 270.573 87.379C270.573 87.3789 270.573 87.3788 270.573 87.3788C270.573 87.3787 270.573 87.3786 270.573 87.3786C270.573 87.3785 270.573 87.3784 270.573 87.3783C270.573 87.3783 270.573 87.3782 270.573 87.3781C270.573 87.3781 270.573 87.378 270.573 87.3779C270.573 87.3779 270.573 87.3778 270.573 87.3777C270.573 87.3777 270.573 87.3776 270.573 87.3775C270.573 87.3775 270.573 87.3774 270.573 87.3773C270.573 87.3773 270.573 87.3772 270.573 87.3771C270.573 87.377 270.573 87.377 270.573 87.3769C270.573 87.3768 270.573 87.3768 270.573 87.3767C270.573 87.3766 270.573 87.3766 270.573 87.3765C270.573 87.3764 270.573 87.3764 270.573 87.3763C270.573 87.3762 270.573 87.3762 270.573 87.3761C270.573 87.376 270.573 87.3759 270.573 87.3759C270.573 87.3758 270.573 87.3757 270.573 87.3757C270.573 87.3756 270.573 87.3755 270.573 87.3755C270.573 87.3754 270.573 87.3753 270.573 87.3753C270.573 87.3752 270.573 87.3751 270.573 87.3751C270.573 87.375 270.573 87.3749 270.573 87.3748C270.573 87.3748 270.573 87.3747 270.573 87.3746C270.573 87.3746 270.573 87.3745 270.573 87.3744C270.573 87.3744 270.573 87.3743 270.573 87.3742C270.573 87.3742 270.573 87.3741 270.573 87.374C270.573 87.374 270.573 87.3739 270.573 87.3738C270.573 87.3737 270.573 87.3737 270.573 87.3736C270.573 87.3735 270.573 87.3735 270.573 87.3734C270.573 87.3733 270.573 87.3733 270.573 87.3732C270.573 87.3731 270.573 87.3731 270.573 87.373C270.573 87.3729 270.573 87.3729 270.573 87.3728C270.573 87.3727 270.573 87.3727 270.573 87.3726C270.573 87.3725 270.573 87.3724 270.573 87.3724C270.573 87.3723 270.573 87.3722 270.573 87.3722C270.573 87.3721 270.573 87.372 270.573 87.372C270.573 87.3719 270.573 87.3718 270.573 87.3718C270.573 87.3717 270.573 87.3716 270.573 87.3716C270.573 87.3715 270.573 87.3714 270.573 87.3713C270.573 87.3713 270.573 87.3712 270.573 87.3711C270.573 87.3711 270.573 87.371 270.573 87.3709C270.573 87.3709 270.573 87.3708 270.573 87.3707C270.573 87.3707 270.573 87.3706 270.573 87.3705C270.573 87.3705 270.573 87.3704 270.573 87.3703C270.573 87.3702 270.573 87.3702 270.573 87.3701C270.573 87.37 270.573 87.37 270.573 87.3699C270.573 87.3698 270.573 87.3698 270.573 87.3697C270.573 87.3696 270.573 87.3696 270.573 87.3695C270.573 87.3694 270.573 87.3694 270.573 87.3693C270.573 87.3692 270.573 87.3691 270.573 87.3691C270.573 87.369 270.573 87.3689 270.573 87.3689C270.573 87.3688 270.573 87.3687 270.573 87.3687C270.573 87.3686 270.573 87.3685 270.573 87.3685C270.573 87.3684 270.573 87.3683 270.573 87.3683C270.573 87.3682 270.573 87.3681 270.573 87.368C270.573 87.368 270.573 87.3679 270.573 87.3678C270.573 87.3678 270.573 87.3677 270.573 87.3676C270.573 87.3676 270.573 87.3675 270.573 87.3674C270.573 87.3674 270.573 87.3673 270.573 87.3672C270.573 87.3672 270.573 87.3671 270.573 87.367C270.573 87.367 270.573 87.3669 270.573 87.3668C270.573 87.3667 270.573 87.3667 270.573 87.3666C270.573 87.3665 270.573 87.3665 270.573 87.3664C270.573 87.3663 270.573 87.3663 270.573 87.3662C270.573 87.3661 270.573 87.3661 270.573 87.366C270.573 87.3659 270.573 87.3659 270.573 87.3658C270.573 87.3657 270.573 87.3656 270.573 87.3656C270.573 87.3655 270.573 87.3654 270.573 87.3654C270.573 87.3653 270.573 87.3652 270.573 87.3652C270.573 87.3651 270.573 87.365 270.573 87.365C270.573 87.3649 270.573 87.3648 270.573 87.3648C270.573 87.3647 270.573 87.3646 270.573 87.3645C270.573 87.3645 270.573 87.3644 270.573 87.3643C270.573 87.3643 270.573 87.3642 270.573 87.3641C270.573 87.3641 270.573 87.364 270.573 87.3639C270.573 87.3639 270.573 87.3638 270.573 87.3637C270.573 87.3637 270.573 87.3636 270.573 87.3635C270.573 87.3634 270.573 87.3634 270.573 87.3633C270.573 87.3632 270.573 87.3632 270.573 87.3631C270.573 87.363 270.573 87.363 270.573 87.3629C270.573 87.3628 270.573 87.3628 270.573 87.3627C270.573 87.3626 270.573 87.3626 270.573 87.3625C270.573 87.3624 270.573 87.3624 270.573 87.3623C270.573 87.3622 270.573 87.3621 270.573 87.3621C270.573 87.362 270.573 87.3619 270.573 87.3619C270.573 87.3618 270.573 87.3617 270.573 87.3617C270.573 87.3616 270.573 87.3615 270.573 87.3615C270.573 87.3614 270.573 87.3613 270.573 87.3613C270.573 87.3612 270.573 87.3611 270.573 87.361C270.573 87.361 270.573 87.3609 270.573 87.3608C270.573 87.3608 270.573 87.3607 270.573 87.3606C270.573 87.3606 270.573 87.3605 270.573 87.3604C270.573 87.3604 270.573 87.3603 270.573 87.3602C270.573 87.3602 270.573 87.3601 270.573 87.36C270.573 87.3599 270.573 87.3599 270.573 87.3598C270.573 87.3597 270.573 87.3597 270.573 87.3596C270.573 87.3595 270.573 87.3595 270.573 87.3594C270.573 87.3593 270.573 87.3593 270.573 87.3592C270.573 87.3591 270.573 87.3591 270.573 87.359C270.573 87.3589 270.573 87.3588 270.573 87.3588C270.573 87.3587 270.573 87.3586 270.573 87.3586C270.573 87.3585 270.573 87.3584 270.573 87.3584C270.573 87.3583 270.573 87.3582 270.573 87.3582C270.573 87.3581 270.573 87.358 270.573 87.358C270.573 87.3579 270.573 87.3578 270.573 87.3577C270.573 87.3577 270.573 87.3576 270.573 87.3575C270.573 87.3575 270.573 87.3574 270.573 87.3573C270.573 87.3573 270.573 87.3572 270.573 87.3571C270.573 87.3571 270.573 87.357 270.573 87.3569C270.573 87.3569 270.573 87.3568 270.573 87.3567C270.573 87.3567 270.573 87.3566 270.573 87.3565C270.573 87.3564 270.573 87.3564 270.573 87.3563C270.573 87.3562 270.573 87.3562 270.573 87.3561C270.573 87.356 270.573 87.356 270.573 87.3559C270.573 87.3558 270.573 87.3558 270.573 87.3557C270.573 87.3556 270.573 87.3556 270.573 87.3555C270.573 87.3554 270.573 87.3553 270.573 87.3553C270.573 87.3552 270.573 87.3551 270.573 87.3551C270.573 87.355 270.573 87.3549 270.573 87.3549C270.573 87.3548 270.573 87.3547 270.573 87.3547C270.573 87.3546 270.573 87.3545 270.573 87.3545C270.573 87.3544 270.573 87.3543 270.573 87.3542C270.573 87.3542 270.573 87.3541 270.573 87.354C270.573 87.354 270.573 87.3539 270.573 87.3538C270.573 87.3538 270.573 87.3537 270.573 87.3536C270.573 87.3536 270.573 87.3535 270.573 87.3534C270.573 87.3534 270.573 87.3533 270.573 87.3532C270.573 87.3531 270.573 87.3531 270.573 87.353C270.573 87.3529 270.573 87.3529 270.573 87.3528C270.573 87.3527 270.573 87.3527 270.573 87.3526C270.573 87.3525 270.573 87.3525 270.573 87.3524C270.573 87.3523 270.573 87.3523 270.573 87.3522C270.573 87.3521 270.573 87.3521 270.573 87.352C270.573 87.3519 270.573 87.3518 270.573 87.3518C270.573 87.3517 270.573 87.3516 270.573 87.3516C270.573 87.3515 270.573 87.3514 270.573 87.3514C270.573 87.3513 270.573 87.3512 270.573 87.3512C270.573 87.3511 270.573 87.351 270.573 87.351C270.573 87.3509 270.573 87.3508 270.573 87.3507C270.573 87.3507 270.573 87.3506 270.573 87.3505C270.573 87.3505 270.573 87.3504 270.573 87.3503C270.573 87.3503 270.573 87.3502 270.573 87.3501C270.573 87.3501 270.573 87.35 270.573 87.3499C270.573 87.3499 270.573 87.3498 270.573 87.3497C270.573 87.3496 270.573 87.3496 270.573 87.3495C270.573 87.3494 270.573 87.3494 270.573 87.3493C270.573 87.3492 270.573 87.3492 270.573 87.3491C270.573 87.349 270.573 87.349 270.573 87.3489C270.573 87.3488 270.573 87.3488 270.573 87.3487C270.573 87.3486 270.573 87.3485 270.573 87.3485C270.573 87.3484 270.573 87.3483 270.573 87.3483C270.573 87.3482 270.573 87.3481 270.573 87.3481C270.573 87.348 270.573 87.3479 270.573 87.3479C270.573 87.3478 270.573 87.3477 270.573 87.3477C270.573 87.3476 270.573 87.3475 270.573 87.3475C270.573 87.3474 270.573 87.3473 270.573 87.3472C270.573 87.3472 270.573 87.3471 270.573 87.347C270.573 87.347 270.573 87.3469 270.573 87.3468C270.573 87.3468 270.573 87.3467 270.573 87.3466C270.573 87.3466 270.573 87.3465 270.573 87.3464C270.573 87.3464 270.573 87.3463 270.573 87.3462C270.573 87.3461 270.573 87.3461 270.573 87.346C270.573 87.3459 270.573 87.3459 270.573 87.3458C270.573 87.3457 270.573 87.3457 270.573 87.3456C270.573 87.3455 270.573 87.3455 270.573 87.3454C270.573 87.3453 270.573 87.3453 270.573 87.3452C270.573 87.3451 270.573 87.345 270.573 87.345C270.573 87.3449 270.573 87.3448 270.573 87.3448C270.573 87.3447 270.573 87.3446 270.573 87.3446C270.573 87.3445 270.573 87.3444 270.573 87.3444C270.573 87.3443 270.573 87.3442 270.573 87.3442C270.573 87.3441 270.573 87.344 270.573 87.3439C270.573 87.3439 270.573 87.3438 270.573 87.3437C270.573 87.3437 270.573 87.3436 270.573 87.3435C270.573 87.3435 270.573 87.3434 270.573 87.3433C270.573 87.3433 270.573 87.3432 270.573 87.3431C270.573 87.3431 270.573 87.343 270.573 87.3429C270.573 87.3428 270.573 87.3428 270.573 87.3427C270.573 87.3426 270.573 87.3426 270.573 87.3425C270.573 87.3424 270.573 87.3424 270.573 87.3423C270.573 87.3422 270.573 87.3422 270.573 87.3421C270.573 87.342 270.573 87.342 270.573 87.3419C270.573 87.3418 270.573 87.3418 270.573 87.3417C270.573 87.3416 270.573 87.3415 270.573 87.3415C270.573 87.3414 270.573 87.3413 270.573 87.3413C270.573 87.3412 270.573 87.3411 270.573 87.3411C270.573 87.341 270.573 87.3409 270.573 87.3409C270.573 87.3408 270.573 87.3407 270.573 87.3407C270.573 87.3406 270.573 87.3405 270.573 87.3404C270.573 87.3404 270.573 87.3403 270.573 87.3402C270.573 87.3402 270.573 87.3401 270.573 87.34C270.573 87.34 270.573 87.3399 270.573 87.3398C270.573 87.3398 270.573 87.3397 270.573 87.3396C270.573 87.3396 270.573 87.3395 270.573 87.3394C270.573 87.3393 270.573 87.3393 270.573 87.3392C270.573 87.3391 270.573 87.3391 270.573 87.339C270.573 87.3389 270.573 87.3389 270.573 87.3388C270.573 87.3387 270.573 87.3387 270.573 87.3386C270.573 87.3385 270.573 87.3385 270.573 87.3384C270.573 87.3383 270.573 87.3382 270.573 87.3382C270.573 87.3381 270.573 87.338 270.573 87.338C270.573 87.3379 270.573 87.3378 270.573 87.3378C270.573 87.3377 270.573 87.3376 270.573 87.3376C270.573 87.3375 270.573 87.3374 270.573 87.3374C270.573 87.3373 270.573 87.3372 270.573 87.3372C270.573 87.3371 270.573 87.337 270.573 87.3369C270.573 87.3369 270.573 87.3368 270.573 87.3367C270.573 87.3367 270.573 87.3366 270.573 87.3365C270.573 87.3365 270.573 87.3364 270.573 87.3363C270.573 87.3363 270.573 87.3362 270.573 87.3361C270.573 87.3361 270.573 87.336 270.573 87.3359C270.573 87.3358 270.573 87.3358 270.573 87.3357C270.573 87.3356 270.573 87.3356 270.573 87.3355C270.573 87.3354 270.573 87.3354 270.573 87.3353C270.573 87.3352 270.573 87.3352 270.573 87.3351C270.573 87.335 270.573 87.335 270.573 87.3349C270.573 87.3348 270.573 87.3347 270.573 87.3347C270.573 87.3346 270.573 87.3345 270.573 87.3345C270.573 87.3344 270.573 87.3343 270.573 87.3343C270.573 87.3342 270.573 87.3341 270.573 87.3341C270.573 87.334 270.573 87.3339 270.573 87.3339C270.573 87.3338 270.573 87.3337 270.573 87.3336C270.573 87.3336 270.573 87.3335 270.573 87.3334C270.573 87.3334 270.573 87.3333 270.573 87.3332C270.573 87.3332 270.573 87.3331 270.573 87.333C270.573 87.333 270.573 87.3329 270.573 87.3328C270.573 87.3328 270.573 87.3327 270.573 87.3326C270.573 87.3326 270.573 87.3325 270.573 87.3324C270.573 87.3323 270.573 87.3323 270.573 87.3322C270.573 87.3321 270.573 87.3321 270.573 87.332C270.573 87.3319 270.573 87.3319 270.573 87.3318C270.573 87.3317 270.573 87.3317 270.573 87.3316C270.573 87.3315 270.573 87.3315 270.573 87.3314C270.573 87.3313 270.573 87.3312 270.573 87.3312C270.573 87.3311 270.573 87.331 270.573 87.331C270.573 87.3309 270.573 87.3308 270.573 87.3308C270.573 87.3307 270.573 87.3306 270.573 87.3306C270.573 87.3305 270.573 87.3304 270.573 87.3304C270.573 87.3303 270.573 87.3302 270.573 87.3301C270.573 87.3301 270.573 87.33 270.573 87.3299C270.573 87.3299 270.573 87.3298 270.573 87.3297C270.573 87.3297 270.573 87.3296 270.573 87.3295C270.573 87.3295 270.573 87.3294 270.573 87.3293C270.573 87.3293 270.573 87.3292 270.573 87.3291C270.573 87.329 270.573 87.329 270.573 87.3289C270.573 87.3288 270.573 87.3288 270.573 87.3287C270.573 87.3286 270.573 87.3286 270.573 87.3285C270.573 87.3284 270.573 87.3284 270.573 87.3283C270.573 87.3282 270.573 87.3282 270.573 87.3281C270.573 87.328 270.573 87.3279 270.573 87.3279C270.573 87.3278 270.573 87.3277 270.573 87.3277C270.573 87.3276 270.573 87.3275 270.573 87.3275C270.573 87.3274 270.573 87.3273 270.573 87.3273C270.573 87.3272 270.573 87.3271 270.573 87.3271C270.573 87.327 270.573 87.3269 270.573 87.3269C270.573 87.3268 270.573 87.3267 270.573 87.3266C270.573 87.3266 270.573 87.3265 270.573 87.3264C270.573 87.3264 270.573 87.3263 270.573 87.3262C270.573 87.3262 270.573 87.3261 270.573 87.326C270.573 87.326 270.573 87.3259 270.573 87.3258C270.573 87.3258 270.573 87.3257 270.573 87.3256C270.573 87.3255 270.573 87.3255 270.573 87.3254C270.573 87.3253 270.573 87.3253 270.573 87.3252C270.573 87.3251 270.573 87.3251 270.573 87.325C270.573 87.3249 270.573 87.3249 270.573 87.3248C270.573 87.3247 270.573 87.3247 270.573 87.3246C270.573 87.3245 270.573 87.3244 270.573 87.3244C270.573 87.3243 270.573 87.3242 270.573 87.3242C270.573 87.3241 270.573 87.324 270.573 87.324C270.573 87.3239 270.573 87.3238 270.573 87.3238C270.573 87.3237 270.573 87.3236 270.573 87.3236C270.573 87.3235 270.573 87.3234 270.573 87.3233C270.573 87.3233 270.573 87.3232 270.573 87.3231C270.573 87.3231 270.573 87.323 270.573 87.3229C270.573 87.3229 270.573 87.3228 270.573 87.3227C270.573 87.3227 270.573 87.3226 270.573 87.3225C270.573 87.3225 270.573 87.3224 270.573 87.3223C270.573 87.3223 270.573 87.3222 270.573 87.3221C270.573 87.322 270.573 87.322 270.573 87.3219C270.573 87.3218 270.573 87.3218 270.573 87.3217C270.573 87.3216 270.573 87.3216 270.573 87.3215C270.573 87.3214 270.573 87.3214 270.573 87.3213C270.573 87.3212 270.573 87.3212 270.573 87.3211C270.573 87.321 270.573 87.3209 270.573 87.3209C270.573 87.3208 270.573 87.3207 270.573 87.3207C270.573 87.3206 270.573 87.3205 270.573 87.3205C270.573 87.3204 270.573 87.3203 270.573 87.3203C270.573 87.3202 270.573 87.3201 270.573 87.3201C270.573 87.32 270.573 87.3199 270.573 87.3198C270.573 87.3198 270.573 87.3197 270.573 87.3196C270.573 87.3196 270.573 87.3195 270.573 87.3194C270.573 87.3194 270.573 87.3193 270.573 87.3192C270.573 87.3192 270.573 87.3191 270.573 87.319C270.573 87.319 270.573 87.3189 270.573 87.3188C270.573 87.3187 270.573 87.3187 270.573 87.3186C270.573 87.3185 270.573 87.3185 270.573 87.3184C270.573 87.3183 270.573 87.3183 270.573 87.3182C270.573 87.3181 270.573 87.3181 270.573 87.318C270.573 87.3179 270.573 87.3179 270.573 87.3178C270.573 87.3177 270.573 87.3176 270.573 87.3176C270.573 87.3175 270.573 87.3174 270.573 87.3174C270.573 87.3173 270.573 87.3172 270.573 87.3172C270.573 87.3171 270.573 87.317 270.573 87.317C270.573 87.3169 270.573 87.3168 270.573 87.3168C270.573 87.3167 270.573 87.3166 270.573 87.3166C270.573 87.3165 270.573 87.3164 270.573 87.3163C270.573 87.3163 270.573 87.3162 270.573 87.3161C270.573 87.3161 270.573 87.316 270.573 87.3159C270.573 87.3159 270.573 87.3158 270.573 87.3157C270.573 87.3157 270.573 87.3156 270.573 87.3155C270.573 87.3155 270.573 87.3154 270.573 87.3153C270.573 87.3152 270.573 87.3152 270.573 87.3151C270.573 87.315 270.573 87.315 270.573 87.3149C270.573 87.3148 270.573 87.3148 270.573 87.3147C270.573 87.3146 270.573 87.3146 270.573 87.3145C270.573 87.3144 270.573 87.3144 270.573 87.3143C270.573 87.3142 270.573 87.3141 270.573 87.3141C270.573 87.314 270.573 87.3139 270.573 87.3139C270.573 87.3138 270.573 87.3137 270.573 87.3137C270.573 87.3136 270.573 87.3135 270.573 87.3135C270.573 87.3134 270.573 87.3133 270.573 87.3133C270.573 87.3132 270.573 87.3131 270.573 87.313C270.573 87.313 270.573 87.3129 270.573 87.3128C270.573 87.3128 270.573 87.3127 270.573 87.3126C270.573 87.3126 270.573 87.3125 270.573 87.3124C270.573 87.3124 270.573 87.3123 270.573 87.3122C270.573 87.3122 270.573 87.3121 270.573 87.312C270.573 87.312 270.573 87.3119 270.573 87.3118C270.573 87.3117 270.573 87.3117 270.573 87.3116C270.573 87.3115 270.573 87.3115 270.573 87.3114C270.573 87.3113 270.573 87.3113 270.573 87.3112C270.573 87.3111 270.573 87.3111 270.573 87.311C270.573 87.3109 270.573 87.3109 270.573 87.3108C270.573 87.3107 270.573 87.3106 270.573 87.3106C270.573 87.3105 270.573 87.3104 270.573 87.3104C270.573 87.3103 270.573 87.3102 270.573 87.3102C270.573 87.3101 270.573 87.31 270.573 87.31C270.573 87.3099 270.573 87.3098 270.573 87.3098C270.573 87.3097 270.573 87.3096 270.573 87.3095C270.573 87.3095 270.573 87.3094 270.573 87.3093C270.573 87.3093 270.573 87.3092 270.573 87.3091C270.573 87.3091 270.573 87.309 270.573 87.3089C270.573 87.3089 270.573 87.3088 270.573 87.3087C270.573 87.3087 270.573 87.3086 270.573 87.3085C270.573 87.3084 270.573 87.3084 270.573 87.3083C270.573 87.3082 270.573 87.3082 270.573 87.3081C270.573 87.308 270.573 87.308 270.573 87.3079C270.573 87.3078 270.573 87.3078 270.573 87.3077C270.573 87.3076 270.573 87.3076 270.573 87.3075C270.573 87.3074 270.573 87.3074 270.573 87.3073C270.573 87.3072 270.573 87.3071 270.573 87.3071C270.573 87.307 270.573 87.3069 270.573 87.3069C270.573 87.3068 270.573 87.3067 270.573 87.3067C270.573 87.3066 270.573 87.3065 270.573 87.3065C270.573 87.3064 270.573 87.3063 270.573 87.3063C270.573 87.3062 270.573 87.3061 270.573 87.306C270.573 87.306 270.573 87.3059 270.573 87.3058C270.573 87.3058 270.573 87.3057 270.573 87.3056C270.573 87.3056 270.573 87.3055 270.573 87.3054C270.573 87.3054 270.573 87.3053 270.573 87.3052C270.573 87.3052 270.573 87.3051 270.573 87.305C270.573 87.3049 270.573 87.3049 270.573 87.3048C270.573 87.3047 270.573 87.3047 270.573 87.3046C270.573 87.3045 270.573 87.3045 270.573 87.3044C270.573 87.3043 270.573 87.3043 270.573 87.3042C270.573 87.3041 270.573 87.3041 270.573 87.304C270.573 87.3039 270.573 87.3038 270.573 87.3038C270.573 87.3037 270.573 87.3036 270.573 87.3036C270.573 87.3035 270.573 87.3034 270.573 87.3034C270.573 87.3033 270.573 87.3032 270.573 87.3032C270.573 87.3031 270.573 87.303 270.573 87.303C270.573 87.3029 270.573 87.3028 270.573 87.3027C270.573 87.3027 270.573 87.3026 270.573 87.3025C270.573 87.3025 270.573 87.3024 270.573 87.3023C270.573 87.3023 270.573 87.3022 270.573 87.3021C270.573 87.3021 270.573 87.302 270.573 87.3019C270.573 87.3019 270.573 87.3018 270.573 87.3017C270.573 87.3017 270.573 87.3016 270.573 87.3015C270.573 87.3014 270.573 87.3014 270.573 87.3013C270.573 87.3012 270.573 87.3012 270.573 87.3011C270.573 87.301 270.573 87.301 270.573 87.3009C270.573 87.3008 270.573 87.3008 270.573 87.3007C270.573 87.3006 270.573 87.3006 270.573 87.3005C270.573 87.3004 270.573 87.3003 270.573 87.3003C270.573 87.3002 270.573 87.3001 270.573 87.3001C270.573 87.3 270.573 87.2999 270.573 87.2999C270.573 87.2998 270.573 87.2997 270.573 87.2997C270.573 87.2996 270.573 87.2995 270.573 87.2995C270.573 87.2994 270.573 87.2993 270.573 87.2992C270.573 87.2992 270.573 87.2991 270.573 87.299C270.573 87.299 270.573 87.2989 270.573 87.2988C270.573 87.2988 270.573 87.2987 270.573 87.2986C270.573 87.2986 270.573 87.2985 270.573 87.2984C270.573 87.2984 270.573 87.2983 270.573 87.2982C270.573 87.2981 270.573 87.2981 270.573 87.298C270.573 87.2979 270.573 87.2979 270.573 87.2978C270.573 87.2977 270.573 87.2977 270.573 87.2976C270.573 87.2975 270.573 87.2975 270.573 87.2974C270.573 87.2973 270.573 87.2973 270.573 87.2972C270.573 87.2971 270.573 87.2971 270.573 87.297C270.573 87.2969 270.573 87.2968 270.573 87.2968C270.573 87.2967 270.573 87.2966 270.573 87.2966C270.573 87.2965 270.573 87.2964 270.573 87.2964C270.573 87.2963 270.573 87.2962 270.573 87.2962C270.573 87.2961 270.573 87.296 270.573 87.296C270.573 87.2959 270.573 87.2958 270.573 87.2957C270.573 87.2957 270.573 87.2956 270.573 87.2955C270.573 87.2955 270.573 87.2954 270.573 87.2953C270.573 87.2953 270.573 87.2952 270.573 87.2951C270.573 87.2951 270.573 87.295 270.573 87.2949H70.5733ZM72.4125 106.491L82.0043 155.81L278.326 117.628L268.734 68.3094L72.4125 106.491ZM80.6963 147.013C79.9908 140.196 79.9908 133.324 80.6963 126.507L279.634 147.095C280.345 140.223 280.345 133.296 279.634 126.425L80.6963 147.013ZM81.7832 154.718C79.9092 144.427 80.0957 133.867 82.3323 123.649L277.707 166.412C281.128 150.781 281.414 134.626 278.547 118.884L81.7832 154.718ZM82.3323 123.649C84.5688 113.431 88.8107 103.758 94.8122 95.1914L258.616 209.945C267.796 196.84 274.286 182.043 277.707 166.412L82.3323 123.649ZM136.003 219.375C169.362 219.375 201.355 206.123 224.944 182.535L83.5224 41.1132C97.4411 27.1944 116.319 19.375 136.003 19.375V219.375ZM224.944 182.535C248.532 158.946 261.784 126.953 261.784 93.5938H61.7842C61.7842 73.9097 69.6036 55.0319 83.5224 41.1132L224.944 182.535ZM261.784 93.5938C261.784 60.2345 248.532 28.2415 224.944 4.65297L83.5224 146.074C69.6036 132.156 61.7842 113.278 61.7842 93.5938H261.784ZM224.944 4.65297C201.355 -18.9356 169.362 -32.1875 136.003 -32.1875V167.812C116.319 167.812 97.4411 159.993 83.5224 146.074L224.944 4.65297ZM136.003 -32.1875H84.376V167.812H136.003V-32.1875ZM84.2863 -32.1875C54.7014 -32.1609 26.0736 -21.7019 3.43924 -2.65057L132.23 150.362C118.858 161.618 101.945 167.797 84.4657 167.812L84.2863 -32.1875ZM3.43924 -2.65057C-19.1951 16.4008 -34.3858 42.824 -39.4603 71.9705L157.576 106.276C154.578 123.495 145.603 139.106 132.23 150.362L3.43924 -2.65057ZM-40.9424 89.123V89.1992H159.058V89.123H-40.9424ZM-39.0975 70.0794L-48.6952 119.351L147.615 157.59L157.213 108.319L-39.0975 70.0794ZM-49.0652 121.36C-53.1096 144.647 -49.664 168.617 -39.224 189.822L140.209 101.482C148.458 118.239 151.181 137.18 147.985 155.582L-49.0652 121.36ZM-39.224 189.822C-28.7841 211.027 -11.8878 228.375 9.03498 239.37L102.074 62.3286C118.607 71.0172 131.959 84.7256 140.209 101.482L-39.224 189.822ZM9.03498 239.37C29.9578 250.366 53.8286 254.442 77.2142 251.013L48.1979 53.1287C66.6775 50.419 85.5404 53.64 102.074 62.3286L9.03498 239.37ZM77.2142 251.013C100.6 247.584 122.296 236.826 139.181 220.287L-0.768742 77.4087C12.5742 64.3392 29.7183 55.8384 48.1979 53.1287L77.2142 251.013ZM144.245 214.947L168.808 187.062L18.7291 54.8639L-5.83336 82.7486L144.245 214.947ZM168.785 187.088C159.843 197.233 148.843 205.359 136.518 210.926L54.1927 28.6553C40.6551 34.7698 28.5741 43.6951 18.752 54.8379L168.785 187.088ZM136.518 210.926C124.193 216.493 110.825 219.373 97.3008 219.375L97.2676 19.375C82.4135 19.3775 67.73 22.541 54.1927 28.6553L136.518 210.926ZM97.2842 219.375H136.003V19.375H97.2842V219.375ZM269.149 119.405L264.028 93.0376L67.6967 131.169L72.8178 157.537L269.149 119.405ZM80.8448 59.4535C86.6541 50.0729 94.7611 42.3297 104.399 36.9568L201.786 211.644C221.874 200.445 238.771 184.306 250.88 164.753L80.8448 59.4535ZM104.399 36.9568C114.036 31.584 124.885 28.7593 135.919 28.75L136.087 228.75C159.085 228.731 181.698 222.843 201.786 211.644L104.399 36.9568ZM136.003 28.75H133.542V228.75H136.003V28.75ZM58.4785 194.822L76.1738 214.925L226.301 82.7818L208.606 62.6783L58.4785 194.822ZM81.5127 220.537C94.1806 232.858 109.59 242.001 126.476 247.214L185.47 56.1124C198.799 60.2272 210.962 67.444 220.962 77.1703L81.5127 220.537ZM126.476 247.214C143.362 252.427 161.243 253.561 178.652 250.524L144.284 53.4993C158.026 51.1021 172.14 51.9976 185.47 56.1124L126.476 247.214ZM178.85 250.489C207.968 245.35 233.862 228.876 250.856 204.678L87.186 89.7342C100.615 70.6131 121.076 57.5953 144.086 53.534L178.85 250.489ZM250.856 204.678C267.85 180.481 274.558 150.533 269.509 121.398L72.4457 155.543C68.4566 132.52 73.7573 108.855 87.186 89.7342L250.856 204.678ZM170.978 238.471H170.983V38.4707H170.978V238.471Z" fill="#0E0E10" mask="url(#path-2-inside-1_699_137)"/>
<path d="M317.036 155.405C317.036 150.585 315.211 146.857 311.562 144.222C307.978 141.523 301.672 139.21 292.646 137.281C283.684 135.353 276.547 133.04 271.234 130.341C265.985 127.641 262.08 124.428 259.519 120.701C257.023 116.973 255.774 112.539 255.774 107.397C255.774 98.8496 259.359 91.6195 266.529 85.7069C273.762 79.7943 282.98 76.838 294.183 76.838C305.961 76.838 315.499 79.8907 322.797 85.9961C330.158 92.1015 333.839 99.91 333.839 109.422H315.979C315.979 104.537 313.899 100.328 309.738 96.7931C305.641 93.2584 300.456 91.491 294.183 91.491C287.717 91.491 282.66 92.9049 279.011 95.7327C275.363 98.5604 273.538 102.256 273.538 106.819C273.538 111.125 275.235 114.37 278.627 116.555C282.02 118.74 288.133 120.829 296.967 122.821C305.865 124.814 313.067 127.192 318.572 129.955C324.077 132.719 328.142 136.06 330.766 139.981C333.455 143.837 334.799 148.56 334.799 154.152C334.799 163.47 331.087 170.958 323.661 176.613C316.235 182.204 306.601 185 294.759 185C286.437 185 279.075 183.522 272.674 180.566C266.273 177.609 261.248 173.496 257.599 168.226C254.014 162.892 252.222 157.14 252.222 150.97H269.985C270.306 156.947 272.674 161.703 277.091 165.238C281.572 168.708 287.461 170.443 294.759 170.443C301.48 170.443 306.857 169.094 310.89 166.395C314.987 163.631 317.036 159.968 317.036 155.405Z" fill="white"/>
<path d="M382.041 53.509V78.7661H401.438V92.5514H382.041V157.237C382.041 161.414 382.906 164.563 384.634 166.684C386.362 168.74 389.307 169.769 393.468 169.769C395.516 169.769 398.333 169.383 401.918 168.612V183.072C397.245 184.357 392.7 185 388.283 185C380.345 185 374.36 182.59 370.327 177.77C366.294 172.95 364.278 166.105 364.278 157.237V92.5514H345.362V78.7661H364.278V53.509H382.041Z" fill="white"/>
<path d="M472.493 94.7686C469.804 94.3188 466.891 94.0938 463.755 94.0938C452.104 94.0938 444.199 99.0746 440.038 109.036V183.072H422.274V78.7661H439.558L439.846 90.8162C445.671 81.4974 453.929 76.838 464.619 76.838C468.076 76.838 470.7 77.2879 472.493 78.1877V94.7686Z" fill="white"/>
<path d="M530.105 185C516.022 185 504.564 180.373 495.73 171.118C486.896 161.799 482.479 149.364 482.479 133.811V130.533C482.479 120.186 484.431 110.964 488.336 102.866C492.305 94.7044 497.81 88.3419 504.852 83.7789C511.957 79.1517 519.639 76.838 527.896 76.838C541.403 76.838 551.902 81.3046 559.391 90.2378C566.881 99.171 570.626 111.96 570.626 128.605V136.028H500.243C500.499 146.311 503.475 154.634 509.173 160.996C514.934 167.294 522.231 170.443 531.065 170.443C537.339 170.443 542.652 169.158 547.005 166.587C551.358 164.017 555.166 160.611 558.431 156.369L569.281 164.852C560.575 178.284 547.517 185 530.105 185ZM527.896 91.491C520.727 91.491 514.71 94.126 509.845 99.3959C504.98 104.602 501.971 111.928 500.819 121.375H552.862V120.026C552.35 110.964 549.917 103.959 545.564 99.0103C541.211 93.9974 535.322 91.491 527.896 91.491Z" fill="white"/>
<path d="M655.412 183.072C654.387 181.015 653.555 177.352 652.915 172.082C644.657 180.694 634.799 185 623.341 185C613.099 185 604.681 182.108 598.087 176.324C591.558 170.476 588.293 163.085 588.293 154.152C588.293 143.29 592.39 134.871 600.584 128.895C608.842 122.853 620.428 119.833 635.343 119.833H652.627V111.639C652.627 105.405 650.771 100.456 647.058 96.7931C643.345 93.0656 637.872 91.2018 630.638 91.2018C624.301 91.2018 618.988 92.8085 614.699 96.0219C610.41 99.2352 608.266 103.123 608.266 107.686H590.406C590.406 102.481 592.23 97.4679 595.879 92.6478C599.592 87.7635 604.585 83.9075 610.858 81.0797C617.196 78.2519 624.141 76.838 631.695 76.838C643.665 76.838 653.043 79.8586 659.829 85.8997C666.614 91.8766 670.135 100.135 670.391 110.675V158.683C670.391 168.258 671.607 175.874 674.04 181.53V183.072H655.412ZM625.933 169.479C631.503 169.479 636.784 168.033 641.777 165.141C646.77 162.249 650.387 158.49 652.627 153.862V132.461H638.704C616.939 132.461 606.057 138.856 606.057 151.645C606.057 157.237 607.914 161.607 611.626 164.756C615.339 167.905 620.108 169.479 625.933 169.479Z" fill="white"/>
<path d="M714.944 78.7661L715.424 90.3342C723.042 81.3368 733.316 76.838 746.247 76.838C760.778 76.838 770.668 82.4293 775.917 93.6118C779.374 88.599 783.855 84.5501 789.36 81.4653C794.929 78.3805 801.491 76.838 809.044 76.838C831.833 76.838 843.42 88.9524 843.804 113.181V183.072H826.04V114.242C826.04 106.787 824.344 101.228 820.951 97.5643C817.558 93.8368 811.861 91.973 803.859 91.973C797.266 91.973 791.793 93.9653 787.44 97.9499C783.087 101.87 780.558 107.172 779.854 113.856V183.072H761.994V114.724C761.994 99.5566 754.601 91.973 739.814 91.973C728.163 91.973 720.194 96.9537 715.905 106.915V183.072H698.141V78.7661H714.944Z" fill="white"/>
<path d="M871.074 173.721C871.074 170.636 871.97 168.066 873.762 166.009C875.619 163.952 878.371 162.924 882.02 162.924C885.669 162.924 888.421 163.952 890.278 166.009C892.198 168.066 893.158 170.636 893.158 173.721C893.158 176.677 892.198 179.152 890.278 181.144C888.421 183.136 885.669 184.132 882.02 184.132C878.371 184.132 875.619 183.136 873.762 181.144C871.97 179.152 871.074 176.677 871.074 173.721Z" fill="white"/>
<path d="M915.435 130.148C915.435 113.888 919.052 100.938 926.286 91.2982C933.583 81.6581 943.537 76.838 956.148 76.838C966.262 76.838 974.616 80.6298 981.209 88.2134V35H1009.06V183.072H983.994L982.65 171.986C975.736 180.662 966.838 185 955.956 185C943.729 185 933.903 180.18 926.478 170.54C919.116 160.835 915.435 147.371 915.435 130.148ZM943.185 132.172C943.185 141.941 944.881 149.428 948.274 154.634C951.667 159.839 956.596 162.442 963.061 162.442C971.639 162.442 977.688 158.811 981.209 151.549V110.386C977.753 103.123 971.767 99.4923 963.253 99.4923C949.875 99.4923 943.185 110.386 943.185 132.172Z" fill="white"/>
<path d="M1090.77 183.072C1089.49 180.566 1088.56 177.449 1087.98 173.721C1081.26 181.24 1072.52 185 1061.77 185C1051.59 185 1043.14 182.044 1036.42 176.131C1029.76 170.219 1026.43 162.763 1026.43 153.766C1026.43 142.712 1030.5 134.229 1038.63 128.316C1046.82 122.404 1058.63 119.415 1074.06 119.351H1086.83V113.374C1086.83 108.554 1085.58 104.698 1083.09 101.806C1080.65 98.9139 1076.78 97.4679 1071.47 97.4679C1066.8 97.4679 1063.11 98.5925 1060.43 100.842C1057.8 103.091 1056.49 106.176 1056.49 110.096H1028.74C1028.74 104.055 1030.6 98.464 1034.31 93.3226C1038.02 88.1812 1043.27 84.1645 1050.06 81.2725C1056.84 78.3162 1064.46 76.838 1072.91 76.838C1085.71 76.838 1095.86 80.0835 1103.35 86.5746C1110.9 93.0013 1114.68 102.063 1114.68 113.76V158.972C1114.74 168.869 1116.12 176.356 1118.81 181.433V183.072H1090.77ZM1067.82 163.695C1071.92 163.695 1075.69 162.796 1079.15 160.996C1082.61 159.132 1085.17 156.658 1086.83 153.573V135.643H1076.46C1062.57 135.643 1055.18 140.463 1054.28 150.103L1054.18 151.742C1054.18 155.212 1055.4 158.072 1057.83 160.321C1060.27 162.571 1063.59 163.695 1067.82 163.695Z" fill="white"/>
<path d="M1169.22 53.1234V78.7661H1186.98V99.2031H1169.22V151.26C1169.22 155.116 1169.95 157.879 1171.43 159.55C1172.9 161.221 1175.71 162.057 1179.88 162.057C1182.95 162.057 1185.67 161.832 1188.04 161.382V182.494C1182.6 184.165 1176.99 185 1171.23 185C1151.77 185 1141.85 175.135 1141.47 155.405V99.2031H1126.3V78.7661H1141.47V53.1234H1169.22Z" fill="white"/>
<path d="M1262.65 183.072C1261.36 180.566 1260.44 177.449 1259.86 173.721C1253.14 181.24 1244.4 185 1233.65 185C1223.47 185 1215.02 182.044 1208.3 176.131C1201.64 170.219 1198.31 162.763 1198.31 153.766C1198.31 142.712 1202.38 134.229 1210.51 128.316C1218.7 122.404 1230.51 119.415 1245.94 119.351H1258.71V113.374C1258.71 108.554 1257.46 104.698 1254.96 101.806C1252.53 98.9139 1248.66 97.4679 1243.35 97.4679C1238.67 97.4679 1234.99 98.5925 1232.3 100.842C1229.68 103.091 1228.37 106.176 1228.37 110.096H1200.62C1200.62 104.055 1202.47 98.464 1206.19 93.3226C1209.9 88.1812 1215.15 84.1645 1221.93 81.2725C1228.72 78.3162 1236.34 76.838 1244.79 76.838C1257.59 76.838 1267.73 80.0835 1275.22 86.5746C1282.78 93.0013 1286.55 102.063 1286.55 113.76V158.972C1286.62 168.869 1287.99 176.356 1290.68 181.433V183.072H1262.65ZM1239.7 163.695C1243.79 163.695 1247.57 162.796 1251.03 160.996C1254.48 159.132 1257.04 156.658 1258.71 153.573V135.643H1248.34C1234.45 135.643 1227.05 140.463 1226.16 150.103L1226.06 151.742C1226.06 155.212 1227.28 158.072 1229.71 160.321C1232.14 162.571 1235.47 163.695 1239.7 163.695Z" fill="white"/>
</svg>
