<svg width="763" height="220" viewBox="0 0 763 220" fill="none" xmlns="http://www.w3.org/2000/svg">
<path d="M0.110352 32C0.110352 20.7989 0.110352 15.1984 2.29022 10.9202C4.20769 7.15695 7.2673 4.09734 11.0305 2.17987C15.3088 0 20.9093 0 32.1103 0H188.11C199.311 0 204.912 0 209.19 2.17987C212.953 4.09734 216.013 7.15695 217.93 10.9202C220.11 15.1984 220.11 20.799 220.11 32V188C220.11 199.201 220.11 204.802 217.93 209.08C216.013 212.843 212.953 215.903 209.19 217.82C204.912 220 199.311 220 188.11 220H32.1103C20.9093 220 15.3088 220 11.0305 217.82C7.2673 215.903 4.20769 212.843 2.29022 209.08C0.110352 204.802 0.110352 199.201 0.110352 188V32Z" fill="#191919"/>
<g clip-path="url(#clip0_695_388)">
<path d="M110.208 40.3465C124.416 58.4031 132 80.6697 131.725 103.518V108.972L136.413 111.828C142.469 115.498 146.986 121.191 149.141 127.869C147.249 126.475 145.27 125.2 143.216 124.051L130.716 117.025L128.47 131.206C128.276 132.459 128.015 133.701 127.689 134.927H92.6628C92.142 133.323 91.7188 131.719 91.3282 130.051L88.4961 117.218L76.9727 123.634C75.0475 124.712 73.1888 125.901 71.4063 127.195C73.6025 120.594 78.0252 114.934 83.9389 111.154L88.3985 108.298V103.229C88.4789 80.4737 96.1545 58.3764 110.241 40.3465H110.208ZM110.241 27C109.51 27.0018 108.805 27.2639 108.255 27.7379L107.962 27.9946C89.1913 48.6858 78.7681 75.4414 78.6654 103.197C70.6999 108.291 64.8037 115.981 62.0072 124.924C59.2106 133.867 59.6915 143.495 63.3659 152.124C67.2367 143.698 73.7074 136.692 81.8555 132.104C82.6727 135.593 83.761 139.014 85.1107 142.339C85.2819 142.978 85.6613 143.543 86.1906 143.949C86.72 144.355 87.3699 144.578 88.0404 144.584H133.223C134.134 144.584 135.046 143.718 135.501 142.371C136.819 139.21 137.737 135.902 138.236 132.521C146.399 137.09 152.875 144.102 156.725 152.541C160.621 143.954 161.225 134.266 158.423 125.274C155.621 116.283 149.605 108.598 141.491 103.646C141.813 75.7269 131.445 48.7138 112.454 27.9946C112.172 27.683 111.826 27.4334 111.439 27.262C111.052 27.0907 110.633 27.0014 110.208 27H110.241Z" fill="#4EA8DE"/>
<path d="M110.208 100.534C107.708 100.534 105.264 99.8047 103.183 98.4375C101.103 97.0704 99.4803 95.1269 98.5191 92.852C97.5578 90.5771 97.3014 88.0727 97.7822 85.6544C98.2629 83.2362 99.4592 81.0123 101.22 79.2631C102.982 77.5139 105.229 76.3178 107.679 75.8254C110.128 75.333 112.671 75.5665 114.987 76.4963C117.302 77.4262 119.287 79.0109 120.69 81.0505C122.093 83.0902 122.852 85.4936 122.871 87.9578C122.91 89.5547 122.629 91.1435 122.045 92.6335C121.461 94.1235 120.584 95.4854 119.466 96.6414C118.347 97.7974 117.009 98.7249 115.526 99.3708C114.044 100.017 112.447 100.369 110.827 100.406C110.622 100.438 110.413 100.438 110.208 100.406V100.534Z" fill="#4EA8DE"/>
<path d="M127.819 152.573C127.005 152.547 126.193 152.682 125.432 152.97C124.671 153.257 123.976 153.692 123.388 154.248C122.8 154.803 122.33 155.47 122.007 156.207C121.683 156.944 121.512 157.737 121.504 158.54V177.469C121.504 179.12 122.169 180.703 123.354 181.87C124.538 183.038 126.144 183.693 127.819 183.693C129.494 183.693 131.1 183.038 132.284 181.87C133.469 180.703 134.134 179.12 134.134 177.469V158.797C134.16 157.997 134.024 157.2 133.735 156.452C133.445 155.704 133.007 155.021 132.446 154.441C131.886 153.862 131.214 153.398 130.47 153.078C129.726 152.757 128.924 152.585 128.112 152.573H127.819Z" fill="#5E60CE"/>
<path d="M92.6628 152.573C91.8344 152.53 91.0057 152.651 90.226 152.93C89.4463 153.209 88.7315 153.64 88.1241 154.196C87.5166 154.753 87.0291 155.425 86.6903 156.171C86.3516 156.917 86.1686 157.723 86.1523 158.54V177.469C86.1523 179.12 86.8177 180.703 88.002 181.871C89.1863 183.038 90.7926 183.694 92.4674 183.694C94.1423 183.694 95.7486 183.038 96.9329 181.871C98.1172 180.703 98.7826 179.12 98.7826 177.469V158.797C98.8086 157.997 98.6727 157.2 98.383 156.452C98.0932 155.704 97.6553 155.021 97.0948 154.441C96.5342 153.862 95.8623 153.398 95.1182 153.078C94.374 152.757 93.5725 152.585 92.7604 152.573H92.6628Z" fill="#5E60CE"/>
<path d="M109.753 152.573C108.94 152.556 108.133 152.697 107.376 152.988C106.619 153.278 105.927 153.713 105.341 154.267C104.754 154.822 104.284 155.484 103.958 156.217C103.631 156.951 103.454 157.74 103.438 158.541V184.624C103.438 186.275 104.103 187.858 105.287 189.025C106.471 190.192 108.078 190.848 109.753 190.848C111.427 190.848 113.034 190.192 114.218 189.025C115.402 187.858 116.068 186.275 116.068 184.624V158.958C116.094 158.158 115.958 157.36 115.668 156.613C115.378 155.865 114.94 155.181 114.38 154.602C113.819 154.023 113.147 153.559 112.403 153.238C111.659 152.918 110.858 152.746 110.046 152.734L109.753 152.573Z" fill="#5E60CE"/>
</g>
<path d="M333.691 71.9934V100.895H252.11V71.9934H333.691ZM267.911 45.4038H312.409V147.282C312.409 148.824 312.705 150.124 313.296 151.184C313.887 152.196 314.801 152.966 316.037 153.496C317.273 153.978 318.858 154.219 320.793 154.219C322.136 154.219 323.695 154.074 325.468 153.785C327.296 153.496 328.639 153.255 329.499 153.063L335.948 181.097C333.96 181.627 331.111 182.278 327.403 183.048C323.749 183.819 319.395 184.325 314.344 184.566C304.133 185.047 295.561 184.108 288.628 181.748C281.695 179.339 276.482 175.558 272.989 170.404C269.496 165.25 267.803 158.795 267.911 151.04V45.4038Z" fill="#4EA8DE"/>
<path d="M410.173 184.999C396.737 184.999 385.236 182.615 375.67 177.846C366.104 173.029 358.768 166.333 353.663 157.759C348.557 149.137 346.005 139.142 346.005 127.774C346.005 116.406 348.557 106.435 353.663 97.8605C358.768 89.2381 366.104 82.5425 375.67 77.7737C385.236 72.9568 396.737 70.5483 410.173 70.5483C423.608 70.5483 435.109 72.9568 444.675 77.7737C454.241 82.5425 461.577 89.2381 466.683 97.8605C471.788 106.435 474.341 116.406 474.341 127.774C474.341 139.142 471.788 149.137 466.683 157.759C461.577 166.333 454.241 173.029 444.675 177.846C435.109 182.615 423.608 184.999 410.173 184.999ZM410.495 155.519C414.257 155.519 417.508 154.387 420.249 152.123C422.99 149.859 425.113 146.632 426.618 142.441C428.123 138.251 428.875 133.265 428.875 127.485C428.875 121.656 428.123 116.671 426.618 112.528C425.113 108.337 422.99 105.11 420.249 102.846C417.508 100.582 414.257 99.45 410.495 99.45C406.518 99.45 403.106 100.582 400.257 102.846C397.409 105.11 395.232 108.337 393.728 112.528C392.223 116.671 391.47 121.656 391.47 127.485C391.47 133.265 392.223 138.251 393.728 142.441C395.232 146.632 397.409 149.859 400.257 152.123C403.106 154.387 406.518 155.519 410.495 155.519Z" fill="#4EA8DE"/>
<path d="M537.348 184.422C528.534 184.422 520.419 182.351 513.002 178.208C505.64 174.066 499.728 167.779 495.268 159.35C490.861 150.92 488.657 140.299 488.657 127.486C488.657 114.094 490.968 103.208 495.59 94.8266C500.266 86.4451 506.285 80.3035 513.647 76.4017C521.064 72.5 528.856 70.5491 537.025 70.5491C543.152 70.5491 548.526 71.5125 553.148 73.4393C557.77 75.3179 561.639 77.8468 564.756 81.026C567.873 84.157 570.238 87.6012 571.85 91.3584H572.495V35H616.993V182.977H572.817V164.769H571.85C570.13 168.526 567.658 171.898 564.434 174.884C561.263 177.823 557.393 180.159 552.825 181.893C548.311 183.579 543.152 184.422 537.348 184.422ZM553.793 153.786C557.877 153.786 561.37 152.726 564.272 150.607C567.228 148.439 569.485 145.405 571.044 141.503C572.656 137.553 573.462 132.881 573.462 127.486C573.462 121.994 572.656 117.298 571.044 113.396C569.485 109.446 567.228 106.435 564.272 104.364C561.37 102.245 557.877 101.185 553.793 101.185C549.708 101.185 546.215 102.245 543.313 104.364C540.465 106.435 538.261 109.446 536.703 113.396C535.198 117.298 534.446 121.994 534.446 127.486C534.446 132.977 535.198 137.697 536.703 141.647C538.261 145.549 540.465 148.56 543.313 150.679C546.215 152.75 549.708 153.786 553.793 153.786Z" fill="#5E60CE"/>
<path d="M698.493 185C685.058 185 673.557 182.616 663.991 177.847C654.425 173.03 647.089 166.334 641.984 157.76C636.878 149.138 634.325 139.143 634.325 127.775C634.325 116.407 636.878 106.435 641.984 97.8613C647.089 89.2389 654.425 82.5433 663.991 77.7746C673.557 72.9576 685.058 70.5491 698.493 70.5491C711.929 70.5491 723.43 72.9576 732.996 77.7746C742.562 82.5433 749.898 89.2389 755.003 97.8613C760.109 106.435 762.661 116.407 762.661 127.775C762.661 139.143 760.109 149.138 755.003 157.76C749.898 166.334 742.562 173.03 732.996 177.847C723.43 182.616 711.929 185 698.493 185ZM698.816 155.52C702.578 155.52 705.829 154.388 708.57 152.124C711.311 149.86 713.434 146.633 714.938 142.442C716.443 138.251 717.196 133.266 717.196 127.486C717.196 121.657 716.443 116.671 714.938 112.529C713.434 108.338 711.311 105.111 708.57 102.847C705.829 100.583 702.578 99.4509 698.816 99.4509C694.839 99.4509 691.426 100.583 688.578 102.847C685.73 105.111 683.553 108.338 682.048 112.529C680.543 116.671 679.791 121.657 679.791 127.486C679.791 133.266 680.543 138.251 682.048 142.442C683.553 146.633 685.73 149.86 688.578 152.124C691.426 154.388 694.839 155.52 698.816 155.52Z" fill="#5E60CE"/>
<defs>
<clipPath id="clip0_695_388">
<rect width="100" height="163.816" fill="white" transform="translate(60.1104 27)"/>
</clipPath>
</defs>
</svg>
