<svg width="873" height="220" viewBox="0 0 873 220" fill="none" xmlns="http://www.w3.org/2000/svg">
<g clip-path="url(#clip0_943_242)">
<rect width="220" height="220" rx="20" fill="#2F2F33"/>
<path d="M177 92.6795C190.333 100.377 190.333 119.623 177 127.321L72 187.942C58.6667 195.64 42 186.018 42 170.622L42 49.3783C42 33.9823 58.6667 24.3597 72 32.0577L177 92.6795Z" fill="url(#paint0_linear_943_242)"/>
<path d="M69.75 90H75.05L77.5 116.9H77.6L80.2 90H86.2L88.8 116.9H88.9L91.35 90H96.1L92.55 125H85.7L83.2 101.4H83.1L80.6 125H73.3L69.75 90ZM97.8262 90H103.126L105.576 116.9H105.676L108.276 90H114.276L116.876 116.9H116.976L119.426 90H124.176L120.626 125H113.776L111.276 101.4H111.176L108.676 125H101.376L97.8262 90Z" fill="white"/>
</g>
<path d="M279 77.2729H288.635L293.089 126.182H293.271L297.997 77.2729H308.905L313.631 126.182H313.813L318.267 77.2729H326.902L320.448 140.909H307.996L303.451 98.0001H303.269L298.724 140.909H285.454L279 77.2729ZM331.959 77.2729H341.958V103.182H352.683V77.2729H362.682V140.909H352.683V112.273H341.958V140.909H331.959V77.2729ZM377.854 77.2729H391.398L401.76 140.909H391.761L389.943 128.273V128.455H378.581L376.763 140.909H367.492L377.854 77.2729ZM388.762 119.818L384.308 88.3638H384.126L379.763 119.818H388.762ZM410.256 86.3638H399.803V77.2729H430.708V86.3638H420.255V140.909H410.256V86.3638ZM457.922 86.3638H447.469V77.2729H478.373V86.3638H467.92V140.909H457.922V86.3638ZM497.312 141.818C492.404 141.818 488.646 140.424 486.041 137.637C483.436 134.849 482.133 130.909 482.133 125.818V92.3638C482.133 87.2729 483.436 83.3334 486.041 80.5456C488.646 77.7578 492.404 76.3638 497.312 76.3638C502.22 76.3638 505.978 77.7578 508.583 80.5456C511.188 83.3334 512.492 87.2729 512.492 92.3638V125.818C512.492 130.909 511.188 134.849 508.583 137.637C505.978 140.424 502.22 141.818 497.312 141.818ZM497.312 132.727C500.766 132.727 502.493 130.637 502.493 126.455V91.7274C502.493 87.5456 500.766 85.4547 497.312 85.4547C493.858 85.4547 492.131 87.5456 492.131 91.7274V126.455C492.131 130.637 493.858 132.727 497.312 132.727ZM531.447 77.2729H541.082L545.536 126.182H545.717L550.444 77.2729H561.351L566.078 126.182H566.26L570.714 77.2729H579.349L572.895 140.909H560.442L555.898 98.0001H555.716L551.171 140.909H537.9L531.447 77.2729ZM590.89 77.2729H604.434L614.796 140.909H604.797L602.98 128.273V128.455H591.618L589.8 140.909H580.528L590.89 77.2729ZM601.798 119.818L597.344 88.3638H597.162L592.799 119.818H601.798ZM623.291 86.3638H612.838V77.2729H643.742V86.3638H633.289V140.909H623.291V86.3638ZM662.318 141.818C657.529 141.818 653.864 140.455 651.319 137.727C648.834 135 647.593 131.152 647.593 126.182V92.0001C647.593 87.0305 648.834 83.182 651.319 80.4547C653.864 77.7274 657.529 76.3638 662.318 76.3638C667.104 76.3638 670.74 77.7274 673.225 80.4547C675.77 83.182 677.043 87.0305 677.043 92.0001V98.7274H667.59V91.3638C667.59 87.4243 665.923 85.4547 662.59 85.4547C659.256 85.4547 657.591 87.4243 657.591 91.3638V126.909C657.591 130.788 659.256 132.727 662.59 132.727C665.923 132.727 667.59 130.788 667.59 126.909V117.182H677.043V126.182C677.043 131.152 675.77 135 673.225 137.727C670.74 140.455 667.104 141.818 662.318 141.818ZM683.024 77.2729H693.022V103.182H703.748V77.2729H713.746V140.909H703.748V112.273H693.022V140.909H683.024V77.2729ZM742.658 120.273C742.658 118.031 742.993 115.909 743.658 113.909C744.385 111.849 745.689 109.485 747.566 106.818C749.748 103.727 751.233 101.061 752.02 98.8183C752.809 96.576 753.202 94.2123 753.202 91.7274C753.202 89.5456 752.778 87.9698 751.929 87.0001C751.082 85.9698 749.839 85.4547 748.203 85.4547C746.567 85.4547 745.325 85.9698 744.476 87.0001C743.629 87.9698 743.204 89.5456 743.204 91.7274V98.6365H733.75V92.3638C733.75 87.2123 734.994 83.2729 737.477 80.5456C739.962 77.7578 743.598 76.3638 748.385 76.3638C753.233 76.3638 756.9 77.7578 759.383 80.5456C761.928 83.2729 763.2 87.2123 763.2 92.3638C763.2 95.1516 762.686 97.8487 761.655 100.455C760.686 103 758.99 105.879 756.565 109.091C754.627 111.697 753.264 113.879 752.475 115.636C751.748 117.333 751.384 119 751.384 120.636V124.091H742.658V120.273ZM742.204 131.273H751.839V140.909H742.204V131.273Z" fill="white"/>
<defs>
<linearGradient id="paint0_linear_943_242" x1="38.3333" y1="151.067" x2="286.2" y2="16.8667" gradientUnits="userSpaceOnUse">
<stop stop-color="#FC0C54"/>
<stop offset="1" stop-color="#2D00DF"/>
</linearGradient>
<clipPath id="clip0_943_242">
<rect width="220" height="220" rx="20" fill="white"/>
</clipPath>
</defs>
</svg>
