<svg width="1280" height="634" viewBox="0 0 1280 634" fill="none" xmlns="http://www.w3.org/2000/svg">
<circle cx="0.994303" cy="2.32005" r="0.994303" fill="#0F0F18"/>
<circle cx="0.994303" cy="421.916" r="0.994303" fill="#0F0F18"/>
<circle cx="553.827" cy="0.994303" r="0.994303" fill="#0F0F18"/>
<circle cx="553.827" cy="420.59" r="0.994303" fill="#0F0F18"/>
<circle cx="278.073" cy="2.32005" r="0.994303" fill="#0F0F18"/>
<circle cx="278.073" cy="421.916" r="0.994303" fill="#0F0F18"/>
<circle cx="830.906" cy="0.994303" r="0.994303" fill="#0F0F18"/>
<circle cx="830.906" cy="420.59" r="0.994303" fill="#0F0F18"/>
<circle cx="0.994303" cy="142.848" r="0.994303" fill="#0F0F18"/>
<circle cx="0.994303" cy="562.444" r="0.994303" fill="#0F0F18"/>
<circle cx="553.827" cy="141.523" r="0.994303" fill="#0F0F18"/>
<circle cx="553.827" cy="561.119" r="0.994303" fill="#0F0F18"/>
<circle cx="278.073" cy="142.848" r="0.994303" fill="#0F0F18"/>
<circle cx="278.073" cy="562.444" r="0.994303" fill="#0F0F18"/>
<circle cx="830.906" cy="141.523" r="0.994303" fill="#0F0F18"/>
<circle cx="830.906" cy="561.119" r="0.994303" fill="#0F0F18"/>
<circle cx="0.994303" cy="283.376" r="0.994303" fill="#0F0F18"/>
<circle cx="553.827" cy="282.051" r="0.994303" fill="#0F0F18"/>
<circle cx="278.073" cy="283.376" r="0.994303" fill="#0F0F18"/>
<circle cx="830.906" cy="282.051" r="0.994303" fill="#0F0F18"/>
<circle cx="0.994303" cy="72.5841" r="0.994303" fill="#0F0F18"/>
<circle cx="0.994303" cy="492.18" r="0.994303" fill="#0F0F18"/>
<circle cx="553.827" cy="71.2584" r="0.994303" fill="#0F0F18"/>
<circle cx="553.827" cy="490.854" r="0.994303" fill="#0F0F18"/>
<circle cx="278.073" cy="72.5841" r="0.994303" fill="#0F0F18"/>
<circle cx="278.073" cy="492.18" r="0.994303" fill="#0F0F18"/>
<circle cx="830.906" cy="71.2584" r="0.994303" fill="#0F0F18"/>
<circle cx="830.906" cy="490.854" r="0.994303" fill="#0F0F18"/>
<circle cx="0.994303" cy="213.112" r="0.994303" fill="#0F0F18"/>
<circle cx="0.994303" cy="632.708" r="0.994303" fill="#0F0F18"/>
<circle cx="553.827" cy="211.787" r="0.994303" fill="#0F0F18"/>
<circle cx="553.827" cy="631.383" r="0.994303" fill="#0F0F18"/>
<circle cx="278.073" cy="213.112" r="0.994303" fill="#0F0F18"/>
<circle cx="278.073" cy="632.708" r="0.994303" fill="#0F0F18"/>
<circle cx="830.906" cy="211.787" r="0.994303" fill="#0F0F18"/>
<circle cx="830.906" cy="631.383" r="0.994303" fill="#0F0F18"/>
<circle cx="0.994303" cy="353.641" r="0.994303" fill="#0F0F18"/>
<circle cx="553.827" cy="352.315" r="0.994303" fill="#0F0F18"/>
<circle cx="278.073" cy="353.641" r="0.994303" fill="#0F0F18"/>
<circle cx="830.906" cy="352.315" r="0.994303" fill="#0F0F18"/>
<circle cx="0.994303" cy="37.4521" r="0.994303" fill="#0F0F18"/>
<circle cx="0.994303" cy="457.048" r="0.994303" fill="#0F0F18"/>
<circle cx="553.827" cy="36.1264" r="0.994303" fill="#0F0F18"/>
<circle cx="553.827" cy="455.722" r="0.994303" fill="#0F0F18"/>
<circle cx="278.073" cy="37.4521" r="0.994303" fill="#0F0F18"/>
<circle cx="278.073" cy="457.048" r="0.994303" fill="#0F0F18"/>
<circle cx="830.906" cy="36.1264" r="0.994303" fill="#0F0F18"/>
<circle cx="830.906" cy="455.722" r="0.994303" fill="#0F0F18"/>
<circle cx="0.994303" cy="177.98" r="0.994303" fill="#0F0F18"/>
<circle cx="0.994303" cy="597.576" r="0.994303" fill="#0F0F18"/>
<circle cx="553.827" cy="176.655" r="0.994303" fill="#0F0F18"/>
<circle cx="553.827" cy="596.251" r="0.994303" fill="#0F0F18"/>
<circle cx="278.073" cy="177.98" r="0.994303" fill="#0F0F18"/>
<circle cx="278.073" cy="597.576" r="0.994303" fill="#0F0F18"/>
<circle cx="830.906" cy="176.655" r="0.994303" fill="#0F0F18"/>
<circle cx="830.906" cy="596.251" r="0.994303" fill="#0F0F18"/>
<circle cx="0.994303" cy="318.509" r="0.994303" fill="#0F0F18"/>
<circle cx="553.827" cy="317.183" r="0.994303" fill="#0F0F18"/>
<circle cx="278.073" cy="318.509" r="0.994303" fill="#0F0F18"/>
<circle cx="830.906" cy="317.183" r="0.994303" fill="#0F0F18"/>
<circle cx="0.994303" cy="107.716" r="0.994303" fill="#0F0F18"/>
<circle cx="0.994303" cy="527.312" r="0.994303" fill="#0F0F18"/>
<circle cx="553.827" cy="106.39" r="0.994303" fill="#0F0F18"/>
<circle cx="553.827" cy="525.987" r="0.994303" fill="#0F0F18"/>
<circle cx="278.073" cy="107.716" r="0.994303" fill="#0F0F18"/>
<circle cx="278.073" cy="527.312" r="0.994303" fill="#0F0F18"/>
<circle cx="830.906" cy="106.39" r="0.994303" fill="#0F0F18"/>
<circle cx="830.906" cy="525.987" r="0.994303" fill="#0F0F18"/>
<circle cx="0.994303" cy="248.244" r="0.994303" fill="#0F0F18"/>
<circle cx="553.827" cy="246.919" r="0.994303" fill="#0F0F18"/>
<circle cx="278.073" cy="248.244" r="0.994303" fill="#0F0F18"/>
<circle cx="830.906" cy="246.919" r="0.994303" fill="#0F0F18"/>
<circle cx="0.994303" cy="388.773" r="0.994303" fill="#0F0F18"/>
<circle cx="553.827" cy="387.447" r="0.994303" fill="#0F0F18"/>
<circle cx="278.073" cy="388.773" r="0.994303" fill="#0F0F18"/>
<circle cx="830.906" cy="387.447" r="0.994303" fill="#0F0F18"/>
<circle cx="138.871" cy="2.32005" r="0.994303" fill="#0F0F18"/>
<circle cx="138.871" cy="421.916" r="0.994303" fill="#0F0F18"/>
<circle cx="691.704" cy="0.994303" r="0.994303" fill="#0F0F18"/>
<circle cx="691.704" cy="420.59" r="0.994303" fill="#0F0F18"/>
<circle cx="415.95" cy="2.32005" r="0.994303" fill="#0F0F18"/>
<circle cx="415.95" cy="421.916" r="0.994303" fill="#0F0F18"/>
<circle cx="968.783" cy="0.994303" r="0.994303" fill="#0F0F18"/>
<circle cx="1210.07" cy="0.994303" r="0.994303" fill="#0F0F18"/>
<circle cx="968.783" cy="420.59" r="0.994303" fill="#0F0F18"/>
<circle cx="1210.07" cy="420.59" r="0.994303" fill="#0F0F18"/>
<circle cx="138.871" cy="142.848" r="0.994303" fill="#0F0F18"/>
<circle cx="138.871" cy="562.444" r="0.994303" fill="#0F0F18"/>
<circle cx="691.704" cy="141.523" r="0.994303" fill="#0F0F18"/>
<circle cx="691.704" cy="561.119" r="0.994303" fill="#0F0F18"/>
<circle cx="415.95" cy="142.848" r="0.994303" fill="#0F0F18"/>
<circle cx="415.95" cy="562.444" r="0.994303" fill="#0F0F18"/>
<circle cx="968.783" cy="141.523" r="0.994303" fill="#0F0F18"/>
<circle cx="1210.07" cy="141.523" r="0.994303" fill="#0F0F18"/>
<circle cx="968.783" cy="561.119" r="0.994303" fill="#0F0F18"/>
<circle cx="1210.07" cy="561.119" r="0.994303" fill="#0F0F18"/>
<circle cx="138.871" cy="283.376" r="0.994303" fill="#0F0F18"/>
<circle cx="691.704" cy="282.051" r="0.994303" fill="#0F0F18"/>
<circle cx="415.95" cy="283.376" r="0.994303" fill="#0F0F18"/>
<circle cx="968.783" cy="282.051" r="0.994303" fill="#0F0F18"/>
<circle cx="1210.07" cy="282.051" r="0.994303" fill="#0F0F18"/>
<circle cx="138.871" cy="72.5841" r="0.994303" fill="#0F0F18"/>
<circle cx="138.871" cy="492.18" r="0.994303" fill="#0F0F18"/>
<circle cx="691.704" cy="71.2584" r="0.994303" fill="#0F0F18"/>
<circle cx="691.704" cy="490.854" r="0.994303" fill="#0F0F18"/>
<circle cx="415.95" cy="72.5841" r="0.994303" fill="#0F0F18"/>
<circle cx="415.95" cy="492.18" r="0.994303" fill="#0F0F18"/>
<circle cx="968.783" cy="71.2584" r="0.994303" fill="#0F0F18"/>
<circle cx="1210.07" cy="71.2584" r="0.994303" fill="#0F0F18"/>
<circle cx="968.783" cy="490.854" r="0.994303" fill="#0F0F18"/>
<circle cx="1210.07" cy="490.854" r="0.994303" fill="#0F0F18"/>
<circle cx="138.871" cy="213.112" r="0.994303" fill="#0F0F18"/>
<circle cx="138.871" cy="632.708" r="0.994303" fill="#0F0F18"/>
<circle cx="691.704" cy="211.787" r="0.994303" fill="#0F0F18"/>
<circle cx="691.704" cy="631.383" r="0.994303" fill="#0F0F18"/>
<circle cx="415.95" cy="213.112" r="0.994303" fill="#0F0F18"/>
<circle cx="415.95" cy="632.708" r="0.994303" fill="#0F0F18"/>
<circle cx="968.783" cy="211.787" r="0.994303" fill="#0F0F18"/>
<circle cx="1210.07" cy="211.787" r="0.994303" fill="#0F0F18"/>
<circle cx="968.783" cy="631.383" r="0.994303" fill="#0F0F18"/>
<circle cx="1210.07" cy="631.383" r="0.994303" fill="#0F0F18"/>
<circle cx="138.871" cy="353.641" r="0.994303" fill="#0F0F18"/>
<circle cx="691.704" cy="352.315" r="0.994303" fill="#0F0F18"/>
<circle cx="415.95" cy="353.641" r="0.994303" fill="#0F0F18"/>
<circle cx="968.783" cy="352.315" r="0.994303" fill="#0F0F18"/>
<circle cx="1210.07" cy="352.315" r="0.994303" fill="#0F0F18"/>
<circle cx="138.871" cy="37.4521" r="0.994303" fill="#0F0F18"/>
<circle cx="138.871" cy="457.048" r="0.994303" fill="#0F0F18"/>
<circle cx="691.704" cy="36.1264" r="0.994303" fill="#0F0F18"/>
<circle cx="691.704" cy="455.722" r="0.994303" fill="#0F0F18"/>
<circle cx="415.95" cy="37.4521" r="0.994303" fill="#0F0F18"/>
<circle cx="415.95" cy="457.048" r="0.994303" fill="#0F0F18"/>
<circle cx="968.783" cy="36.1264" r="0.994303" fill="#0F0F18"/>
<circle cx="1210.07" cy="36.1264" r="0.994303" fill="#0F0F18"/>
<circle cx="968.783" cy="455.722" r="0.994303" fill="#0F0F18"/>
<circle cx="1210.07" cy="455.722" r="0.994303" fill="#0F0F18"/>
<circle cx="138.871" cy="177.98" r="0.994303" fill="#0F0F18"/>
<circle cx="138.871" cy="597.576" r="0.994303" fill="#0F0F18"/>
<circle cx="691.704" cy="176.655" r="0.994303" fill="#0F0F18"/>
<circle cx="691.704" cy="596.251" r="0.994303" fill="#0F0F18"/>
<circle cx="415.95" cy="177.98" r="0.994303" fill="#0F0F18"/>
<circle cx="415.95" cy="597.576" r="0.994303" fill="#0F0F18"/>
<circle cx="968.783" cy="176.655" r="0.994303" fill="#0F0F18"/>
<circle cx="1210.07" cy="176.655" r="0.994303" fill="#0F0F18"/>
<circle cx="968.783" cy="596.251" r="0.994303" fill="#0F0F18"/>
<circle cx="1210.07" cy="596.251" r="0.994303" fill="#0F0F18"/>
<circle cx="138.871" cy="318.509" r="0.994303" fill="#0F0F18"/>
<circle cx="691.704" cy="317.183" r="0.994303" fill="#0F0F18"/>
<circle cx="415.95" cy="318.509" r="0.994303" fill="#0F0F18"/>
<circle cx="968.783" cy="317.183" r="0.994303" fill="#0F0F18"/>
<circle cx="1210.07" cy="317.183" r="0.994303" fill="#0F0F18"/>
<circle cx="138.871" cy="107.716" r="0.994303" fill="#0F0F18"/>
<circle cx="138.871" cy="527.312" r="0.994303" fill="#0F0F18"/>
<circle cx="691.704" cy="106.39" r="0.994303" fill="#0F0F18"/>
<circle cx="691.704" cy="525.987" r="0.994303" fill="#0F0F18"/>
<circle cx="415.95" cy="107.716" r="0.994303" fill="#0F0F18"/>
<circle cx="415.95" cy="527.312" r="0.994303" fill="#0F0F18"/>
<circle cx="968.783" cy="106.39" r="0.994303" fill="#0F0F18"/>
<circle cx="1210.07" cy="106.39" r="0.994303" fill="#0F0F18"/>
<circle cx="968.783" cy="525.987" r="0.994303" fill="#0F0F18"/>
<circle cx="1210.07" cy="525.987" r="0.994303" fill="#0F0F18"/>
<circle cx="138.871" cy="248.244" r="0.994303" fill="#0F0F18"/>
<circle cx="691.704" cy="246.919" r="0.994303" fill="#0F0F18"/>
<circle cx="415.95" cy="248.244" r="0.994303" fill="#0F0F18"/>
<circle cx="968.783" cy="246.919" r="0.994303" fill="#0F0F18"/>
<circle cx="1210.07" cy="246.919" r="0.994303" fill="#0F0F18"/>
<circle cx="138.871" cy="388.773" r="0.994303" fill="#0F0F18"/>
<circle cx="691.704" cy="387.447" r="0.994303" fill="#0F0F18"/>
<circle cx="415.95" cy="388.773" r="0.994303" fill="#0F0F18"/>
<circle cx="968.783" cy="387.447" r="0.994303" fill="#0F0F18"/>
<circle cx="1210.07" cy="387.447" r="0.994303" fill="#0F0F18"/>
<circle cx="35.4635" cy="2.32005" r="0.994303" fill="#0F0F18"/>
<circle cx="35.4635" cy="421.916" r="0.994303" fill="#0F0F18"/>
<circle cx="588.296" cy="0.994303" r="0.994303" fill="#0F0F18"/>
<circle cx="588.296" cy="420.59" r="0.994303" fill="#0F0F18"/>
<circle cx="312.543" cy="2.32005" r="0.994303" fill="#0F0F18"/>
<circle cx="312.543" cy="421.916" r="0.994303" fill="#0F0F18"/>
<circle cx="865.375" cy="0.994303" r="0.994303" fill="#0F0F18"/>
<circle cx="1106.66" cy="0.994303" r="0.994303" fill="#0F0F18"/>
<circle cx="865.375" cy="420.59" r="0.994303" fill="#0F0F18"/>
<circle cx="1106.66" cy="420.59" r="0.994303" fill="#0F0F18"/>
<circle cx="35.4635" cy="142.848" r="0.994303" fill="#0F0F18"/>
<circle cx="35.4635" cy="562.444" r="0.994303" fill="#0F0F18"/>
<circle cx="588.296" cy="141.523" r="0.994303" fill="#0F0F18"/>
<circle cx="588.296" cy="561.119" r="0.994303" fill="#0F0F18"/>
<circle cx="312.543" cy="142.848" r="0.994303" fill="#0F0F18"/>
<circle cx="312.543" cy="562.444" r="0.994303" fill="#0F0F18"/>
<circle cx="865.375" cy="141.523" r="0.994303" fill="#0F0F18"/>
<circle cx="1106.66" cy="141.523" r="0.994303" fill="#0F0F18"/>
<circle cx="865.375" cy="561.119" r="0.994303" fill="#0F0F18"/>
<circle cx="1106.66" cy="561.119" r="0.994303" fill="#0F0F18"/>
<circle cx="35.4635" cy="283.376" r="0.994303" fill="#0F0F18"/>
<circle cx="588.296" cy="282.051" r="0.994303" fill="#0F0F18"/>
<circle cx="312.543" cy="283.376" r="0.994303" fill="#0F0F18"/>
<circle cx="865.375" cy="282.051" r="0.994303" fill="#0F0F18"/>
<circle cx="1106.66" cy="282.051" r="0.994303" fill="#0F0F18"/>
<circle cx="35.4635" cy="72.5841" r="0.994303" fill="#0F0F18"/>
<circle cx="35.4635" cy="492.18" r="0.994303" fill="#0F0F18"/>
<circle cx="588.296" cy="71.2584" r="0.994303" fill="#0F0F18"/>
<circle cx="588.296" cy="490.854" r="0.994303" fill="#0F0F18"/>
<circle cx="312.543" cy="72.5841" r="0.994303" fill="#0F0F18"/>
<circle cx="312.543" cy="492.18" r="0.994303" fill="#0F0F18"/>
<circle cx="865.375" cy="71.2584" r="0.994303" fill="#0F0F18"/>
<circle cx="1106.66" cy="71.2584" r="0.994303" fill="#0F0F18"/>
<circle cx="865.375" cy="490.854" r="0.994303" fill="#0F0F18"/>
<circle cx="1106.66" cy="490.854" r="0.994303" fill="#0F0F18"/>
<circle cx="35.4635" cy="213.112" r="0.994303" fill="#0F0F18"/>
<circle cx="35.4635" cy="632.708" r="0.994303" fill="#0F0F18"/>
<circle cx="588.296" cy="211.787" r="0.994303" fill="#0F0F18"/>
<circle cx="588.296" cy="631.383" r="0.994303" fill="#0F0F18"/>
<circle cx="312.543" cy="213.112" r="0.994303" fill="#0F0F18"/>
<circle cx="312.543" cy="632.708" r="0.994303" fill="#0F0F18"/>
<circle cx="865.375" cy="211.787" r="0.994303" fill="#0F0F18"/>
<circle cx="1106.66" cy="211.787" r="0.994303" fill="#0F0F18"/>
<circle cx="865.375" cy="631.383" r="0.994303" fill="#0F0F18"/>
<circle cx="1106.66" cy="631.383" r="0.994303" fill="#0F0F18"/>
<circle cx="35.4635" cy="353.641" r="0.994303" fill="#0F0F18"/>
<circle cx="588.296" cy="352.315" r="0.994303" fill="#0F0F18"/>
<circle cx="312.543" cy="353.641" r="0.994303" fill="#0F0F18"/>
<circle cx="865.375" cy="352.315" r="0.994303" fill="#0F0F18"/>
<circle cx="1106.66" cy="352.315" r="0.994303" fill="#0F0F18"/>
<circle cx="35.4635" cy="37.4521" r="0.994303" fill="#0F0F18"/>
<circle cx="35.4635" cy="457.048" r="0.994303" fill="#0F0F18"/>
<circle cx="588.296" cy="36.1264" r="0.994303" fill="#0F0F18"/>
<circle cx="588.296" cy="455.722" r="0.994303" fill="#0F0F18"/>
<circle cx="312.543" cy="37.4521" r="0.994303" fill="#0F0F18"/>
<circle cx="312.543" cy="457.048" r="0.994303" fill="#0F0F18"/>
<circle cx="865.375" cy="36.1264" r="0.994303" fill="#0F0F18"/>
<circle cx="1106.66" cy="36.1264" r="0.994303" fill="#0F0F18"/>
<circle cx="865.375" cy="455.722" r="0.994303" fill="#0F0F18"/>
<circle cx="1106.66" cy="455.722" r="0.994303" fill="#0F0F18"/>
<circle cx="35.4635" cy="177.98" r="0.994303" fill="#0F0F18"/>
<circle cx="35.4635" cy="597.576" r="0.994303" fill="#0F0F18"/>
<circle cx="588.296" cy="176.655" r="0.994303" fill="#0F0F18"/>
<circle cx="588.296" cy="596.251" r="0.994303" fill="#0F0F18"/>
<circle cx="312.543" cy="177.98" r="0.994303" fill="#0F0F18"/>
<circle cx="312.543" cy="597.576" r="0.994303" fill="#0F0F18"/>
<circle cx="865.375" cy="176.655" r="0.994303" fill="#0F0F18"/>
<circle cx="1106.66" cy="176.655" r="0.994303" fill="#0F0F18"/>
<circle cx="865.375" cy="596.251" r="0.994303" fill="#0F0F18"/>
<circle cx="1106.66" cy="596.251" r="0.994303" fill="#0F0F18"/>
<circle cx="35.4635" cy="318.509" r="0.994303" fill="#0F0F18"/>
<circle cx="588.296" cy="317.183" r="0.994303" fill="#0F0F18"/>
<circle cx="312.543" cy="318.509" r="0.994303" fill="#0F0F18"/>
<circle cx="865.375" cy="317.183" r="0.994303" fill="#0F0F18"/>
<circle cx="1106.66" cy="317.183" r="0.994303" fill="#0F0F18"/>
<circle cx="35.4635" cy="107.716" r="0.994303" fill="#0F0F18"/>
<circle cx="35.4635" cy="527.312" r="0.994303" fill="#0F0F18"/>
<circle cx="588.296" cy="106.39" r="0.994303" fill="#0F0F18"/>
<circle cx="588.296" cy="525.987" r="0.994303" fill="#0F0F18"/>
<circle cx="312.543" cy="107.716" r="0.994303" fill="#0F0F18"/>
<circle cx="312.543" cy="527.312" r="0.994303" fill="#0F0F18"/>
<circle cx="865.375" cy="106.39" r="0.994303" fill="#0F0F18"/>
<circle cx="1106.66" cy="106.39" r="0.994303" fill="#0F0F18"/>
<circle cx="865.375" cy="525.987" r="0.994303" fill="#0F0F18"/>
<circle cx="1106.66" cy="525.987" r="0.994303" fill="#0F0F18"/>
<circle cx="35.4635" cy="248.244" r="0.994303" fill="#0F0F18"/>
<circle cx="588.296" cy="246.919" r="0.994303" fill="#0F0F18"/>
<circle cx="312.543" cy="248.244" r="0.994303" fill="#0F0F18"/>
<circle cx="865.375" cy="246.919" r="0.994303" fill="#0F0F18"/>
<circle cx="1106.66" cy="246.919" r="0.994303" fill="#0F0F18"/>
<circle cx="35.4635" cy="388.773" r="0.994303" fill="#0F0F18"/>
<circle cx="588.296" cy="387.447" r="0.994303" fill="#0F0F18"/>
<circle cx="312.543" cy="388.773" r="0.994303" fill="#0F0F18"/>
<circle cx="865.375" cy="387.447" r="0.994303" fill="#0F0F18"/>
<circle cx="1106.66" cy="387.447" r="0.994303" fill="#0F0F18"/>
<circle cx="173.34" cy="2.32005" r="0.994303" fill="#0F0F18"/>
<circle cx="173.34" cy="421.916" r="0.994303" fill="#0F0F18"/>
<circle cx="726.173" cy="0.994303" r="0.994303" fill="#0F0F18"/>
<circle cx="726.173" cy="420.59" r="0.994303" fill="#0F0F18"/>
<circle cx="450.42" cy="2.32005" r="0.994303" fill="#0F0F18"/>
<circle cx="450.42" cy="421.916" r="0.994303" fill="#0F0F18"/>
<circle cx="1003.25" cy="0.994303" r="0.994303" fill="#0F0F18"/>
<circle cx="1244.54" cy="0.994303" r="0.994303" fill="#0F0F18"/>
<circle cx="1003.25" cy="420.59" r="0.994303" fill="#0F0F18"/>
<circle cx="1244.54" cy="420.59" r="0.994303" fill="#0F0F18"/>
<circle cx="173.34" cy="142.848" r="0.994303" fill="#0F0F18"/>
<circle cx="173.34" cy="562.444" r="0.994303" fill="#0F0F18"/>
<circle cx="726.173" cy="141.523" r="0.994303" fill="#0F0F18"/>
<circle cx="726.173" cy="561.119" r="0.994303" fill="#0F0F18"/>
<circle cx="450.42" cy="142.848" r="0.994303" fill="#0F0F18"/>
<circle cx="450.42" cy="562.444" r="0.994303" fill="#0F0F18"/>
<circle cx="1003.25" cy="141.523" r="0.994303" fill="#0F0F18"/>
<circle cx="1244.54" cy="141.523" r="0.994303" fill="#0F0F18"/>
<circle cx="1003.25" cy="561.119" r="0.994303" fill="#0F0F18"/>
<circle cx="1244.54" cy="561.119" r="0.994303" fill="#0F0F18"/>
<circle cx="173.34" cy="283.376" r="0.994303" fill="#0F0F18"/>
<circle cx="726.173" cy="282.051" r="0.994303" fill="#0F0F18"/>
<circle cx="450.42" cy="283.376" r="0.994303" fill="#0F0F18"/>
<circle cx="1003.25" cy="282.051" r="0.994303" fill="#0F0F18"/>
<circle cx="1244.54" cy="282.051" r="0.994303" fill="#0F0F18"/>
<circle cx="173.34" cy="72.5841" r="0.994303" fill="#0F0F18"/>
<circle cx="173.34" cy="492.18" r="0.994303" fill="#0F0F18"/>
<circle cx="726.173" cy="71.2584" r="0.994303" fill="#0F0F18"/>
<circle cx="726.173" cy="490.854" r="0.994303" fill="#0F0F18"/>
<circle cx="450.42" cy="72.5841" r="0.994303" fill="#0F0F18"/>
<circle cx="450.42" cy="492.18" r="0.994303" fill="#0F0F18"/>
<circle cx="1003.25" cy="71.2584" r="0.994303" fill="#0F0F18"/>
<circle cx="1244.54" cy="71.2584" r="0.994303" fill="#0F0F18"/>
<circle cx="1003.25" cy="490.854" r="0.994303" fill="#0F0F18"/>
<circle cx="1244.54" cy="490.854" r="0.994303" fill="#0F0F18"/>
<circle cx="173.34" cy="213.112" r="0.994303" fill="#0F0F18"/>
<circle cx="173.34" cy="632.708" r="0.994303" fill="#0F0F18"/>
<circle cx="726.173" cy="211.787" r="0.994303" fill="#0F0F18"/>
<circle cx="726.173" cy="631.383" r="0.994303" fill="#0F0F18"/>
<circle cx="450.42" cy="213.112" r="0.994303" fill="#0F0F18"/>
<circle cx="450.42" cy="632.708" r="0.994303" fill="#0F0F18"/>
<circle cx="1003.25" cy="211.787" r="0.994303" fill="#0F0F18"/>
<circle cx="1244.54" cy="211.787" r="0.994303" fill="#0F0F18"/>
<circle cx="1003.25" cy="631.383" r="0.994303" fill="#0F0F18"/>
<circle cx="1244.54" cy="631.383" r="0.994303" fill="#0F0F18"/>
<circle cx="173.34" cy="353.641" r="0.994303" fill="#0F0F18"/>
<circle cx="726.173" cy="352.315" r="0.994303" fill="#0F0F18"/>
<circle cx="450.42" cy="353.641" r="0.994303" fill="#0F0F18"/>
<circle cx="1003.25" cy="352.315" r="0.994303" fill="#0F0F18"/>
<circle cx="1244.54" cy="352.315" r="0.994303" fill="#0F0F18"/>
<circle cx="173.34" cy="37.4521" r="0.994303" fill="#0F0F18"/>
<circle cx="173.34" cy="457.048" r="0.994303" fill="#0F0F18"/>
<circle cx="726.173" cy="36.1264" r="0.994303" fill="#0F0F18"/>
<circle cx="726.173" cy="455.722" r="0.994303" fill="#0F0F18"/>
<circle cx="450.42" cy="37.4521" r="0.994303" fill="#0F0F18"/>
<circle cx="450.42" cy="457.048" r="0.994303" fill="#0F0F18"/>
<circle cx="1003.25" cy="36.1264" r="0.994303" fill="#0F0F18"/>
<circle cx="1244.54" cy="36.1264" r="0.994303" fill="#0F0F18"/>
<circle cx="1003.25" cy="455.722" r="0.994303" fill="#0F0F18"/>
<circle cx="1244.54" cy="455.722" r="0.994303" fill="#0F0F18"/>
<circle cx="173.34" cy="177.98" r="0.994303" fill="#0F0F18"/>
<circle cx="173.34" cy="597.576" r="0.994303" fill="#0F0F18"/>
<circle cx="726.173" cy="176.655" r="0.994303" fill="#0F0F18"/>
<circle cx="726.173" cy="596.251" r="0.994303" fill="#0F0F18"/>
<circle cx="450.42" cy="177.98" r="0.994303" fill="#0F0F18"/>
<circle cx="450.42" cy="597.576" r="0.994303" fill="#0F0F18"/>
<circle cx="1003.25" cy="176.655" r="0.994303" fill="#0F0F18"/>
<circle cx="1244.54" cy="176.655" r="0.994303" fill="#0F0F18"/>
<circle cx="1003.25" cy="596.251" r="0.994303" fill="#0F0F18"/>
<circle cx="1244.54" cy="596.251" r="0.994303" fill="#0F0F18"/>
<circle cx="173.34" cy="318.509" r="0.994303" fill="#0F0F18"/>
<circle cx="726.173" cy="317.183" r="0.994303" fill="#0F0F18"/>
<circle cx="450.42" cy="318.509" r="0.994303" fill="#0F0F18"/>
<circle cx="1003.25" cy="317.183" r="0.994303" fill="#0F0F18"/>
<circle cx="1244.54" cy="317.183" r="0.994303" fill="#0F0F18"/>
<circle cx="173.34" cy="107.716" r="0.994303" fill="#0F0F18"/>
<circle cx="173.34" cy="527.312" r="0.994303" fill="#0F0F18"/>
<circle cx="726.173" cy="106.39" r="0.994303" fill="#0F0F18"/>
<circle cx="726.173" cy="525.987" r="0.994303" fill="#0F0F18"/>
<circle cx="450.42" cy="107.716" r="0.994303" fill="#0F0F18"/>
<circle cx="450.42" cy="527.312" r="0.994303" fill="#0F0F18"/>
<circle cx="1003.25" cy="106.39" r="0.994303" fill="#0F0F18"/>
<circle cx="1244.54" cy="106.39" r="0.994303" fill="#0F0F18"/>
<circle cx="1003.25" cy="525.987" r="0.994303" fill="#0F0F18"/>
<circle cx="1244.54" cy="525.987" r="0.994303" fill="#0F0F18"/>
<circle cx="173.34" cy="248.244" r="0.994303" fill="#0F0F18"/>
<circle cx="726.173" cy="246.919" r="0.994303" fill="#0F0F18"/>
<circle cx="450.42" cy="248.244" r="0.994303" fill="#0F0F18"/>
<circle cx="1003.25" cy="246.919" r="0.994303" fill="#0F0F18"/>
<circle cx="1244.54" cy="246.919" r="0.994303" fill="#0F0F18"/>
<circle cx="173.34" cy="388.773" r="0.994303" fill="#0F0F18"/>
<circle cx="726.173" cy="387.447" r="0.994303" fill="#0F0F18"/>
<circle cx="450.42" cy="388.773" r="0.994303" fill="#0F0F18"/>
<circle cx="1003.25" cy="387.447" r="0.994303" fill="#0F0F18"/>
<circle cx="1244.54" cy="387.447" r="0.994303" fill="#0F0F18"/>
<circle cx="69.9328" cy="2.32005" r="0.994303" fill="#0F0F18"/>
<circle cx="69.9328" cy="421.916" r="0.994303" fill="#0F0F18"/>
<circle cx="622.765" cy="0.994303" r="0.994303" fill="#0F0F18"/>
<circle cx="622.765" cy="420.59" r="0.994303" fill="#0F0F18"/>
<circle cx="347.012" cy="2.32005" r="0.994303" fill="#0F0F18"/>
<circle cx="347.012" cy="421.916" r="0.994303" fill="#0F0F18"/>
<circle cx="899.845" cy="0.994303" r="0.994303" fill="#0F0F18"/>
<circle cx="1141.13" cy="0.994303" r="0.994303" fill="#0F0F18"/>
<circle cx="899.845" cy="420.59" r="0.994303" fill="#0F0F18"/>
<circle cx="1141.13" cy="420.59" r="0.994303" fill="#0F0F18"/>
<circle cx="69.9328" cy="142.848" r="0.994303" fill="#0F0F18"/>
<circle cx="69.9328" cy="562.444" r="0.994303" fill="#0F0F18"/>
<circle cx="622.765" cy="141.523" r="0.994303" fill="#0F0F18"/>
<circle cx="622.765" cy="561.119" r="0.994303" fill="#0F0F18"/>
<circle cx="347.012" cy="142.848" r="0.994303" fill="#0F0F18"/>
<circle cx="347.012" cy="562.444" r="0.994303" fill="#0F0F18"/>
<circle cx="899.845" cy="141.523" r="0.994303" fill="#0F0F18"/>
<circle cx="1141.13" cy="141.523" r="0.994303" fill="#0F0F18"/>
<circle cx="899.845" cy="561.119" r="0.994303" fill="#0F0F18"/>
<circle cx="1141.13" cy="561.119" r="0.994303" fill="#0F0F18"/>
<circle cx="69.9328" cy="283.376" r="0.994303" fill="#0F0F18"/>
<circle cx="622.765" cy="282.051" r="0.994303" fill="#0F0F18"/>
<circle cx="347.012" cy="283.376" r="0.994303" fill="#0F0F18"/>
<circle cx="899.845" cy="282.051" r="0.994303" fill="#0F0F18"/>
<circle cx="1141.13" cy="282.051" r="0.994303" fill="#0F0F18"/>
<circle cx="69.9328" cy="72.5841" r="0.994303" fill="#0F0F18"/>
<circle cx="69.9328" cy="492.18" r="0.994303" fill="#0F0F18"/>
<circle cx="622.765" cy="71.2584" r="0.994303" fill="#0F0F18"/>
<circle cx="622.765" cy="490.854" r="0.994303" fill="#0F0F18"/>
<circle cx="347.012" cy="72.5841" r="0.994303" fill="#0F0F18"/>
<circle cx="347.012" cy="492.18" r="0.994303" fill="#0F0F18"/>
<circle cx="899.845" cy="71.2584" r="0.994303" fill="#0F0F18"/>
<circle cx="1141.13" cy="71.2584" r="0.994303" fill="#0F0F18"/>
<circle cx="899.845" cy="490.854" r="0.994303" fill="#0F0F18"/>
<circle cx="1141.13" cy="490.854" r="0.994303" fill="#0F0F18"/>
<circle cx="69.9328" cy="213.112" r="0.994303" fill="#0F0F18"/>
<circle cx="69.9328" cy="632.708" r="0.994303" fill="#0F0F18"/>
<circle cx="622.765" cy="211.787" r="0.994303" fill="#0F0F18"/>
<circle cx="622.765" cy="631.383" r="0.994303" fill="#0F0F18"/>
<circle cx="347.012" cy="213.112" r="0.994303" fill="#0F0F18"/>
<circle cx="347.012" cy="632.708" r="0.994303" fill="#0F0F18"/>
<circle cx="899.845" cy="211.787" r="0.994303" fill="#0F0F18"/>
<circle cx="1141.13" cy="211.787" r="0.994303" fill="#0F0F18"/>
<circle cx="899.845" cy="631.383" r="0.994303" fill="#0F0F18"/>
<circle cx="1141.13" cy="631.383" r="0.994303" fill="#0F0F18"/>
<circle cx="69.9328" cy="353.641" r="0.994303" fill="#0F0F18"/>
<circle cx="622.765" cy="352.315" r="0.994303" fill="#0F0F18"/>
<circle cx="347.012" cy="353.641" r="0.994303" fill="#0F0F18"/>
<circle cx="899.845" cy="352.315" r="0.994303" fill="#0F0F18"/>
<circle cx="1141.13" cy="352.315" r="0.994303" fill="#0F0F18"/>
<circle cx="69.9328" cy="37.4521" r="0.994303" fill="#0F0F18"/>
<circle cx="69.9328" cy="457.048" r="0.994303" fill="#0F0F18"/>
<circle cx="622.765" cy="36.1264" r="0.994303" fill="#0F0F18"/>
<circle cx="622.765" cy="455.722" r="0.994303" fill="#0F0F18"/>
<circle cx="347.012" cy="37.4521" r="0.994303" fill="#0F0F18"/>
<circle cx="347.012" cy="457.048" r="0.994303" fill="#0F0F18"/>
<circle cx="899.845" cy="36.1264" r="0.994303" fill="#0F0F18"/>
<circle cx="1141.13" cy="36.1264" r="0.994303" fill="#0F0F18"/>
<circle cx="899.845" cy="455.722" r="0.994303" fill="#0F0F18"/>
<circle cx="1141.13" cy="455.722" r="0.994303" fill="#0F0F18"/>
<circle cx="69.9328" cy="177.98" r="0.994303" fill="#0F0F18"/>
<circle cx="69.9328" cy="597.576" r="0.994303" fill="#0F0F18"/>
<circle cx="622.765" cy="176.655" r="0.994303" fill="#0F0F18"/>
<circle cx="622.765" cy="596.251" r="0.994303" fill="#0F0F18"/>
<circle cx="347.012" cy="177.98" r="0.994303" fill="#0F0F18"/>
<circle cx="347.012" cy="597.576" r="0.994303" fill="#0F0F18"/>
<circle cx="899.845" cy="176.655" r="0.994303" fill="#0F0F18"/>
<circle cx="1141.13" cy="176.655" r="0.994303" fill="#0F0F18"/>
<circle cx="899.845" cy="596.251" r="0.994303" fill="#0F0F18"/>
<circle cx="1141.13" cy="596.251" r="0.994303" fill="#0F0F18"/>
<circle cx="69.9328" cy="318.509" r="0.994303" fill="#0F0F18"/>
<circle cx="622.765" cy="317.183" r="0.994303" fill="#0F0F18"/>
<circle cx="347.012" cy="318.509" r="0.994303" fill="#0F0F18"/>
<circle cx="899.845" cy="317.183" r="0.994303" fill="#0F0F18"/>
<circle cx="1141.13" cy="317.183" r="0.994303" fill="#0F0F18"/>
<circle cx="69.9328" cy="107.716" r="0.994303" fill="#0F0F18"/>
<circle cx="69.9328" cy="527.312" r="0.994303" fill="#0F0F18"/>
<circle cx="622.765" cy="106.39" r="0.994303" fill="#0F0F18"/>
<circle cx="622.765" cy="525.987" r="0.994303" fill="#0F0F18"/>
<circle cx="347.012" cy="107.716" r="0.994303" fill="#0F0F18"/>
<circle cx="347.012" cy="527.312" r="0.994303" fill="#0F0F18"/>
<circle cx="899.845" cy="106.39" r="0.994303" fill="#0F0F18"/>
<circle cx="1141.13" cy="106.39" r="0.994303" fill="#0F0F18"/>
<circle cx="899.845" cy="525.987" r="0.994303" fill="#0F0F18"/>
<circle cx="1141.13" cy="525.987" r="0.994303" fill="#0F0F18"/>
<circle cx="69.9328" cy="248.244" r="0.994303" fill="#0F0F18"/>
<circle cx="622.765" cy="246.919" r="0.994303" fill="#0F0F18"/>
<circle cx="347.012" cy="248.244" r="0.994303" fill="#0F0F18"/>
<circle cx="899.845" cy="246.919" r="0.994303" fill="#0F0F18"/>
<circle cx="1141.13" cy="246.919" r="0.994303" fill="#0F0F18"/>
<circle cx="69.9328" cy="388.773" r="0.994303" fill="#0F0F18"/>
<circle cx="622.765" cy="387.447" r="0.994303" fill="#0F0F18"/>
<circle cx="347.012" cy="388.773" r="0.994303" fill="#0F0F18"/>
<circle cx="899.845" cy="387.447" r="0.994303" fill="#0F0F18"/>
<circle cx="1141.13" cy="387.447" r="0.994303" fill="#0F0F18"/>
<circle cx="207.809" cy="2.32005" r="0.994303" fill="#0F0F18"/>
<circle cx="207.809" cy="421.916" r="0.994303" fill="#0F0F18"/>
<circle cx="760.642" cy="0.994303" r="0.994303" fill="#0F0F18"/>
<circle cx="760.642" cy="420.59" r="0.994303" fill="#0F0F18"/>
<circle cx="484.889" cy="2.32005" r="0.994303" fill="#0F0F18"/>
<circle cx="484.889" cy="421.916" r="0.994303" fill="#0F0F18"/>
<circle cx="1037.72" cy="0.994303" r="0.994303" fill="#0F0F18"/>
<circle cx="1279.01" cy="0.994303" r="0.994303" fill="#0F0F18"/>
<circle cx="1037.72" cy="420.59" r="0.994303" fill="#0F0F18"/>
<circle cx="1279.01" cy="420.59" r="0.994303" fill="#0F0F18"/>
<circle cx="207.809" cy="142.848" r="0.994303" fill="#0F0F18"/>
<circle cx="207.809" cy="562.444" r="0.994303" fill="#0F0F18"/>
<circle cx="760.642" cy="141.523" r="0.994303" fill="#0F0F18"/>
<circle cx="760.642" cy="561.119" r="0.994303" fill="#0F0F18"/>
<circle cx="484.889" cy="142.848" r="0.994303" fill="#0F0F18"/>
<circle cx="484.889" cy="562.444" r="0.994303" fill="#0F0F18"/>
<circle cx="1037.72" cy="141.523" r="0.994303" fill="#0F0F18"/>
<circle cx="1279.01" cy="141.523" r="0.994303" fill="#0F0F18"/>
<circle cx="1037.72" cy="561.119" r="0.994303" fill="#0F0F18"/>
<circle cx="1279.01" cy="561.119" r="0.994303" fill="#0F0F18"/>
<circle cx="207.809" cy="283.376" r="0.994303" fill="#0F0F18"/>
<circle cx="760.642" cy="282.051" r="0.994303" fill="#0F0F18"/>
<circle cx="484.889" cy="283.376" r="0.994303" fill="#0F0F18"/>
<circle cx="1037.72" cy="282.051" r="0.994303" fill="#0F0F18"/>
<circle cx="1279.01" cy="282.051" r="0.994303" fill="#0F0F18"/>
<circle cx="207.809" cy="72.5841" r="0.994303" fill="#0F0F18"/>
<circle cx="207.809" cy="492.18" r="0.994303" fill="#0F0F18"/>
<circle cx="760.642" cy="71.2584" r="0.994303" fill="#0F0F18"/>
<circle cx="760.642" cy="490.854" r="0.994303" fill="#0F0F18"/>
<circle cx="484.889" cy="72.5841" r="0.994303" fill="#0F0F18"/>
<circle cx="484.889" cy="492.18" r="0.994303" fill="#0F0F18"/>
<circle cx="1037.72" cy="71.2584" r="0.994303" fill="#0F0F18"/>
<circle cx="1279.01" cy="71.2584" r="0.994303" fill="#0F0F18"/>
<circle cx="1037.72" cy="490.854" r="0.994303" fill="#0F0F18"/>
<circle cx="1279.01" cy="490.854" r="0.994303" fill="#0F0F18"/>
<circle cx="207.809" cy="213.112" r="0.994303" fill="#0F0F18"/>
<circle cx="207.809" cy="632.708" r="0.994303" fill="#0F0F18"/>
<circle cx="760.642" cy="211.787" r="0.994303" fill="#0F0F18"/>
<circle cx="760.642" cy="631.383" r="0.994303" fill="#0F0F18"/>
<circle cx="484.889" cy="213.112" r="0.994303" fill="#0F0F18"/>
<circle cx="484.889" cy="632.708" r="0.994303" fill="#0F0F18"/>
<circle cx="1037.72" cy="211.787" r="0.994303" fill="#0F0F18"/>
<circle cx="1279.01" cy="211.787" r="0.994303" fill="#0F0F18"/>
<circle cx="1037.72" cy="631.383" r="0.994303" fill="#0F0F18"/>
<circle cx="1279.01" cy="631.383" r="0.994303" fill="#0F0F18"/>
<circle cx="207.809" cy="353.641" r="0.994303" fill="#0F0F18"/>
<circle cx="760.642" cy="352.315" r="0.994303" fill="#0F0F18"/>
<circle cx="484.889" cy="353.641" r="0.994303" fill="#0F0F18"/>
<circle cx="1037.72" cy="352.315" r="0.994303" fill="#0F0F18"/>
<circle cx="1279.01" cy="352.315" r="0.994303" fill="#0F0F18"/>
<circle cx="207.809" cy="37.4521" r="0.994303" fill="#0F0F18"/>
<circle cx="207.809" cy="457.048" r="0.994303" fill="#0F0F18"/>
<circle cx="760.642" cy="36.1264" r="0.994303" fill="#0F0F18"/>
<circle cx="760.642" cy="455.722" r="0.994303" fill="#0F0F18"/>
<circle cx="484.889" cy="37.4521" r="0.994303" fill="#0F0F18"/>
<circle cx="484.889" cy="457.048" r="0.994303" fill="#0F0F18"/>
<circle cx="1037.72" cy="36.1264" r="0.994303" fill="#0F0F18"/>
<circle cx="1279.01" cy="36.1264" r="0.994303" fill="#0F0F18"/>
<circle cx="1037.72" cy="455.722" r="0.994303" fill="#0F0F18"/>
<circle cx="1279.01" cy="455.722" r="0.994303" fill="#0F0F18"/>
<circle cx="207.809" cy="177.98" r="0.994303" fill="#0F0F18"/>
<circle cx="207.809" cy="597.576" r="0.994303" fill="#0F0F18"/>
<circle cx="760.642" cy="176.655" r="0.994303" fill="#0F0F18"/>
<circle cx="760.642" cy="596.251" r="0.994303" fill="#0F0F18"/>
<circle cx="484.889" cy="177.98" r="0.994303" fill="#0F0F18"/>
<circle cx="484.889" cy="597.576" r="0.994303" fill="#0F0F18"/>
<circle cx="1037.72" cy="176.655" r="0.994303" fill="#0F0F18"/>
<circle cx="1279.01" cy="176.655" r="0.994303" fill="#0F0F18"/>
<circle cx="1037.72" cy="596.251" r="0.994303" fill="#0F0F18"/>
<circle cx="1279.01" cy="596.251" r="0.994303" fill="#0F0F18"/>
<circle cx="207.809" cy="318.509" r="0.994303" fill="#0F0F18"/>
<circle cx="760.642" cy="317.183" r="0.994303" fill="#0F0F18"/>
<circle cx="484.889" cy="318.509" r="0.994303" fill="#0F0F18"/>
<circle cx="1037.72" cy="317.183" r="0.994303" fill="#0F0F18"/>
<circle cx="1279.01" cy="317.183" r="0.994303" fill="#0F0F18"/>
<circle cx="207.809" cy="107.716" r="0.994303" fill="#0F0F18"/>
<circle cx="207.809" cy="527.312" r="0.994303" fill="#0F0F18"/>
<circle cx="760.642" cy="106.39" r="0.994303" fill="#0F0F18"/>
<circle cx="760.642" cy="525.987" r="0.994303" fill="#0F0F18"/>
<circle cx="484.889" cy="107.716" r="0.994303" fill="#0F0F18"/>
<circle cx="484.889" cy="527.312" r="0.994303" fill="#0F0F18"/>
<circle cx="1037.72" cy="106.39" r="0.994303" fill="#0F0F18"/>
<circle cx="1279.01" cy="106.39" r="0.994303" fill="#0F0F18"/>
<circle cx="1037.72" cy="525.987" r="0.994303" fill="#0F0F18"/>
<circle cx="1279.01" cy="525.987" r="0.994303" fill="#0F0F18"/>
<circle cx="207.809" cy="248.244" r="0.994303" fill="#0F0F18"/>
<circle cx="760.642" cy="246.919" r="0.994303" fill="#0F0F18"/>
<circle cx="484.889" cy="248.244" r="0.994303" fill="#0F0F18"/>
<circle cx="1037.72" cy="246.919" r="0.994303" fill="#0F0F18"/>
<circle cx="1279.01" cy="246.919" r="0.994303" fill="#0F0F18"/>
<circle cx="207.809" cy="388.773" r="0.994303" fill="#0F0F18"/>
<circle cx="760.642" cy="387.447" r="0.994303" fill="#0F0F18"/>
<circle cx="484.889" cy="388.773" r="0.994303" fill="#0F0F18"/>
<circle cx="1037.72" cy="387.447" r="0.994303" fill="#0F0F18"/>
<circle cx="1279.01" cy="387.447" r="0.994303" fill="#0F0F18"/>
<circle cx="104.402" cy="2.32005" r="0.994303" fill="#0F0F18"/>
<circle cx="104.402" cy="421.916" r="0.994303" fill="#0F0F18"/>
<circle cx="657.235" cy="0.994303" r="0.994303" fill="#0F0F18"/>
<circle cx="657.235" cy="420.59" r="0.994303" fill="#0F0F18"/>
<circle cx="381.481" cy="2.32005" r="0.994303" fill="#0F0F18"/>
<circle cx="381.481" cy="421.916" r="0.994303" fill="#0F0F18"/>
<circle cx="934.314" cy="0.994303" r="0.994303" fill="#0F0F18"/>
<circle cx="1175.6" cy="0.994303" r="0.994303" fill="#0F0F18"/>
<circle cx="934.314" cy="420.59" r="0.994303" fill="#0F0F18"/>
<circle cx="1175.6" cy="420.59" r="0.994303" fill="#0F0F18"/>
<circle cx="104.402" cy="142.848" r="0.994303" fill="#0F0F18"/>
<circle cx="104.402" cy="562.444" r="0.994303" fill="#0F0F18"/>
<circle cx="657.235" cy="141.523" r="0.994303" fill="#0F0F18"/>
<circle cx="657.235" cy="561.119" r="0.994303" fill="#0F0F18"/>
<circle cx="381.481" cy="142.848" r="0.994303" fill="#0F0F18"/>
<circle cx="381.481" cy="562.444" r="0.994303" fill="#0F0F18"/>
<circle cx="934.314" cy="141.523" r="0.994303" fill="#0F0F18"/>
<circle cx="1175.6" cy="141.523" r="0.994303" fill="#0F0F18"/>
<circle cx="934.314" cy="561.119" r="0.994303" fill="#0F0F18"/>
<circle cx="1175.6" cy="561.119" r="0.994303" fill="#0F0F18"/>
<circle cx="104.402" cy="283.376" r="0.994303" fill="#0F0F18"/>
<circle cx="657.235" cy="282.051" r="0.994303" fill="#0F0F18"/>
<circle cx="381.481" cy="283.376" r="0.994303" fill="#0F0F18"/>
<circle cx="934.314" cy="282.051" r="0.994303" fill="#0F0F18"/>
<circle cx="1175.6" cy="282.051" r="0.994303" fill="#0F0F18"/>
<circle cx="104.402" cy="72.5841" r="0.994303" fill="#0F0F18"/>
<circle cx="104.402" cy="492.18" r="0.994303" fill="#0F0F18"/>
<circle cx="657.235" cy="71.2584" r="0.994303" fill="#0F0F18"/>
<circle cx="657.235" cy="490.854" r="0.994303" fill="#0F0F18"/>
<circle cx="381.481" cy="72.5841" r="0.994303" fill="#0F0F18"/>
<circle cx="381.481" cy="492.18" r="0.994303" fill="#0F0F18"/>
<circle cx="934.314" cy="71.2584" r="0.994303" fill="#0F0F18"/>
<circle cx="1175.6" cy="71.2584" r="0.994303" fill="#0F0F18"/>
<circle cx="934.314" cy="490.854" r="0.994303" fill="#0F0F18"/>
<circle cx="1175.6" cy="490.854" r="0.994303" fill="#0F0F18"/>
<circle cx="104.402" cy="213.112" r="0.994303" fill="#0F0F18"/>
<circle cx="104.402" cy="632.708" r="0.994303" fill="#0F0F18"/>
<circle cx="657.235" cy="211.787" r="0.994303" fill="#0F0F18"/>
<circle cx="657.235" cy="631.383" r="0.994303" fill="#0F0F18"/>
<circle cx="381.481" cy="213.112" r="0.994303" fill="#0F0F18"/>
<circle cx="381.481" cy="632.708" r="0.994303" fill="#0F0F18"/>
<circle cx="934.314" cy="211.787" r="0.994303" fill="#0F0F18"/>
<circle cx="1175.6" cy="211.787" r="0.994303" fill="#0F0F18"/>
<circle cx="934.314" cy="631.383" r="0.994303" fill="#0F0F18"/>
<circle cx="1175.6" cy="631.383" r="0.994303" fill="#0F0F18"/>
<circle cx="104.402" cy="353.641" r="0.994303" fill="#0F0F18"/>
<circle cx="657.235" cy="352.315" r="0.994303" fill="#0F0F18"/>
<circle cx="381.481" cy="353.641" r="0.994303" fill="#0F0F18"/>
<circle cx="934.314" cy="352.315" r="0.994303" fill="#0F0F18"/>
<circle cx="1175.6" cy="352.315" r="0.994303" fill="#0F0F18"/>
<circle cx="104.402" cy="37.4521" r="0.994303" fill="#0F0F18"/>
<circle cx="104.402" cy="457.048" r="0.994303" fill="#0F0F18"/>
<circle cx="657.235" cy="36.1264" r="0.994303" fill="#0F0F18"/>
<circle cx="657.235" cy="455.722" r="0.994303" fill="#0F0F18"/>
<circle cx="381.481" cy="37.4521" r="0.994303" fill="#0F0F18"/>
<circle cx="381.481" cy="457.048" r="0.994303" fill="#0F0F18"/>
<circle cx="934.314" cy="36.1264" r="0.994303" fill="#0F0F18"/>
<circle cx="1175.6" cy="36.1264" r="0.994303" fill="#0F0F18"/>
<circle cx="934.314" cy="455.722" r="0.994303" fill="#0F0F18"/>
<circle cx="1175.6" cy="455.722" r="0.994303" fill="#0F0F18"/>
<circle cx="104.402" cy="177.98" r="0.994303" fill="#0F0F18"/>
<circle cx="104.402" cy="597.576" r="0.994303" fill="#0F0F18"/>
<circle cx="657.235" cy="176.655" r="0.994303" fill="#0F0F18"/>
<circle cx="657.235" cy="596.251" r="0.994303" fill="#0F0F18"/>
<circle cx="381.481" cy="177.98" r="0.994303" fill="#0F0F18"/>
<circle cx="381.481" cy="597.576" r="0.994303" fill="#0F0F18"/>
<circle cx="934.314" cy="176.655" r="0.994303" fill="#0F0F18"/>
<circle cx="1175.6" cy="176.655" r="0.994303" fill="#0F0F18"/>
<circle cx="934.314" cy="596.251" r="0.994303" fill="#0F0F18"/>
<circle cx="1175.6" cy="596.251" r="0.994303" fill="#0F0F18"/>
<circle cx="104.402" cy="318.509" r="0.994303" fill="#0F0F18"/>
<circle cx="657.235" cy="317.183" r="0.994303" fill="#0F0F18"/>
<circle cx="381.481" cy="318.509" r="0.994303" fill="#0F0F18"/>
<circle cx="934.314" cy="317.183" r="0.994303" fill="#0F0F18"/>
<circle cx="1175.6" cy="317.183" r="0.994303" fill="#0F0F18"/>
<circle cx="104.402" cy="107.716" r="0.994303" fill="#0F0F18"/>
<circle cx="104.402" cy="527.312" r="0.994303" fill="#0F0F18"/>
<circle cx="657.235" cy="106.39" r="0.994303" fill="#0F0F18"/>
<circle cx="657.235" cy="525.987" r="0.994303" fill="#0F0F18"/>
<circle cx="381.481" cy="107.716" r="0.994303" fill="#0F0F18"/>
<circle cx="381.481" cy="527.312" r="0.994303" fill="#0F0F18"/>
<circle cx="934.314" cy="106.39" r="0.994303" fill="#0F0F18"/>
<circle cx="1175.6" cy="106.39" r="0.994303" fill="#0F0F18"/>
<circle cx="934.314" cy="525.987" r="0.994303" fill="#0F0F18"/>
<circle cx="1175.6" cy="525.987" r="0.994303" fill="#0F0F18"/>
<circle cx="104.402" cy="248.244" r="0.994303" fill="#0F0F18"/>
<circle cx="657.235" cy="246.919" r="0.994303" fill="#0F0F18"/>
<circle cx="381.481" cy="248.244" r="0.994303" fill="#0F0F18"/>
<circle cx="934.314" cy="246.919" r="0.994303" fill="#0F0F18"/>
<circle cx="1175.6" cy="246.919" r="0.994303" fill="#0F0F18"/>
<circle cx="104.402" cy="388.773" r="0.994303" fill="#0F0F18"/>
<circle cx="657.235" cy="387.447" r="0.994303" fill="#0F0F18"/>
<circle cx="381.481" cy="388.773" r="0.994303" fill="#0F0F18"/>
<circle cx="934.314" cy="387.447" r="0.994303" fill="#0F0F18"/>
<circle cx="1175.6" cy="387.447" r="0.994303" fill="#0F0F18"/>
<circle cx="242.278" cy="2.32005" r="0.994303" fill="#0F0F18"/>
<circle cx="242.278" cy="421.916" r="0.994303" fill="#0F0F18"/>
<circle cx="795.111" cy="0.994303" r="0.994303" fill="#0F0F18"/>
<circle cx="795.111" cy="420.59" r="0.994303" fill="#0F0F18"/>
<circle cx="519.358" cy="2.32005" r="0.994303" fill="#0F0F18"/>
<circle cx="519.358" cy="421.916" r="0.994303" fill="#0F0F18"/>
<circle cx="1072.19" cy="0.994303" r="0.994303" fill="#0F0F18"/>
<circle cx="1072.19" cy="420.59" r="0.994303" fill="#0F0F18"/>
<circle cx="242.278" cy="142.848" r="0.994303" fill="#0F0F18"/>
<circle cx="242.278" cy="562.444" r="0.994303" fill="#0F0F18"/>
<circle cx="795.111" cy="141.523" r="0.994303" fill="#0F0F18"/>
<circle cx="795.111" cy="561.119" r="0.994303" fill="#0F0F18"/>
<circle cx="519.358" cy="142.848" r="0.994303" fill="#0F0F18"/>
<circle cx="519.358" cy="562.444" r="0.994303" fill="#0F0F18"/>
<circle cx="1072.19" cy="141.523" r="0.994303" fill="#0F0F18"/>
<circle cx="1072.19" cy="561.119" r="0.994303" fill="#0F0F18"/>
<circle cx="242.278" cy="283.376" r="0.994303" fill="#0F0F18"/>
<circle cx="795.111" cy="282.051" r="0.994303" fill="#0F0F18"/>
<circle cx="519.358" cy="283.376" r="0.994303" fill="#0F0F18"/>
<circle cx="1072.19" cy="282.051" r="0.994303" fill="#0F0F18"/>
<circle cx="242.278" cy="72.5841" r="0.994303" fill="#0F0F18"/>
<circle cx="242.278" cy="492.18" r="0.994303" fill="#0F0F18"/>
<circle cx="795.111" cy="71.2584" r="0.994303" fill="#0F0F18"/>
<circle cx="795.111" cy="490.854" r="0.994303" fill="#0F0F18"/>
<circle cx="519.358" cy="72.5841" r="0.994303" fill="#0F0F18"/>
<circle cx="519.358" cy="492.18" r="0.994303" fill="#0F0F18"/>
<circle cx="1072.19" cy="71.2584" r="0.994303" fill="#0F0F18"/>
<circle cx="1072.19" cy="490.854" r="0.994303" fill="#0F0F18"/>
<circle cx="242.278" cy="213.112" r="0.994303" fill="#0F0F18"/>
<circle cx="242.278" cy="632.708" r="0.994303" fill="#0F0F18"/>
<circle cx="795.111" cy="211.787" r="0.994303" fill="#0F0F18"/>
<circle cx="795.111" cy="631.383" r="0.994303" fill="#0F0F18"/>
<circle cx="519.358" cy="213.112" r="0.994303" fill="#0F0F18"/>
<circle cx="519.358" cy="632.708" r="0.994303" fill="#0F0F18"/>
<circle cx="1072.19" cy="211.787" r="0.994303" fill="#0F0F18"/>
<circle cx="1072.19" cy="631.383" r="0.994303" fill="#0F0F18"/>
<circle cx="242.278" cy="353.641" r="0.994303" fill="#0F0F18"/>
<circle cx="795.111" cy="352.315" r="0.994303" fill="#0F0F18"/>
<circle cx="519.358" cy="353.641" r="0.994303" fill="#0F0F18"/>
<circle cx="1072.19" cy="352.315" r="0.994303" fill="#0F0F18"/>
<circle cx="242.278" cy="37.4521" r="0.994303" fill="#0F0F18"/>
<circle cx="242.278" cy="457.048" r="0.994303" fill="#0F0F18"/>
<circle cx="795.111" cy="36.1264" r="0.994303" fill="#0F0F18"/>
<circle cx="795.111" cy="455.722" r="0.994303" fill="#0F0F18"/>
<circle cx="519.358" cy="37.4521" r="0.994303" fill="#0F0F18"/>
<circle cx="519.358" cy="457.048" r="0.994303" fill="#0F0F18"/>
<circle cx="1072.19" cy="36.1264" r="0.994303" fill="#0F0F18"/>
<circle cx="1072.19" cy="455.722" r="0.994303" fill="#0F0F18"/>
<circle cx="242.278" cy="177.98" r="0.994303" fill="#0F0F18"/>
<circle cx="242.278" cy="597.576" r="0.994303" fill="#0F0F18"/>
<circle cx="795.111" cy="176.655" r="0.994303" fill="#0F0F18"/>
<circle cx="795.111" cy="596.251" r="0.994303" fill="#0F0F18"/>
<circle cx="519.358" cy="177.98" r="0.994303" fill="#0F0F18"/>
<circle cx="519.358" cy="597.576" r="0.994303" fill="#0F0F18"/>
<circle cx="1072.19" cy="176.655" r="0.994303" fill="#0F0F18"/>
<circle cx="1072.19" cy="596.251" r="0.994303" fill="#0F0F18"/>
<circle cx="242.278" cy="318.509" r="0.994303" fill="#0F0F18"/>
<circle cx="795.111" cy="317.183" r="0.994303" fill="#0F0F18"/>
<circle cx="519.358" cy="318.509" r="0.994303" fill="#0F0F18"/>
<circle cx="1072.19" cy="317.183" r="0.994303" fill="#0F0F18"/>
<circle cx="242.278" cy="107.716" r="0.994303" fill="#0F0F18"/>
<circle cx="242.278" cy="527.312" r="0.994303" fill="#0F0F18"/>
<circle cx="795.111" cy="106.39" r="0.994303" fill="#0F0F18"/>
<circle cx="795.111" cy="525.987" r="0.994303" fill="#0F0F18"/>
<circle cx="519.358" cy="107.716" r="0.994303" fill="#0F0F18"/>
<circle cx="519.358" cy="527.312" r="0.994303" fill="#0F0F18"/>
<circle cx="1072.19" cy="106.39" r="0.994303" fill="#0F0F18"/>
<circle cx="1072.19" cy="525.987" r="0.994303" fill="#0F0F18"/>
<circle cx="242.278" cy="248.244" r="0.994303" fill="#0F0F18"/>
<circle cx="795.111" cy="246.919" r="0.994303" fill="#0F0F18"/>
<circle cx="519.358" cy="248.244" r="0.994303" fill="#0F0F18"/>
<circle cx="1072.19" cy="246.919" r="0.994303" fill="#0F0F18"/>
<circle cx="242.278" cy="388.773" r="0.994303" fill="#0F0F18"/>
<circle cx="795.111" cy="387.447" r="0.994303" fill="#0F0F18"/>
<circle cx="519.358" cy="388.773" r="0.994303" fill="#0F0F18"/>
<circle cx="1072.19" cy="387.447" r="0.994303" fill="#0F0F18"/>
</svg>
