<svg width="1707" height="3054" viewBox="0 0 1707 3054" fill="none" xmlns="http://www.w3.org/2000/svg">
<g filter="url(#filter0_dddd_204_4)">
<g filter="url(#filter1_i_204_4)">
<rect x="261.797" y="156" width="1183.96" height="2484" rx="169.678" fill="black" fill-opacity="0.01"/>
</g>
<rect x="262.783" y="156.986" width="1181.99" height="2482.03" rx="168.691" stroke="#292824" stroke-width="1.97299"/>
<g filter="url(#filter2_i_204_4)">
<rect x="265.014" y="158.185" width="1177.53" height="2479.63" rx="169.678" fill="black" fill-opacity="0.01"/>
</g>
<rect x="266.987" y="160.158" width="1173.58" height="2475.68" rx="167.705" stroke="url(#paint0_linear_204_4)" stroke-width="3.94599"/>
<mask id="path-5-inside-1_204_4" fill="white">
<path fill-rule="evenodd" clip-rule="evenodd" d="M265.014 335.755C265.014 237.686 344.515 158.185 442.584 158.185H1264.97C1363.04 158.185 1442.54 237.685 1442.54 335.755V2460.24C1442.54 2558.31 1363.04 2637.81 1264.97 2637.81H442.584C344.515 2637.81 265.014 2558.31 265.014 2460.24V335.755ZM306.743 326.321C306.743 258.213 361.956 203 430.064 203H453.247H1256.27H1280.42C1348.53 203 1403.74 258.213 1403.74 326.321V2471.68C1403.74 2539.79 1348.53 2595 1280.42 2595H1256.27H453.247H430.064C361.956 2595 306.743 2539.79 306.743 2471.68V2460.05C306.421 2456.08 306.257 2452.07 306.257 2448.01V349.99C306.257 345.935 306.421 341.918 306.743 337.946V326.321Z"/>
</mask>
<g filter="url(#filter3_i_204_4)">
<path fill-rule="evenodd" clip-rule="evenodd" d="M265.014 335.755C265.014 237.686 344.515 158.185 442.584 158.185H1264.97C1363.04 158.185 1442.54 237.685 1442.54 335.755V2460.24C1442.54 2558.31 1363.04 2637.81 1264.97 2637.81H442.584C344.515 2637.81 265.014 2558.31 265.014 2460.24V335.755ZM306.743 326.321C306.743 258.213 361.956 203 430.064 203H453.247H1256.27H1280.42C1348.53 203 1403.74 258.213 1403.74 326.321V2471.68C1403.74 2539.79 1348.53 2595 1280.42 2595H1256.27H453.247H430.064C361.956 2595 306.743 2539.79 306.743 2471.68V2460.05C306.421 2456.08 306.257 2452.07 306.257 2448.01V349.99C306.257 345.935 306.421 341.918 306.743 337.946V326.321Z" fill="black"/>
</g>
<path d="M306.743 2460.05H319.568V2459.53L319.526 2459.02L306.743 2460.05ZM306.743 337.946L319.526 338.983L319.568 338.465V337.946H306.743ZM442.584 145.36C337.432 145.36 252.19 230.603 252.19 335.755H277.839C277.839 244.768 351.598 171.009 442.584 171.009V145.36ZM1264.97 145.36H442.584V171.009H1264.97V145.36ZM1455.37 335.755C1455.37 230.603 1370.13 145.36 1264.97 145.36V171.009C1355.96 171.009 1429.72 244.768 1429.72 335.755H1455.37ZM1455.37 2460.24V335.755H1429.72V2460.24H1455.37ZM1264.97 2650.64C1370.13 2650.64 1455.37 2565.39 1455.37 2460.24H1429.72C1429.72 2551.23 1355.96 2624.99 1264.97 2624.99V2650.64ZM442.584 2650.64H1264.97V2624.99H442.584V2650.64ZM252.19 2460.24C252.19 2565.4 337.432 2650.64 442.584 2650.64V2624.99C351.598 2624.99 277.839 2551.23 277.839 2460.24H252.19ZM252.19 335.755V2460.24H277.839V335.755H252.19ZM430.064 190.176C354.873 190.176 293.919 251.13 293.919 326.321H319.568C319.568 265.295 369.039 215.824 430.064 215.824V190.176ZM453.247 190.176H430.064V215.824H453.247V190.176ZM453.247 215.824H1256.27V190.176H453.247V215.824ZM1280.42 190.176H1256.27V215.824H1280.42V190.176ZM1416.57 326.321C1416.57 251.13 1355.61 190.176 1280.42 190.176V215.824C1341.45 215.824 1390.92 265.295 1390.92 326.321H1416.57ZM1416.57 2471.68V326.321H1390.92V2471.68H1416.57ZM1280.42 2607.82C1355.61 2607.82 1416.57 2546.87 1416.57 2471.68H1390.92C1390.92 2532.7 1341.45 2582.18 1280.42 2582.18V2607.82ZM1256.27 2607.82H1280.42V2582.18H1256.27V2607.82ZM1256.27 2582.18H453.247V2607.82H1256.27V2582.18ZM430.064 2607.82H453.247V2582.18H430.064V2607.82ZM293.919 2471.68C293.919 2546.87 354.873 2607.82 430.064 2607.82V2582.18C369.039 2582.18 319.568 2532.7 319.568 2471.68H293.919ZM293.919 2460.05V2471.68H319.568V2460.05H293.919ZM319.526 2459.02C319.231 2455.39 319.081 2451.72 319.081 2448.01H293.432C293.432 2452.41 293.611 2456.77 293.961 2461.09L319.526 2459.02ZM319.081 2448.01V349.99H293.432V2448.01H319.081ZM319.081 349.99C319.081 346.281 319.231 342.61 319.526 338.983L293.961 336.909C293.611 341.226 293.432 345.589 293.432 349.99H319.081ZM293.919 326.321V337.946H319.568V326.321H293.919Z" fill="#373634" mask="url(#path-5-inside-1_204_4)"/>
<rect x="500.57" y="2622.91" width="15.784" height="17.0894" fill="#373634" fill-opacity="0.95"/>
<rect x="261.838" y="2376.62" width="16.7705" height="14.0736" fill="#373634" fill-opacity="0.95"/>
<rect x="261.838" y="406.311" width="17.757" height="20.1052" fill="#373634" fill-opacity="0.9"/>
<rect x="1427.88" y="2376.62" width="17.757" height="14.0736" fill="#373634" fill-opacity="0.95"/>
<rect x="1427.88" y="407.314" width="17.757" height="19.0999" fill="#373634" fill-opacity="0.9"/>
<rect x="1191.12" y="156" width="18.7434" height="17.0894" fill="#373634" fill-opacity="0.9"/>
<g filter="url(#filter4_iiiiii_204_4)">
<rect x="250" y="1056.45" width="11.838" height="194.015" rx="3.94599" fill="#666560"/>
</g>
<rect x="250.74" y="1057.19" width="10.3582" height="192.535" rx="3.20612" stroke="url(#paint1_linear_204_4)" stroke-width="1.47975"/>
<g filter="url(#filter5_iiiiii_204_4)">
<rect x="250" y="819.209" width="11.838" height="196.026" rx="3.94599" fill="#666560"/>
</g>
<rect x="250.74" y="819.949" width="10.3582" height="194.546" rx="3.20612" stroke="url(#paint2_linear_204_4)" stroke-width="1.47975"/>
<g filter="url(#filter6_iiiiii_204_4)">
<rect x="250" y="636.25" width="11.838" height="105.552" rx="3.94599" fill="#666560"/>
</g>
<rect x="250.74" y="636.99" width="10.3582" height="104.073" rx="3.20612" stroke="url(#paint3_linear_204_4)" stroke-width="1.47975"/>
<g filter="url(#filter7_iiiiii_204_4)">
<rect x="1444.65" y="884.549" width="11.838" height="297.557" rx="3.94599" fill="#666560"/>
</g>
<rect x="1445.39" y="885.289" width="10.3582" height="296.077" rx="3.20612" stroke="url(#paint4_linear_204_4)" stroke-width="1.47975"/>
<rect x="703.726" y="240.426" width="293" height="81.4464" rx="38.6525" fill="#0A0A0A"/>
<circle cx="955.943" cy="281.149" r="40.7232" fill="#0A0A0A"/>
<g opacity="0.7">
<path d="M956.011 304.746C968.494 304.746 978.59 294.438 978.59 281.75C978.59 269.063 968.494 258.755 956.011 258.755C943.527 258.755 933.431 269.063 933.431 281.75C933.431 294.438 943.527 304.746 956.011 304.746Z" fill="url(#paint5_radial_204_4)"/>
<path d="M956.011 304.746C968.494 304.746 978.59 294.438 978.59 281.75C978.59 269.063 968.494 258.755 956.011 258.755C943.527 258.755 933.431 269.063 933.431 281.75C933.431 294.438 943.527 304.746 956.011 304.746Z" fill="url(#paint6_angular_204_4)"/>
<path d="M956.011 304.746C968.494 304.746 978.59 294.438 978.59 281.75C978.59 269.063 968.494 258.755 956.011 258.755C943.527 258.755 933.431 269.063 933.431 281.75C933.431 294.438 943.527 304.746 956.011 304.746Z" fill="url(#paint7_angular_204_4)"/>
<path d="M956.011 304.746C968.494 304.746 978.59 294.438 978.59 281.75C978.59 269.063 968.494 258.755 956.011 258.755C943.527 258.755 933.431 269.063 933.431 281.75C933.431 294.438 943.527 304.746 956.011 304.746Z" stroke="#080F21" stroke-width="1.45676"/>
</g>
<line opacity="0.7" x1="956.011" y1="259.483" x2="956.011" y2="304.018" stroke="black" stroke-width="3.64191"/>
<g filter="url(#filter8_iii_204_4)">
<rect x="770.257" y="180.154" width="173" height="14.1152" rx="7.05758" fill="#141414"/>
</g>
<rect x="770.775" y="180.672" width="171.964" height="13.0795" rx="6.53975" stroke="#0E0E0E" stroke-width="1.03565"/>
</g>
<defs>
<filter id="filter0_dddd_204_4" x="0" y="0" width="1706.49" height="3054" filterUnits="userSpaceOnUse" color-interpolation-filters="sRGB">
<feFlood flood-opacity="0" result="BackgroundImageFix"/>
<feColorMatrix in="SourceAlpha" type="matrix" values="0 0 0 0 0 0 0 0 0 0 0 0 0 0 0 0 0 0 127 0" result="hardAlpha"/>
<feOffset dy="74"/>
<feGaussianBlur stdDeviation="37"/>
<feComposite in2="hardAlpha" operator="out"/>
<feColorMatrix type="matrix" values="0 0 0 0 0 0 0 0 0 0 0 0 0 0 0 0 0 0 0.25 0"/>
<feBlend mode="normal" in2="BackgroundImageFix" result="effect1_dropShadow_204_4"/>
<feColorMatrix in="SourceAlpha" type="matrix" values="0 0 0 0 0 0 0 0 0 0 0 0 0 0 0 0 0 0 127 0" result="hardAlpha"/>
<feOffset dy="164"/>
<feGaussianBlur stdDeviation="125"/>
<feComposite in2="hardAlpha" operator="out"/>
<feColorMatrix type="matrix" values="0 0 0 0 0 0 0 0 0 0 0 0 0 0 0 0 0 0 0.15 0"/>
<feBlend mode="normal" in2="effect1_dropShadow_204_4" result="effect2_dropShadow_204_4"/>
<feColorMatrix in="SourceAlpha" type="matrix" values="0 0 0 0 0 0 0 0 0 0 0 0 0 0 0 0 0 0 127 0" result="hardAlpha"/>
<feOffset dy="-76"/>
<feGaussianBlur stdDeviation="40"/>
<feComposite in2="hardAlpha" operator="out"/>
<feColorMatrix type="matrix" values="0 0 0 0 1 0 0 0 0 1 0 0 0 0 1 0 0 0 0.1 0"/>
<feBlend mode="normal" in2="effect2_dropShadow_204_4" result="effect3_dropShadow_204_4"/>
<feColorMatrix in="SourceAlpha" type="matrix" values="0 0 0 0 0 0 0 0 0 0 0 0 0 0 0 0 0 0 127 0" result="hardAlpha"/>
<feOffset dy="-26"/>
<feGaussianBlur stdDeviation="57"/>
<feComposite in2="hardAlpha" operator="out"/>
<feColorMatrix type="matrix" values="0 0 0 0 0 0 0 0 0 0 0 0 0 0 0 0 0 0 0.1 0"/>
<feBlend mode="normal" in2="effect3_dropShadow_204_4" result="effect4_dropShadow_204_4"/>
<feBlend mode="normal" in="SourceGraphic" in2="effect4_dropShadow_204_4" result="shape"/>
</filter>
<filter id="filter1_i_204_4" x="261.797" y="156" width="1183.96" height="2484" filterUnits="userSpaceOnUse" color-interpolation-filters="sRGB">
<feFlood flood-opacity="0" result="BackgroundImageFix"/>
<feBlend mode="normal" in="SourceGraphic" in2="BackgroundImageFix" result="shape"/>
<feColorMatrix in="SourceAlpha" type="matrix" values="0 0 0 0 0 0 0 0 0 0 0 0 0 0 0 0 0 0 127 0" result="hardAlpha"/>
<feMorphology radius="4.93249" operator="erode" in="SourceAlpha" result="effect1_innerShadow_204_4"/>
<feOffset/>
<feGaussianBlur stdDeviation="0.493249"/>
<feComposite in2="hardAlpha" operator="arithmetic" k2="-1" k3="1"/>
<feColorMatrix type="matrix" values="0 0 0 0 0.278431 0 0 0 0 0.27451 0 0 0 0 0.254902 0 0 0 1 0"/>
<feBlend mode="normal" in2="shape" result="effect1_innerShadow_204_4"/>
</filter>
<filter id="filter2_i_204_4" x="265.014" y="158.185" width="1177.53" height="2479.63" filterUnits="userSpaceOnUse" color-interpolation-filters="sRGB">
<feFlood flood-opacity="0" result="BackgroundImageFix"/>
<feBlend mode="normal" in="SourceGraphic" in2="BackgroundImageFix" result="shape"/>
<feColorMatrix in="SourceAlpha" type="matrix" values="0 0 0 0 0 0 0 0 0 0 0 0 0 0 0 0 0 0 127 0" result="hardAlpha"/>
<feMorphology radius="4.93249" operator="erode" in="SourceAlpha" result="effect1_innerShadow_204_4"/>
<feOffset/>
<feGaussianBlur stdDeviation="0.493249"/>
<feComposite in2="hardAlpha" operator="arithmetic" k2="-1" k3="1"/>
<feColorMatrix type="matrix" values="0 0 0 0 0.686275 0 0 0 0 0.690196 0 0 0 0 0.670588 0 0 0 1 0"/>
<feBlend mode="normal" in2="shape" result="effect1_innerShadow_204_4"/>
</filter>
<filter id="filter3_i_204_4" x="265.014" y="158.185" width="1177.53" height="2479.63" filterUnits="userSpaceOnUse" color-interpolation-filters="sRGB">
<feFlood flood-opacity="0" result="BackgroundImageFix"/>
<feBlend mode="normal" in="SourceGraphic" in2="BackgroundImageFix" result="shape"/>
<feColorMatrix in="SourceAlpha" type="matrix" values="0 0 0 0 0 0 0 0 0 0 0 0 0 0 0 0 0 0 127 0" result="hardAlpha"/>
<feMorphology radius="14.7975" operator="erode" in="SourceAlpha" result="effect1_innerShadow_204_4"/>
<feOffset/>
<feGaussianBlur stdDeviation="0.493249"/>
<feComposite in2="hardAlpha" operator="arithmetic" k2="-1" k3="1"/>
<feColorMatrix type="matrix" values="0 0 0 0 0.141176 0 0 0 0 0.133333 0 0 0 0 0.137255 0 0 0 1 0"/>
<feBlend mode="normal" in2="shape" result="effect1_innerShadow_204_4"/>
</filter>
<filter id="filter4_iiiiii_204_4" x="250" y="1054.47" width="15.7839" height="197.961" filterUnits="userSpaceOnUse" color-interpolation-filters="sRGB">
<feFlood flood-opacity="0" result="BackgroundImageFix"/>
<feBlend mode="normal" in="SourceGraphic" in2="BackgroundImageFix" result="shape"/>
<feColorMatrix in="SourceAlpha" type="matrix" values="0 0 0 0 0 0 0 0 0 0 0 0 0 0 0 0 0 0 127 0" result="hardAlpha"/>
<feOffset dx="3.94599"/>
<feComposite in2="hardAlpha" operator="arithmetic" k2="-1" k3="1"/>
<feColorMatrix type="matrix" values="0 0 0 0 0.572549 0 0 0 0 0.568627 0 0 0 0 0.54902 0 0 0 1 0"/>
<feBlend mode="normal" in2="shape" result="effect1_innerShadow_204_4"/>
<feColorMatrix in="SourceAlpha" type="matrix" values="0 0 0 0 0 0 0 0 0 0 0 0 0 0 0 0 0 0 127 0" result="hardAlpha"/>
<feOffset dx="4.93249"/>
<feGaussianBlur stdDeviation="1.97299"/>
<feComposite in2="hardAlpha" operator="arithmetic" k2="-1" k3="1"/>
<feColorMatrix type="matrix" values="0 0 0 0 0.596078 0 0 0 0 0.592157 0 0 0 0 0.572549 0 0 0 0.6 0"/>
<feBlend mode="normal" in2="effect1_innerShadow_204_4" result="effect2_innerShadow_204_4"/>
<feColorMatrix in="SourceAlpha" type="matrix" values="0 0 0 0 0 0 0 0 0 0 0 0 0 0 0 0 0 0 127 0" result="hardAlpha"/>
<feOffset dy="-7.89198"/>
<feGaussianBlur stdDeviation="0.986497"/>
<feComposite in2="hardAlpha" operator="arithmetic" k2="-1" k3="1"/>
<feColorMatrix type="matrix" values="0 0 0 0 0.156863 0 0 0 0 0.152941 0 0 0 0 0.133333 0 0 0 1 0"/>
<feBlend mode="normal" in2="effect2_innerShadow_204_4" result="effect3_innerShadow_204_4"/>
<feColorMatrix in="SourceAlpha" type="matrix" values="0 0 0 0 0 0 0 0 0 0 0 0 0 0 0 0 0 0 127 0" result="hardAlpha"/>
<feOffset dy="7.89198"/>
<feGaussianBlur stdDeviation="0.986497"/>
<feComposite in2="hardAlpha" operator="arithmetic" k2="-1" k3="1"/>
<feColorMatrix type="matrix" values="0 0 0 0 0.156863 0 0 0 0 0.152941 0 0 0 0 0.133333 0 0 0 1 0"/>
<feBlend mode="normal" in2="effect3_innerShadow_204_4" result="effect4_innerShadow_204_4"/>
<feColorMatrix in="SourceAlpha" type="matrix" values="0 0 0 0 0 0 0 0 0 0 0 0 0 0 0 0 0 0 127 0" result="hardAlpha"/>
<feOffset dy="2.95949"/>
<feComposite in2="hardAlpha" operator="arithmetic" k2="-1" k3="1"/>
<feColorMatrix type="matrix" values="0 0 0 0 0.745098 0 0 0 0 0.741176 0 0 0 0 0.721569 0 0 0 1 0"/>
<feBlend mode="normal" in2="effect4_innerShadow_204_4" result="effect5_innerShadow_204_4"/>
<feColorMatrix in="SourceAlpha" type="matrix" values="0 0 0 0 0 0 0 0 0 0 0 0 0 0 0 0 0 0 127 0" result="hardAlpha"/>
<feOffset dy="-2.95949"/>
<feComposite in2="hardAlpha" operator="arithmetic" k2="-1" k3="1"/>
<feColorMatrix type="matrix" values="0 0 0 0 0.745098 0 0 0 0 0.741176 0 0 0 0 0.721569 0 0 0 1 0"/>
<feBlend mode="normal" in2="effect5_innerShadow_204_4" result="effect6_innerShadow_204_4"/>
</filter>
<filter id="filter5_iiiiii_204_4" x="250" y="817.236" width="15.7839" height="199.971" filterUnits="userSpaceOnUse" color-interpolation-filters="sRGB">
<feFlood flood-opacity="0" result="BackgroundImageFix"/>
<feBlend mode="normal" in="SourceGraphic" in2="BackgroundImageFix" result="shape"/>
<feColorMatrix in="SourceAlpha" type="matrix" values="0 0 0 0 0 0 0 0 0 0 0 0 0 0 0 0 0 0 127 0" result="hardAlpha"/>
<feOffset dx="3.94599"/>
<feComposite in2="hardAlpha" operator="arithmetic" k2="-1" k3="1"/>
<feColorMatrix type="matrix" values="0 0 0 0 0.572549 0 0 0 0 0.568627 0 0 0 0 0.54902 0 0 0 1 0"/>
<feBlend mode="normal" in2="shape" result="effect1_innerShadow_204_4"/>
<feColorMatrix in="SourceAlpha" type="matrix" values="0 0 0 0 0 0 0 0 0 0 0 0 0 0 0 0 0 0 127 0" result="hardAlpha"/>
<feOffset dx="4.93249"/>
<feGaussianBlur stdDeviation="1.97299"/>
<feComposite in2="hardAlpha" operator="arithmetic" k2="-1" k3="1"/>
<feColorMatrix type="matrix" values="0 0 0 0 0.596078 0 0 0 0 0.592157 0 0 0 0 0.572549 0 0 0 0.6 0"/>
<feBlend mode="normal" in2="effect1_innerShadow_204_4" result="effect2_innerShadow_204_4"/>
<feColorMatrix in="SourceAlpha" type="matrix" values="0 0 0 0 0 0 0 0 0 0 0 0 0 0 0 0 0 0 127 0" result="hardAlpha"/>
<feOffset dy="-7.89198"/>
<feGaussianBlur stdDeviation="0.986497"/>
<feComposite in2="hardAlpha" operator="arithmetic" k2="-1" k3="1"/>
<feColorMatrix type="matrix" values="0 0 0 0 0.156863 0 0 0 0 0.152941 0 0 0 0 0.133333 0 0 0 1 0"/>
<feBlend mode="normal" in2="effect2_innerShadow_204_4" result="effect3_innerShadow_204_4"/>
<feColorMatrix in="SourceAlpha" type="matrix" values="0 0 0 0 0 0 0 0 0 0 0 0 0 0 0 0 0 0 127 0" result="hardAlpha"/>
<feOffset dy="7.89198"/>
<feGaussianBlur stdDeviation="0.986497"/>
<feComposite in2="hardAlpha" operator="arithmetic" k2="-1" k3="1"/>
<feColorMatrix type="matrix" values="0 0 0 0 0.156863 0 0 0 0 0.152941 0 0 0 0 0.133333 0 0 0 1 0"/>
<feBlend mode="normal" in2="effect3_innerShadow_204_4" result="effect4_innerShadow_204_4"/>
<feColorMatrix in="SourceAlpha" type="matrix" values="0 0 0 0 0 0 0 0 0 0 0 0 0 0 0 0 0 0 127 0" result="hardAlpha"/>
<feOffset dy="2.95949"/>
<feComposite in2="hardAlpha" operator="arithmetic" k2="-1" k3="1"/>
<feColorMatrix type="matrix" values="0 0 0 0 0.745098 0 0 0 0 0.741176 0 0 0 0 0.721569 0 0 0 1 0"/>
<feBlend mode="normal" in2="effect4_innerShadow_204_4" result="effect5_innerShadow_204_4"/>
<feColorMatrix in="SourceAlpha" type="matrix" values="0 0 0 0 0 0 0 0 0 0 0 0 0 0 0 0 0 0 127 0" result="hardAlpha"/>
<feOffset dy="-2.95949"/>
<feComposite in2="hardAlpha" operator="arithmetic" k2="-1" k3="1"/>
<feColorMatrix type="matrix" values="0 0 0 0 0.745098 0 0 0 0 0.741176 0 0 0 0 0.721569 0 0 0 1 0"/>
<feBlend mode="normal" in2="effect5_innerShadow_204_4" result="effect6_innerShadow_204_4"/>
</filter>
<filter id="filter6_iiiiii_204_4" x="250" y="634.277" width="15.7839" height="109.499" filterUnits="userSpaceOnUse" color-interpolation-filters="sRGB">
<feFlood flood-opacity="0" result="BackgroundImageFix"/>
<feBlend mode="normal" in="SourceGraphic" in2="BackgroundImageFix" result="shape"/>
<feColorMatrix in="SourceAlpha" type="matrix" values="0 0 0 0 0 0 0 0 0 0 0 0 0 0 0 0 0 0 127 0" result="hardAlpha"/>
<feOffset dx="3.94599"/>
<feComposite in2="hardAlpha" operator="arithmetic" k2="-1" k3="1"/>
<feColorMatrix type="matrix" values="0 0 0 0 0.572549 0 0 0 0 0.568627 0 0 0 0 0.54902 0 0 0 1 0"/>
<feBlend mode="normal" in2="shape" result="effect1_innerShadow_204_4"/>
<feColorMatrix in="SourceAlpha" type="matrix" values="0 0 0 0 0 0 0 0 0 0 0 0 0 0 0 0 0 0 127 0" result="hardAlpha"/>
<feOffset dx="4.93249"/>
<feGaussianBlur stdDeviation="1.97299"/>
<feComposite in2="hardAlpha" operator="arithmetic" k2="-1" k3="1"/>
<feColorMatrix type="matrix" values="0 0 0 0 0.596078 0 0 0 0 0.592157 0 0 0 0 0.572549 0 0 0 0.6 0"/>
<feBlend mode="normal" in2="effect1_innerShadow_204_4" result="effect2_innerShadow_204_4"/>
<feColorMatrix in="SourceAlpha" type="matrix" values="0 0 0 0 0 0 0 0 0 0 0 0 0 0 0 0 0 0 127 0" result="hardAlpha"/>
<feOffset dy="-7.89198"/>
<feGaussianBlur stdDeviation="0.986497"/>
<feComposite in2="hardAlpha" operator="arithmetic" k2="-1" k3="1"/>
<feColorMatrix type="matrix" values="0 0 0 0 0.156863 0 0 0 0 0.152941 0 0 0 0 0.133333 0 0 0 1 0"/>
<feBlend mode="normal" in2="effect2_innerShadow_204_4" result="effect3_innerShadow_204_4"/>
<feColorMatrix in="SourceAlpha" type="matrix" values="0 0 0 0 0 0 0 0 0 0 0 0 0 0 0 0 0 0 127 0" result="hardAlpha"/>
<feOffset dy="7.89198"/>
<feGaussianBlur stdDeviation="0.986497"/>
<feComposite in2="hardAlpha" operator="arithmetic" k2="-1" k3="1"/>
<feColorMatrix type="matrix" values="0 0 0 0 0.156863 0 0 0 0 0.152941 0 0 0 0 0.133333 0 0 0 1 0"/>
<feBlend mode="normal" in2="effect3_innerShadow_204_4" result="effect4_innerShadow_204_4"/>
<feColorMatrix in="SourceAlpha" type="matrix" values="0 0 0 0 0 0 0 0 0 0 0 0 0 0 0 0 0 0 127 0" result="hardAlpha"/>
<feOffset dy="2.95949"/>
<feComposite in2="hardAlpha" operator="arithmetic" k2="-1" k3="1"/>
<feColorMatrix type="matrix" values="0 0 0 0 0.745098 0 0 0 0 0.741176 0 0 0 0 0.721569 0 0 0 1 0"/>
<feBlend mode="normal" in2="effect4_innerShadow_204_4" result="effect5_innerShadow_204_4"/>
<feColorMatrix in="SourceAlpha" type="matrix" values="0 0 0 0 0 0 0 0 0 0 0 0 0 0 0 0 0 0 127 0" result="hardAlpha"/>
<feOffset dy="-2.95949"/>
<feComposite in2="hardAlpha" operator="arithmetic" k2="-1" k3="1"/>
<feColorMatrix type="matrix" values="0 0 0 0 0.745098 0 0 0 0 0.741176 0 0 0 0 0.721569 0 0 0 1 0"/>
<feBlend mode="normal" in2="effect5_innerShadow_204_4" result="effect6_innerShadow_204_4"/>
</filter>
<filter id="filter7_iiiiii_204_4" x="1440.7" y="882.576" width="15.7839" height="301.503" filterUnits="userSpaceOnUse" color-interpolation-filters="sRGB">
<feFlood flood-opacity="0" result="BackgroundImageFix"/>
<feBlend mode="normal" in="SourceGraphic" in2="BackgroundImageFix" result="shape"/>
<feColorMatrix in="SourceAlpha" type="matrix" values="0 0 0 0 0 0 0 0 0 0 0 0 0 0 0 0 0 0 127 0" result="hardAlpha"/>
<feOffset dx="-3.94599"/>
<feComposite in2="hardAlpha" operator="arithmetic" k2="-1" k3="1"/>
<feColorMatrix type="matrix" values="0 0 0 0 0.572549 0 0 0 0 0.568627 0 0 0 0 0.54902 0 0 0 1 0"/>
<feBlend mode="normal" in2="shape" result="effect1_innerShadow_204_4"/>
<feColorMatrix in="SourceAlpha" type="matrix" values="0 0 0 0 0 0 0 0 0 0 0 0 0 0 0 0 0 0 127 0" result="hardAlpha"/>
<feOffset dx="-4.93249"/>
<feGaussianBlur stdDeviation="1.97299"/>
<feComposite in2="hardAlpha" operator="arithmetic" k2="-1" k3="1"/>
<feColorMatrix type="matrix" values="0 0 0 0 0.596078 0 0 0 0 0.592157 0 0 0 0 0.572549 0 0 0 0.6 0"/>
<feBlend mode="normal" in2="effect1_innerShadow_204_4" result="effect2_innerShadow_204_4"/>
<feColorMatrix in="SourceAlpha" type="matrix" values="0 0 0 0 0 0 0 0 0 0 0 0 0 0 0 0 0 0 127 0" result="hardAlpha"/>
<feOffset dy="-7.89198"/>
<feGaussianBlur stdDeviation="0.986497"/>
<feComposite in2="hardAlpha" operator="arithmetic" k2="-1" k3="1"/>
<feColorMatrix type="matrix" values="0 0 0 0 0.156863 0 0 0 0 0.152941 0 0 0 0 0.133333 0 0 0 1 0"/>
<feBlend mode="normal" in2="effect2_innerShadow_204_4" result="effect3_innerShadow_204_4"/>
<feColorMatrix in="SourceAlpha" type="matrix" values="0 0 0 0 0 0 0 0 0 0 0 0 0 0 0 0 0 0 127 0" result="hardAlpha"/>
<feOffset dy="7.89198"/>
<feGaussianBlur stdDeviation="0.986497"/>
<feComposite in2="hardAlpha" operator="arithmetic" k2="-1" k3="1"/>
<feColorMatrix type="matrix" values="0 0 0 0 0.156863 0 0 0 0 0.152941 0 0 0 0 0.133333 0 0 0 1 0"/>
<feBlend mode="normal" in2="effect3_innerShadow_204_4" result="effect4_innerShadow_204_4"/>
<feColorMatrix in="SourceAlpha" type="matrix" values="0 0 0 0 0 0 0 0 0 0 0 0 0 0 0 0 0 0 127 0" result="hardAlpha"/>
<feOffset dy="2.95949"/>
<feComposite in2="hardAlpha" operator="arithmetic" k2="-1" k3="1"/>
<feColorMatrix type="matrix" values="0 0 0 0 0.745098 0 0 0 0 0.741176 0 0 0 0 0.721569 0 0 0 1 0"/>
<feBlend mode="normal" in2="effect4_innerShadow_204_4" result="effect5_innerShadow_204_4"/>
<feColorMatrix in="SourceAlpha" type="matrix" values="0 0 0 0 0 0 0 0 0 0 0 0 0 0 0 0 0 0 127 0" result="hardAlpha"/>
<feOffset dy="-2.95949"/>
<feComposite in2="hardAlpha" operator="arithmetic" k2="-1" k3="1"/>
<feColorMatrix type="matrix" values="0 0 0 0 0.745098 0 0 0 0 0.741176 0 0 0 0 0.721569 0 0 0 1 0"/>
<feBlend mode="normal" in2="effect5_innerShadow_204_4" result="effect6_innerShadow_204_4"/>
</filter>
<filter id="filter8_iii_204_4" x="770.257" y="180.154" width="173" height="14.1152" filterUnits="userSpaceOnUse" color-interpolation-filters="sRGB">
<feFlood flood-opacity="0" result="BackgroundImageFix"/>
<feBlend mode="normal" in="SourceGraphic" in2="BackgroundImageFix" result="shape"/>
<feColorMatrix in="SourceAlpha" type="matrix" values="0 0 0 0 0 0 0 0 0 0 0 0 0 0 0 0 0 0 127 0" result="hardAlpha"/>
<feMorphology radius="1.03565" operator="erode" in="SourceAlpha" result="effect1_innerShadow_204_4"/>
<feOffset/>
<feGaussianBlur stdDeviation="2.58913"/>
<feComposite in2="hardAlpha" operator="arithmetic" k2="-1" k3="1"/>
<feColorMatrix type="matrix" values="0 0 0 0 0 0 0 0 0 0 0 0 0 0 0 0 0 0 1 0"/>
<feBlend mode="normal" in2="shape" result="effect1_innerShadow_204_4"/>
<feColorMatrix in="SourceAlpha" type="matrix" values="0 0 0 0 0 0 0 0 0 0 0 0 0 0 0 0 0 0 127 0" result="hardAlpha"/>
<feOffset dx="3.10695"/>
<feComposite in2="hardAlpha" operator="arithmetic" k2="-1" k3="1"/>
<feColorMatrix type="matrix" values="0 0 0 0 0.164706 0 0 0 0 0.164706 0 0 0 0 0.164706 0 0 0 1 0"/>
<feBlend mode="normal" in2="effect1_innerShadow_204_4" result="effect2_innerShadow_204_4"/>
<feColorMatrix in="SourceAlpha" type="matrix" values="0 0 0 0 0 0 0 0 0 0 0 0 0 0 0 0 0 0 127 0" result="hardAlpha"/>
<feOffset dx="-3.10695"/>
<feComposite in2="hardAlpha" operator="arithmetic" k2="-1" k3="1"/>
<feColorMatrix type="matrix" values="0 0 0 0 0.164706 0 0 0 0 0.164706 0 0 0 0 0.164706 0 0 0 1 0"/>
<feBlend mode="normal" in2="effect2_innerShadow_204_4" result="effect3_innerShadow_204_4"/>
</filter>
<linearGradient id="paint0_linear_204_4" x1="853.779" y1="158.185" x2="853.779" y2="2637.81" gradientUnits="userSpaceOnUse">
<stop stop-color="#B5B5B5"/>
<stop offset="1" stop-color="#CDCDC5"/>
</linearGradient>
<linearGradient id="paint1_linear_204_4" x1="243.543" y1="1140.9" x2="268.295" y2="1140.9" gradientUnits="userSpaceOnUse">
<stop stop-color="#7F7E79"/>
<stop offset="0.25" stop-color="#5E5D58"/>
<stop offset="0.5" stop-color="#55544F"/>
<stop offset="0.682292" stop-color="#0F0E0A"/>
<stop offset="0.937329" stop-color="#71706B"/>
</linearGradient>
<linearGradient id="paint2_linear_204_4" x1="243.543" y1="904.538" x2="268.295" y2="904.538" gradientUnits="userSpaceOnUse">
<stop stop-color="#7F7E79"/>
<stop offset="0.25" stop-color="#5E5D58"/>
<stop offset="0.5" stop-color="#55544F"/>
<stop offset="0.682292" stop-color="#0F0E0A"/>
<stop offset="0.937329" stop-color="#71706B"/>
</linearGradient>
<linearGradient id="paint3_linear_204_4" x1="243.543" y1="682.196" x2="268.295" y2="682.196" gradientUnits="userSpaceOnUse">
<stop stop-color="#7F7E79"/>
<stop offset="0.25" stop-color="#5E5D58"/>
<stop offset="0.5" stop-color="#55544F"/>
<stop offset="0.682292" stop-color="#0F0E0A"/>
<stop offset="0.937329" stop-color="#71706B"/>
</linearGradient>
<linearGradient id="paint4_linear_204_4" x1="1438.19" y1="1014.07" x2="1462.94" y2="1014.07" gradientUnits="userSpaceOnUse">
<stop stop-color="#7F7E79"/>
<stop offset="0.234375" stop-color="#0F0E0A"/>
<stop offset="0.5" stop-color="#55544F"/>
<stop offset="0.71875" stop-color="#5E5D58"/>
<stop offset="0.937329" stop-color="#71706B"/>
</linearGradient>
<radialGradient id="paint5_radial_204_4" cx="0" cy="0" r="1" gradientUnits="userSpaceOnUse" gradientTransform="translate(956.011 281.75) rotate(90) scale(22.2671 21.8515)">
<stop offset="0.213542"/>
<stop offset="0.270833" stop-color="#081A32"/>
<stop offset="0.395833" stop-color="#1F3A58"/>
<stop offset="0.515625" stop-color="#375F90"/>
<stop offset="0.713542" stop-color="#274871"/>
<stop offset="0.916667" stop-color="#0D1528"/>
</radialGradient>
<radialGradient id="paint6_angular_204_4" cx="0" cy="0" r="1" gradientUnits="userSpaceOnUse" gradientTransform="translate(956.011 281.75) rotate(90) scale(22.2671 21.8515)">
<stop offset="0.411458" stop-opacity="0"/>
<stop offset="0.510417"/>
<stop offset="0.817708" stop-opacity="0"/>
</radialGradient>
<radialGradient id="paint7_angular_204_4" cx="0" cy="0" r="1" gradientUnits="userSpaceOnUse" gradientTransform="translate(956.011 281.75) rotate(90) scale(22.2671 21.8515)">
<stop/>
<stop offset="0.166667" stop-opacity="0"/>
<stop offset="0.885417" stop-opacity="0"/>
</radialGradient>
</defs>
</svg>
