<svg width="219" height="330" viewBox="0 0 219 330" fill="none" xmlns="http://www.w3.org/2000/svg">
<path fill-rule="evenodd" clip-rule="evenodd" d="M140.592 1.69816C112.085 -6.68185 80.7066 17.4827 62.1088 40.6568C44.614 62.4565 55.057 95.2684 44.6723 121.22C36.2835 142.184 13.8353 154.87 7.70916 176.603C0.632661 201.708 -5.19956 230.67 7.38 253.519C19.9679 276.382 49.9069 281.485 72.5748 294.421C95.1201 307.286 114.77 326.883 140.592 329.535C167.318 332.281 193.805 322.514 217.185 309.277C240.683 295.973 263.203 278.426 274.326 253.82C285.118 229.944 271.79 202.25 277.158 176.603C284.391 142.041 333.767 105.224 311.089 78.1594C286.084 48.3176 231.824 96.0357 196.301 80.1049C166.541 66.7588 171.883 10.8968 140.592 1.69816Z" fill="url(#paint0_linear_653_1283)"/>
<defs>
<linearGradient id="paint0_linear_653_1283" x1="391.707" y1="166.572" x2="-60.9098" y2="166.572" gradientUnits="userSpaceOnUse">
<stop offset="0.31" stop-color="#E6006E"/>
<stop offset="0.685" stop-color="#ED5A4B"/>
<stop offset="1" stop-color="#F4B628"/>
</linearGradient>
</defs>
</svg>
