<svg width="349" height="441" viewBox="0 0 349 441" fill="none" xmlns="http://www.w3.org/2000/svg">
<path fill-rule="evenodd" clip-rule="evenodd" d="M63.8253 -183.946C115.269 -180.171 165.147 -163.328 207.421 -133.77C247.778 -105.552 285.823 -67.96 297.962 -20.235C309.49 25.0865 262.89 68.8335 270.684 114.944C280.968 175.782 354.485 217.942 348.606 279.363C342.832 339.7 296.374 397.04 241.269 422.286C186.429 447.41 124.141 409.051 63.8253 409.832C2.4758 410.627 -69.2458 466.301 -116.294 426.92C-166.661 384.76 -141.803 300.937 -144.667 235.317C-146.46 194.231 -121.191 155.135 -129.91 114.944C-142.262 58.0043 -212.349 17.8171 -204.369 -39.8978C-196.887 -94.0083 -140.599 -129.93 -92.4758 -155.777C-45.0292 -181.261 10.1124 -187.888 63.8253 -183.946Z" fill="url(#paint0_linear_653_1276)"/>
<defs>
<linearGradient id="paint0_linear_653_1276" x1="-335.546" y1="130.979" x2="455.377" y2="130.979" gradientUnits="userSpaceOnUse">
<stop offset="0.31" stop-color="#E6006E"/>
<stop offset="0.685" stop-color="#ED5A4B"/>
<stop offset="1" stop-color="#F4B628"/>
</linearGradient>
</defs>
</svg>
