<svg width="386" height="494" viewBox="0 0 386 494" fill="none" xmlns="http://www.w3.org/2000/svg">
<path fill-rule="evenodd" clip-rule="evenodd" d="M318.552 -128.72C275.82 -116.208 232.735 -102.983 199.487 -73.3666C169.337 -46.5101 163.346 -3.21635 140.378 29.9917C114.819 66.9481 75.8433 92.1343 56.8573 132.86C30.3641 189.689 -20.8652 256.443 9.14343 311.497C38.8603 366.016 130.159 334.983 183.942 366.011C237.698 397.023 258.195 475.557 318.552 489.996C379.385 504.548 442.415 472.491 496.303 440.734C549.915 409.14 605.661 368.853 624.671 309.598C643.235 251.735 595.759 193.625 595.077 132.86C594.405 73.0668 641.756 14.3769 620.725 -41.5996C599.551 -97.954 543.909 -140.602 486.064 -157.28C430.694 -173.244 373.855 -144.914 318.552 -128.72Z" fill="url(#paint0_linear_653_1275)"/>
<defs>
<linearGradient id="paint0_linear_653_1275" x1="777.203" y1="168.926" x2="-120.853" y2="168.926" gradientUnits="userSpaceOnUse">
<stop offset="0.31" stop-color="#E6006E"/>
<stop offset="0.685" stop-color="#ED5A4B"/>
<stop offset="1" stop-color="#F4B628"/>
</linearGradient>
</defs>
</svg>
