<svg width="152" height="315" viewBox="0 0 152 315" fill="none" xmlns="http://www.w3.org/2000/svg">
<path fill-rule="evenodd" clip-rule="evenodd" d="M132.499 24.365C103.191 22.4071 69.1212 -14.165 47.8246 6.09576C23.7011 29.0459 50.3539 71.0953 48.4117 104.362C47.4337 121.114 45.1686 137.289 39.2487 152.986C29.1211 179.841 -7.86881 201.605 1.50911 228.732C10.0512 253.441 52.3895 239.749 74.2075 254.109C98.0658 269.811 104.013 316.829 132.499 314.945C161.925 312.998 167.987 269.664 186.509 246.68C198.179 232.198 207.034 216.114 221.528 204.468C247.034 183.973 294.806 184.663 303.115 152.986C310.5 124.834 269.694 107.174 253.365 83.0948C238.411 61.0429 234.84 28.6251 210.894 16.9895C186.87 5.3162 159.141 26.1448 132.499 24.365Z" fill="url(#paint0_linear_653_1277)"/>
<defs>
<linearGradient id="paint0_linear_653_1277" x1="375.643" y1="159" x2="-58.4119" y2="159" gradientUnits="userSpaceOnUse">
<stop offset="0.31" stop-color="#E6006E"/>
<stop offset="0.685" stop-color="#ED5A4B"/>
<stop offset="1" stop-color="#F4B628"/>
</linearGradient>
</defs>
</svg>
