<svg width="367" height="484" viewBox="0 0 367 484" fill="none" xmlns="http://www.w3.org/2000/svg">
<path fill-rule="evenodd" clip-rule="evenodd" d="M258.122 -154.798C201.295 -143.451 179.661 -73.1231 134.459 -36.864C97.6483 -7.33675 41.8534 -2.01246 17.3635 38.3248C-7.20503 78.7916 0.221145 130.172 4.4173 177.327C8.34323 221.445 21.4612 262.941 40.8933 302.743C61.4321 344.812 76.7032 399.308 120.659 415.419C165.674 431.919 211.178 372.626 258.122 382.366C324.662 396.172 368.425 501.396 433.001 480.227C490.907 461.244 477.828 368.663 484.641 308.107C489.644 263.641 470.218 221.964 467.08 177.327C464.213 136.537 474.857 96.8691 466.972 56.7467C456.604 3.9933 451.785 -54.4278 414.014 -92.6866C374.034 -133.182 313.926 -165.942 258.122 -154.798Z" fill="url(#paint0_linear_653_1279)"/>
<defs>
<linearGradient id="paint0_linear_653_1279" x1="599.867" y1="166.063" x2="-93.2783" y2="166.063" gradientUnits="userSpaceOnUse">
<stop offset="0.31" stop-color="#E6006E"/>
<stop offset="0.685" stop-color="#ED5A4B"/>
<stop offset="1" stop-color="#F4B628"/>
</linearGradient>
</defs>
</svg>
