<svg width="388" height="510" viewBox="0 0 388 510" fill="none" xmlns="http://www.w3.org/2000/svg">
<path fill-rule="evenodd" clip-rule="evenodd" d="M81.5539 -183.975C145.908 -185.851 155.456 -79.7251 207.679 -42.0719C252.302 -9.89784 325.511 -27.4265 359.101 16.1407C392.466 59.4167 394.829 125.046 376.105 176.382C358.173 225.547 280.032 231.553 262.544 280.877C238.568 348.506 312.614 439.649 264.043 492.463C222.016 538.163 143.58 480.429 81.5539 477.683C22.8118 475.082 -52.1642 520.103 -91.8371 476.704C-136.764 427.558 -63.2364 336.808 -98.7285 280.469C-136.673 220.236 -250.631 240.752 -281.032 176.382C-308.276 118.696 -281.847 36.3395 -233.901 -5.74574C-184.031 -49.5207 -98.17 -2.19957 -40.3962 -34.8413C16.4819 -66.977 16.253 -182.072 81.5539 -183.975Z" fill="url(#paint0_linear_653_1280)"/>
<defs>
<linearGradient id="paint0_linear_653_1280" x1="-452.212" y1="166.306" x2="518.443" y2="166.306" gradientUnits="userSpaceOnUse">
<stop offset="0.31" stop-color="#E6006E"/>
<stop offset="0.685" stop-color="#ED5A4B"/>
<stop offset="1" stop-color="#F4B628"/>
</linearGradient>
</defs>
</svg>
