<svg width="254" height="284" viewBox="0 0 254 284" fill="none" xmlns="http://www.w3.org/2000/svg">
<path fill-rule="evenodd" clip-rule="evenodd" d="M174.213 5.28305C149.938 4.967 126.078 -0.956027 102.622 5.29716C74.8103 12.7115 45.5554 22.1914 27.3276 44.4415C8.27067 67.7038 -3.95068 99.5184 1.17049 129.136C6.20346 158.243 33.2927 177.344 53.9613 198.473C70.531 215.412 89.9128 227.639 109.935 240.324C130.809 253.548 150.212 268.749 174.213 274.656C202.411 281.596 233.916 290.334 259.817 277.213C285.789 264.057 292.435 230.82 308.561 206.601C325.874 180.599 368.757 158.603 358.41 129.136C346.278 94.5836 288.299 104.559 263.322 77.7559C246.433 59.6323 263.957 22.781 244.735 7.14738C226.185 -7.93954 198.134 5.59449 174.213 5.28305Z" fill="url(#paint0_linear_653_1290)"/>
<defs>
<linearGradient id="paint0_linear_653_1290" x1="444.841" y1="143.353" x2="-69.172" y2="143.353" gradientUnits="userSpaceOnUse">
<stop offset="0.31" stop-color="#E6006E"/>
<stop offset="0.685" stop-color="#ED5A4B"/>
<stop offset="1" stop-color="#F4B628"/>
</linearGradient>
</defs>
</svg>
